<svg xmlns="http://www.w3.org/2000/svg" xmlns:xlink="http://www.w3.org/1999/xlink" viewBox="0 0 2648.75 1716.57"><defs><clipPath id="ffc1f992-d77b-4201-85c3-a8bd44fde4be" transform="translate(303.9 -206.25)"><path d="M.17,285.52,0,193.06c213.49,0,398.33-9.76,564.74-29.84C713,145.33,834.08,121,951.2,97.41,1189.28,49.52,1435.65,0,1920,0l-.17,44.51.17,0V2049.27H0V285.55Z" style="fill:none"/></clipPath></defs><g id="a4d89985-0e56-404e-8632-a0eff242cf2d" data-name="Layer 2"><g id="ecce6f09-ce17-4226-b232-ad2d3ab1fafe" data-name="BACKGROUND"><g style="clip-path:url(#ffc1f992-d77b-4201-85c3-a8bd44fde4be)"><path d="M2047.41,287.32c.52-12.21,6-57.73,9.81-67.6-76.76-23.33-158.34-13.32-249.78,7-19.92,4.43-50.18,11.79-72.17,20.13,3.7,4.81,7.07,48.51,10.15,59.76,9.44,34.44,18.54,68.32,32,100.77Q1782.31,419,1788,430c13.24-6.83,26.51-13.09,39.46-18.2-3.67,12.26-16.84,47.25-18.51,52.91,30.49,43.7,71.3,78.56,117.57,108.26,46.11,29.59,100,53.61,158.46,69.41,6.79-4.73,53.59-31.48,67.25-37.82-4.55,14.38-8.76,34.61-19.52,48.67,64.75,12,133.63,13.79,202.65,2.05,12.45-27.06,9.87-65.67,7.66-90.72-1.21-13.72-2.6-27.57-4.43-41.31-11.09,5.73-22.47,10.46-32.3,12.13,1.78-10,19.84-46.52,24.92-53.93-6.17-26.81-15.32-52.16-29.74-74-46.3-70.23-111.76-124.67-188.17-164.15C2101.21,252.3,2059.34,285.53,2047.41,287.32Z" transform="translate(303.9 -206.25)" style="fill:#fdbbcb"/><path d="M-109.1,1627c-10.22-6.71-46.52-34.7-53-43.08-59.39,53.94-92.63,129.11-122.06,218-6.41,19.37-15.62,49.12-19.73,72.28,6-.71,45.28,18.8,56.51,21.92,34.41,9.56,68.16,19.12,103,24.17,8.32,1.21,16.57,2,24.77,2.54.92-14.87,2.35-29.47,4.6-43.22,8.65,9.44,31.94,38.7,35.94,43,53.15-3.76,104-20.92,153.23-45.43,49.05-24.41,97.32-58.4,140.84-100.45-.58-8.25.45-62.15,2-77.13,10,11.28,25.22,25.27,31.78,41.72,43.49-49.44,80.35-107.66,105.67-172.93-16.86-24.58-51.32-42.15-74-53.1-12.4-6-25-11.9-37.75-17.38-.76,12.46-2.53,24.66-6.14,34-7.69-6.67-29.77-40.9-33.53-49.05-26.18-8.46-52.63-13.59-78.8-12.43-84,3.74-164.35,32-237.41,77.39C-111.59,1562.81-104.53,1615.8-109.1,1627Z" transform="translate(303.9 -206.25)" style="fill:#00945e"/><path d="M345.76,752.46C182.41,652.26,17.63,537.73-157.12,456.15-194.95,498.54-301.33,731.7-34,877.68,84,942.09,290.62,874.1,345.76,752.46Z" transform="translate(303.9 -206.25)" style="fill:#ff6b00"/><path d="M83.56,848.38c95.64,8.36,170.88-57.7,233.07-113.93-144.73-90-291-189-444.69-264.35C-225.8,650.91-92.56,833,83.56,848.38Z" transform="translate(303.9 -206.25)" style="fill:#ffd600"/><path d="M2102.26,1035.26c-155.35,123.84-325.16,244-466.38,385.55,28,51.84,217.66,237.85,454.34,28.82C2194.66,1357.4,2201.35,1132,2102.26,1035.26Z" transform="translate(303.9 -206.25)" style="fill:#ff6b00"/><path d="M2103.18,1324.7c41.92-90.27,4.09-186.94-28.76-267.41-138.86,109.29-287,216.9-414.69,340.12C1801.47,1556.52,2026,1490.93,2103.18,1324.7Z" transform="translate(303.9 -206.25)" style="fill:#ffd600"/><rect x="1796.01" y="605.17" width="94.52" height="32.59" transform="translate(300.69 -196.64) rotate(-0.3)" style="fill:#fffef9"/><rect x="1902.22" y="592.94" width="94.52" height="32.59" transform="translate(2049.89 -1629.32) rotate(66.93)" style="fill:#fffef9"/><rect x="1833.17" y="697.28" width="94.52" height="32.59" transform="translate(4163.29 148.22) rotate(148.93)" style="fill:#fffef9"/><rect x="1720.62" y="533.2" width="94.52" height="32.59" transform="translate(3869.65 -98.34) rotate(148.93)" style="fill:#fffef9"/><rect x="1980.77" y="664.76" width="94.52" height="32.59" transform="translate(216.13 791.24) rotate(-27.07)" style="fill:#fffef9"/><rect x="2021.95" y="591.8" width="94.52" height="32.59" transform="translate(3614.37 2165.57) rotate(-141.51)" style="fill:#fffef9"/><rect x="1903.77" y="756.76" width="94.52" height="32.59" transform="translate(4352.97 615.47) rotate(159.71)" style="fill:#fffef9"/><rect x="18.2" y="1405.76" width="94.52" height="32.59" transform="translate(1736.14 1613.86) rotate(108.87)" style="fill:#fffef9"/><rect x="-5.13" y="1510.1" width="94.52" height="32.59" transform="translate(491.93 2840.14) rotate(176.1)" style="fill:#fffef9"/><rect x="-81.02" y="1410.61" width="94.52" height="32.59" transform="translate(-1133.08 1481.74) rotate(-101.89)" style="fill:#fffef9"/><rect x="110.93" y="1358.18" width="94.52" height="32.59" transform="translate(-850.26 1606.34) rotate(-101.89)" style="fill:#fffef9"/><rect x="-98.76" y="1560.7" width="94.52" height="32.59" transform="translate(1821.52 1205.06) rotate(82.1)" style="fill:#fffef9"/><rect x="-43.38" y="1623.56" width="94.52" height="32.59" transform="translate(-572.8 50.24) rotate(-32.34)" style="fill:#fffef9"/><rect x="-160.37" y="1457.76" width="94.52" height="32.59" transform="matrix(-0.02, -1, 1, -0.02, -1285.19, 1183.41)" style="fill:#fffef9"/></g></g></g></svg>