<svg id="Layer_1" data-name="Layer 1" xmlns="http://www.w3.org/2000/svg" viewBox="0 0 764 330"><text transform="translate(155.67 56.5) rotate(1.33)" style="font-size:65px;fill:#ff6b00;font-family:HornbillPersonalUse-Bold, Hornbill Personal Use;font-weight:700">A</text><text transform="matrix(1, 0.1, -0.1, 1, 203.83, 57.67)" style="font-size:65px;fill:#ff6b00;font-family:HornbillPersonalUse-Bold, Hornbill Personal Use;font-weight:700">n</text><text transform="translate(240.25 61) rotate(9.96)" style="font-size:65px;fill:#ff6b00;font-family:HornbillPersonalUse-Bold, Hornbill Personal Use;font-weight:700">d</text><text transform="translate(277.48 67.83) rotate(13.25)" style="font-size:65px;fill:#ff6b00;font-family:HornbillPersonalUse-Bold, Hornbill Personal Use;font-weight:700"> </text><text transform="translate(291.32 70.78) rotate(15.8)" style="font-size:65px;fill:#ff6b00;font-family:HornbillPersonalUse-Bold, Hornbill Personal Use;font-weight:700">H</text><text transform="translate(336.09 83.72) rotate(14.56)" style="font-size:65px;fill:#ff6b00;font-family:HornbillPersonalUse-Bold, Hornbill Personal Use;font-weight:700">e</text><text transform="translate(368.55 92.01) rotate(11.66)" style="font-size:65px;fill:#ff6b00;font-family:HornbillPersonalUse-Bold, Hornbill Personal Use;font-weight:700">l</text><text transform="translate(386.1 95.65) rotate(9.32)" style="font-size:65px;fill:#ff6b00;font-family:HornbillPersonalUse-Bold, Hornbill Personal Use;font-weight:700">l</text><text transform="translate(402.93 98.71) rotate(6.07)" style="font-size:65px;fill:#ff6b00;font-family:HornbillPersonalUse-Bold, Hornbill Personal Use;font-weight:700">o</text><text transform="matrix(1, 0.06, -0.06, 1, 439.89, 102.37)" style="font-size:65px;fill:#ff6b00;font-family:HornbillPersonalUse-Bold, Hornbill Personal Use;font-weight:700"> </text><text transform="translate(455.66 103.56) rotate(0.83)" style="font-size:65px;fill:#ff6b00;font-family:HornbillPersonalUse-Bold, Hornbill Personal Use;font-weight:700">T</text><text transform="matrix(1, -0.03, 0.03, 1, 491.27, 104.19)" style="font-size:65px;fill:#ff6b00;font-family:HornbillPersonalUse-Bold, Hornbill Personal Use;font-weight:700">o</text><text transform="translate(525.61 103.2) rotate(-3.71)" style="font-size:65px;fill:#ff6b00;font-family:HornbillPersonalUse-Bold, Hornbill Personal Use;font-weight:700">.</text><text transform="matrix(1, -0.1, 0.1, 1, 542.44, 102.16)" style="font-size:65px;fill:#ff6b00;font-family:HornbillPersonalUse-Bold, Hornbill Personal Use;font-weight:700">.</text><text transform="translate(559.33 100.59) rotate(-7.43)" style="font-size:65px;fill:#ff6b00;font-family:HornbillPersonalUse-Bold, Hornbill Personal Use;font-weight:700">.</text><text transform="translate(62.71 118.34) rotate(-9.84)" style="font-size:13.315899848937988px;fill:#ff6b00;font-family:Goldplay-SemiBold, Goldplay;font-weight:600;letter-spacing:-0.004986989295004065em">4 <tspan x="10.56" y="0" style="font-family:HornbillPersonalUse-Bold, Hornbill Personal Use;font-weight:700;letter-spacing:-0.005060327372871772em">ea</tspan><tspan x="25.29" y="0" style="font-family:HornbillPersonalUse-Bold, Hornbill Personal Use;font-weight:700;letter-spacing:-0.014960967885012196em">s</tspan><tspan x="31.77" y="0" style="font-family:HornbillPersonalUse-Bold, Hornbill Personal Use;font-weight:700;letter-spacing:-0.005060327372871772em">y s</tspan><tspan x="49.08" y="0" style="font-family:HornbillPersonalUse-Bold, Hornbill Personal Use;font-weight:700;letter-spacing:-0.025008284552888033em">t</tspan><tspan x="53.97" y="0" style="font-family:HornbillPersonalUse-Bold, Hornbill Personal Use;font-weight:700">eps </tspan><tspan x="79.22" y="0" style="font-family:HornbillPersonalUse-Bold, Hornbill Personal Use;font-weight:700;letter-spacing:-0.025008284552888033em">t</tspan><tspan x="84.1" y="0" style="font-family:HornbillPersonalUse-Bold, Hornbill Personal Use;font-weight:700">o</tspan><tspan style="font-family:HornbillPersonalUse-Bold, Hornbill Personal Use;font-weight:700"><tspan x="-5.65" y="14.75">enj</tspan><tspan x="14.1" y="14.75" style="letter-spacing:-0.03498226314289617em">o</tspan><tspan x="21.31" y="14.75" style="letter-spacing:-0.005060327372871772em">y c</tspan><tspan x="39.17" y="14.75" style="letter-spacing:-0.024934946475020328em">r</tspan><tspan x="44.98" y="14.75" style="letter-spacing:-0.005060327372871772em">a</tspan><tspan x="52.54" y="14.75" style="letter-spacing:-0.06490419891292055em">f</tspan><tspan x="58.16" y="14.75">tmix :)</tspan></tspan></text><path d="M71.22,142.74c-22.7,0-35.14-5.7-37.11-17.08-1.58-9.12,5.49-16.55,21.61-22.73,14.65-5.62,35.52-9.65,54-12.86l.33,1.87c-37.52,6.51-77.27,15-74.07,33.4,1.44,8.33,9.52,13.36,24,14.95,12.71,1.4,30.37.16,52.48-3.68s39.15-8.61,50.65-14.21c13.1-6.37,19-13.83,17.57-22.16-1.37-7.91-14.67-13.07-37.43-14.53-19.12-1.23-44.4.34-66,4.08l-.32-1.87c21.72-3.76,47.18-5.34,66.43-4.1,16.78,1.08,37.21,4.74,39.18,16.1,2.95,17-20.52,30-69.77,38.56Q88.21,142.74,71.22,142.74Z" style="fill:#ff6b00"/><polygon points="82.18 247.18 30.55 247.18 26.06 183.37 86.67 183.37 82.18 247.18" style="fill:#ffd600"/><path d="M82.18,247.17H30.55L27.44,203a35.46,35.46,0,0,0,15.43-1.23C49,200,56.49,193.94,64.4,193.94c14.28,0,20.89,9,20.89,9Z" style="fill:#ff6b00"/><polygon points="255.06 244.69 204.94 244.69 200.58 182.75 259.41 182.75 255.06 244.69" style="fill:#ff6b00"/><path d="M255.06,244.69H204.93l-3-42.92a34.4,34.4,0,0,0,15-1.2c5.93-1.72,13.22-7.55,20.9-7.55,13.87,0,20.28,8.71,20.28,8.71Z" style="fill:#ffd600"/><polygon points="325.1 244.69 274.97 244.69 270.62 182.75 329.45 182.75 325.1 244.69" style="fill:#ff6b00"/><path d="M325.1,244.69H275l-3-42.92a34.4,34.4,0,0,0,15-1.2c5.93-1.72,13.22-7.55,20.9-7.55,13.87,0,20.28,8.71,20.28,8.71Z" style="fill:#ffd600"/><polygon points="478.89 252.17 432.09 236.42 449 192.84 495.81 208.59 478.89 252.17" style="fill:#ff6b00"/><rect x="448.93" y="182.36" width="54.46" height="10.6" style="fill:#ff6b00"/><rect x="501.93" y="198.65" width="21.71" height="5.27" style="fill:#ffd600"/><polygon points="537.86 202.75 524.84 218.92 520.31 215.76 533.33 199.59 537.86 202.75" style="fill:#ff6b00"/><polygon points="516.87 231.47 501.37 217.3 505.34 213.54 520.83 227.71 516.87 231.47" style="fill:#ff6b00"/><polygon points="518.63 244.66 540.19 246.99 539.54 252.23 517.98 249.9 518.63 244.66" style="fill:#ff6b00"/><polygon points="502.54 238.97 523.59 234 524.98 239.11 503.93 244.08 502.54 238.97" style="fill:#ffd600"/><ellipse cx="537.73" cy="227.41" rx="4.31" ry="4.02" style="fill:#ffd600"/><ellipse cx="500.61" cy="231.43" rx="4.31" ry="4.02" style="fill:#ff6b00"/><ellipse cx="669.19" cy="187.01" rx="13.95" ry="12.98" style="fill:#ff6b00"/><polygon points="695.43 195.14 691.18 193.7 696.62 177.7 713.93 171.9 715.36 176.15 700.15 181.25 695.43 195.14" style="fill:#ff6b00"/><path d="M689.26,242.44c26.81,0,29.87-7.18,29.87-12.58s-5.69-10-5.69-10-9.33-5.89-9.33-16.3,9.33-16.11,9.33-16.11H665.09s9.33,5.7,9.33,16.11-9.33,16.3-9.33,16.3-5.7,4.63-5.7,10S662.45,242.44,689.26,242.44Z" style="fill:#ffd600"/><path d="M708.59,261.77H668.17S689,252.1,689,242.44C689,252.19,708.59,261.77,708.59,261.77Z" style="fill:#ff6b00"/><path d="M665.09,219.82s-5.7,4.63-5.7,10,3.06,12.58,29.87,12.58,29.87-7.18,29.87-12.58-5.69-10-5.69-10-9-5.71-9.31-15.79H674.39C674.08,214.11,665.09,219.82,665.09,219.82Z" style="fill:#ff6b00"/><text transform="translate(19.38 295.1)" style="font-size:16.250059127807617px;fill:#ff6b00;font-family:Goldplay-SemiBold, Goldplay;font-weight:600;letter-spacing:0.04999981806894623em">1 <tspan x="11.31" y="0" style="letter-spacing:0.04597339041195177em">S</tspan><tspan x="21.5" y="0" style="letter-spacing:0.05005991400412526em">h</tspan><tspan x="32.17" y="0" style="letter-spacing:0.040023892829228594em">o</tspan><tspan x="42.82" y="0">t </tspan><tspan x="54.68" y="0" style="letter-spacing:0.04705511724517416em">O</tspan><tspan x="68.15" y="0" style="letter-spacing:0.024038374071608765em">f</tspan><tspan x="10.58" y="18.96">Liquo</tspan><tspan x="57.3" y="18.96" style="letter-spacing:0.024038374071608765em">r</tspan></text><text transform="translate(224.19 295.1)" style="font-size:16.250059127807617px;fill:#ff6b00;font-family:Goldplay-SemiBold, Goldplay;font-weight:600;letter-spacing:0.04999981806894623em">2 <tspan x="14.23" y="0" style="letter-spacing:0.04603348634713079em">S</tspan><tspan x="24.42" y="0">h</tspan><tspan x="35.1" y="0" style="letter-spacing:0.040023892829228594em">o</tspan><tspan x="45.74" y="0" style="letter-spacing:0.05005991400412526em">ts </tspan><tspan x="66.1" y="0" style="letter-spacing:0.04705511724517416em">O</tspan><tspan x="79.58" y="0" style="letter-spacing:0.024038374071608765em">f</tspan><tspan style="letter-spacing:0.0010216308980433727em"><tspan x="18.13" y="18.96">W</tspan><tspan x="33.75" y="18.96" style="letter-spacing:0.042968593653000674em">a</tspan><tspan x="43.58" y="18.96" style="letter-spacing:0.042067154625315344em">t</tspan><tspan x="50.85" y="18.96" style="letter-spacing:0.04999981806894623em">e</tspan><tspan x="61.17" y="18.96" style="letter-spacing:0.024038374071608765em">r</tspan></tspan></text><text transform="translate(440.76 295.1)" style="font-size:16.250059127807617px;fill:#ff6b00;font-family:Goldplay-SemiBold, Goldplay;font-weight:600;letter-spacing:0.04999981806894623em">1 C<tspan x="23.09" y="0" style="letter-spacing:-0.043990224551044045em">r</tspan><tspan x="28.91" y="0" style="letter-spacing:-0.0010216308980433727em">a</tspan><tspan x="38.02" y="0" style="letter-spacing:-0.006009593517902191em">f</tspan><tspan x="44.18" y="0" style="letter-spacing:0.05005991400412526em">tmix</tspan><tspan style="letter-spacing:-0.024999909034473116em"><tspan x="15.11" y="18.96">P</tspan><tspan x="24.81" y="18.96" style="letter-spacing:-0.0370190960702775em">a</tspan><tspan x="33.34" y="18.96" style="letter-spacing:-0.004026427656994468em">c</tspan><tspan x="41.99" y="18.96" style="letter-spacing:-0.03900226193118522em">k</tspan><tspan x="50.21" y="18.96" style="letter-spacing:0.0020432617960867453em">e</tspan><tspan x="59.75" y="18.96" style="letter-spacing:0.04999981806894623em">t</tspan></tspan></text><text transform="translate(643.14 295.1)" style="font-size:16.250059127807617px;fill:#ff6b00;font-family:Goldplay-SemiBold, Goldplay;font-weight:600;letter-spacing:0.04999981806894623em">Se<tspan x="20.57" y="0" style="letter-spacing:0.059014208345799526em">r</tspan><tspan x="28.06" y="0" style="letter-spacing:0.030949406617196286em">v</tspan><tspan x="37.39" y="0">e </tspan><tspan x="52.18" y="0" style="letter-spacing:0.042067154625315344em">O</tspan><tspan x="65.57" y="0" style="letter-spacing:0.030949406617196286em">v</tspan><tspan x="74.9" y="0">e</tspan><tspan x="85.21" y="0" style="letter-spacing:0.024038374071608765em">r</tspan><tspan style="letter-spacing:0.043990224551044045em"><tspan x="1.36" y="18.96">I</tspan><tspan x="6.8" y="18.96" style="letter-spacing:-0.003966331721815447em">c</tspan><tspan x="15.45" y="18.96" style="letter-spacing:0.04999981806894623em">e </tspan><tspan x="30.23" y="18.96" style="letter-spacing:0.020973481377478648em">&amp;</tspan><tspan x="41.49" y="18.96" style="letter-spacing:0.04999981806894623em"> </tspan><tspan x="45.96" y="18.96" style="letter-spacing:0.044050320486223066em">E</tspan><tspan x="56.1" y="18.96" style="letter-spacing:0.04999981806894623em">nj</tspan><tspan x="71.95" y="18.96" style="letter-spacing:0.032031133450418685em">o</tspan><tspan x="82.46" y="18.96" style="letter-spacing:0.04999981806894623em">y!</tspan></tspan></text><path d="M149.69,224.57a77.74,77.74,0,0,1-28.44-5.92l.88-2c.23.1,23.56,10.25,43.06,3.21l.74,2A47.93,47.93,0,0,1,149.69,224.57Z" style="fill:#ff6b00"/><polygon points="161.81 231.67 159.89 230.68 164.78 221.18 154.95 217 155.8 215 167.77 220.1 161.81 231.67" style="fill:#ff6b00"/><path d="M596.61,220.25a84.64,84.64,0,0,1-30.09-5.91l.85-2c.28.12,27.91,11.62,50.58,1.53l.88,2A54.45,54.45,0,0,1,596.61,220.25Z" style="fill:#ff6b00"/><polygon points="614.97 225.63 613.01 224.71 617.56 215.04 607.59 211.21 608.37 209.19 620.51 213.86 614.97 225.63" style="fill:#ff6b00"/><path d="M355.5,220.61a70.33,70.33,0,0,1-9.61-.68l.3-2.15c14.32,2,24.89-.78,31.21-4.84a9,9,0,0,1-2.21-1.13c-4-2.89-3.94-6.6-2.58-9.11A8.52,8.52,0,0,1,383.15,199c2.64,1,3.8,3.53,3,6.59a13.82,13.82,0,0,1-3.85,6.21c7.74.86,20.43-.71,31.56-2.89l.42,2.13a190.24,190.24,0,0,1-19.65,2.83,57.56,57.56,0,0,1-14.48-.21C375,217.59,366.73,220.61,355.5,220.61Zm24.47-20a6.22,6.22,0,0,0-5.45,3.14c-1.2,2.21-.47,4.57,2,6.33a8.88,8.88,0,0,0,3.12,1.29,12.67,12.67,0,0,0,4.48-6.29c.3-1.15.47-3.2-1.69-4A6.87,6.87,0,0,0,380,200.59Z" style="fill:#ff6b00"/><polygon points="405.41 202.54 404.24 204.38 413.26 210.1 406.89 218.68 408.64 219.97 416.39 209.52 405.41 202.54" style="fill:#ff6b00"/><rect x="639.15" y="163.46" width="23.38" height="1.95" style="fill:#fff"/><rect x="649.86" y="153.55" width="1.95" height="21.77" style="fill:#fff"/><rect x="649.86" y="155.51" width="1.95" height="17.84" transform="translate(86.99 528.72) rotate(-47.04)" style="fill:#fff"/><rect x="641.92" y="163.46" width="17.84" height="1.95" transform="translate(62.45 487.59) rotate(-42.96)" style="fill:#fff"/><rect x="723.92" y="225.57" width="23.77" height="1.95" style="fill:#fff"/><rect x="734.83" y="215.47" width="1.95" height="22.13" style="fill:#fff"/><rect x="734.83" y="217.47" width="1.95" height="18.14" transform="translate(68.6 610.68) rotate(-47.04)" style="fill:#fff"/><rect x="726.73" y="225.57" width="18.14" height="1.95" transform="translate(42.91 562.14) rotate(-42.96)" style="fill:#fff"/></svg>