<svg xmlns="http://www.w3.org/2000/svg" viewBox="0 0 34.44 35.17"><defs><style>.cls-1{fill:#ff6b00;}.cls-2{fill:none;stroke:#ff6b00;stroke-miterlimit:10;stroke-width:4px;}.cls-3{fill:#e2f5f7;}</style></defs><g id="Layer_2" data-name="Layer 2"><g id="ART"><rect class="cls-1" y="9.62" width="34.44" height="25.55"/><circle class="cls-2" cx="17.22" cy="9.62" r="7.62"/><path class="cls-3" d="M17.57,15.14a7.29,7.29,0,0,0,.22,14.58A6.68,6.68,0,0,0,24,25.49s0,0,0-.07h0a9,9,0,0,1-3.13,1.17,5.25,5.25,0,0,1-3.21-.37,4.29,4.29,0,0,1-2.18-3.78,5.74,5.74,0,0,1,1-4.15,1.79,1.79,0,0,1,1.35-.64c1,0,1.66.93,1.66,2.25,0,.21,0,.38,0,.53a1.14,1.14,0,0,0,0,.42,4,4,0,0,0,1.69.35,2.31,2.31,0,0,0,1.67-.7,2.57,2.57,0,0,0,.72-1.77C23.5,16.26,20.43,15.14,17.57,15.14Z"/></g></g></svg>