<svg id="Layer_1" data-name="Layer 1" xmlns="http://www.w3.org/2000/svg" viewBox="0 0 546.5 862.34"><path d="M20.52,308.9a13.06,13.06,0,0,1,13.15-13H517.14c9.05,0,16.38,5.08,16.38,11.34V824.1c0,6.27-7.33,11.35-16.38,11.35H33.67a13.06,13.06,0,0,1-13.15-13Z" style="fill:#fff;stroke:#ff5f00"/><path d="M41.2,328.64a5.42,5.42,0,0,0,4-1.67.52.52,0,0,0,.12-.74.34.34,0,0,0-.12-.12l-.57-.48a.58.58,0,0,0-.82,0l-.06.07a3.56,3.56,0,0,1-2.48,1,3.44,3.44,0,0,1,0-6.88,3.56,3.56,0,0,1,2.48,1,.62.62,0,0,0,.86.07l0,0,.57-.5a.52.52,0,0,0,.12-.74.34.34,0,0,0-.12-.12,5.46,5.46,0,0,0-4-1.65,5.4,5.4,0,0,0-.46,10.79h.46Zm9-8.4a5.26,5.26,0,0,0-3,.88.58.58,0,0,0-.24.78l.06.1.15.25a.53.53,0,0,0,.68.3.47.47,0,0,0,.12-.07,3.51,3.51,0,0,1,2-.63c1.1,0,1.77.58,1.77,1.51v.43a5.27,5.27,0,0,0-2.08-.43c-2,0-3.42,1.08-3.42,2.72s1.26,2.57,3.13,2.57a3.77,3.77,0,0,0,2.64-1.1v.27a.59.59,0,0,0,.52.62h.6a.55.55,0,0,0,.61-.49.53.53,0,0,0,0-.13V323.6c.09-2.35-1.51-3.35-3.53-3.35Zm-.27,7c-1,0-1.57-.48-1.57-1.2s.67-1.28,1.68-1.28a4.35,4.35,0,0,1,1.84.46v.59c0,.75-.86,1.44-2,1.44Zm6.57,1.24h.93A.57.57,0,0,0,58,328a.28.28,0,0,0,0-.09V317.63c0-.42-.21-.71-.64-.61l-.88.18c-.4.09-.61.25-.61.62v10a.59.59,0,0,0,.52.62h.09ZM75,320.38a3.06,3.06,0,0,0-1-.14,2.52,2.52,0,0,0-2.15,1.23V321a.55.55,0,0,0-.5-.61h-.71a.56.56,0,0,0-.61.5v7a.59.59,0,0,0,.52.62h1a.58.58,0,0,0,.61-.52.34.34,0,0,0,0-.1V324c0-1.15.59-1.95,1.64-1.95a2.08,2.08,0,0,1,.71.13.47.47,0,0,0,.61-.24.31.31,0,0,0,0-.13l.21-.8a.45.45,0,0,0-.23-.61A.28.28,0,0,0,75,320.38ZM77.57,319a1.38,1.38,0,1,0-1.37-1.39h0A1.38,1.38,0,0,0,77.52,319ZM77,328.44h1a.57.57,0,0,0,.6-.53.28.28,0,0,0,0-.09V321a.54.54,0,0,0-.48-.61H77a.56.56,0,0,0-.61.5v7a.59.59,0,0,0,.52.62Zm5.24-3.52H87.8c.48,0,.65-.2.65-.65a4,4,0,0,0-1.16-2.91,4.25,4.25,0,0,0-6,.24,4.34,4.34,0,0,0-1.13,2.84,4.15,4.15,0,0,0,4.09,4.21h.27a5,5,0,0,0,3.37-1.21.46.46,0,0,0,.1-.65.43.43,0,0,0-.1-.09l-.38-.38c-.26-.28-.48-.23-.77,0a3.28,3.28,0,0,1-2,.72,2.34,2.34,0,0,1-2.44-2.12Zm2.07-3.12a1.92,1.92,0,0,1,1.47.6,2,2,0,0,1,.57,1.21H82.32a2,2,0,0,1,2.05-1.81Zm8.43,6.85c1.87,0,3.15-.93,3.15-2.45s-1.1-2.06-2.45-2.6c-.94-.37-1.65-.58-1.65-1.09s.39-.67,1-.67a2.39,2.39,0,0,1,1.65.62.61.61,0,0,0,.85,0l0,0,.22-.29c.34-.4.26-.65,0-.91a4.06,4.06,0,0,0-2.72-.94c-1.84,0-3,.92-3,2.38s1.39,2,2.71,2.48c.72.29,1.39.51,1.39,1.14,0,.46-.45.76-1.14.76a3.05,3.05,0,0,1-2-.81.56.56,0,0,0-.78-.08.74.74,0,0,0-.12.13l-.27.3a.55.55,0,0,0-.13.76.58.58,0,0,0,.13.14,4.54,4.54,0,0,0,3.17,1.21Z" style="fill:#ff5f00"/><path d="M39.77,384.64c2.21,0,4-1.14,4-3.09,0-2.34-2.09-2.85-3.85-3.44-.91-.31-1.76-.61-1.76-1.39s.67-1.11,1.61-1.11a3.23,3.23,0,0,1,2.21.9.6.6,0,0,0,.84,0l.07-.09.37-.43c.32-.34.19-.66-.11-.92a5,5,0,0,0-3.41-1.23c-2.24,0-3.79,1.23-3.79,3s1.71,2.64,3,3.08,2.58.6,2.58,1.64c0,.72-.72,1.22-1.88,1.22A3.9,3.9,0,0,1,37,381.61c-.32-.31-.64-.23-.93.08l-.37.43c-.32.32-.22.64.06.93A5.5,5.5,0,0,0,39.77,384.64Zm12.31-8.28h-.93a.55.55,0,0,0-.59.5v4.21a1.58,1.58,0,0,1-1.43,1.73h-.22a1.53,1.53,0,0,1-1.58-1.49V377a.55.55,0,0,0-.5-.61h-1a.55.55,0,0,0-.59.5v4.5a3.11,3.11,0,0,0,2.9,3.29h.35a2.78,2.78,0,0,0,2.45-1.26v.43a.57.57,0,0,0,.5.62h.68a.58.58,0,0,0,.62-.53.28.28,0,0,0,0-.09V377a.55.55,0,0,0-.5-.61Zm9.85,0h-.56a.56.56,0,0,0-.61.5v.39a3.7,3.7,0,0,0-2.61-1,3.77,3.77,0,0,0-.38,7.53h.38a3.87,3.87,0,0,0,2.41-.83v1c0,1.36-1,2-2.28,2a3.43,3.43,0,0,1-2.53-1.08.53.53,0,0,0-.74-.09l-.09.09-.31.35a.56.56,0,0,0,0,.85,4.66,4.66,0,0,0,3.66,1.5c2.35,0,4.27-1.23,4.27-3.92v-6.59a.56.56,0,0,0-.37-.69A.64.64,0,0,0,61.93,376.36Zm-3.38,5.78A2.14,2.14,0,1,1,60.68,380v0a2,2,0,0,1-1.86,2.13ZM68,376.25a5.19,5.19,0,0,0-3,.88.58.58,0,0,0-.24.78l.06.1.18.24a.53.53,0,0,0,.68.3.47.47,0,0,0,.12-.07,3.51,3.51,0,0,1,2-.63c1.11,0,1.78.58,1.78,1.51v.43a5.27,5.27,0,0,0-2.08-.43c-2,0-3.43,1.08-3.43,2.72s1.27,2.57,3.14,2.57a3.83,3.83,0,0,0,2.64-1.1v.27a.59.59,0,0,0,.52.62H71a.56.56,0,0,0,.6-.51.45.45,0,0,0,0-.11V379.6C71.58,377.25,70,376.25,68,376.25Zm-.28,7c-.94,0-1.56-.48-1.56-1.2s.67-1.28,1.68-1.28a4.5,4.5,0,0,1,1.84.46v.59a1.93,1.93,0,0,1-2,1.43Zm10.91-6.82a3.06,3.06,0,0,0-1-.14,2.49,2.49,0,0,0-2.14,1.23V377a.55.55,0,0,0-.5-.61.21.21,0,0,0-.11,0h-.61a.56.56,0,0,0-.61.5v7a.59.59,0,0,0,.52.62h1a.57.57,0,0,0,.6-.53.28.28,0,0,0,0-.09v-3.81c0-1.15.59-1.95,1.65-1.95a2.07,2.07,0,0,1,.7.13.47.47,0,0,0,.61-.24.31.31,0,0,0,0-.13l.21-.8a.46.46,0,0,0-.16-.63.54.54,0,0,0-.25-.06Z" style="fill:#ff5f00"/><path d="M41.2,440.64a5.42,5.42,0,0,0,4-1.67.52.52,0,0,0,.12-.74.34.34,0,0,0-.12-.12l-.57-.48a.58.58,0,0,0-.82,0l-.06.07a3.56,3.56,0,0,1-2.48,1,3.44,3.44,0,0,1,0-6.88,3.56,3.56,0,0,1,2.48,1,.62.62,0,0,0,.86.07l0,0,.57-.5a.52.52,0,0,0,.12-.74.34.34,0,0,0-.12-.12,5.46,5.46,0,0,0-4-1.65,5.4,5.4,0,0,0-.46,10.79h.46Zm9-8.4a5.26,5.26,0,0,0-3,.88.58.58,0,0,0-.24.78l.06.1.15.25a.53.53,0,0,0,.68.3.47.47,0,0,0,.12-.07,3.51,3.51,0,0,1,2-.63c1.1,0,1.77.58,1.77,1.51v.43a5.27,5.27,0,0,0-2.08-.43c-2,0-3.42,1.08-3.42,2.72s1.26,2.57,3.13,2.57a3.77,3.77,0,0,0,2.64-1.1v.27a.59.59,0,0,0,.52.62h.6a.55.55,0,0,0,.61-.49.53.53,0,0,0,0-.13V435.6c.09-2.35-1.51-3.35-3.53-3.35Zm-.27,7c-1,0-1.57-.48-1.57-1.2s.67-1.28,1.68-1.28a4.35,4.35,0,0,1,1.84.46v.59c0,.75-.86,1.44-2,1.44Zm10.9-6.82a3.06,3.06,0,0,0-1-.14,2.52,2.52,0,0,0-2.15,1.23V433a.55.55,0,0,0-.5-.61h-.71a.56.56,0,0,0-.61.5v7a.59.59,0,0,0,.52.62h1A.58.58,0,0,0,58,440a.34.34,0,0,0,0-.1v-3.81c0-1.15.59-1.95,1.64-1.95a2.08,2.08,0,0,1,.71.13A.47.47,0,0,0,61,434a.31.31,0,0,0,0-.13l.21-.8a.45.45,0,0,0-.18-.63.35.35,0,0,0-.18-.05Zm6-.14a4,4,0,0,0-2.38.78v-3.39c0-.42-.21-.69-.64-.59l-.88.16c-.4.09-.61.25-.61.62v10a.59.59,0,0,0,.52.62h.65a.57.57,0,0,0,.6-.53.28.28,0,0,0,0-.09v-.4a3.63,3.63,0,0,0,2.75,1.23,4.21,4.21,0,0,0,0-8.41Zm-.32,6.56a2.17,2.17,0,0,1-2.19-2.14v-.22a2.14,2.14,0,0,1,1.91-2.35,1.34,1.34,0,0,1,.28,0,2.36,2.36,0,1,1,0,4.72Zm8.7,1.85c1.88,0,3.16-.93,3.16-2.45s-1.11-2.06-2.45-2.6c-1-.37-1.65-.58-1.65-1.09s.38-.67,1-.67a2.39,2.39,0,0,1,1.65.62.61.61,0,0,0,.85,0l0,0,.22-.29c.34-.4.26-.65,0-.91a4.13,4.13,0,0,0-2.72-.94c-1.84,0-3,.92-3,2.38s1.39,2,2.7,2.48c.72.29,1.39.51,1.39,1.14,0,.46-.44.76-1.13.76a3.1,3.1,0,0,1-2-.81.54.54,0,0,0-.77-.08.77.77,0,0,0-.12.13l-.28.3a.55.55,0,0,0-.13.76.58.58,0,0,0,.13.14,4.53,4.53,0,0,0,3.11,1.17Z" style="fill:#ff5f00"/><path d="M45.79,495.82l-4.39-9.33a.8.8,0,0,0-.76-.54h-.15a.82.82,0,0,0-.75.54l-4.4,9.33c-.19.4,0,.62.42.62h1.16c.42,0,.5-.22.66-.62l.58-1.34h4.73l.56,1.34c.18.4.26.62.66.62h1.25C45.77,496.44,46,496.25,45.79,495.82Zm-7-2.9,1.73-4,1.68,4Zm9,3.52h.93a.56.56,0,0,0,.6-.51.45.45,0,0,0,0-.11V485.63c0-.42-.2-.71-.64-.61l-.88.18c-.4.09-.6.25-.6.62v10a.57.57,0,0,0,.5.62Zm4.3,0H53a.57.57,0,0,0,.6-.53.28.28,0,0,0,0-.09V485.63c0-.42-.21-.71-.64-.61l-.88.18c-.4.09-.61.25-.61.62v10a.59.59,0,0,0,.52.62ZM68,486h-.91a.56.56,0,0,0-.61.5v6.13l-5.15-6.13a1.23,1.23,0,0,0-1-.58h-.13a.65.65,0,0,0-.71.57.41.41,0,0,0,0,.11v9.16a.59.59,0,0,0,.52.64h1a.58.58,0,0,0,.62-.53.41.41,0,0,0,0-.11v-6L66.8,496a1.23,1.23,0,0,0,.94.57h.13a.64.64,0,0,0,.72-.56.2.2,0,0,0,0-.11v-9.18a.56.56,0,0,0-.5-.63Zm6.15,2.2a5.26,5.26,0,0,0-3,.88.57.57,0,0,0-.23.78l.06.1.14.25a.53.53,0,0,0,.68.3.47.47,0,0,0,.12-.07,3.51,3.51,0,0,1,2-.63c1.1,0,1.78.58,1.78,1.51v.43a5.27,5.27,0,0,0-2.08-.43c-2,0-3.43,1.08-3.43,2.72s1.27,2.57,3.14,2.57a3.81,3.81,0,0,0,2.67-1.1v.27a.59.59,0,0,0,.52.62h.6a.56.56,0,0,0,.6-.51.45.45,0,0,0,0-.11V491.6c0-2.35-1.56-3.35-3.58-3.35Zm-.27,7c-.94,0-1.57-.48-1.57-1.2s.68-1.28,1.68-1.28a4.35,4.35,0,0,1,1.84.46v.59c0,.75-.93,1.44-2,1.44Zm11.12.21-.29-.67c-.14-.27-.32-.43-.68-.21a1.58,1.58,0,0,1-.74.24c-.62,0-1.06-.33-1.06-1.23V490H84a.56.56,0,0,0,.62-.5.17.17,0,0,0,0-.1V489a.55.55,0,0,0-.51-.6H82.29v-2.2c0-.42-.2-.71-.64-.61l-.86.17c-.4.08-.61.26-.61.63v2H79.4a.55.55,0,0,0-.62.48.49.49,0,0,0,0,.12v.4a.58.58,0,0,0,.54.6h.87v3.81a2.64,2.64,0,0,0,2.37,2.88,2.48,2.48,0,0,0,.47,0,3.22,3.22,0,0,0,1.79-.51C85,496,85.24,495.79,85,495.45Zm8-7.09H92a.54.54,0,0,0-.59.48v4.23A1.58,1.58,0,0,1,90,494.8h-.22a1.53,1.53,0,0,1-1.59-1.48V489a.54.54,0,0,0-.48-.61h-1a.54.54,0,0,0-.59.48v4.52A3.09,3.09,0,0,0,89,496.64h.36a2.78,2.78,0,0,0,2.45-1.26v.43a.59.59,0,0,0,.52.62H93a.58.58,0,0,0,.61-.52.34.34,0,0,0,0-.1V489a.54.54,0,0,0-.48-.61Zm7.69,0a3.06,3.06,0,0,0-1-.14,2.52,2.52,0,0,0-2.15,1.23V489a.54.54,0,0,0-.48-.61h-.73a.56.56,0,0,0-.61.5v7a.59.59,0,0,0,.52.62h1a.57.57,0,0,0,.6-.53.28.28,0,0,0,0-.09V492c0-1.15.59-1.95,1.65-1.95a2.07,2.07,0,0,1,.7.13.47.47,0,0,0,.61-.24.31.31,0,0,0,0-.13l.21-.8a.45.45,0,0,0-.26-.59.28.28,0,0,0-.13,0Zm4.52-.14a5.26,5.26,0,0,0-3,.88.58.58,0,0,0-.24.78l.06.1.15.25a.53.53,0,0,0,.68.3.47.47,0,0,0,.12-.07,3.52,3.52,0,0,1,2-.63c1.1,0,1.77.58,1.77,1.51v.43a5.27,5.27,0,0,0-2.08-.43c-2,0-3.42,1.08-3.42,2.72s1.26,2.57,3.13,2.57a3.77,3.77,0,0,0,2.64-1.1v.27a.59.59,0,0,0,.52.62h.61a.56.56,0,0,0,.6-.51.45.45,0,0,0,0-.11v-4.22c0-2.33-1.59-3.33-3.61-3.33Zm-.27,7c-1,0-1.57-.48-1.57-1.2s.67-1.28,1.68-1.28a4.35,4.35,0,0,1,1.84.46v.59a1.83,1.83,0,0,1-2,1.46Zm6.57,1.24h.92a.58.58,0,0,0,.61-.52.34.34,0,0,0,0-.1V485.63c0-.42-.21-.71-.64-.61l-.88.18c-.4.09-.61.25-.61.62v10a.59.59,0,0,0,.52.62h.06Z" style="fill:#ff5f00"/><path d="M44.73,542h-.91a.56.56,0,0,0-.61.5v6.13L38,542.54a1.21,1.21,0,0,0-.94-.58H37a.65.65,0,0,0-.71.57.41.41,0,0,0,0,.11v9.16a.58.58,0,0,0,.5.64h1a.58.58,0,0,0,.62-.53.41.41,0,0,0,0-.11v-6L43.59,552a1.27,1.27,0,0,0,1,.57h.13a.65.65,0,0,0,.72-.58.27.27,0,0,0,0-.09v-9.18A.57.57,0,0,0,45,542,.6.6,0,0,0,44.73,542Zm6.7,10.61a4.28,4.28,0,1,0-.26,0Zm0-1.85a2.36,2.36,0,1,1,2.26-2.46v.1a2.23,2.23,0,0,1-2.11,2.35Zm10.36-6.55a3,3,0,0,0-2.56,1.28V545a.55.55,0,0,0-.5-.61H58a.56.56,0,0,0-.61.5v7a.59.59,0,0,0,.52.62h1a.57.57,0,0,0,.6-.53.28.28,0,0,0,0-.09v-4a1.66,1.66,0,0,1,1.56-1.76.61.61,0,0,1,.19,0A1.6,1.6,0,0,1,63,547.6a1.85,1.85,0,0,1,0,.23v4a.57.57,0,0,0,.5.62h1a.56.56,0,0,0,.6-.51.45.45,0,0,0,0-.11v-4.16a3.17,3.17,0,0,0-2.9-3.42Zm14,8.4a6.69,6.69,0,0,0,3.63-1,1,1,0,0,0,.61-.9v-3.5a.56.56,0,0,0-.51-.62H76.09a.54.54,0,0,0-.61.49.49.49,0,0,0,0,.12v.41a.56.56,0,0,0,.49.61H78v1.92a4.08,4.08,0,0,1-2.16.62,3.5,3.5,0,0,1,0-7,3.47,3.47,0,0,1,2,.63.7.7,0,0,0,.94,0l.5-.46a.56.56,0,0,0,.14-.77.44.44,0,0,0-.14-.13,5.48,5.48,0,1,0-3.9,9.62h.46Zm17.69-.82-1.32-9.31a.57.57,0,0,0-.6-.55h-.15a.79.79,0,0,0-.72.55l-3.09,7.1-3.2-7.1c-.16-.35-.36-.55-.7-.55h-.18a.56.56,0,0,0-.61.51v0l-1.35,9.31a.52.52,0,0,0,.36.61.69.69,0,0,0,.2,0H83c.4,0,.59-.22.64-.62l.67-5.66,2.38,5.77a.81.81,0,0,0,.77.59h.13a.83.83,0,0,0,.77-.59l2.36-5.77.69,5.66a.57.57,0,0,0,.63.62h.8c.41,0,.63-.2.57-.63Z" style="fill:#ff5f00"/><path d="M36.89,608.44h.93a.58.58,0,0,0,.62-.53.41.41,0,0,0,0-.11v-3.68h4.78v3.68a.57.57,0,0,0,.5.63h1a.57.57,0,0,0,.63-.52.49.49,0,0,0,0-.12v-9.13a.56.56,0,0,0-.5-.63h-1a.56.56,0,0,0-.61.5v3.79H38.43v-3.66A.56.56,0,0,0,38,598H36.89a.57.57,0,0,0-.62.51v9.25a.58.58,0,0,0,.5.64ZM48.68,599a1.38,1.38,0,1,0-1.38-1.38A1.38,1.38,0,0,0,48.68,599Zm-.46,9.42h.92a.58.58,0,0,0,.61-.52.34.34,0,0,0,0-.1V601a.54.54,0,0,0-.48-.61h-1a.56.56,0,0,0-.61.5v7a.59.59,0,0,0,.52.62ZM59,600.36h-.56a.55.55,0,0,0-.6.49v.4a3.84,3.84,0,1,0-3,6.53h.38a3.9,3.9,0,0,0,2.42-.83v1a2,2,0,0,1-2.29,2,3.43,3.43,0,0,1-2.53-1.08.53.53,0,0,0-.74-.09l-.09.09-.3.35a.55.55,0,0,0-.09.76l.09.09a4.72,4.72,0,0,0,3.66,1.5c2.36,0,4.28-1.23,4.28-3.92v-6.59a.55.55,0,0,0-.36-.69A.53.53,0,0,0,59,600.36Zm-3.37,5.78A2.14,2.14,0,1,1,57.78,604v0a2,2,0,0,1-2,2.13h-.17Zm10.44-5.89a3.07,3.07,0,0,0-2.26.88v-3.49c0-.42-.21-.67-.64-.59l-.86.16c-.41.09-.61.25-.61.62v10a.59.59,0,0,0,.52.62h1a.57.57,0,0,0,.6-.53.28.28,0,0,0,0-.09v-4a1.66,1.66,0,0,1,1.54-1.76.67.67,0,0,1,.2,0,1.6,1.6,0,0,1,1.69,1.53,1.85,1.85,0,0,1,0,.23v4a.59.59,0,0,0,.52.62h1a.57.57,0,0,0,.6-.53.28.28,0,0,0,0-.09v-4.16a3.17,3.17,0,0,0-2.9-3.42Zm9.74,8.2h.93a.58.58,0,0,0,.62-.53.41.41,0,0,0,0-.11V604.2h3.21a.57.57,0,0,0,.64-.5.2.2,0,0,0,0-.11v-.48a.56.56,0,0,0-.51-.62H77.37v-2.64H81.8a.58.58,0,0,0,.64-.52.21.21,0,0,0,0-.11v-.56a.57.57,0,0,0-.52-.62H75.8a.57.57,0,0,0-.63.51.49.49,0,0,0,0,.12v9.13a.58.58,0,0,0,.5.63h.17Zm12.41-8.06a3.06,3.06,0,0,0-1-.14,2.49,2.49,0,0,0-2.14,1.23V601a.55.55,0,0,0-.5-.61h-.72a.56.56,0,0,0-.61.5v7a.59.59,0,0,0,.52.62h1a.57.57,0,0,0,.6-.53.28.28,0,0,0,0-.09V604c0-1.15.59-1.95,1.65-1.95a2.07,2.07,0,0,1,.7.13.47.47,0,0,0,.61-.24.31.31,0,0,0,0-.13l.21-.8a.45.45,0,0,0-.22-.61.33.33,0,0,0-.14,0Zm8.26,0h-.93a.55.55,0,0,0-.59.5v4.21a1.58,1.58,0,0,1-1.43,1.73h-.22a1.53,1.53,0,0,1-1.58-1.49V601a.55.55,0,0,0-.5-.61h-1a.55.55,0,0,0-.59.5v4.5a3.11,3.11,0,0,0,2.9,3.29h.35a2.78,2.78,0,0,0,2.45-1.26v.43a.57.57,0,0,0,.5.62h.68a.58.58,0,0,0,.62-.53.28.28,0,0,0,0-.09V601a.56.56,0,0,0-.47-.64H96.5Zm6.52,8.26a4.27,4.27,0,0,0,3.14-1.25.45.45,0,0,0,.11-.63.52.52,0,0,0-.11-.1l-.56-.56c-.21-.21-.43-.29-.77,0a2.46,2.46,0,0,1-1.75.69,2.37,2.37,0,0,1,0-4.73,2.36,2.36,0,0,1,1.75.68c.34.29.56.21.77,0l.56-.56a.48.48,0,0,0,.1-.66.28.28,0,0,0-.1-.09,4.33,4.33,0,0,0-3.14-1.19,4.21,4.21,0,1,0-.41,8.41H103Zm10.12-1.2-.29-.67c-.15-.27-.32-.43-.69-.21a1.58,1.58,0,0,1-.74.24c-.62,0-1-.33-1-1.23V602h1.77a.57.57,0,0,0,.63-.51.14.14,0,0,0,0-.09V601a.56.56,0,0,0-.51-.61h-1.89v-2.2c0-.42-.21-.71-.64-.61l-.87.17c-.4.08-.61.26-.61.63v2h-.78a.54.54,0,0,0-.61.49.41.41,0,0,0,0,.11v.4a.56.56,0,0,0,.52.6h.88v3.81a2.64,2.64,0,0,0,2.39,2.87,2.06,2.06,0,0,0,.43,0,3,3,0,0,0,1.79-.51c.18-.13.42-.34.25-.68Zm4.87,1.2a4.26,4.26,0,1,0-.26,0H118Zm0-1.85a2.36,2.36,0,1,1,2.25-2.47v.11a2.23,2.23,0,0,1-2.11,2.35H118Zm8.7,1.85c1.88,0,3.16-.93,3.16-2.45s-1.11-2.06-2.45-2.6c-.94-.37-1.65-.58-1.65-1.09s.38-.67,1-.67a2.39,2.39,0,0,1,1.65.62.61.61,0,0,0,.85,0l0,0,.22-.29c.34-.4.26-.65,0-.91a4.08,4.08,0,0,0-2.72-.94c-1.84,0-3,.92-3,2.38s1.39,2,2.7,2.48c.72.29,1.4.51,1.4,1.14,0,.46-.45.76-1.14.76a3.1,3.1,0,0,1-2-.81.54.54,0,0,0-.77-.08.77.77,0,0,0-.12.13l-.28.3a.55.55,0,0,0-.13.76.58.58,0,0,0,.13.14,4.58,4.58,0,0,0,3.14,1.21Zm6.38-3.73h5.54c.48,0,.66-.2.66-.65a4.15,4.15,0,1,0-4.22,4.38h.28a5,5,0,0,0,3.38-1.21.46.46,0,0,0,.08-.66l-.08-.08-.39-.38c-.25-.28-.48-.23-.77,0a3.28,3.28,0,0,1-2,.72,2.35,2.35,0,0,1-2.46-2.12Zm2.07-3.12a1.84,1.84,0,0,1,1.47.6,2.12,2.12,0,0,1,.58,1.21h-4.1a2,2,0,0,1,2.07-1.81Zm-94,27.84a5.42,5.42,0,0,0,4-1.67.52.52,0,0,0,.12-.74.34.34,0,0,0-.12-.12l-.57-.48a.58.58,0,0,0-.82,0l-.06.07a3.56,3.56,0,0,1-2.48,1,3.44,3.44,0,0,1,0-6.88,3.56,3.56,0,0,1,2.48,1,.62.62,0,0,0,.86.07l0,0,.57-.5a.52.52,0,0,0,.12-.74.34.34,0,0,0-.12-.12,5.46,5.46,0,0,0-4-1.65,5.4,5.4,0,0,0-.46,10.79h.46Zm9.44,0a4,4,0,1,0-.27,0h.27Zm0-1.85a2.36,2.36,0,1,1,2.25-2.47v.11a2.23,2.23,0,0,1-2.1,2.36H50.6Zm10.94-6.42a3.06,3.06,0,0,0-1-.14,2.52,2.52,0,0,0-2.15,1.23V622a.55.55,0,0,0-.5-.61h-.71a.56.56,0,0,0-.61.5v7a.59.59,0,0,0,.52.62h1a.58.58,0,0,0,.61-.52.34.34,0,0,0,0-.1V625c0-1.15.59-2,1.64-2a2.08,2.08,0,0,1,.71.13.47.47,0,0,0,.61-.24.31.31,0,0,0,0-.13l.21-.8a.45.45,0,0,0-.24-.61l-.08,0Zm5.85-.14a3,3,0,0,0-2.56,1.28V622a.55.55,0,0,0-.5-.61h-.72a.56.56,0,0,0-.61.5v7a.59.59,0,0,0,.52.62h1a.57.57,0,0,0,.6-.53.28.28,0,0,0,0-.09v-4a1.66,1.66,0,0,1,1.56-1.76h.19a1.6,1.6,0,0,1,1.69,1.53,1.85,1.85,0,0,1,0,.23v4a.57.57,0,0,0,.5.62h1a.56.56,0,0,0,.6-.51.45.45,0,0,0,0-.11v-4.16a3.17,3.17,0,0,0-2.93-3.4h-.32ZM80,629.64c2.21,0,4-1.14,4-3.09,0-2.34-2.1-2.85-3.86-3.44-.91-.31-1.76-.61-1.76-1.39s.67-1.11,1.62-1.11a3.21,3.21,0,0,1,2.2.9.6.6,0,0,0,.85,0,.27.27,0,0,0,.07-.08l.36-.43c.32-.34.2-.66-.11-.92A5,5,0,0,0,80,618.85c-2.24,0-3.79,1.23-3.79,3s1.71,2.64,3,3.08,2.58.6,2.58,1.64c0,.72-.72,1.22-1.87,1.22a3.92,3.92,0,0,1-2.69-1.18c-.32-.31-.64-.23-.93.08l-.37.43c-.32.32-.22.64.07.93A5.45,5.45,0,0,0,80,629.64Zm12.14-8.28h-.83c-.39,0-.59.23-.74.61l-1.9,4.82L86.78,622a.75.75,0,0,0-.75-.61H85c-.38,0-.61.26-.45.61l3.11,6.9-.55,1.2c-.28.64-.62.75-1,.75a1.8,1.8,0,0,1-.56-.11c-.4-.15-.61,0-.7.27l-.18.62a.49.49,0,0,0,.29.63l0,0a2.87,2.87,0,0,0,1.22.25c1.1,0,2-.44,2.72-2L92.64,622a.45.45,0,0,0-.45-.67Zm6.75,0a3.06,3.06,0,0,0-1-.14,2.52,2.52,0,0,0-2.15,1.23V622a.55.55,0,0,0-.5-.61h-.72a.55.55,0,0,0-.6.49v7a.57.57,0,0,0,.5.62h1a.56.56,0,0,0,.6-.51.45.45,0,0,0,0-.11V625c0-1.15.6-2,1.65-2a2.08,2.08,0,0,1,.71.13.47.47,0,0,0,.61-.24.31.31,0,0,0,0-.13l.21-.8a.46.46,0,0,0-.25-.6l-.08,0Zm8.26,0h-.92a.55.55,0,0,0-.6.49v4.22a1.58,1.58,0,0,1-1.43,1.73H104a1.53,1.53,0,0,1-1.59-1.48V622a.55.55,0,0,0-.5-.61h-1a.55.55,0,0,0-.6.49v4.51a3.11,3.11,0,0,0,2.9,3.29h.35a2.78,2.78,0,0,0,2.45-1.26v.43a.59.59,0,0,0,.52.62h.66a.58.58,0,0,0,.62-.53.28.28,0,0,0,0-.09V622a.55.55,0,0,0-.5-.61h-.11Zm7.25-.12a3.93,3.93,0,0,0-2.71,1.07V622a.54.54,0,0,0-.48-.61h-.72a.55.55,0,0,0-.6.49v10a.56.56,0,0,0,.5.6h1a.55.55,0,0,0,.6-.49.45.45,0,0,0,0-.11v-3a3.85,3.85,0,0,0,2.39.8,4.21,4.21,0,0,0,0-8.41Zm-.32,6.56a2.36,2.36,0,1,1,2.36-2.36A2.37,2.37,0,0,1,114.1,627.8Z" style="fill:#ff5f00"/><path d="M45.79,684.82l-4.39-9.33a.8.8,0,0,0-.76-.54h-.15a.82.82,0,0,0-.75.54l-4.4,9.33c-.19.4,0,.62.42.62h1.16c.42,0,.5-.22.66-.62l.58-1.34h4.73l.56,1.34c.18.4.26.62.66.62h1.25C45.77,685.44,46,685.25,45.79,684.82Zm-7-2.9,1.73-4,1.68,4Zm13.3-4.54a3.06,3.06,0,0,0-1-.14A2.51,2.51,0,0,0,49,678.47V678a.55.55,0,0,0-.5-.61H47.8a.56.56,0,0,0-.61.5v7a.59.59,0,0,0,.52.62h1a.57.57,0,0,0,.6-.53.28.28,0,0,0,0-.09V681c0-1.15.59-2,1.65-2a2.07,2.07,0,0,1,.7.13.47.47,0,0,0,.61-.24.31.31,0,0,0,0-.13l.21-.8a.46.46,0,0,0-.3-.58h-.13Zm7,7.07-.29-.67c-.14-.27-.32-.43-.68-.21a1.58,1.58,0,0,1-.74.24c-.62,0-1.06-.33-1.06-1.23V679H58.1a.56.56,0,0,0,.62-.5.17.17,0,0,0,0-.1V678a.55.55,0,0,0-.51-.6H56.32v-2.2c0-.42-.2-.71-.64-.61l-.86.17c-.4.08-.61.26-.61.63v2h-.78a.55.55,0,0,0-.62.48.49.49,0,0,0,0,.12v.4a.58.58,0,0,0,.54.6h.87v3.81a2.64,2.64,0,0,0,2.38,2.88,2.06,2.06,0,0,0,.43,0,3.14,3.14,0,0,0,1.79-.51C59,685,59.27,684.79,59.09,684.45ZM61.3,676a1.38,1.38,0,1,0-1.37-1.39h0A1.39,1.39,0,0,0,61.3,676Zm-.46,9.42h.93a.57.57,0,0,0,.6-.53.28.28,0,0,0,0-.09V678a.54.54,0,0,0-.48-.61h-1a.56.56,0,0,0-.61.5v7a.59.59,0,0,0,.52.62Zm10.89-9A1.37,1.37,0,0,0,73,675a1.35,1.35,0,0,0-1.25-1.25A1.37,1.37,0,0,0,70.25,675a1.38,1.38,0,0,0,1.25,1.48Zm.43.88H67.27V677c0-1,.46-1.44,1.16-1.44a1.4,1.4,0,0,1,.61.14.49.49,0,0,0,.67-.16.58.58,0,0,0,.05-.14l.19-.48c.18-.43,0-.61-.32-.74a3.37,3.37,0,0,0-1.44-.29,2.86,2.86,0,0,0-3,2.72,2.54,2.54,0,0,0,0,.39v.33h-.77a.54.54,0,0,0-.59.48v.52a.55.55,0,0,0,.48.6h.88v5.88a.56.56,0,0,0,.5.6h1a.54.54,0,0,0,.6-.48.24.24,0,0,0,0-.12v-5.88h3.37v5.86a.57.57,0,0,0,.5.62h1a.58.58,0,0,0,.62-.53.28.28,0,0,0,0-.09v-6.86a.53.53,0,0,0-.52-.57.33.33,0,0,0-.14,0Zm6.61,8.29a4.27,4.27,0,0,0,3.14-1.25.45.45,0,0,0,.11-.63.52.52,0,0,0-.11-.1l-.56-.56c-.21-.21-.43-.29-.77,0a2.44,2.44,0,0,1-1.74.69,2.37,2.37,0,1,1,1.74-4c.34.29.56.21.77,0l.56-.56a.48.48,0,0,0,.1-.66.28.28,0,0,0-.1-.09,4.29,4.29,0,0,0-3.14-1.15,4.21,4.21,0,0,0-.41,8.41h.41ZM84.62,676a1,1,0,1,0-.06,0h.06Zm-.47,9.42h.93a.56.56,0,0,0,.6-.51.45.45,0,0,0,0-.11v-6.85a.53.53,0,0,0-.46-.61.28.28,0,0,0-.13,0h-.93a.55.55,0,0,0-.6.49v7a.57.57,0,0,0,.45.65h.15Zm7-8.2a5.26,5.26,0,0,0-3,.88c-.29.17-.41.46-.17.88l.14.25a.53.53,0,0,0,.68.3.47.47,0,0,0,.12-.07,3.51,3.51,0,0,1,2-.63c1.1,0,1.77.58,1.77,1.51v.43a5.27,5.27,0,0,0-2.08-.43c-2,0-3.42,1.08-3.42,2.72s1.26,2.57,3.14,2.57A3.82,3.82,0,0,0,93,684.55v.27a.57.57,0,0,0,.5.62h.62a.56.56,0,0,0,.6-.51.45.45,0,0,0,0-.11V680.6c0-2.35-1.59-3.35-3.61-3.35Zm-.27,7c-.94,0-1.57-.48-1.57-1.2s.67-1.28,1.68-1.28a4.35,4.35,0,0,1,1.84.46v.59a1.87,1.87,0,0,1-2,1.48Zm6.57,1.24h.93a.57.57,0,0,0,.6-.53.28.28,0,0,0,0-.09V674.63c0-.42-.21-.71-.64-.61l-.88.18c-.4.09-.61.25-.61.62v10a.59.59,0,0,0,.52.62h.09Zm12.37.2a5.42,5.42,0,0,0,4-1.67.52.52,0,0,0,.12-.74.34.34,0,0,0-.12-.12l-.58-.48a.56.56,0,0,0-.81-.06s-.05,0-.07.06a3.56,3.56,0,0,1-2.48,1,3.44,3.44,0,0,1,0-6.88,3.48,3.48,0,0,1,2.48,1,.62.62,0,0,0,.86.07l0,0,.58-.5a.52.52,0,0,0,.12-.74.34.34,0,0,0-.12-.12,5.5,5.5,0,1,0-4.46,9.14h.46Zm9.44,0a4.1,4.1,0,1,0-.25,0h.25Zm0-1.85a2.36,2.36,0,1,1,2.25-2.47v.11a2.23,2.23,0,0,1-2.1,2.36h-.15Zm6.61,1.64h.93a.57.57,0,0,0,.6-.53.28.28,0,0,0,0-.09V674.63c0-.42-.21-.71-.64-.61l-.88.18c-.4.09-.61.25-.61.62v10a.59.59,0,0,0,.52.62h.09Zm7.53.21a4.09,4.09,0,1,0-.24,0h.24Zm0-1.85a2.36,2.36,0,1,1,2.26-2.46v.1a2.23,2.23,0,0,1-2.1,2.36h-.16Zm11-6.42a3.06,3.06,0,0,0-1-.14,2.49,2.49,0,0,0-2.14,1.23V678a.55.55,0,0,0-.5-.61H140a.56.56,0,0,0-.61.5v7a.59.59,0,0,0,.52.62h1a.57.57,0,0,0,.6-.53.28.28,0,0,0,0-.09V681c0-1.15.59-2,1.65-2a2.07,2.07,0,0,1,.7.13.47.47,0,0,0,.61-.24.31.31,0,0,0,0-.13l.21-.8a.46.46,0,0,0-.32-.57h0Zm4.06,8.27c1.87,0,3.15-.93,3.15-2.45s-1.11-2.06-2.45-2.6c-.94-.37-1.65-.58-1.65-1.09s.39-.67,1-.67a2.39,2.39,0,0,1,1.65.62.61.61,0,0,0,.85,0l0,0,.22-.29c.34-.4.26-.65,0-.91a4.08,4.08,0,0,0-2.72-.94c-1.84,0-3,.92-3,2.38s1.39,2,2.7,2.48c.72.29,1.4.51,1.4,1.14,0,.46-.45.76-1.14.76a3.1,3.1,0,0,1-2-.81.53.53,0,0,0-.76-.12.49.49,0,0,0-.13.12l-.27.3a.55.55,0,0,0-.13.76.58.58,0,0,0,.13.14,4.56,4.56,0,0,0,3,1.27Z" style="fill:#ff5f00"/><path d="M36.89,741.44h.93a.58.58,0,0,0,.62-.53.41.41,0,0,0,0-.11v-3.61h3.21a.57.57,0,0,0,.64-.5.2.2,0,0,0,0-.11v-.48a.56.56,0,0,0-.51-.62H38.43v-2.64h4.43a.58.58,0,0,0,.64-.52.21.21,0,0,0,0-.11v-.56A.57.57,0,0,0,43,731H36.86a.57.57,0,0,0-.63.51.49.49,0,0,0,0,.12v9.13a.57.57,0,0,0,.49.64ZM45.82,732a1.38,1.38,0,1,0-1.38-1.38A1.38,1.38,0,0,0,45.82,732Zm-.46,9.42h.92a.58.58,0,0,0,.61-.52.34.34,0,0,0,0-.1V734a.54.54,0,0,0-.48-.61h-1a.56.56,0,0,0-.61.5v7a.59.59,0,0,0,.52.62Zm9-1-.29-.67c-.14-.27-.32-.43-.69-.21a1.41,1.41,0,0,1-.73.24c-.63,0-1.06-.33-1.06-1.23V735h1.78a.56.56,0,0,0,.62-.5.17.17,0,0,0,0-.1V734a.55.55,0,0,0-.51-.6H51.59v-2.2c0-.42-.21-.71-.64-.61l-.86.17c-.4.08-.61.26-.61.63v2h-.79a.54.54,0,0,0-.61.49.41.41,0,0,0,0,.11v.4a.56.56,0,0,0,.52.6h.89v3.81a2.64,2.64,0,0,0,2.39,2.87,2,2,0,0,0,.42,0,3.17,3.17,0,0,0,1.8-.51c.2-.12.44-.33.27-.67Zm3.91,1.2c1.87,0,3.15-.93,3.15-2.45s-1.11-2.06-2.45-2.6c-.94-.37-1.65-.58-1.65-1.09s.39-.67,1-.67a2.39,2.39,0,0,1,1.65.62.61.61,0,0,0,.85,0l0,0,.22-.29c.34-.4.26-.65,0-.91a4.08,4.08,0,0,0-2.72-.94c-1.84,0-3,.92-3,2.38s1.39,2,2.7,2.48c.72.29,1.4.51,1.4,1.14,0,.46-.45.76-1.14.76a3.1,3.1,0,0,1-2-.81.53.53,0,0,0-.76-.12.49.49,0,0,0-.13.12l-.27.3a.55.55,0,0,0-.13.76.58.58,0,0,0,.13.14,4.55,4.55,0,0,0,3.12,1.27ZM67.73,732a1.38,1.38,0,1,0-1.38-1.38A1.38,1.38,0,0,0,67.73,732h0Zm-.47,9.42h.93a.57.57,0,0,0,.6-.53.28.28,0,0,0,0-.09V734a.54.54,0,0,0-.48-.61h-1a.56.56,0,0,0-.61.5v7a.59.59,0,0,0,.51.63h.1Zm8-8.2a3,3,0,0,0-2.56,1.28V734a.55.55,0,0,0-.5-.61h-.72a.56.56,0,0,0-.61.5v7a.59.59,0,0,0,.52.62h1a.57.57,0,0,0,.6-.53.28.28,0,0,0,0-.09v-4a1.66,1.66,0,0,1,1.56-1.76h.19a1.6,1.6,0,0,1,1.69,1.53,1.85,1.85,0,0,1,0,.23v4a.57.57,0,0,0,.5.62H78a.56.56,0,0,0,.6-.51.45.45,0,0,0,0-.11v-4.16a3.17,3.17,0,0,0-2.92-3.4h-.4ZM92.18,731h-.94a1,1,0,0,0-.92.61L88,735.75l-2.45-4.1a1,1,0,0,0-.91-.61h-1c-.4,0-.65.23-.43.58l3.7,6v3.2a.58.58,0,0,0,.5.64h1a.58.58,0,0,0,.62-.53.45.45,0,0,0,0-.11v-3.21l3.61-6c.15-.36-.11-.57-.49-.57Zm4.6,10.61a4.21,4.21,0,1,0-4.39-4.21,4.17,4.17,0,0,0,4.12,4.22h.27Zm0-1.85A2.36,2.36,0,1,1,99,737.32v.11a2.23,2.23,0,0,1-2.1,2.36h-.15Zm12.77-6.44h-.93a.55.55,0,0,0-.59.5v4.21a1.58,1.58,0,0,1-1.43,1.73h-.22a1.53,1.53,0,0,1-1.58-1.49V734a.55.55,0,0,0-.5-.61h-1a.55.55,0,0,0-.59.5v4.5a3.1,3.1,0,0,0,2.88,3.29h.37a2.78,2.78,0,0,0,2.45-1.26v.43a.57.57,0,0,0,.5.62h.68a.58.58,0,0,0,.62-.53.28.28,0,0,0,0-.09V734a.55.55,0,0,0-.51-.6h-.1Zm7.69,0a3.06,3.06,0,0,0-1-.14,2.49,2.49,0,0,0-2.14,1.23v-.5a.55.55,0,0,0-.5-.61h-.72a.55.55,0,0,0-.6.49v7a.57.57,0,0,0,.5.62h1a.57.57,0,0,0,.6-.53.28.28,0,0,0,0-.09V737c0-1.15.6-2,1.65-2a1.85,1.85,0,0,1,.7.13.47.47,0,0,0,.61-.24.31.31,0,0,0,0-.13l.21-.8a.45.45,0,0,0-.33-.56ZM36.89,762.44h.93a.58.58,0,0,0,.62-.53.41.41,0,0,0,0-.11v-3.08H40.6c2.56,0,3.94-1.27,3.94-3.33S43.15,752,40.6,752H36.91a.57.57,0,0,0-.63.51.49.49,0,0,0,0,.12v9.13a.58.58,0,0,0,.5.64ZM38.43,757v-3.18H40.7a1.59,1.59,0,1,1,0,3.18H38.43Zm11.35,5.63a4.26,4.26,0,1,0-.26,0Zm0-1.85A2.36,2.36,0,1,1,52,758.32v.12a2.23,2.23,0,0,1-2.11,2.35Zm9.79,1.85a4.27,4.27,0,0,0,3.14-1.25.45.45,0,0,0,.11-.63.52.52,0,0,0-.11-.1l-.56-.56c-.21-.21-.43-.29-.77,0a2.48,2.48,0,0,1-1.74.69,2.37,2.37,0,1,1,1.74-4c.34.29.56.21.77,0l.56-.56a.48.48,0,0,0,.1-.66.28.28,0,0,0-.1-.09,4.33,4.33,0,0,0-3.14-1.19,4.21,4.21,0,0,0-.41,8.41h.41Zm12.13-.83L68.81,758l2.78-3c.29-.35.06-.63-.3-.63H70.1c-.4,0-.61.21-.93.6l-2.72,3.08v-6.41c0-.42-.2-.69-.64-.59l-.86.16c-.4.09-.61.25-.61.62v10a.59.59,0,0,0,.52.62h1a.56.56,0,0,0,.6-.51.45.45,0,0,0,0-.11V760l.77-.83,2,2.7a1,1,0,0,0,.91.59H71.4C71.77,762.44,72,762.17,71.7,761.82Zm2.57-2.9h5.54c.48,0,.65-.2.65-.65a3.92,3.92,0,0,0-3.83-4h-.26a4.08,4.08,0,0,0-4.2,4v.25a4.15,4.15,0,0,0,4.09,4.21h.27a5,5,0,0,0,3.37-1.21.46.46,0,0,0,.1-.65.43.43,0,0,0-.1-.09l-.38-.38c-.26-.28-.48-.23-.77,0a3.28,3.28,0,0,1-2,.72A2.35,2.35,0,0,1,74.27,758.92Zm2.06-3.12a2,2,0,0,1,1.48.6,2,2,0,0,1,.57,1.21H74.29A2,2,0,0,1,76.33,755.8Zm10.9,5.65-.29-.67c-.14-.27-.32-.43-.68-.21a1.58,1.58,0,0,1-.74.24c-.62,0-1.06-.33-1.06-1.23V756h1.78a.56.56,0,0,0,.62-.5.17.17,0,0,0,0-.1V755a.55.55,0,0,0-.51-.6H84.46v-2.2c0-.42-.2-.71-.64-.61l-.86.17c-.4.08-.61.26-.61.63v2h-.78a.55.55,0,0,0-.62.48.49.49,0,0,0,0,.12v.4a.58.58,0,0,0,.54.6h.87v3.81a2.64,2.64,0,0,0,2.39,2.87,2.06,2.06,0,0,0,.43,0,3.14,3.14,0,0,0,1.79-.51C87.17,762,87.41,761.79,87.23,761.45Z" style="fill:#ff5f00"/><path d="M39.15,814.44h.93a.57.57,0,0,0,.63-.52.49.49,0,0,0,0-.12v-8h2.67a.58.58,0,0,0,.65-.51v-.6a.57.57,0,0,0-.52-.62H35.85a.54.54,0,0,0-.61.47.61.61,0,0,0,0,.14v.56a.59.59,0,0,0,.51.63h2.8v8a.58.58,0,0,0,.58.56Zm8.13-8.2a5.26,5.26,0,0,0-3,.88.58.58,0,0,0-.24.78l.06.1.15.25a.53.53,0,0,0,.68.3.47.47,0,0,0,.12-.07,3.51,3.51,0,0,1,2-.63c1.1,0,1.77.58,1.77,1.51v.43a5.27,5.27,0,0,0-2.08-.43c-2.05,0-3.42,1.08-3.42,2.72s1.26,2.57,3.13,2.57a3.78,3.78,0,0,0,2.64-1.1v.27a.59.59,0,0,0,.52.62h.6a.55.55,0,0,0,.61-.49.53.53,0,0,0,0-.13V809.6c.09-2.35-1.51-3.35-3.53-3.35Zm-.26,7c-1,0-1.57-.48-1.57-1.2s.67-1.28,1.68-1.28a4.5,4.5,0,0,1,1.84.46v.59C49,812.56,48,813.25,47,813.25Zm8.71,1.45c1.87,0,3.15-.93,3.15-2.45s-1.1-2.06-2.45-2.6c-.94-.37-1.64-.58-1.64-1.09s.38-.67,1-.67a2.39,2.39,0,0,1,1.65.62.61.61,0,0,0,.85,0l0,0,.23-.29c.33-.4.25-.65,0-.91a4.06,4.06,0,0,0-2.72-.94c-1.84,0-3,.92-3,2.38s1.4,2,2.71,2.48c.72.29,1.39.51,1.39,1.14,0,.46-.45.76-1.14.76a3.1,3.1,0,0,1-2-.81.56.56,0,0,0-.78-.12l-.12.12-.27.3a.55.55,0,0,0-.13.76.58.58,0,0,0,.13.14,4.59,4.59,0,0,0,3.1,1.21Zm10.06-1.2-.29-.67c-.14-.27-.32-.43-.69-.21a1.41,1.41,0,0,1-.73.24c-.63,0-1.06-.33-1.06-1.23V808H64.8a.56.56,0,0,0,.62-.5.17.17,0,0,0,0-.1V807a.55.55,0,0,0-.51-.6H63v-2.2c0-.42-.21-.71-.64-.61l-.86.17c-.4.08-.61.26-.61.63v2h-.79a.55.55,0,0,0-.62.48.49.49,0,0,0,0,.12v.4a.58.58,0,0,0,.54.6h.87v3.81a2.64,2.64,0,0,0,2.39,2.87,2.06,2.06,0,0,0,.43,0,3.14,3.14,0,0,0,1.79-.51c.21-.18.45-.39.27-.73Zm2.6-2.53h5.53c.48,0,.65-.2.65-.65a3.92,3.92,0,0,0-3.83-4h-.26a4.08,4.08,0,0,0-4.2,3.95v.25a4.15,4.15,0,0,0,4.09,4.21h.27A5.05,5.05,0,0,0,74,813.44a.46.46,0,0,0,.1-.65.43.43,0,0,0-.1-.09l-.38-.38c-.26-.28-.48-.23-.77,0a3.28,3.28,0,0,1-2,.72,2.34,2.34,0,0,1-2.49-2.12Zm2.06-3.12a2,2,0,0,1,1.48.6,2,2,0,0,1,.57,1.21H68.4a2,2,0,0,1,2-1.86Zm8.44,6.85c1.87,0,3.15-.93,3.15-2.45s-1.11-2.06-2.45-2.6c-.94-.37-1.65-.58-1.65-1.09s.39-.67,1-.67a2.39,2.39,0,0,1,1.65.62.61.61,0,0,0,.85,0l0,0,.22-.29c.34-.4.26-.65,0-.91a4.08,4.08,0,0,0-2.72-.94c-1.84,0-3,.92-3,2.38s1.39,2,2.7,2.48c.72.29,1.4.51,1.4,1.14,0,.46-.45.76-1.14.76a3.1,3.1,0,0,1-2-.81.53.53,0,0,0-.76-.12.49.49,0,0,0-.13.12l-.27.3a.55.55,0,0,0-.13.76.58.58,0,0,0,.13.14,4.55,4.55,0,0,0,3.11,1.21Zm17.63-.83-4.39-9.33a.82.82,0,0,0-.77-.54h-.14a.82.82,0,0,0-.75.54L86,813.82c-.19.4,0,.62.41.62H87.6c.42,0,.5-.22.66-.62l.57-1.34h4.74l.56,1.34c.18.4.26.62.66.62H96c.45,0,.64-.19.47-.62Zm-7-2.9,1.72-4,1.68,4Zm18-4.68a3.29,3.29,0,0,0-2.73,1.29,3.24,3.24,0,0,0-5.17,0V807a.55.55,0,0,0-.5-.61H98.4a.56.56,0,0,0-.61.5v7a.59.59,0,0,0,.52.62h1a.57.57,0,0,0,.6-.53.28.28,0,0,0,0-.09v-4a1.65,1.65,0,0,1,1.52-1.76h.19a1.56,1.56,0,0,1,1.62,1.5,1.14,1.14,0,0,1,0,.26v4a.59.59,0,0,0,.52.62h1a.57.57,0,0,0,.6-.53.28.28,0,0,0,0-.09v-4a1.65,1.65,0,0,1,1.52-1.76h.19a1.56,1.56,0,0,1,1.62,1.5,1.14,1.14,0,0,1,0,.26v4a.57.57,0,0,0,.5.62h1a.58.58,0,0,0,.62-.53.28.28,0,0,0,0-.09v-4.16a3.16,3.16,0,0,0-2.84-3.45h-.36Zm8.65,0a5.26,5.26,0,0,0-3,.88.58.58,0,0,0-.24.78l.06.1.15.25a.53.53,0,0,0,.68.3.47.47,0,0,0,.12-.07,3.51,3.51,0,0,1,2-.63c1.11,0,1.78.58,1.78,1.51v.43a5.27,5.27,0,0,0-2.08-.43c-2,0-3.42,1.08-3.42,2.72s1.26,2.57,3.13,2.57a3.78,3.78,0,0,0,2.64-1.1v.27a.59.59,0,0,0,.52.62h.6a.55.55,0,0,0,.6-.48.61.61,0,0,0,0-.14v-4.22c.16-2.4-1.44-3.4-3.45-3.4Zm-.27,7c-1,0-1.57-.48-1.57-1.2s.67-1.28,1.68-1.28a4.5,4.5,0,0,1,1.84.46v.59c.08.7-.83,1.39-1.83,1.39Zm6,1.24h5.74a.55.55,0,0,0,.61-.49.21.21,0,0,0,0-.11v-.39a.54.54,0,0,0-.5-.59h-3.83l3.57-4.37c.35-.4.56-.64.56-1V807a.56.56,0,0,0-.52-.61H122a.54.54,0,0,0-.61.49.41.41,0,0,0,0,.11v.38a.57.57,0,0,0,.51.61h3.6l-3.68,4.38c-.37.4-.56.61-.56.93v.56a.58.58,0,0,0,.59.57h.08Zm8.88-9.42a1,1,0,1,1,0-.09Zm-.46,9.42h.92a.58.58,0,0,0,.61-.52.34.34,0,0,0,0-.1v-6.85a.54.54,0,0,0-.48-.61h-1a.56.56,0,0,0-.61.5v7a.57.57,0,0,0,.61.53h0Zm8-8.2a3,3,0,0,0-2.56,1.28v-.55a.55.55,0,0,0-.5-.61h-.71a.56.56,0,0,0-.61.5v7a.59.59,0,0,0,.52.62h1a.58.58,0,0,0,.61-.52.34.34,0,0,0,0-.1v-4a1.66,1.66,0,0,1,1.54-1.76h.2a1.6,1.6,0,0,1,1.69,1.53,1.85,1.85,0,0,1,0,.23v4a.59.59,0,0,0,.52.62h1a.57.57,0,0,0,.6-.53.28.28,0,0,0,0-.09v-4.16a3.18,3.18,0,0,0-2.82-3.49,3,3,0,0,0-.42,0Zm12.47.12h-.56a.56.56,0,0,0-.61.5v.3a3.81,3.81,0,1,0-2.62,6.54,3.9,3.9,0,0,0,2.42-.83v1a2,2,0,0,1-2.29,2,3.43,3.43,0,0,1-2.53-1.08.53.53,0,0,0-.74-.09l-.09.09-.3.35a.56.56,0,0,0,0,.85,4.72,4.72,0,0,0,3.66,1.5c2.36,0,4.28-1.23,4.28-3.92v-6.59a.55.55,0,0,0-.36-.69.44.44,0,0,0-.2,0Zm-3.37,5.78a2.14,2.14,0,1,1,2.13-2.15v0a2,2,0,0,1-2.05,2h0Z" style="fill:#ff5f00"/><line x1="173.52" y1="295.45" x2="173.52" y2="835.45" style="fill:none;stroke:#ff5f00"/><line x1="20.02" y1="349.95" x2="534.02" y2="349.95" style="fill:none;stroke:#ff5f00"/><line x1="20.02" y1="408.95" x2="534.02" y2="408.95" style="fill:none;stroke:#ff5f00"/><line x1="20.02" y1="460.95" x2="534.02" y2="460.95" style="fill:none;stroke:#ff5f00"/><line x1="20.52" y1="516.95" x2="533.52" y2="516.95" style="fill:none;stroke:#ff5f00;stroke-linecap:round"/><line x1="20.52" y1="573.95" x2="533.52" y2="573.95" style="fill:none;stroke:#ff5f00;stroke-linecap:round"/><line x1="20.52" y1="648.95" x2="533.52" y2="648.95" style="fill:none;stroke:#ff5f00;stroke-linecap:round"/><line x1="20.52" y1="708.95" x2="533.52" y2="708.95" style="fill:none;stroke:#ff5f00;stroke-linecap:round"/><line x1="20.52" y1="780.95" x2="533.52" y2="780.95" style="fill:none;stroke:#ff5f00;stroke-linecap:round"/><path d="M269.27,326.46h-4.61a33.71,33.71,0,0,0,3.09-3c1.14-1.29,1.73-2.27,1.73-3.47,0-2.09-1.56-3.51-3.88-3.51a5.36,5.36,0,0,0-4,1.67.69.69,0,0,0-.12,1l0,0,.34.39a.62.62,0,0,0,.84.22.73.73,0,0,0,.16-.14,3.52,3.52,0,0,1,2.48-1.23,1.63,1.63,0,0,1,1.8,1.45,1.47,1.47,0,0,1,0,.21c0,.93-.75,1.8-2,3.08-1,1-2.2,2.16-3.22,3.09a1.13,1.13,0,0,0-.45.94v.5a.64.64,0,0,0,.56.7h7.27a.63.63,0,0,0,.7-.55.38.38,0,0,0,0-.15v-.59a.62.62,0,0,0-.64-.62Zm6.78-5.9a5.14,5.14,0,0,0-2.11.43l.36-2.25h4.52a.63.63,0,0,0,.69-.55.76.76,0,0,0,0-.15v-.61a.61.61,0,0,0-.54-.69h-5.74c-.47,0-.63.27-.7.69l-.74,4.52c-.09.5-.11.86.38,1.08l.45.19a1,1,0,0,0,1-.1,3,3,0,0,1,1.94-.67,2.13,2.13,0,0,1,2.37,1.88,1.13,1.13,0,0,1,0,.26,2.17,2.17,0,0,1-2.23,2.14h-.19a4.1,4.1,0,0,1-2.68-1.14.58.58,0,0,0-.81-.12l-.12.12-.49.48c-.32.33-.2.65.15,1a6,6,0,0,0,4.12,1.6c2.77,0,4.68-1.69,4.68-4.11s-1.74-4-4.34-4Z" style="fill:#00945e"/><path d="M432.74,326.46h-4.61a35.15,35.15,0,0,0,3.1-3c1.13-1.29,1.73-2.27,1.73-3.47,0-2.09-1.57-3.51-3.89-3.51a5.33,5.33,0,0,0-4,1.67.69.69,0,0,0-.13,1l0,0,.34.39a.62.62,0,0,0,.84.22.73.73,0,0,0,.16-.14,3.51,3.51,0,0,1,2.49-1.23,1.63,1.63,0,0,1,1.8,1.45,1.47,1.47,0,0,1,0,.21c0,.93-.76,1.8-2,3.08-1,1-2.19,2.16-3.22,3.09a1.13,1.13,0,0,0-.45.94v.5a.64.64,0,0,0,.56.7h7.27a.63.63,0,0,0,.7-.55.38.38,0,0,0,0-.15v-.59a.62.62,0,0,0-.64-.62Zm10.37-2.21h-1v-6.8a.64.64,0,0,0-.56-.71h-.63a1.24,1.24,0,0,0-1.13.63l-5.2,6.43a1.29,1.29,0,0,0-.4,1v.45a.61.61,0,0,0,.51.68h5.07v1.82a.63.63,0,0,0,.58.68h1.12a.61.61,0,0,0,.68-.53.38.38,0,0,0,0-.15v-1.82h1a.62.62,0,0,0,.7-.53.38.38,0,0,0,0-.15v-.38a.61.61,0,0,0-.58-.64Zm-6.46,0,3.15-4v4ZM455,322.59c0-3.63-2-6.06-5-6.06s-5,2.43-5,6.06,2,6.07,5,6.07S455,326.25,455,322.59Zm-7.54,0c0-2.43,1-4,2.58-4s2.57,1.62,2.57,4-1,4-2.57,4-2.54-1.58-2.54-4Z" style="fill:#f50000"/><path d="M265.7,376.56a5.14,5.14,0,0,0-2.11.43l.36-2.25h4.52a.63.63,0,0,0,.69-.55.76.76,0,0,0,0-.15v-.61a.61.61,0,0,0-.54-.69h-5.74c-.47,0-.63.27-.7.69l-.74,4.52c-.09.5-.11.86.38,1.08l.45.19a1,1,0,0,0,1-.1,3,3,0,0,1,1.94-.67,2.13,2.13,0,0,1,2.36,1.89,1.07,1.07,0,0,1,0,.25,2.18,2.18,0,0,1-2.23,2.14h-.18a4.1,4.1,0,0,1-2.68-1.14.59.59,0,0,0-.82-.12,1.36,1.36,0,0,0-.12.12l-.48.48c-.33.33-.2.65.14,1a6,6,0,0,0,4.12,1.6c2.78,0,4.69-1.69,4.69-4.11S268.27,376.56,265.7,376.56Zm14.18-1.21h-.63a.63.63,0,0,0-.68.57v.41a4.17,4.17,0,0,0-2.93-1.12,4.24,4.24,0,1,0,0,8.48h0a4.38,4.38,0,0,0,2.72-.94v1.08c0,1.53-1.19,2.23-2.58,2.23a3.79,3.79,0,0,1-2.84-1.22.59.59,0,0,0-.85-.08l-.09.08-.34.4a.59.59,0,0,0-.1.84.52.52,0,0,0,.1.11,5.31,5.31,0,0,0,4.12,1.69c2.65,0,4.81-1.38,4.81-4.41v-7.41a.61.61,0,0,0-.51-.71.67.67,0,0,0-.2,0Zm-3.79,6.5a2.4,2.4,0,1,1,0-4.8,2.39,2.39,0,0,1,2.41,2.39v0a2.31,2.31,0,0,1-2.22,2.39Z" style="fill:#00945e"/><path d="M265.59,440.66c2.64,0,4.59-1.66,4.59-4.05a3.83,3.83,0,0,0-3.73-3.93h-.27a3.36,3.36,0,0,0-2.07.64h0a37.53,37.53,0,0,1,2.77-3.13c.56-.49.33-.85.08-1.08l-.51-.47a.82.82,0,0,0-1.16.12l0,0c-2.37,2.52-4.24,4.8-4.23,7.57S263,440.66,265.59,440.66Zm0-1.82a2.09,2.09,0,0,1-2.17-2,.49.49,0,0,1,0-.12,2.2,2.2,0,0,1,2.34-2,2.18,2.18,0,0,1,2,2,2.09,2.09,0,0,1-2.07,2.12h-.12Zm14.22-7.49h-.63a.63.63,0,0,0-.68.57v.41a4.26,4.26,0,1,0-2.94,7.36,4.27,4.27,0,0,0,2.71-.94v1.08c0,1.53-1.18,2.23-2.57,2.23a3.79,3.79,0,0,1-2.84-1.22.59.59,0,0,0-.85-.08l-.09.08-.34.4a.59.59,0,0,0-.1.84.52.52,0,0,0,.1.11,5.31,5.31,0,0,0,4.12,1.69c2.65,0,4.81-1.38,4.81-4.41v-7.41a.62.62,0,0,0-.51-.71.49.49,0,0,0-.17,0Zm-3.8,6.5a2.4,2.4,0,1,1,2.4-2.4h0a2.29,2.29,0,0,1-2.2,2.39H276Z" style="fill:#00945e"/><path d="M430.87,376.56a5.14,5.14,0,0,0-2.11.43l.37-2.25h4.51a.65.65,0,0,0,.7-.57.57.57,0,0,0,0-.13v-.61a.62.62,0,0,0-.56-.69H428c-.46,0-.63.27-.7.69l-.74,4.52c-.09.5-.1.86.38,1.08l.45.19a1,1,0,0,0,1-.1,3,3,0,0,1,1.94-.67,2.13,2.13,0,0,1,2.37,1.88,1.13,1.13,0,0,1,0,.26,2.18,2.18,0,0,1-2.23,2.14h-.18a4,4,0,0,1-2.68-1.14.59.59,0,0,0-.82-.12l-.12.12-.49.48c-.32.33-.19.65.15,1a6,6,0,0,0,4.12,1.6c2.77,0,4.68-1.69,4.68-4.11S433.44,376.56,430.87,376.56Zm12.75,1.37a2.47,2.47,0,0,0,1.38-2.29c0-1.83-1.6-3.11-3.83-3.11s-3.83,1.28-3.83,3.11a2.63,2.63,0,0,0,1.38,2.31,3.25,3.25,0,0,0-2.19,3c0,2.16,2,3.69,4.64,3.69s4.64-1.53,4.64-3.69A3.23,3.23,0,0,0,443.62,377.93Zm-2.45-3.62a1.47,1.47,0,0,1,1.58,1.35v.07a1.58,1.58,0,1,1-3.16,0h0a1.49,1.49,0,0,1,1.52-1.43Zm0,8.51a2,2,0,0,1-2.21-1.76,1.94,1.94,0,0,1,0-.24,2.24,2.24,0,0,1,4.46,0,2,2,0,0,1-2,2Zm14.54-7.47h-.63a.63.63,0,0,0-.68.57v.41a4.26,4.26,0,1,0-2.94,7.36h0a4.32,4.32,0,0,0,2.72-.94v1.08c0,1.53-1.19,2.23-2.57,2.23a3.79,3.79,0,0,1-2.84-1.22.59.59,0,0,0-.85-.08l-.09.08-.34.4a.59.59,0,0,0-.1.84.52.52,0,0,0,.1.11,5.31,5.31,0,0,0,4.12,1.69c2.65,0,4.81-1.38,4.81-4.41v-7.41a.61.61,0,0,0-.51-.71.67.67,0,0,0-.2,0Zm-3.8,6.5a2.4,2.4,0,1,1,2.4-2.4h0a2.29,2.29,0,0,1-2.2,2.39Z" style="fill:#f50000"/><path d="M430.35,440.66c2.65,0,4.59-1.66,4.59-4.05a3.83,3.83,0,0,0-3.73-3.93h-.27a3.36,3.36,0,0,0-2.07.64h0a37.53,37.53,0,0,1,2.77-3.13c.56-.49.33-.85.08-1.08l-.51-.47a.81.81,0,0,0-1.15.11l0,0c-2.38,2.52-4.25,4.8-4.24,7.57S427.72,440.66,430.35,440.66Zm0-1.82a2.1,2.1,0,0,1-2.17-2,.34.34,0,0,1,0-.1,2.2,2.2,0,0,1,2.34-2,2.18,2.18,0,0,1,2,2,2.09,2.09,0,0,1-2.07,2.12h-.12Zm15.72-4.25c0-3.63-2-6.06-5-6.06s-5,2.43-5,6.06,2,6.07,5,6.07,5-2.41,5-6.07Zm-7.55,0c0-2.43,1.05-4,2.58-4s2.57,1.62,2.57,4-1,4-2.57,4-2.56-1.58-2.56-4Zm17.53-3.24h-.63a.63.63,0,0,0-.68.57v.41a4.19,4.19,0,0,0-2.92-1.08,4.24,4.24,0,1,0,2.71,7.54v1.08c0,1.53-1.18,2.23-2.57,2.23a3.85,3.85,0,0,1-2.85-1.22.59.59,0,0,0-.84-.09l-.09.09-.34.4a.59.59,0,0,0-.1.84.52.52,0,0,0,.1.11,5.31,5.31,0,0,0,4.12,1.69c2.65,0,4.81-1.38,4.81-4.41V432.1a.61.61,0,0,0-.46-.74.65.65,0,0,0-.24,0Zm-3.8,6.5a2.4,2.4,0,1,1,2.4-2.4h0a2.29,2.29,0,0,1-2.2,2.39h-.2Z" style="fill:#f50000"/><path d="M259,489.44l8,8,18-18" style="fill:none;stroke:#00945e;stroke-linecap:round;stroke-width:3px"/><path d="M259,545.94l8,8,18-18" style="fill:none;stroke:#00945e;stroke-linecap:round;stroke-width:3px"/><path d="M428,612.44l8,8,18-18" style="fill:none;stroke:#f50000;stroke-linecap:round;stroke-width:3px"/><path d="M428,680.44l8,8,18-18" style="fill:none;stroke:#f50000;stroke-linecap:round;stroke-width:3px"/><path d="M259,747.44l8,8,18-18" style="fill:none;stroke:#00945e;stroke-linecap:round;stroke-width:3px"/><path d="M259,811.44l8,8,18-18" style="fill:none;stroke:#00945e;stroke-linecap:round;stroke-width:3px"/><path d="M223.71,274.37a7.29,7.29,0,0,1-6.79,4.69,8,8,0,0,1-.24-16c3.28,0,6.57,1.32,6.57,4.1a2.9,2.9,0,0,1-2.85,2.93,3.75,3.75,0,0,1-2.05-.5c-.14-.26,0-.61,0-1.2,0-1.2-.58-2-1.4-2-1.58,0-2.35,2.49-2.14,4.66.47,5.24,5.45,4.66,8.44,2.87a.35.35,0,0,1,.41,0A.47.47,0,0,1,223.71,274.37Z" style="fill:#ff5f00"/><path d="M238.86,266.37a3.54,3.54,0,0,1-3.66,3.78,2.06,2.06,0,0,1-1.47-.59c-.17-.26-.06-.46-.06-1.05,0-.91-.17-1.29-.61-1.29-.85,0-1,1.49-1,3.31v7.76c0,.15-.12.15-.12.15h-5.88s-.12,0-.12-.15.23-6.65.23-8.67c0-4.66-2-3.66-1.73-4.45a4.06,4.06,0,0,1,3.55-2.08,3.85,3.85,0,0,1,3.93,3.19c.79-1.93,2.25-3.19,3.69-3.19A3.07,3.07,0,0,1,238.86,266.37Z" style="fill:#ff5f00"/><path d="M257.23,277a4,4,0,0,1-3.52,2.08,3.89,3.89,0,0,1-4-3.34c-1,1.9-2.58,3.31-4.63,3.31-3.69,0-5.75-4.08-5.75-8s2.06-7.94,5.89-7.94a4.89,4.89,0,0,1,4.37,2.78v-2a.17.17,0,0,1,.15-.17h5.85a.14.14,0,0,1,.12.14s-.2,6.68-.2,8.7C255.53,277.21,257.52,276.21,257.23,277Zm-7.45-5.95c0-2.2-.76-4-2.19-4s-2.2,1.79-2.2,4,.76,3.95,2.2,3.95S249.78,273.26,249.78,271.06Z" style="fill:#ff5f00"/><path d="M266.72,260.54c0-.73-.24-1.52-1.12-1.52-2.28,0-.88,3.72-.47,4.69h4.05s.11,0,.11.14v2.46c0,.15-.11.15-.11.15h-3.9v11.81a.17.17,0,0,1-.12.17h-5.65a.16.16,0,0,1-.12-.15V266.46h-1.64s-.12,0-.12-.15v-2.49c0-.11.12-.11.12-.11h1.67c-.26-5.34,3.11-7,6.45-7s5.45,1.59,5.45,3.43a2.59,2.59,0,0,1-2.7,2.61,3.83,3.83,0,0,1-2.11-.53C266.36,261.92,266.72,261.57,266.72,260.54Z" style="fill:#ff5f00"/><path d="M282.15,276.57c-.79,1.58-3,2.66-5.1,2.66a5.55,5.55,0,0,1-2.6-.67,4.38,4.38,0,0,1-2-3.93v-8.17H271s-.12,0-.12-.15v-2.49c0-.11.12-.11.12-.11h1.5v-2.23a.14.14,0,0,1,.14-.15l5.63-2.31s.14,0,.11.14,0,2,0,4.55H282s.09,0,.09.14v2.46c0,.15-.12.15-.12.15h-3.55V273a8.75,8.75,0,0,0,.06.94c.38,2.37,2.2,1.84,3.34,1.84C282.3,275.8,282.36,276.19,282.15,276.57Z" style="fill:#ff5f00"/><path d="M309.6,277a4.07,4.07,0,0,1-3.54,2.05,4.23,4.23,0,0,1-4.31-4.46v-5.68c0-2.93-2.75-1.9-2.75,1.55v.53c0,1.91.23,7.33.23,7.33a.18.18,0,0,1-.14.17h-5.86s-.15,0-.12-.15-.06-5.44,0-7.35c0-.7,0-1.43,0-2.08,0-2.93-2.75-1.9-2.75,1.55v7.86a.18.18,0,0,1-.15.17h-5.86a.16.16,0,0,1-.12-.15s.21-6.67.21-8.7c0-4.65-2-3.66-1.7-4.45a4,4,0,0,1,7.53,1.29,5.42,5.42,0,0,1,4.71-3.37,4.06,4.06,0,0,1,3.9,3.49,5.41,5.41,0,0,1,4.78-3.49c2.19,0,4,1.9,4,4.83v4.57C307.67,277.12,309.9,276.13,309.6,277Z" style="fill:#ff5f00"/><path d="M317.36,278.44H311.5s-.14,0-.14-.15.23-6.67.23-8.7c0-4.65-2-3.66-1.73-4.45a4,4,0,0,1,3.55-2.08c2.37,0,4.07,1.7,4.07,4.45v10.76A.17.17,0,0,1,317.36,278.44Zm-3.51-16.17c-1.88,0-3.4-1.2-3.4-2.73s1.52-2.72,3.4-2.72,3.42,1.23,3.42,2.72S315.72,262.27,313.85,262.27Z" style="fill:#ff5f00"/><path d="M335.91,278.27c.06.08,0,.17-.09.17h-6.48a.28.28,0,0,1-.23-.15l-3.28-5.06c-2.52.67.32,3.51.32,3.78,0,1-1.41,2.08-3,2.08-2.34,0-3.83-1.41-3.92-3.43-.12-2.58,1.46-4.19,4.95-5l-4.78-6.83c-.05-.09,0-.14.09-.14h6.36a.28.28,0,0,1,.23.14l3.28,5c2.35-.67-.46-3.37-.46-3.57,0-1,1.4-2.05,3-2.05a3.64,3.64,0,0,1,3.9,3.6c0,2.23-2.23,3.78-4.86,4.37Z" style="fill:#ff5f00"/><path d="M415.29,260a5.66,5.66,0,1,1,5.65,5.39A5.41,5.41,0,0,1,415.29,260Zm9.11,0a3.45,3.45,0,1,0-3.46,3.44A3.36,3.36,0,0,0,424.4,260Z"/><path d="M433.34,264.9a3.13,3.13,0,0,1-1.79.51,2.65,2.65,0,0,1-2.82-2.88v-3.81H428a.57.57,0,0,1-.63-.61v-.4a.56.56,0,0,1,.63-.59h.78v-2c0-.37.21-.54.61-.62l.87-.18c.43-.1.64.19.64.61v2.21h1.77a.56.56,0,0,1,.63.59v.4a.57.57,0,0,1-.63.61h-1.77v3.61c0,.9.43,1.24,1,1.24a1.51,1.51,0,0,0,.74-.24c.37-.23.54-.07.69.21l.29.67C433.79,264.54,433.55,264.75,433.34,264.9Z"/><path d="M442.42,260.41v4.17a.56.56,0,0,1-.6.62h-.92a.57.57,0,0,1-.61-.62v-4a1.61,1.61,0,0,0-1.68-1.76,1.67,1.67,0,0,0-1.75,1.76v4a.56.56,0,0,1-.59.62h-.91a.57.57,0,0,1-.61-.62v-10c0-.37.21-.53.61-.62l.86-.16c.43-.08.64.17.64.59v3.49a3.12,3.12,0,0,1,2.26-.88A3.18,3.18,0,0,1,442.42,260.41Z"/><path d="M448.5,263.79a3.23,3.23,0,0,0,2-.72c.29-.22.51-.27.77,0l.38.39a.46.46,0,0,1,0,.73,5,5,0,0,1-3.38,1.22A4.14,4.14,0,0,1,444,261.2a4.15,4.15,0,1,1,8.29-.18c0,.45-.18.66-.66.66h-5.53A2.31,2.31,0,0,0,448.5,263.79Zm-2.44-3.42h4.1a2.12,2.12,0,0,0-.58-1.22,1.94,1.94,0,0,0-1.47-.59A2,2,0,0,0,446.06,260.37Z"/><path d="M459.13,257.77l-.2.8a.46.46,0,0,1-.64.37,2.22,2.22,0,0,0-.71-.13c-1.05,0-1.65.8-1.65,2v3.81a.55.55,0,0,1-.59.62h-.93a.57.57,0,0,1-.61-.62v-6.85a.56.56,0,0,1,.61-.61H455a.55.55,0,0,1,.61.61v.49a2.5,2.5,0,0,1,2.14-1.23,3.47,3.47,0,0,1,1,.14A.45.45,0,0,1,459.13,257.77Z"/><path d="M382,276a5.4,5.4,0,0,1,5.59-5.4,5.48,5.48,0,0,1,4,1.65.54.54,0,0,1,0,.87l-.57.49a.61.61,0,0,1-.88-.05,3.58,3.58,0,0,0-2.48-1,3.44,3.44,0,0,0,0,6.88,3.51,3.51,0,0,0,2.48-1,.6.6,0,0,1,.88-.05l.57.48a.54.54,0,0,1,0,.87A5.6,5.6,0,0,1,382,276Z"/><path d="M392.6,277.2a4.38,4.38,0,1,1,4.38,4.21A4.18,4.18,0,0,1,392.6,277.2Zm6.64,0a2.27,2.27,0,1,0-2.26,2.35A2.24,2.24,0,0,0,399.24,277.2Z"/><path d="M402.45,277.2a4.14,4.14,0,0,1,4.32-4.21,4.33,4.33,0,0,1,3.14,1.23.47.47,0,0,1,0,.75l-.56.56c-.21.2-.43.28-.77,0a2.37,2.37,0,0,0-1.74-.69,2.37,2.37,0,0,0,0,4.74,2.46,2.46,0,0,0,1.74-.69c.34-.3.56-.22.77,0l.56.56a.46.46,0,0,1,0,.74,4.31,4.31,0,0,1-3.14,1.25A4.16,4.16,0,0,1,402.45,277.2Z"/><path d="M418.6,281.2h-1.26a1.06,1.06,0,0,1-.92-.59l-2-2.71-.77.84v1.84a.55.55,0,0,1-.59.62h-.91a.57.57,0,0,1-.61-.62v-10c0-.37.21-.53.61-.62l.86-.16c.44-.1.64.17.64.59v6.42l2.73-3.09c.32-.38.52-.59.92-.59h1.19c.37,0,.59.27.3.62L416,276.8l2.89,3.78C419.19,280.93,419,281.2,418.6,281.2Z"/><path d="M425.34,280.9a3.14,3.14,0,0,1-1.8.51,2.64,2.64,0,0,1-2.81-2.88v-3.81h-.79a.57.57,0,0,1-.62-.61v-.4a.56.56,0,0,1,.62-.59h.79v-2c0-.37.2-.54.6-.62l.87-.18c.43-.1.64.19.64.61v2.21h1.78a.56.56,0,0,1,.62.59v.4a.57.57,0,0,1-.62.61h-1.78v3.61c0,.9.43,1.24,1.06,1.24a1.44,1.44,0,0,0,.73-.24c.37-.23.55-.07.69.21l.29.67C425.78,280.54,425.54,280.75,425.34,280.9Z"/><path d="M433.67,276.35v4.23a.55.55,0,0,1-.59.62h-.51a.57.57,0,0,1-.61-.62v-.28a3.76,3.76,0,0,1-2.64,1.11c-1.87,0-3.14-1-3.14-2.58s1.38-2.72,3.43-2.72a5.64,5.64,0,0,1,2.08.43v-.43c0-.93-.68-1.5-1.78-1.5a3.68,3.68,0,0,0-2.05.62.52.52,0,0,1-.8-.22l-.14-.26a.58.58,0,0,1,.17-.88,5.31,5.31,0,0,1,3-.88C432.07,273,433.67,274,433.67,276.35Zm-1.93,2.18v-.6a4.54,4.54,0,0,0-1.85-.46c-1,0-1.68.51-1.68,1.28s.63,1.2,1.57,1.2S431.74,279.31,431.74,278.53Z"/><path d="M435.43,270.4a1.38,1.38,0,1,1,1.38,1.37A1.38,1.38,0,0,1,435.43,270.4Zm.3,10.18v-6.85a.56.56,0,0,1,.61-.61h.93a.54.54,0,0,1,.59.61v6.85a.56.56,0,0,1-.59.62h-.93A.57.57,0,0,1,435.73,280.58Z"/><path d="M440,280.58v-10c0-.37.21-.53.61-.62l.88-.18c.43-.09.64.19.64.61v10.2a.56.56,0,0,1-.59.62h-.93A.57.57,0,0,1,440,280.58Z"/><path d="M458.94,281.2h-.8c-.4,0-.58-.22-.63-.62l-.68-5.67-2.37,5.78a.85.85,0,0,1-.77.59h-.13a.81.81,0,0,1-.77-.59l-2.38-5.78-.68,5.67a.59.59,0,0,1-.64.62h-.91a.5.5,0,0,1-.56-.62l1.35-9.32a.56.56,0,0,1,.62-.54h.13a.75.75,0,0,1,.7.54l3.2,7.11,3.09-7.11a.78.78,0,0,1,.72-.54h.13a.59.59,0,0,1,.63.54l1.31,9.32C459.56,281,459.34,281.2,458.94,281.2Z"/><path d="M460.92,270.4a1.38,1.38,0,1,1,1.37,1.37A1.37,1.37,0,0,1,460.92,270.4Zm.3,10.18v-6.85a.56.56,0,0,1,.61-.61h.93a.54.54,0,0,1,.59.61v6.85a.56.56,0,0,1-.59.62h-.93A.57.57,0,0,1,461.22,280.58Z"/><path d="M472.23,281.2H471c-.39,0-.58-.22-.85-.59l-1.54-2.11-1.53,2.11c-.28.37-.47.59-.85.59h-1.09c-.37,0-.58-.26-.31-.61l2.68-3.42-2.66-3.46c-.27-.34-.06-.59.31-.59h1.26c.38,0,.58.21.85.59l1.53,2.11,1.53-2.11c.25-.38.44-.59.84-.59h1.08c.38,0,.57.25.3.59l-2.64,3.46,2.66,3.42C472.81,280.93,472.62,281.2,472.23,281.2Z"/><path d="M477.62,279.79a3.24,3.24,0,0,0,2-.72c.28-.22.51-.27.76,0l.39.39a.46.46,0,0,1,0,.73,5,5,0,0,1-3.38,1.22,4.14,4.14,0,0,1-4.35-4.21,4.15,4.15,0,1,1,8.29-.18c0,.45-.18.66-.66.66h-5.54A2.32,2.32,0,0,0,477.62,279.79Zm-2.43-3.42h4.1a2.12,2.12,0,0,0-.58-1.22,1.94,1.94,0,0,0-1.47-.59A2,2,0,0,0,475.19,276.37Z"/><path d="M488.26,273.77l-.2.8a.46.46,0,0,1-.64.37,2.27,2.27,0,0,0-.71-.13c-1.06,0-1.65.8-1.65,2v3.81a.56.56,0,0,1-.59.62h-.93a.57.57,0,0,1-.61-.62v-6.85a.56.56,0,0,1,.61-.61h.61a.56.56,0,0,1,.61.61v.49A2.5,2.5,0,0,1,486.9,273a3.47,3.47,0,0,1,1,.14A.45.45,0,0,1,488.26,273.77Z"/><path d="M488.79,280.19a.54.54,0,0,1,0-.89L489,279a.57.57,0,0,1,.89-.05,3.1,3.1,0,0,0,2,.82c.69,0,1.14-.3,1.14-.77,0-.62-.67-.85-1.39-1.14-1.32-.44-2.71-.94-2.71-2.48s1.2-2.38,3-2.38a4.11,4.11,0,0,1,2.72.94c.29.26.37.52,0,.92l-.23.28a.59.59,0,0,1-.88.08,2.43,2.43,0,0,0-1.65-.62c-.62,0-1,.27-1,.67s.71.72,1.65,1.09c1.35.54,2.45,1.12,2.45,2.61s-1.28,2.45-3.15,2.45A4.52,4.52,0,0,1,488.79,280.19Z"/><line x1="428.49" y1="477.28" x2="450.74" y2="499.54" style="fill:none;stroke:#f50000;stroke-linecap:round;stroke-width:3px"/><line x1="428.49" y1="499.54" x2="451.12" y2="476.9" style="fill:none;stroke:#f50000;stroke-linecap:round;stroke-width:3px"/><line x1="427.7" y1="536.31" x2="449.96" y2="558.57" style="fill:none;stroke:#f50000;stroke-linecap:round;stroke-width:3px"/><line x1="427.7" y1="558.57" x2="450.34" y2="535.93" style="fill:none;stroke:#f50000;stroke-linecap:round;stroke-width:3px"/><line x1="428.49" y1="735.5" x2="450.74" y2="757.76" style="fill:none;stroke:#f50000;stroke-linecap:round;stroke-width:3px"/><line x1="428.49" y1="757.76" x2="451.12" y2="735.12" style="fill:none;stroke:#f50000;stroke-linecap:round;stroke-width:3px"/><line x1="427.7" y1="799.5" x2="449.96" y2="821.76" style="fill:none;stroke:#f50000;stroke-linecap:round;stroke-width:3px"/><line x1="427.7" y1="821.76" x2="450.34" y2="799.12" style="fill:none;stroke:#f50000;stroke-linecap:round;stroke-width:3px"/><path d="M258.16,674v9.19a.65.65,0,0,1-.72.67h-.13a1.23,1.23,0,0,1-.94-.58l-5.15-6.14v6a.57.57,0,0,1-.61.64h-.92a.57.57,0,0,1-.62-.64V674a.65.65,0,0,1,.72-.68h.13a1.21,1.21,0,0,1,.94.58L256,680v-6a.55.55,0,0,1,.61-.63h.91A.57.57,0,0,1,258.16,674Z" style="fill:#00945e"/><path d="M264.42,682.39a3.29,3.29,0,0,0,2-.72c.29-.22.51-.27.77,0l.38.38a.46.46,0,0,1,0,.74,5,5,0,0,1-3.38,1.22,4.14,4.14,0,0,1-4.35-4.21,4.25,4.25,0,0,1,7.12-3.09,4,4,0,0,1,1.17,2.91c0,.45-.17.66-.65.66H262A2.31,2.31,0,0,0,264.42,682.39ZM262,679h4.1a2.12,2.12,0,0,0-.58-1.21,1.91,1.91,0,0,0-1.47-.59A2,2,0,0,0,262,679Z" style="fill:#00945e"/><path d="M276.78,676.32l-3.18,7a.88.88,0,0,1-.78.59h-.1a.86.86,0,0,1-.78-.59l-3.32-7c-.16-.35.08-.61.45-.61H270c.4,0,.59.21.75.61l2,4.95,2-4.95c.14-.4.35-.61.75-.61h.82C276.72,675.71,276.94,676,276.78,676.32Z" style="fill:#00945e"/><path d="M281.89,682.39a3.27,3.27,0,0,0,2-.72c.29-.22.51-.27.77,0l.38.38a.46.46,0,0,1,0,.74A5,5,0,0,1,281.7,684a4.14,4.14,0,0,1-4.36-4.21,4.25,4.25,0,0,1,7.12-3.09,4,4,0,0,1,1.17,2.91c0,.45-.17.66-.65.66h-5.54A2.31,2.31,0,0,0,281.89,682.39ZM279.45,679h4.1a2.18,2.18,0,0,0-.57-1.21,1.94,1.94,0,0,0-1.48-.59A2,2,0,0,0,279.45,679Z" style="fill:#00945e"/><path d="M292.53,676.37l-.21.8a.46.46,0,0,1-.64.37,2.16,2.16,0,0,0-.7-.13c-1.06,0-1.65.8-1.65,2v3.81a.56.56,0,0,1-.6.63h-.92a.57.57,0,0,1-.61-.63v-6.85a.56.56,0,0,1,.61-.61h.6a.56.56,0,0,1,.61.61v.5a2.53,2.53,0,0,1,2.15-1.23,3.16,3.16,0,0,1,1,.14A.46.46,0,0,1,292.53,676.37Z" style="fill:#00945e"/><path d="M258.16,606.58v9.19a.65.65,0,0,1-.72.67h-.13a1.21,1.21,0,0,1-.94-.58l-5.16-6.15v6a.56.56,0,0,1-.6.64h-.92a.57.57,0,0,1-.62-.64v-9.17a.65.65,0,0,1,.72-.68h.13a1.21,1.21,0,0,1,.94.58l5.16,6.13v-6a.55.55,0,0,1,.6-.63h.92A.57.57,0,0,1,258.16,606.58Z" style="fill:#00945e"/><path d="M264.42,615a3.29,3.29,0,0,0,2-.72c.29-.23.51-.27.77,0l.38.38a.47.47,0,0,1,0,.74,5,5,0,0,1-3.38,1.22,4.14,4.14,0,0,1-4.35-4.21,4.15,4.15,0,1,1,8.29-.18c0,.45-.18.66-.66.66H262A2.31,2.31,0,0,0,264.42,615ZM262,611.52h4.1a2.12,2.12,0,0,0-.58-1.21,1.91,1.91,0,0,0-1.47-.6A2,2,0,0,0,262,611.52Z" style="fill:#00945e"/><path d="M276.78,608.88l-3.18,7a.88.88,0,0,1-.78.6h-.1a.88.88,0,0,1-.79-.6l-3.31-7c-.16-.35.08-.61.45-.61H270c.4,0,.59.21.75.61l2,5,2-5c.14-.4.35-.61.75-.61h.82C276.72,608.27,276.94,608.53,276.78,608.88Z" style="fill:#00945e"/><path d="M281.89,615a3.27,3.27,0,0,0,2-.72c.29-.23.51-.27.77,0l.38.38a.46.46,0,0,1,0,.74,5,5,0,0,1-3.37,1.22,4.14,4.14,0,0,1-4.36-4.21,4.25,4.25,0,0,1,7.12-3.09,4,4,0,0,1,1.17,2.91c0,.45-.17.66-.65.66h-5.54A2.31,2.31,0,0,0,281.89,615Zm-2.44-3.43h4.1a2.18,2.18,0,0,0-.57-1.21,2,2,0,0,0-1.48-.6A2,2,0,0,0,279.45,611.52Z" style="fill:#00945e"/><path d="M292.53,608.93l-.21.8a.46.46,0,0,1-.64.37,2.16,2.16,0,0,0-.7-.13c-1.06,0-1.65.8-1.65,1.95v3.81a.56.56,0,0,1-.6.63h-.92a.57.57,0,0,1-.61-.63v-6.85a.56.56,0,0,1,.61-.61h.6a.56.56,0,0,1,.61.61v.5a2.53,2.53,0,0,1,2.15-1.23,3.16,3.16,0,0,1,1,.14A.46.46,0,0,1,292.53,608.93Z" style="fill:#00945e"/><path d="M99.94,541.86a5.39,5.39,0,0,0,.28,10.78h.22a5.4,5.4,0,1,0-.5-10.78Zm.74,8.82h-.29l0,0a3.44,3.44,0,1,1,3.46-3.44A3.35,3.35,0,0,1,100.68,550.68Z" style="fill:#ff5f00"/><path d="M63.7,320.24a4.19,4.19,0,0,0,.14,8.38h.21v0a4.21,4.21,0,1,0-.36-8.41Zm.45,6.52h-.1v0a2.36,2.36,0,1,1,2.25-2.47v.11A2.23,2.23,0,0,1,64.15,326.76Z" style="fill:#ff5f00"/><path d="M50.86,89.69l8.61-2.79c3.79-1.23,5.33-.24,5.91,1.57,1.05,3.24-2.27,4.58-1.07,8.29l4.07,12.55a1.18,1.18,0,0,0,1.57.81l20.6-6.68a1.17,1.17,0,0,0,.81-1.56L87.29,89.32c-1.2-3.71-4.75-2.82-5.8-6.06-.59-1.82.08-3.52,3.88-4.74L94,75.73c3.79-1.23,5.73-.37,6.32,1.45,1,3.23-2.75,4.72-1.55,8.44l10.94,33.79c.95,2.92,4.79,1.59,5.74,4.51.66,2.06-.53,3.23-3.14,4.33a44.15,44.15,0,0,1-5.48,2.21,40.88,40.88,0,0,1-5.42,1.32c-2.26.56-4.28.25-5-1.88-1-3,2.66-4.18,1.69-7.18l-3.65-11.29a1.18,1.18,0,0,0-1.57-.8L72.27,117.3a1.18,1.18,0,0,0-.8,1.57l3.65,11.29c1,3,4.21,2,5.18,5,.69,2.14-.45,3.46-2.53,4.31a45.9,45.9,0,0,1-5.24,2.14A47.91,47.91,0,0,1,66.8,143c-2.68.6-4.42.38-5.08-1.68-.95-2.92,3-4.12,2.08-7l-10.94-33.8c-1.2-3.71-5.22-2.67-6.27-5.9C46,92.74,47.15,90.89,50.86,89.69Z" style="fill:#f16a21"/><path d="M132.17,80.23c11.31-2.66,22,1.39,25.38,15.86s-4.33,22.93-15.64,25.59-22-1.4-25.4-15.94S120.77,82.91,132.17,80.23Zm.38,5.62-.81.19c-5.05,1.7-6.62,7-2.92,17.65,3.46,10,7.86,13.5,12.63,12.38l.81-.19c5.15-1.64,6.64-6.93,3-17.67C141.8,88.19,137.4,84.71,132.55,85.85Z" style="fill:#f16a21"/><path d="M156.45,77.45c-.23-1.65.87-2.73,4.24-3.21l4.52-.64c3.21-.45,6.25,1.46,8,5.32l10.7,21.62c.23.39.33.54.5.52s.3-.21.34-.55l3.49-17.27a3.66,3.66,0,0,0-.32-2.3l-.61-1.34c-1.76-3.52-5.38-3.59-5.68-5.73-.23-1.64.87-2.72,4.24-3.2l4.6-.66c3.12-.44,6.23,1.38,8,5.33L208.5,96.2c.13.32.33.54.41.53s.3-.29.33-.63l3.28-18.24c1.14-6.12-4.26-6.36-3.38-9,.33-1.22,3.55-2.18,6.75-2.63s6.25-.31,6.61,1.07c.79,2.57-3.31,4.41-4.24,10.24l-3.87,24.11c-.63,4.37-1.8,6.8-5.33,7.3l-1.89.27c-3,.43-5.92-1.5-7.73-5.44L193,91.7c-.14-.4-.33-.54-.41-.53s-.22.2-.33.63l-2.79,13.4c-.9,4.23-2,6.83-5.25,7.28l-1.89.27c-3.12.45-5.93-1.59-7.73-5.44L162.13,83.18C160.37,79.66,156.76,79.58,156.45,77.45Z" style="fill:#f16a21"/><path d="M253,52.67c.11-1.91,1.84-3.22,5.74-3l19.89,1.12c15.16.85,27.29,9.93,26.18,29.65s-14.14,26.72-29.31,25.87l-21.05-1.19c-2.82-.15-4.34-1.16-4.22-3.31.17-3,4.31-2.75,4.48-5.65l2-35.72C257,56.55,252.85,56.07,253,52.67Zm22.15,46.64c8.28.46,15.25-5.21,16.07-19.8.8-14.17-5.44-21.34-13.73-21.8a21.08,21.08,0,0,0-6.86.77c-1.35.26-1.86,2-2,3.8L266.9,94.43c-.1,1.74.5,2.94,1.64,3.34A20.62,20.62,0,0,0,275.19,99.31Z" style="fill:#f16a21"/><path d="M335.89,71.24c11.45,2,19.71,9.83,17.23,24.48s-12.91,19.45-24.36,17.5S309,103.39,311.54,88.66,324.35,69.28,335.89,71.24Zm-1.83,5.33-.82-.14c-5.32-.4-8.83,3.89-9.56,15.13-.7,10.58,2,15.5,6.83,16.32l.82.14c5.38.49,8.81-3.81,9.64-15.12C341.67,82.33,339,77.4,334.06,76.57Z" style="fill:#f16a21"/><path d="M389.51,67.89l4,.94c5.74,1.35,6.75,7.55,7.14,11.74l2.53,32.13c0,.42.11.62.35.68s.44-.07.62-.45l13.62-24.68a3.38,3.38,0,0,0,.34-1.8L418,85.22c-.34-3.66-4.44-5-3.74-8,.53-2.26,3-2.78,5-2.32l4.12,1c5.65,1.33,6.75,7.55,7.05,11.71l2.4,32.36c0,.34.13.54.29.58s.36-.08.52-.39l15.49-29c1.43-2.82-1.92-3.43-1.24-6.34.74-3.15,5.06-2.31,8.21-1.57l.89.21c3.15.74,7.68,1.8,6.84,5.35-.72,3.07-4.46,1.94-6.09,4.88L438,129.54c-2,3.79-4.5,5.76-8.38,4.86l-3.31-.78c-2.35-.55-4.18-1.83-4.57-6.36l-2-21.69c-.09-.7-.28-1-.44-1s-.46.15-.85.74l-9.87,17.38c-2,3.79-4.51,5.76-8.39,4.85l-3.47-.81c-2.34-.55-4.18-1.83-4.56-6.36l-3.87-42.08c-.42-3.67-4.44-5-3.74-8C385.06,68,387.57,67.43,389.51,67.89Z" style="fill:#f16a21"/><path d="M475.76,137.74c4.45,1,8.64-.63,12.89-3.68a3.17,3.17,0,0,1,2.36-.66c1.05.23,1.49,1.35.19,3.36-5,7.64-12.06,9.47-20.34,7.71-10.21-2.27-17-9.73-16.54-21.2.46-12.74,10.95-23.16,25-20.54,7,1.55,13.15,4.72,15,12.18,1.35,5.4-1.4,9-7.23,10.3l-18.43,4.14c-.64.19-1,.71-.72,1.28A9.78,9.78,0,0,0,475.76,137.74Zm2.51-17.38c3.65-.72,5.73-2,4.84-5.3a8.66,8.66,0,0,0-6.25-6.67,7,7,0,0,0-2.18-.14c-6.08.17-8.86,6.53-8.72,13.53a1,1,0,0,0,1.16.94Z" style="fill:#f16a21"/><path d="M87.81,152.66c7.08-2.13,16.35-3.27,21,1.93,2.95,3.45,1.23,8.13-2,9.11a5.79,5.79,0,0,1-2.32.09c-6.35-1.82-9.57-5.88-15.61-4.06-5.72,1.72-8.59,5.44-7.13,10.29,3.49,11.61,32.13-3.25,38.09,14.81,4.45,13.65-7.64,20.15-16.06,22.68-9.62,2.9-19,3.3-23.8-1.59-3.33-3.59-1.37-7.74,2.13-8.79a6,6,0,0,1,2.36-.19c6.09.94,10.78,5.86,18.33,3.59,5-1.51,7.86-4.71,6.57-9-3.17-10-32,3-37.5-15.16C67.69,162.7,77.48,155.77,87.81,152.66Z" style="fill:#f16a21"/><path d="M119.33,159.63c1.61-.38,2.36-.47,3.51-.66a.69.69,0,0,0,.64-.91l-1.67-7.12c-.69-2.91,4.66-6.29,7.68-7.94a2.41,2.41,0,0,1,.71-.25c1.13-.27,1.68.63,2,1.84l2.62,11.15a.72.72,0,0,0,1,.54,68.84,68.84,0,0,1,7.41-2.25c3.63-.85,5.17,5.69,1.53,6.55a65.63,65.63,0,0,1-7.67,1.11.69.69,0,0,0-.63.92l4.91,20.93c1.06,4.53,2.43,5.65,3.89,5.31,2-.47,4.37-3.92,6.47-4.41a2.07,2.07,0,0,1,1,0c3,1.17,1.49,10-8.29,12.26-4.85,1.14-11.59,1.1-14-9.32l-5.1-21.74a.69.69,0,0,0-1-.54c-.71.26-1.66.56-3.42,1.06C117.49,167.05,115.77,160.46,119.33,159.63Z" style="fill:#f16a21"/><path d="M158.41,181.61c-1.74-10.32,13.41-15.81,22.05-18.53a1,1,0,0,0,.72-1.21l-.31-1.81c-.89-5.32-3.08-8.31-7.09-7.64-4.34.73-5.31,5.44-7.36,8.31a6.54,6.54,0,0,1-4.19,2.56c-2.54.43-5.18-.73-5.66-3.6-.89-5.32,7.56-10.61,16.4-12.1,9-1.51,17.64.82,19.38,11.13l2.75,16.37c.91,5.4,3.9,3.13,5.41,4.65s-1.15,6.17-6.3,7a7.2,7.2,0,0,1-7.8-3.31c-.22-.3-.41-.44-.57-.41a.87.87,0,0,0-.51.5,16.2,16.2,0,0,1-11.35,7C167.76,191.65,159.87,190.28,158.41,181.61Zm19.1,2c3.2-.54,6.23-3.49,6.17-6.85l-1.36-8.1c-.11-.66-.45-.68-1-.59-4.46,1.51-11.84,4.69-11.07,10.28A6.08,6.08,0,0,0,177.51,183.61Z" style="fill:#f16a21"/><path d="M215.09,163.16c1.59,8.78,6.87,12.16,12.71,12.16.41,0,.75,0,1.16,0,4.3-.37,8.09-2.86,11-6.69a3.17,3.17,0,0,1,2.14-1.27c1.16-.1,2.07.82,1.44,3.21-2.46,8.29-9.29,12.21-16.79,13.1-10.83.93-19.53-4.33-22-15.27-3.9-15.33,4.36-25.95,18.75-27.18,8.93-.77,15.32.93,18.31,7.59,1.86,4.26-1,7.83-4.88,8.17a7.65,7.65,0,0,1-4.15-.81c-5.34-3-5.59-9.77-9.81-9.41-.16,0-.32.11-.57.13C217.19,147.82,213.39,154,215.09,163.16Z" style="fill:#f16a21"/><path d="M252.63,171.7l1.5-42.64c.12-3.4-4.1-4-4-7.28.07-1.91,1.77-3,5.17-2.89l3.73.13c3.15.11,6.81,2.31,6.66,6.71l-1.13,31.93c0,.5.22.84.64.86a1.24,1.24,0,0,0,.5-.15,38.08,38.08,0,0,0,9.55-7.14c2.43-3,1.3-3.86,2.08-7.23.71-3.55,5.29-3.81,7.69-3.72,5.81.2,6.71,5.38,2.72,10a54.29,54.29,0,0,1-10.51,8.51,1.13,1.13,0,0,0-.31,1.65l8,11.17c3.8,5.28,7.73,4.67,7.63,7.32-.06,1.66-2.46,3.9-7.11,3.74s-7.24-1.92-10.53-7.6l-5.49-9c-.55-1-1.1-1.95-2.34-2a16.79,16.79,0,0,1-1.6.69,1.64,1.64,0,0,0-1.22,1.61l-.19,5.31c-.14,4.07,3.45,3.61,3.34,6.68-.08,2.16-1.35,2.86-3.35,3a45.43,45.43,0,0,1-12.19-.43c-2.48-.42-3.78-1.13-3.71-3.12C248.28,175,252.49,175.59,252.63,171.7Z" style="fill:#f16a21"/><path d="M330.4,131.79l8.9,1.67c3.91.73,4.79,2.33,4.44,4.21-.63,3.34-4.26,2.91-5,6.75l-4.6,24.47c-1.62,8.65,1,13.53,8.51,14.94s11.81-2.17,13.43-10.82l4.6-24.47c.72-3.83-2.82-4.75-2.19-8.1.35-1.87,1.75-3.05,5.66-2.31l8.9,1.67c3.83.72,5.2,2.41,4.85,4.29-.63,3.34-4.67,2.84-5.39,6.67l-4.75,25.29c-2.48,13.21-13.75,17.43-26.39,15.06s-21.69-10.41-19.21-23.63l4.75-25.28c.72-3.84-3.23-4.83-2.6-8.18C324.68,132.15,326.49,131.05,330.4,131.79Z" style="fill:#f16a21"/><path d="M374.91,204.47l8.55-37.13c.75-3.24-3.27-4.67-2.52-7.91.41-1.78,2.29-2.54,5.6-1.77l3.64.83a5.39,5.39,0,0,1,3.89,3.11c.1.28.09,1.47.15,1.91a.89.89,0,0,0,.56.56,1.17,1.17,0,0,0,.82-.24c3.4-2.54,7.69-3.08,13-1.85,9.71,2.23,17,10.47,13.67,25s-13,18.89-22.66,16.67c-4.77-1.1-8.19-3.25-10.29-6.71-.19-.3-.33-.42-.49-.46s-.38.17-.48.58l-2.33,10.11c-.87,3.8,3.37,4.26,2.71,7.09-.44,1.95-1.89,2.29-4.47,2a43.55,43.55,0,0,1-5.83-.92,53.62,53.62,0,0,1-6.06-1.82c-2.37-.8-3.5-1.83-3-3.77C370,206.91,374,208.35,374.91,204.47ZM398.39,198c5.23,1,9.67-2.8,11.74-14,1.15-6.13,1.75-15.36-6-17.15-4.5-.78-8.21,1.26-10.49,7.47l-1.29,5.58C391.68,185.67,391,196.23,398.39,198Z" style="fill:#f16a21"/><path d="M454.46,189.91c-5.83,2.31-3.11,8.57-9.17,7.16l-2.26-.53c-3.48-.81-6.5-5.77-2.49-10.21,3.86-4.13,14.13-5.75,16.45-12.79,1.37-4.45-.08-8.11-4-9C447.7,163.28,445,166.67,442,169a7.55,7.55,0,0,1-6.35,1.68c-3.56-.83-5.6-4.89-1.8-8.77,5.08-5,12.75-5.73,21.16-3.77,10.43,2.43,16.94,8.88,14.76,18.26C467.76,185.08,460,187.62,454.46,189.91Zm-10.63,11.25c3.8.88,5.9,3.93,5.07,7.48-.86,3.72-4.1,5.53-7.89,4.64-4-.92-6.07-4-5.2-7.68C436.63,202,439.87,200.23,443.83,201.16Z" style="fill:#f16a21"/></svg>