<svg id="fb2d3e62-dce4-4410-8f8d-e6810833644a" data-name="Layer 1" xmlns="http://www.w3.org/2000/svg" viewBox="0 0 600 120"><path d="M20.7,50.34c-.45-1.62.62-3.21,3.93-4.13l7.66-2.14c3.31-.92,5.05-.11,5.5,1.5.8,2.89-2.51,4-1.59,7.34l7.57,27.14c.6,2.18,1.9,3,3.66,2.54l8.23-2.29c3.09-.86,2.87-4.36,6.28-5.47l.14,0c1.9-.53,3.78.24,4.6,3.19l.47,1.69c.84,3-1,5.73-5.55,7L36.71,93.61c-2.39.67-3.87.25-4.38-1.58-.71-2.53,2.81-3.51,2.12-6L26,55.76C25.08,52.45,21.51,53.22,20.7,50.34Z" style="fill:#ff6b00"/><path d="M88.26,72.77c3.88-1,6.47-4,8.53-8.14a2.72,2.72,0,0,1,1.57-1.48c.91-.25,1.71.44,1.52,2.54C99.1,73.69,94.37,78,87.2,80c-8.87,2.41-17.19-.63-21.55-9.73-4.86-10.11-1-22.51,11-26.22,6.06-1.65,12.17-1.72,16.64,3.35,3.26,3.65,2.58,7.54-1.41,11L79.26,69.16c-.41.42-.49,1,0,1.3A8.58,8.58,0,0,0,88.26,72.77ZM83.1,58.21c2.54-2.05,3.62-3.93,1.59-6.1a7.6,7.6,0,0,0-7.59-2.63,5.77,5.77,0,0,0-1.76.78c-4.65,2.62-4.21,8.71-1.24,14.1a.83.83,0,0,0,1,.42.65.65,0,0,0,.33-.16Z" style="fill:#ff6b00"/><path d="M96.18,39.63c1.42-.3,2.08-.37,3.1-.51a.6.6,0,0,0,.57-.79L98.52,32c-.55-2.57,4.22-5.45,6.91-6.84a2,2,0,0,1,.62-.21c1-.21,1.47.59,1.7,1.66l2.09,9.85a.63.63,0,0,0,.85.49,63.56,63.56,0,0,1,6.55-1.84c3.22-.68,4.44,5.11,1.23,5.79a61.51,61.51,0,0,1-6.76.84.6.6,0,0,0-.58.79l3.93,18.5c.85,4,2,5,3.32,4.74,1.78-.38,3.91-3.37,5.77-3.76a2,2,0,0,1,.9,0c2.62,1.09,1.12,8.79-7.52,10.63-4.28.91-10.21.75-12.17-8.46L101.28,45a.6.6,0,0,0-.85-.49c-.63.2-1.47.46-3,.86C94.42,46.12,93,40.3,96.18,39.63Z" style="fill:#ff6b00"/><path d="M126.65,15.55c4-.65,6.75,1,7.71,5.1,1.35,6-1.49,10.82-6,13.84a6.21,6.21,0,0,1-2,.77c-1.37.22-1.8-.6-1.22-1.58s3.33-4.54,2.81-6.82c-.51-2.65-3.62-1.33-5-5.32A4.64,4.64,0,0,1,126.65,15.55Z" style="fill:#ff6b00"/><path d="M151.49,29.27c4.86-.59,11.51-.3,14.38,4.5,1.86,3.15.21,5.93-2.33,6.24a4.53,4.53,0,0,1-3-.81c-3.92-2.61-5.73-5.4-9.07-5-3.62.44-5.43,2.5-5.05,5.54,1,8,21.57,2.66,23.25,14,1.36,8.66-7,11.89-14.61,12.82-7.32.89-14-.35-16.77-4.86-1.84-3-.33-5.11,2.06-5.4a5.22,5.22,0,0,1,3.72,1c3.61,2.43,5.54,5,9.89,4.46,3.69-.45,5.88-2.41,5.53-5.31-.86-6.44-21.23-1.6-22.73-13.85C135.68,34.07,143.81,30.21,151.49,29.27Z" style="fill:#ff6b00"/><path d="M188.17,41.59c-.31-10,7.83-16,17.32-16.24.88,0,1.68,0,2.56.07.44,0,.73-.09.71-.6C208.87,19,211.33,13.2,217,13a9.18,9.18,0,0,1,1.9.17c4.11.67,6.22,5.21,3.76,8.13a3.36,3.36,0,0,1-2.6,1.11c-1.24,0-2.49-.22-3.8-.18a4.66,4.66,0,0,0-4.43,3.13.56.56,0,0,0,.39.86C218.65,28,223.47,33,223.7,40.5c.31,10.22-8,15.8-17.26,16.08l-1.09,0a1.77,1.77,0,0,0-1.23.4c-3.71,2.74-1.19,4,6.32,3.82,1.32,0,2.78-.15,4.24-.2,4.81-.15,9.57.22,9.63,4.75.25,5.76-4.25,11.37-9.28,11.53-3.94.12-6.85-1.76-6-3.76,1.24-2.45,5-4.68,3.61-6.25-.68-.78-5.13-.64-8.49-.54h-.43c-3.29.1-11.53.28-12.42-2.47-1-3,3.38-6.31,7-8,.44-.15.43-.37,0-.51A14.75,14.75,0,0,1,188.17,41.59Zm11,.39c.93,6.62,3.6,10.26,7.68,10.14.29,0,.51-.09.8-.1,4.37-.57,6-4.57,4.9-11.76-.84-6.19-3.45-10.27-7.54-10.15-.22,0-.51.09-.73.1C200,30.71,198.27,35.29,199.21,42Z" style="fill:#ff6b00"/><path d="M247.84,55.85c4,.06,7.33-2.08,10.45-5.46a2.73,2.73,0,0,1,1.91-1c.95,0,1.52.89.76,2.85-3,7.48-8.69,10.31-16.14,10.28-9.2-.14-16.35-5.36-18-15.32-1.88-11.05,5.29-21.89,17.85-22.14,6.28.09,12.17,1.71,15.07,7.82,2.13,4.41.39,8-4.39,10.15L240.19,49.9c-.51.28-.74.79-.38,1.23A8.57,8.57,0,0,0,247.84,55.85Zm-.94-15.42c3-1.27,4.57-2.78,3.23-5.42a7.63,7.63,0,0,0-6.58-4.63,6,6,0,0,0-1.9.26c-5.2,1.24-6.46,7.21-5.09,13.22a.82.82,0,0,0,.79.66.7.7,0,0,0,.37-.06Z" style="fill:#ff6b00"/><path d="M264.34,26.17c1.46.09,2.11.2,3.12.34a.61.61,0,0,0,.77-.62l.38-6.41c.16-2.62,5.51-4.14,8.47-4.76a2.13,2.13,0,0,1,.66,0c1,.06,1.26,1,1.2,2.05l-.6,10.05a.64.64,0,0,0,.69.7,61,61,0,0,1,6.81,0c3.28.19,2.93,6.09-.35,5.9a58.9,58.9,0,0,1-6.75-1A.59.59,0,0,0,278,33l-1.12,18.87c-.24,4.08.63,5.38,1.94,5.46,1.82.11,4.67-2.21,6.56-2.1a2,2,0,0,1,.86.27c2.24,1.74-1.25,8.77-10.07,8.25-4.37-.26-10-2-9.49-11.38l1.17-19.61a.61.61,0,0,0-.69-.7c-.66,0-1.54.06-3.15,0C260.92,32,261.13,26,264.34,26.17Z" style="fill:#ff6b00"/><path d="M318.59,59.12c-.45,3.4,3.3,3.46,3,6-.23,1.74-1.46,2.16-3.74,2.16a39.56,39.56,0,0,1-5.19-.32,48.65,48.65,0,0,1-5.45-1.09c-2.13-.58-3.21-1.31-3-3,.33-2.53,4-1.61,4.41-5L311.1,39c.39-3-3.24-3.89-2.86-6.78.21-1.59,1.72-2.43,4.32-2.08l3.69.49c3.7.49,5.77,2.6,5.27,6.37Zm.22-45.55c4.05.53,6.41,3.28,5.93,6.89s-3.47,5.66-7.52,5.12-6.49-3.29-6-6.91S314.75,13,318.81,13.57Z" style="fill:#ff6b00"/><path d="M354.5,36.45c7.66,1.55,11.3,6.75,9.77,14.33L361.08,66.6c-.71,3.51,2.47,3.63,1.94,6.27-.38,1.87-1.58,2.29-3.34,2.16a45.69,45.69,0,0,1-5.23-.68,44.84,44.84,0,0,1-5.29-1.44c-2.09-.72-3.12-1.52-2.75-3.38.54-2.65,4.09-1.41,4.79-4.92l2.57-12.74c1.06-5.22-.37-8.49-4.09-9.24-5.3-1.07-10.18,7.63-11.36,12l-1.43,7.08c-.71,3.51,2.47,3.63,1.94,6.28-.38,1.86-1.58,2.28-3.34,2.15a43.83,43.83,0,0,1-5.23-.68A44.84,44.84,0,0,1,325,68c-2.09-.72-3.12-1.52-2.77-3.24.5-2.5,4.06-1.34,4.74-4.7l3.77-18.68c.58-2.86-3-4-2.41-6.89.32-1.58,1.95-2.29,4.89-1.7l3.22.65a5.82,5.82,0,0,1,4.8,4.62c-.06.66-.38,2.61-.39,3.42,0,.23.07.39.21.42a.58.58,0,0,0,.42-.22C344.69,37.82,349.42,35.43,354.5,36.45Z" style="fill:#ff6b00"/><path d="M390,45.9c1.41.4,2,.65,3,1a.59.59,0,0,0,.88-.43l1.77-6.17c.72-2.53,6.28-2.84,9.3-2.81a2.12,2.12,0,0,1,.66.11c1,.28,1,1.2.72,2.25l-2.77,9.69a.63.63,0,0,0,.52.83,60.37,60.37,0,0,1,6.65,1.45c3.16.9,1.53,6.58-1.62,5.68a58.43,58.43,0,0,1-6.37-2.42.6.6,0,0,0-.88.43l-5.2,18.18c-1.12,3.93-.55,5.38.72,5.74,1.75.5,5-1.14,6.85-.62a2,2,0,0,1,.79.45c1.8,2.19-3.13,8.29-11.62,5.87C389.19,83.92,384,81,386.62,72L392,53.07a.6.6,0,0,0-.52-.83c-.65-.11-1.52-.28-3.08-.65C385.44,50.82,387,45,390,45.9Z" style="fill:#ff6b00"/><path d="M431.77,57c9.88,2.62,16.48,10.19,13.13,22.82s-12.85,16-22.73,13.37S405.69,83,409.06,70.3,421.82,54.36,431.77,57Zm-2,4.52-.7-.19c-4.63-.77-8.05,2.7-9.59,12.49C418,83,420,87.55,424.13,88.65l.7.19c4.68.87,8-2.63,9.66-12.47C436,67.17,434,62.64,429.74,61.52Z" style="fill:#ff6b00"/><path d="M449,65.18c.27-1.58,1.89-2.34,4.84-1.82l3.23.57c2.73.48,5.65,2.84,5,6.58l-2.76,15.74c-.91,5.18.46,8.38,4.05,9,5,.89,9.55-8,10.6-12.29l1.19-6.76c.52-2.95-3.08-4-2.57-6.9.26-1.51,1.67-2.37,4.33-1.91l3.74.66c2.74.48,5.73,2.86,5.07,6.6L482,95.94c-.51,2.94,3,3.94,2.51,6.81-.29,1.65-1.9,2.41-4.85,1.89l-3.23-.56a5.85,5.85,0,0,1-4.95-5.17c0-1,.16-2.64.09-3.1a8.59,8.59,0,0,0-1.19.91c-3,3.33-7.14,5.64-11.74,4.83-7.48-1.31-11.11-6.39-9.79-13.94l2.73-15.53C452.09,69.13,448.5,68.05,449,65.18Z" style="fill:#ff6b00"/><path d="M498.74,88.3c0,7.85,4.11,11.58,9.16,12.46.37,0,.65.13,1,.16,3.78.33,7.43-1.25,10.54-4.13a2.82,2.82,0,0,1,2-.77c1,.09,1.67,1,.76,3-3.38,6.81-9.89,9.17-16.52,8.81-9.53-.84-16.27-6.71-16.8-16.57-1.05-13.87,7.71-21.83,20.36-20.72,7.85.69,13.14,3.13,14.71,9.36,1,4-2,6.63-5.46,6.33a6.7,6.7,0,0,1-3.48-1.33c-4.17-3.37-3.36-9.31-7.07-9.63-.14,0-.29,0-.51,0C502.88,75.33,498.65,80.09,498.74,88.3Z" style="fill:#ff6b00"/><path d="M525.71,56.81c0-1.67,1.52-2.66,4.51-2.6l3.28.07c2.78.07,6,2,5.94,5.83L539,79c0,.59.05.88.27.88s.37-.21.67-.56c2.65-4,6.58-6.87,11.47-6.76,7.81.17,12.31,4.65,12.14,12.38l-.35,16.13c-.08,3.58,3.07,3.14,3,5.84,0,1.9-1.15,2.53-2.91,2.71a39.34,39.34,0,0,1-10.73-.24c-2.18-.34-3.34-1-3.29-2.84.06-2.7,3.77-2.11,3.84-5.69l.29-13c.12-5.33-1.86-8.29-5.66-8.37-5.4-.12-8.67,9.3-9.06,13.82l-.16,7.22c-.08,3.58,3.07,3.14,3,5.84,0,1.89-1.15,2.53-2.91,2.71a39.34,39.34,0,0,1-10.73-.24c-2.18-.34-3.33-.95-3.3-2.7.06-2.55,3.77-2,3.85-5.46l.82-37.52C529.36,60.18,525.64,59.73,525.71,56.81Z" style="fill:#ff6b00"/><path d="M579.07,90.1c-.33,2.12-1,3.59-3,3.62s-2.8-1.42-3.2-3.53L569.68,68.7c-.88-5,1.69-8.86,6-8.93s6.92,3.84,6.2,8.74Zm-2.78,9.24c3.36,0,5.73,2,5.78,5.24s-2.26,5.37-5.61,5.42-5.8-2-5.85-5.24S572.86,99.39,576.29,99.34Z" style="fill:#ff6b00"/></svg>