<svg id="ab4356d4-f7c1-41db-975e-30556dcab57f" data-name="Layer 1" xmlns="http://www.w3.org/2000/svg" xmlns:xlink="http://www.w3.org/1999/xlink" viewBox="0 0 1300 400"><defs><clipPath id="e3e26826-7815-4f9f-974b-10f9753676d2"><rect x="0.55" y="-202.38" width="1300" height="712.51" style="fill:none"/></clipPath></defs><g style="clip-path:url(#e3e26826-7815-4f9f-974b-10f9753676d2)"><path d="M974.33,151.79a212.07,212.07,0,0,0-17.54,31.09c-36.37,80.48,69,151.17,130,87.17a211.4,211.4,0,0,0,22.21-28,253.55,253.55,0,0,0,36.78-199.7C1065.31,110.89,1015.42,90.79,974.33,151.79Z" style="fill:#00945e;fill-rule:evenodd"/><path d="M1136.32,216.75c-13.15,59.61-94,120.22-164.36,98.07C829.7,270,870,154.44,882.88,131.91Z" style="fill:#76236c"/><path d="M958.87,286c-69-30.5-91.14-71.83-62.32-149.5l231.35,77.45C1106.23,249.94,1049.12,325.87,958.87,286Z" style="fill:#fffef9"/><path d="M918.07,143.69l196.58,65.8c-21.28,30.71-85.56,91.23-166.51,47.62C915.68,239.62,892.86,193.76,918.07,143.69Z" style="fill:#ffd600"/><path d="M1087.27,121.91l-7-16.67S1175,56.88,1291.2,129.51l-12.64,13.07S1144.57,139.74,1087.27,121.91Z" style="fill:#ffd600"/><path d="M1164.19,281.68l-76.92-159.77s90.74-27,191.29,20.67C1235,194.21,1164.19,281.68,1164.19,281.68Z" style="fill:#ff6b00"/><path d="M1165.12,168.09l-56.56,46a6.92,6.92,0,0,0-1,9.75l46.12,56.45a7,7,0,0,0,9.77,1l56.57-46a6.92,6.92,0,0,0,1-9.75l-46.12-56.45A7,7,0,0,0,1165.12,168.09Z" style="fill:#fffef9"/><path d="M1138.49,199.85l-71.12-16.36a7,7,0,0,0-8.33,5.2l-16.4,71a6.94,6.94,0,0,0,5.21,8.32L1119,284.34a7,7,0,0,0,8.33-5.2l16.4-71A6.94,6.94,0,0,0,1138.49,199.85Z" style="fill:#fffef9"/><path d="M973.26,251.17l-70-20.68a7,7,0,0,0-8.63,4.68L873.92,305a6.92,6.92,0,0,0,4.69,8.61l70,20.68a6.94,6.94,0,0,0,8.63-4.68l20.72-69.84A6.92,6.92,0,0,0,973.26,251.17Z" style="fill:#fffef9"/><path d="M1020.29,223.69l-70-20.68a7,7,0,0,0-8.63,4.68L921,277.53a6.94,6.94,0,0,0,4.69,8.62l70,20.68a6.94,6.94,0,0,0,8.63-4.68L1025,232.31A6.94,6.94,0,0,0,1020.29,223.69Z" style="fill:#fffef9"/><path d="M990,201l-56.9,45.61a6.93,6.93,0,0,0-1.07,9.75l45.71,56.78a7,7,0,0,0,9.77,1.06l56.9-45.61a6.93,6.93,0,0,0,1.07-9.75l-45.71-56.78A7,7,0,0,0,990,201Z" style="fill:#fffef9"/><path d="M1024.72,178.53l-50.1,53a6.92,6.92,0,0,0,.28,9.8l53.07,50a7,7,0,0,0,9.82-.28l50.1-53a6.92,6.92,0,0,0-.28-9.8l-53.07-50A7,7,0,0,0,1024.72,178.53Z" style="fill:#fffef9"/><path d="M1290.41,369.37C1270.75,327.26,1214,199.92,1214,199.92L873.44,266.55s-3.65,140.76-6.67,185.72C863,508.07,838.67,604.48,997.56,634c0,0,26.46,10.57,89.72-1.42v0l17.49-3.43,49.86-9.77c63-12.73,83.43-32.46,83.43-32.46C1374,499.73,1314.66,421.32,1290.41,369.37Z" style="fill:#fdbbcb"/><polygon points="946.38 287.52 927.6 272.93 932.64 266.46 951.43 281.06 946.38 287.52" style="fill:#ff6b00"/><polygon points="1045.86 272.59 1027.07 258 1032.11 251.53 1050.9 266.13 1045.86 272.59" style="fill:#fffef9"/><polygon points="1021.76 255.93 1008.48 275.65 1001.67 271.08 1014.95 251.36 1021.76 255.93" style="fill:#ff6b00"/><polygon points="921.28 294.56 908.34 288.31 914.59 275.4 927.53 281.65 921.28 294.56" style="fill:#fffef9"/><rect x="956.7" y="266.41" width="12.41" height="12.38" transform="translate(-36.08 213.21) rotate(-12.4)" style="fill:#fffef9"/><polygon points="993.1 267.51 986.2 277.8 975.89 270.92 982.78 260.62 993.1 267.51" style="fill:#76236c"/><polygon points="1062.99 256.76 1051.55 251.97 1056.35 240.55 1067.79 245.34 1062.99 256.76" style="fill:#fffef9"/><polygon points="886.19 283.46 894.38 274.16 903.7 282.34 895.5 291.64 886.19 283.46" style="fill:#76236c"/><polygon points="941.56 370.54 948.34 347.76 956.21 350.1 949.42 372.87 941.56 370.54" style="fill:#ff6b00"/><polygon points="900.38 406.12 881.6 391.53 886.64 385.06 905.43 399.66 900.38 406.12" style="fill:#ff6b00"/><polygon points="924.36 393.07 911.42 386.83 917.67 373.92 930.61 380.16 924.36 393.07" style="fill:#fffef9"/><rect x="967.35" y="346.89" width="12.41" height="12.38" transform="translate(-53.12 217.38) rotate(-12.4)" style="fill:#fffef9"/><polygon points="1002.52 341.95 995.63 352.25 985.31 345.36 992.21 335.07 1002.52 341.95" style="fill:#76236c"/><polygon points="889.96 366.05 898.15 356.75 907.47 364.93 899.27 374.23 889.96 366.05" style="fill:#76236c"/><polygon points="1014.04 297.63 999.38 278.91 992.91 283.95 1007.57 302.68 1014.04 297.63" style="fill:#fffef9"/><polygon points="977.07 314.1 988.94 293.5 981.83 289.42 969.96 310.01 977.07 314.1" style="fill:#ff6b00"/><polygon points="926.84 333.29 938.72 312.69 931.6 308.61 919.73 329.2 926.84 333.29" style="fill:#76236c"/><polygon points="887.78 305.14 907.54 318.4 912.12 311.6 892.36 298.34 887.78 305.14" style="fill:#ff6b00"/><polygon points="955.79 314.13 942.85 307.88 949.11 294.98 962.04 301.22 955.79 314.13" style="fill:#fffef9"/><polygon points="1028.97 294.56 1017.53 289.76 1022.33 278.35 1033.78 283.14 1028.97 294.56" style="fill:#76236c"/><polygon points="997.48 303.68 1009.11 324.41 1001.95 328.42 990.32 307.68 997.48 303.68" style="fill:#ff6b00"/><polygon points="1076.78 231.5 1088.41 252.23 1081.25 256.23 1069.62 235.5 1076.78 231.5" style="fill:#ff6b00"/><polygon points="991.52 327.97 969.28 336.44 966.35 328.78 988.6 320.32 991.52 327.97" style="fill:#76236c"/><polygon points="972.68 373.25 953.96 387.92 948.89 381.48 967.62 366.81 972.68 373.25" style="fill:#76236c"/><polygon points="915.35 342.14 935.78 354.35 931.56 361.38 911.13 349.17 915.35 342.14" style="fill:#fffef9"/><polygon points="884.27 341.32 897.55 321.6 904.36 326.17 891.08 345.89 884.27 341.32" style="fill:#ff6b00"/><polygon points="949.86 321.47 940.24 332.12 950.92 341.72 960.53 331.07 949.86 321.47" style="fill:#ff6b00"/><rect x="1013.8" y="305.88" width="12.38" height="12.41" transform="translate(538.16 1263.72) rotate(-80.16)" style="fill:#fffef9"/><path d="M332.2,152.92a220.87,220.87,0,0,1,16.63,33.33c33.63,85.83-80,153.92-140.12,84a221.72,221.72,0,0,1-21.66-30.32A264.63,264.63,0,0,1,159.36,29.78C239.55,105.45,292.62,87.14,332.2,152.92Z" style="fill:#00945e;fill-rule:evenodd"/><path d="M114.61,97.2C196,145.18,278.29,186.72,354.2,244c-9.74,26.22-25,48.47-43.33,61.4-53.9,38.1-124.47,9.57-161.82-14.62C93.43,254.72,74.31,149.21,114.61,97.2Z" style="fill:#00945e"/><path d="M129.27,229.22c-20.71-37.42-13.27-85.07-2.19-124.73C199.91,146.86,273.16,185,341.63,234.67,312.91,326.39,167.46,298.21,129.27,229.22Z" style="fill:#bde9c9"/><path d="M373.48,150.58C357.9,139.45,337.05,134,319.2,141c-16,6.21-26.91,20.85-36.91,34.79l-38.63,53.78c-10.21,14.23-20.87,32.32-13.26,48.1,5.29,11,17.71,16.39,29.33,20.18a301.83,301.83,0,0,0,71.09,14c18.51,1.37,37.57.95,55-5.47s33.06-19.66,38.59-37.34C436.64,229.78,404.73,172.91,373.48,150.58Z" style="fill:#e10600"/><path d="M453.27,192.88c-1.35,7.14-2.91,17-4,21.43-5.8-7.53-23.47-9-26.57-9.05-6.16-.14-17.25,5.61-18.34-1C401,184.17,445.12,189.34,453.27,192.88Z" style="fill:#00945e"/><path d="M367.41,147.48a7.77,7.77,0,0,0-2.83,2.6,9.26,9.26,0,0,0-1.05,6.19c.77,5.2,4,10.67,6.7,15.15a51,51,0,0,0,4.83,6.85c2,2.32,4.42,4.06,6.45,6.26-7.05-7.65-15-15.82-26.46-14.51a11.64,11.64,0,0,0-10.55,11c-.16,6.93,6.36,11.29,12.51,13.65a60.41,60.41,0,0,0,24.65,3.9c-14.61.07-28.41,10.88-31.39,25.17a8.55,8.55,0,0,0,.9,6.21c2.54,4.22,7.19,3.54,11.09,2.58A143.42,143.42,0,0,0,395.12,220a46.37,46.37,0,0,0-14.67,30.84,13.16,13.16,0,0,0,1,6.16c4.1,9.42,15,5.9,18.55-.82,2.83-5.34,2.39-11.78,1.87-17.85a67.13,67.13,0,0,0,7.75,31.93,9.46,9.46,0,0,0,4.23,4.23c6.9,3.22,11.93-4.94,13.46-11.64A105.68,105.68,0,0,0,421.76,199a114.22,114.22,0,0,0-38.47-48.34c-3.33-2.4-6.89-4.39-11.11-4.36A10.22,10.22,0,0,0,367.41,147.48Z" style="fill:#00945e"/><path d="M136.44,171.08l56.51,51a7.23,7.23,0,0,1,.52,10.22l-51.08,56.4a7.28,7.28,0,0,1-10.25.51l-56.51-51A7.23,7.23,0,0,1,75.11,228l51.09-56.4A7.25,7.25,0,0,1,136.44,171.08Z" style="fill:#fffef9"/><path d="M162.51,205.6l75-13.28a7.25,7.25,0,0,1,8.4,5.86L259.23,273a7.24,7.24,0,0,1-5.87,8.39l-75,13.28a7.26,7.26,0,0,1-8.41-5.86L156.64,214A7.24,7.24,0,0,1,162.51,205.6Z" style="fill:#fffef9"/><path d="M327,266.62l74.05-17.84a7.25,7.25,0,0,1,8.75,5.34l10,74.29a7.24,7.24,0,0,1-5.35,8.73l-66.2,17.45a7.25,7.25,0,0,1-8.75-5.34l-17.88-73.9A7.24,7.24,0,0,1,327,266.62Z" style="fill:#fffef9"/><path d="M284.45,236.73l74.05-17.84a7.25,7.25,0,0,1,8.75,5.33l17.88,73.9a7.25,7.25,0,0,1-5.35,8.74l-74,17.84a7.25,7.25,0,0,1-8.75-5.34l-17.88-73.9A7.23,7.23,0,0,1,284.45,236.73Z" style="fill:#fffef9"/><path d="M317.21,214.7l56.88,50.56a7.23,7.23,0,0,1,.6,10.22L324,332.25a7.25,7.25,0,0,1-10.23.59l-56.89-50.57a7.23,7.23,0,0,1-.59-10.22L307,215.29A7.26,7.26,0,0,1,317.21,214.7Z" style="fill:#fffef9"/><path d="M282.24,189.41l49.41,57.87a7.23,7.23,0,0,1-.82,10.2l-58,49.31a7.25,7.25,0,0,1-10.22-.82l-49.4-57.87a7.22,7.22,0,0,1,.81-10.2l58-49.3A7.26,7.26,0,0,1,282.24,189.41Z" style="fill:#fffef9"/><path d="M76.26,208.82c.68.48,342.6,85.33,342.6,85.33s39.5,183.11-113.57,349.47c0,0-37.58,13.87-152.14-14.66S12,570.55,12,570.55C-44.82,351.92,76.26,208.82,76.26,208.82Z" style="fill:#db6015"/><path d="M74.62,188.57l356.72,88.86a10.39,10.39,0,1,1-5,20.16L69.58,208.73a10.39,10.39,0,1,1,5-20.16Z" style="fill:#db6015"/></g></svg>