<svg xmlns="http://www.w3.org/2000/svg" viewBox="0 0 217.84 39.91"><defs><style>.cls-1{fill:#ff6b00;}</style></defs><g id="Layer_2" data-name="Layer 2"><g id="ART"><path class="cls-1" d="M13.56,11.7A13.95,13.95,0,0,0,14,39.59a12.75,12.75,0,0,0,11.8-8.09.93.93,0,0,0,0-.14l0,0a17.84,17.84,0,0,1-6,2.23,10,10,0,0,1-6.13-.71C12,32,9.86,30.09,9.46,25.67c-.29-3.15.48-6.34,1.94-7.94A3.42,3.42,0,0,1,14,16.51c1.87,0,3.18,1.77,3.18,4.3,0,.39,0,.72,0,1a2.68,2.68,0,0,0,0,.8,7.82,7.82,0,0,0,3.24.67A4.41,4.41,0,0,0,23.52,22a4.82,4.82,0,0,0,1.38-3.37C24.9,13.85,19,11.7,13.56,11.7Z"/><path class="cls-1" d="M28.9,23c0,3.29-.35,13.41-.42,15.47h9.93V24.65c0-3.21.19-6.64,2.43-6.64,1.73,0,1.73,2.15,1.73,3,0,.38,0,.68,0,.92,0,.44,0,.53,0,.66l0,0a3.56,3.56,0,0,0,2.14.76c3,0,6.06-1.94,6.06-6.28a5,5,0,0,0-5.31-5.37c-2.36,0-4.84,2.19-6.17,5.44l-.71,1.57L38.16,17A6.38,6.38,0,0,0,31.6,11.7c-1.87,0-5.14,1.33-5.87,3.33l.2.12C27.47,16,28.9,17.53,28.9,23Z"/><path class="cls-1" d="M79.7,28.34c0-3.29.3-13.47.37-15.52H70.13v5.76L69,16.51a8.38,8.38,0,0,0-7.43-4.76c-6.64,0-10.12,7-10.12,13.87,0,9.07,5.08,14,9.86,14,4.27,0,6.78-3.58,7.9-5.71L70,32.31l.32,1.74A6.47,6.47,0,0,0,77,39.64c2.86,0,5.39-2,5.82-3.35l-.19-.11C81.11,35.33,79.7,33.79,79.7,28.34Zm-13.86,5.1c-2.81,0-4.62-3.07-4.62-7.82s1.81-7.88,4.62-7.88,4.61,3.09,4.61,7.88S68.64,33.44,65.84,33.44Z"/><path class="cls-1" d="M97.22,0c-4.54,0-7.1,1.69-8.44,3.1-2,2.09-2.89,5.14-2.7,9.08l0,.64H82.82v3.8H86V38.47h9.51V16.62h7.32v-3.8H95.48l-.16-.37c-.75-1.78-2.35-6.15-1-8.26a2.68,2.68,0,0,1,2.38-1.14c1.66,0,2.64,1.27,2.64,3.39a7.85,7.85,0,0,1-.33,2.27c0,.13-.08.29-.1.39a8.31,8.31,0,0,0,3.29.68,4.41,4.41,0,0,0,3.18-1.26,4,4,0,0,0,1.13-2.87C106.55,2.32,102.71,0,97.22,0Z"/><path class="cls-1" d="M117.82,12.21c0-3.49,0-6.53,0-7.73L108.25,8.4v4.42h-2.94v3.8h2.94V32.13a7.37,7.37,0,0,0,3.34,6.64A9.46,9.46,0,0,0,116,39.91c3.7,0,7.45-1.95,8.74-4.52v0a.72.72,0,0,0,.12-.45.64.64,0,0,0-.28,0c-.28,0-.6,0-1,0-2,.13-5.06.32-5.74-3.92v0a15.43,15.43,0,0,1-.11-1.78V16.62h6.67v-3.8h-6.67Z"/><path class="cls-1" d="M126,15.1c1.52.85,2.93,2.39,2.93,7.85,0,3.29-.3,13.46-.36,15.52h9.93v-14c0-4.06,2-6.57,3.85-6.57a2,2,0,0,1,1.77,1.05,5.05,5.05,0,0,1,.62,2.69c0,.38,0,.78,0,1.18,0,.86,0,1.76,0,2.64,0,3.05,0,11.27.05,13h9.93c-.07-1.72-.41-10-.41-13.07v-1c0-4.06,2-6.57,3.85-6.57a2,2,0,0,1,1.77,1.05,5.05,5.05,0,0,1,.62,2.69V32a7.5,7.5,0,0,0,2.14,5.51,7.22,7.22,0,0,0,5.1,2c2.8,0,5.37-2,5.88-3.29l-.27-.14c-1.7-.86-3.28-2.41-3.28-7.87V19.85c0-4.76-2.84-8.21-6.76-8.21-1.26,0-5.56.44-8.15,6l-.77,1.64-.38-1.77c-.78-3.57-3.33-5.88-6.51-5.88-2.52,0-6,1.53-8,5.8l-.8,1.64-.35-1.79a6.53,6.53,0,0,0-6.72-5.65c-2.86,0-5.39,2-5.82,3.35Z"/><path class="cls-1" d="M179.93,9C183,9,185.57,7,185.57,4.62S183,.27,179.93.27s-5.58,2-5.58,4.35S176.85,9,179.93,9Z"/><path class="cls-1" d="M179.13,11.64c-1.86,0-5.13,1.33-5.87,3.34l.21.12c1.54.84,3,2.37,3,7.85,0,3.29-.34,13.46-.41,15.52H186V19.15C186,14.59,183.27,11.64,179.13,11.64Z"/><path class="cls-1" d="M209.45,25.23c3.87-.86,8.39-3.3,8.39-7.36,0-3.45-2.74-6-6.5-6a6.13,6.13,0,0,0-4.23,1.66,2.25,2.25,0,0,0-.71,1.32l.33.43c.93,1.18,2.68,3.39,2.11,5.14a2.7,2.7,0,0,1-2,1.68l-.43.13-6.23-9.45H189.47l8.74,12.5-.89.2c-6,1.37-8.75,4.05-8.55,8.45.15,3.45,2.72,5.67,6.55,5.67a6.06,6.06,0,0,0,4.2-1.67,2.28,2.28,0,0,0,.74-1.39l-.39-.56c-1-1.31-2.58-3.52-2-5.3A2.94,2.94,0,0,1,200.13,29l.43-.12,6.21,9.61h10.94l-9.16-13Z"/></g></g></svg>