<svg xmlns="http://www.w3.org/2000/svg" viewBox="0 0 344 61.48"><g id="bf77ca37-f374-4a22-9fd1-95b300ad96c8" data-name="Layer 2"><g id="a22fdb52-fb91-44b2-a389-0b6affd8a26f" data-name="ART"><rect x="90.85" y="12.72" width="28.85" height="9.95" transform="translate(49.56 -73.37) rotate(49)" style="fill:#fffef9"/><rect x="213.9" y="12.72" width="28.85" height="9.95" transform="translate(91.87 -166.22) rotate(49)" style="fill:#fffef9"/><rect x="132.75" y="10.28" width="28.85" height="9.95" transform="translate(32.32 108.54) rotate(-45)" style="fill:#fffef9"/><rect x="252.69" y="10.58" width="28.85" height="9.95" transform="translate(67.24 193.44) rotate(-45)" style="fill:#fffef9"/><rect x="173.06" y="8.74" width="28.85" height="9.95" transform="translate(45.21 136.59) rotate(-45)" style="fill:#fffef9"/><rect x="243.77" y="40.15" width="28.85" height="9.95" transform="translate(461.66 -120.12) rotate(131)" style="fill:#fffef9"/><rect x="315.86" y="39.8" width="28.85" height="9.95" transform="translate(532.18 309.98) rotate(-135)" style="fill:#fffef9"/><rect x="132.75" y="40.15" width="28.85" height="9.95" transform="translate(277.79 -36.34) rotate(131)" style="fill:#fffef9"/><rect x="82.01" y="42.36" width="28.85" height="9.95" transform="translate(195.43 5.61) rotate(131)" style="fill:#fffef9"/><rect x="192.04" y="37.72" width="28.85" height="9.95" transform="translate(322.26 218.87) rotate(-135)" style="fill:#fffef9"/><rect x="293.4" y="12.72" width="28.85" height="9.95" transform="translate(77.65 222.85) rotate(-45)" style="fill:#fffef9"/><rect x="13.01" y="12.72" width="28.85" height="9.95" transform="translate(22.79 -14.62) rotate(49)" style="fill:#fffef9"/><rect x="-0.71" y="37.72" width="28.85" height="9.95" transform="translate(-26.17 22.2) rotate(-45)" style="fill:#fffef9"/><rect x="54.67" y="12.72" width="28.85" height="9.95" transform="translate(37.11 -46.06) rotate(49)" style="fill:#fffef9"/><rect x="41.21" y="37.72" width="28.85" height="9.95" transform="translate(64.79 112.21) rotate(-135)" style="fill:#fffef9"/><rect x="281.88" y="39.45" width="28.85" height="9.95" transform="translate(474.41 285.35) rotate(-135)" style="fill:#fffef9"/></g></g></svg>