<svg id="a87203c9-f6aa-4772-bd1c-9b04b71ae3dc" data-name="Layer 1" xmlns="http://www.w3.org/2000/svg" xmlns:xlink="http://www.w3.org/1999/xlink" viewBox="0 0 1920 2050"><defs><clipPath id="ae0be1dc-1667-4739-9996-d39506cf9384"><path d="M-.66,94.3-.83,1.84C212.66,1.84,397.5-7.92,563.91-28,712.14-45.89,833.25-70.25,950.37-93.81c238.09-47.89,484.45-97.41,968.8-97.41l-.17,44.51.17,0V1858.05H-.83V94.32Z" style="fill:none"/></clipPath></defs><g style="clip-path:url(#ae0be1dc-1667-4739-9996-d39506cf9384)"><path d="M2046.58,96.1c.52-12.22,6-57.73,9.81-67.6-76.76-23.33-158.34-13.33-249.78,7-19.92,4.43-50.18,11.78-72.17,20.13,3.7,4.81,7.07,48.51,10.15,59.75,9.44,34.45,18.54,68.33,32,100.78q4.84,11.64,10.52,22.57c13.24-6.83,26.51-13.09,39.46-18.21-3.67,12.27-16.84,47.26-18.51,52.92,30.49,43.69,71.3,78.56,117.57,108.26,46.12,29.59,100,53.6,158.46,69.41,6.79-4.73,53.59-31.48,67.25-37.82-4.55,14.38-8.76,34.61-19.52,48.67,64.75,12,133.63,13.78,202.65,2.05,12.46-27.07,9.87-65.67,7.66-90.72-1.21-13.72-2.6-27.57-4.43-41.31-11.09,5.73-22.47,10.46-32.3,12.13,1.78-10,19.84-46.52,24.92-53.93-6.17-26.82-15.32-52.16-29.74-74C2254.32,145.92,2188.86,91.47,2112.45,52,2100.38,61.08,2058.51,94.3,2046.58,96.1Z" style="fill:#fdbbcb"/><path d="M-109.93,1435.73c-10.22-6.71-46.52-34.71-53-43.08-59.39,53.94-92.63,129.11-122.06,218-6.41,19.37-15.62,49.12-19.73,72.28,6-.71,45.28,18.8,56.51,21.92,34.41,9.56,68.16,19.11,103,24.17,8.32,1.2,16.57,2,24.77,2.54.92-14.88,2.35-29.47,4.6-43.22,8.65,9.44,31.94,38.69,35.94,43,53.15-3.77,104-20.93,153.23-45.43,49.05-24.41,97.32-58.4,140.84-100.45-.58-8.25.45-62.15,2-77.13,10,11.28,25.22,25.27,31.78,41.72,43.49-49.45,80.35-107.66,105.67-172.94-16.85-24.57-51.32-42.14-74-53.09-12.4-6-25-11.9-37.75-17.38-.76,12.46-2.53,24.66-6.14,34-7.69-6.67-29.77-40.9-33.53-49.05-26.18-8.46-52.63-13.59-78.8-12.43-84,3.74-164.34,32-237.41,77.39C-112.42,1371.59-105.36,1424.57-109.93,1435.73Z" style="fill:#00945e"/><path d="M344.93,561.24C181.58,461,16.8,346.51-157.95,264.93c-37.83,42.39-144.21,275.55,123.12,421.52C83.13,750.87,289.79,682.87,344.93,561.24Z" style="fill:#ff6b00"/><path d="M82.73,657.16c95.64,8.36,170.88-57.71,233.07-113.93-144.73-90-291-189-444.69-264.35C-226.63,459.69-93.39,641.77,82.73,657.16Z" style="fill:#ffd600"/><path d="M2101.43,844c-155.34,123.84-325.16,244-466.38,385.55,28,51.84,217.66,237.85,454.34,28.82C2193.83,1166.18,2200.52,940.73,2101.43,844Z" style="fill:#ff6b00"/><path d="M2102.35,1133.48c41.92-90.27,4.09-186.94-28.76-267.41-138.86,109.29-287,216.9-414.69,340.12C1800.64,1365.29,2025.16,1299.71,2102.35,1133.48Z" style="fill:#ffd600"/><rect x="1795.18" y="413.94" width="94.52" height="32.59" transform="translate(-2.22 9.6) rotate(-0.3)" style="fill:#fffef9"/><rect x="1901.39" y="401.71" width="94.52" height="32.59" transform="translate(1569.56 -1538.59) rotate(66.93)" style="fill:#fffef9"/><rect x="1832.34" y="506.06" width="94.52" height="32.59" transform="translate(3759.18 -0.12) rotate(148.93)" style="fill:#fffef9"/><rect x="1719.79" y="341.97" width="94.52" height="32.59" transform="translate(3465.54 -246.68) rotate(148.93)" style="fill:#fffef9"/><rect x="1902.94" y="565.54" width="94.52" height="32.59" transform="translate(3981.16 451.43) rotate(159.71)" style="fill:#fffef9"/><rect x="17.37" y="1214.54" width="94.52" height="32.59" transform="translate(1250.2 1567.82) rotate(108.87)" style="fill:#fffef9"/><rect x="-5.96" y="1318.88" width="94.52" height="32.59" transform="translate(173.36 2664.44) rotate(176.1)" style="fill:#fffef9"/><rect x="110.11" y="1166.96" width="94.52" height="32.59" transform="translate(-968.05 1581.14) rotate(-101.89)" style="fill:#fffef9"/><rect x="-44.21" y="1432.34" width="94.52" height="32.59" transform="translate(-774.53 226.38) rotate(-32.34)" style="fill:#fffef9"/></g></svg>