<svg xmlns="http://www.w3.org/2000/svg" viewBox="0 0 676.6 778.3"><path d="M246,101.9A295.9,295.9,0,0,0,214.3,139C144.4,237.5,267,360.2,365.5,290.2a281.7,281.7,0,0,0,37.2-31.7A347.5,347.5,0,0,0,504.5,0C378.7,70.9,317.1,30.7,246,101.9Z" style="fill:#00945e;fill-rule:evenodd"/><path d="M446,231.7c-33.3,76.6-157.7,136.7-246.1,88.5C21.1,222.6,105.4,78,128.7,51.1Z" style="fill:#76236c"/><path d="M190,278C105.6,218.9,86.7,157.6,145.8,60.9L435.5,225.7C397,268.3,300.4,355.3,190,278Z" style="fill:#fffef9"/><path d="M172.8,76.2l246.1,140c-36.6,35.7-138.7,100.1-235.7,20.2C144.3,204.4,125.8,136.8,172.8,76.2Z" style="fill:#ffd600"/><path d="M405.3,91.4l-5-24.2s139.6-40.1,276.3,88l-20.4,14.2S477.3,130.4,405.3,91.4Z" style="fill:#ffd600"/><path d="M466.3,326.2l-61-234.8s128.7-12.5,250.9,78C584.2,227.3,466.3,326.2,466.3,326.2Z" style="fill:#ff6b00"/><path d="M497.4,173.9l-87.9,46.9a9.6,9.6,0,0,0-3.9,12.9l46.9,87.9a9.6,9.6,0,0,0,12.9,3.9l87.9-46.9a9.5,9.5,0,0,0,3.9-12.9l-46.9-87.9A9.6,9.6,0,0,0,497.4,173.9Z" style="fill:#fffef9"/><path d="M453.4,209.6l-91-40.7a9.6,9.6,0,0,0-12.6,4.8l-40.6,91a9.4,9.4,0,0,0,4.8,12.5l91,40.7a9.5,9.5,0,0,0,12.5-4.8l40.7-91A9.5,9.5,0,0,0,453.4,209.6Z" style="fill:#fffef9"/><path d="M218.4,235l-88.3-46.1a9.5,9.5,0,0,0-12.8,4L71.1,281.2a9.5,9.5,0,0,0,4,12.8l88.4,46.2a9.6,9.6,0,0,0,12.8-4l46.1-88.4A9.4,9.4,0,0,0,218.4,235Z" style="fill:#fffef9"/><path d="M288.7,210.5l-88.4-46.2a9.5,9.5,0,0,0-12.8,4.1l-46.1,88.3a9.3,9.3,0,0,0,4,12.8l88.3,46.2a9.5,9.5,0,0,0,12.8-4l46.2-88.4A9.5,9.5,0,0,0,288.7,210.5Z" style="fill:#fffef9"/><path d="M254.1,172.1l-88.3,46.3a9.5,9.5,0,0,0-4,12.8l46.3,88.3a9.6,9.6,0,0,0,12.8,4l88.3-46.3a9.6,9.6,0,0,0,4-12.8l-46.3-88.3A9.5,9.5,0,0,0,254.1,172.1Z" style="fill:#fffef9"/><path d="M306.5,151l-81.1,58a9.5,9.5,0,0,0-2.2,13.2l58,81.1a9.4,9.4,0,0,0,13.2,2.2l81.1-57.9a9.6,9.6,0,0,0,2.2-13.3l-58-81.1A9.5,9.5,0,0,0,306.5,151Z" style="fill:#fffef9"/><path d="M612.3,477.1c-15.2-61.7-57.8-247.6-57.8-247.6H80.6s-42,188-57.9,247.6C10.2,524.2-7.8,571.7,3.6,621c17.1,74,94.7,121.2,162.9,140.6,73.3,20.7,150.5,18.9,225.7,11.9,67.5-6.3,131.4-25.5,184.7-69.3,47.6-39.3,64.8-92.8,54.3-152.8C626.8,526.2,618.5,501.9,612.3,477.1Z" style="fill:#fdbbcb"/><path d="M222,273.8a13.6,13.6,0,0,0-9.2,23.2,13.8,13.8,0,0,0,9.6,3.9,12.4,12.4,0,0,0,11.5-7.8v-.2h0a16.5,16.5,0,0,1-5.8,2.2,9.7,9.7,0,0,1-6-.7c-1.6-.8-3.7-2.7-4.1-7s.5-6.2,1.9-7.7a3.3,3.3,0,0,1,2.5-1.2c1.8,0,3.1,1.7,3.1,4.2v.9c-.1.4-.1.7,0,.8a6.9,6.9,0,0,0,3.1.7,4.3,4.3,0,0,0,3.1-1.3,4.7,4.7,0,0,0,1.4-3.3C233.1,275.9,227.3,273.8,222,273.8Z" style="fill:#ff6b00"/><path d="M237,284.8c0,3.2-.4,13-.5,15h9.7V286.4c0-3.1.2-6.5,2.4-6.5s1.7,2.1,1.7,2.9-.1.7-.1.9a1.3,1.3,0,0,0,.1.7h0a3.6,3.6,0,0,0,2.1.7,5.7,5.7,0,0,0,5.9-6.1,4.9,4.9,0,0,0-5.2-5.2c-2.3,0-4.7,2.1-6,5.3l-.7,1.5L246,279a6.2,6.2,0,0,0-6.4-5.2c-1.8,0-5,1.3-5.7,3.2,0,.1.1.1.2.2S237,279.5,237,284.8Z" style="fill:#ff6b00"/><path d="M286.4,290c0-3.2.3-13.1.3-15.1h-9.6v5.6l-1.1-2c-1.2-2.1-3.4-4.7-7.3-4.7-6.4,0-9.8,6.8-9.8,13.5,0,8.9,4.9,13.6,9.6,13.6s6.6-3.4,7.7-5.5l.8-1.6.3,1.7a6.3,6.3,0,0,0,6.5,5.5c2.7,0,5.2-2,5.6-3.3h-.2C287.8,296.8,286.4,295.3,286.4,290Zm-13.5,4.9c-2.7,0-4.5-2.9-4.5-7.6s1.8-7.6,4.5-7.6,4.5,3,4.5,7.6S275.6,294.9,272.9,294.9Z" style="fill:#ff6b00"/><path d="M303.4,262.4c-4.4,0-6.9,1.7-8.2,3s-2.8,5-2.6,8.9v.6h-3.2v3.7h3.1v21.2h9.3V278.6h7.1v-3.7h-7.2v-.4c-.8-1.7-2.3-6-1-8a2.9,2.9,0,0,1,2.4-1.1c1.6,0,2.5,1.2,2.5,3.3a9.6,9.6,0,0,1-.3,2.2c0,.1-.1.3-.1.4a8.9,8.9,0,0,0,3.2.6,4.3,4.3,0,0,0,3.1-1.2,3.9,3.9,0,0,0,1.1-2.8C312.5,264.7,308.8,262.4,303.4,262.4Z" style="fill:#ff6b00"/><path d="M323.5,274.3c0-3.4-.1-6.4-.1-7.5l-9.2,3.8v4.3h-2.9v3.7h2.9v15.1c0,2.9,1.1,5.2,3.2,6.4a8.3,8.3,0,0,0,4.3,1.1c3.6,0,7.3-1.9,8.5-4.4h0a.6.6,0,0,0,.2-.4h-1.2c-2,.1-5,.3-5.6-3.8h0a8.6,8.6,0,0,1-.1-1.7V278.6H330v-3.7h-6.5Z" style="fill:#ff6b00"/><path d="M331.4,277.1c1.5.8,2.9,2.3,2.9,7.6,0,3.2-.3,13.1-.4,15.1h9.7V286.2c0-4,1.9-6.4,3.7-6.4a2.1,2.1,0,0,1,1.7,1,5,5,0,0,1,.7,2.6v3.8c-.1,2.9,0,10.9,0,12.6h9.7c-.1-1.6-.4-9.7-.4-12.7v-.9c0-4,1.9-6.4,3.7-6.4a2.1,2.1,0,0,1,1.7,1,5,5,0,0,1,.6,2.6v10.1a7.7,7.7,0,0,0,2.1,5.4,7.4,7.4,0,0,0,5,1.9c2.7,0,5.2-1.9,5.7-3.2h-.3c-1.6-.9-3.2-2.4-3.2-7.7v-8.1c0-4.6-2.7-8-6.5-8-1.3,0-5.4.5-8,5.9l-.7,1.6-.4-1.7c-.7-3.5-3.2-5.8-6.3-5.8s-5.8,1.5-7.8,5.7l-.8,1.6-.4-1.8a6.3,6.3,0,0,0-6.5-5.5c-2.8,0-5.2,2-5.7,3.3Z" style="fill:#ff6b00"/><path d="M383.9,271.2c3,0,5.5-2,5.5-4.3s-2.5-4.2-5.5-4.2-5.4,1.9-5.4,4.2S380.9,271.2,383.9,271.2Z" style="fill:#ff6b00"/><path d="M383.1,273.7c-1.8,0-5,1.3-5.7,3.3h.2c1.5.8,2.9,2.3,2.9,7.6,0,3.2-.3,13.1-.4,15.1h9.7V281C389.8,276.6,387.2,273.7,383.1,273.7Z" style="fill:#ff6b00"/><path d="M412.6,287c3.8-.9,8.2-3.3,8.2-7.2s-2.7-5.8-6.3-5.8a6.1,6.1,0,0,0-4.2,1.6,1.9,1.9,0,0,0-.6,1.3c0,.1.2.3.3.4s2.6,3.3,2,5a2.5,2.5,0,0,1-1.9,1.7h-.5l-6-9.2H393.2l8.5,12.1-.9.2c-5.9,1.4-8.5,4-8.3,8.3s2.6,5.5,6.4,5.5a6.5,6.5,0,0,0,4.1-1.6,2.6,2.6,0,0,0,.7-1.4l-.4-.5c-.9-1.3-2.5-3.5-1.9-5.2a2.9,2.9,0,0,1,2.2-1.7h.4l6,9.3h10.7l-9-12.6Z" style="fill:#ff6b00"/></svg>