<svg xmlns="http://www.w3.org/2000/svg" viewBox="0 0 60.42 60.42"><g id="adb7fa5c-2bae-4af6-9e41-a3b0c3677311" data-name="Layer 2"><g id="a3a4ec87-49fd-4fcc-b55a-651c1cd1e7f4" data-name="FOOTER"><circle cx="30.21" cy="30.21" r="28.21" style="fill:none;stroke:#ff6b00;stroke-miterlimit:10;stroke-width:4px"/><path d="M22.36,24.85c.75,0,1.18,0,1.78.08a.33.33,0,0,0,.39-.36v-3c0-5.82,6.22-6.73,8.14-6.73,2.8,0,5.44.24,6.85,2.09s.59,4.25-2,4.25-2.47-3.86-4.68-3.94S30,18.94,30,21v3.9c0,.27.16.31.39.31a33.62,33.62,0,0,1,4-.31c1.77,0,1.77,3.19,0,3.19a25.65,25.65,0,0,1-4-.44c-.23,0-.39,0-.39.32v12c0,1.89,2,1.61,2,3,0,.94-.59,1.22-1.81,1.38a16.2,16.2,0,0,1-2.8.19,19.88,19.88,0,0,1-3-.19c-1.18-.12-1.81-.44-1.81-1.38,0-1.42,2-1.14,2-3V28.27a.34.34,0,0,0-.39-.35c-.44,0-1,.08-1.78.12C20.67,28.07,20.59,24.85,22.36,24.85Z" style="fill:#ff6b00"/></g></g></svg>