<svg id="a1b2a85d-b097-49e6-9f0f-62954a30ced5" data-name="Layer 1" xmlns="http://www.w3.org/2000/svg" xmlns:xlink="http://www.w3.org/1999/xlink" viewBox="0 0 1300 2000"><defs><clipPath id="fd0183d7-d344-48e7-aa26-482e7f4a3fa0"><path id="e6bcab2e-7fae-44f8-8071-39336e678dc2" data-name="SVGID" d="M.26,117.74c144.68,0,269.15-5.82,381.92-17.8C482.64,89.26,564.71,74.73,644.09,60.68,805.44,32.11,972.4-.39,1300.64-.39l-.12,29.51h.12V2001.25H.26Z" style="fill:none"/></clipPath></defs><g style="clip-path:url(#fd0183d7-d344-48e7-aa26-482e7f4a3fa0)"><path d="M1368.14,882c.34-8,3.9-37.87,6.43-44.34-50.35-15.31-103.86-8.75-163.83,4.59-13.07,2.9-32.92,7.73-47.34,13.2,2.43,3.15,4.64,31.82,6.66,39.19,6.19,22.6,12.16,44.82,21,66.11q3.17,7.62,6.9,14.8a282.24,282.24,0,0,1,25.88-11.94c-2.41,8-11,31-12.14,34.7,20,28.66,46.76,51.53,77.12,71s65.61,35.16,103.93,45.53c4.45-3.1,35.15-20.65,44.11-24.81-3,9.44-5.75,22.71-12.8,31.93a380.7,380.7,0,0,0,132.92,1.34c8.17-17.75,6.47-43.07,5-59.5-.79-9-1.7-18.09-2.9-27.1-7.28,3.76-14.74,6.86-21.19,8,1.17-6.57,13-30.52,16.34-35.38-4-17.58-10-34.21-19.5-48.55-30.37-46.07-73.31-81.78-123.42-107.67C1403.43,859,1376,880.77,1368.14,882Z" style="fill:#fdbbcb"/><path d="M-129.58,1806.43c-6.7-4.4-30.5-22.76-34.76-28.25-39,35.38-60.76,84.68-80.07,143-4.2,12.71-10.24,32.22-12.94,47.41,4-.47,29.7,12.33,37.07,14.38,22.57,6.27,44.71,12.54,67.53,15.85,5.45.79,10.86,1.33,16.24,1.67.61-9.76,1.55-19.33,3-28.35,5.67,6.19,21,25.38,23.58,28.22,34.85-2.47,68.21-13.73,100.5-29.8s63.83-38.31,92.38-65.89c-.38-5.41.29-40.76,1.32-50.59,6.57,7.4,16.54,16.58,20.84,27.36A380.68,380.68,0,0,0,174.44,1768c-11.05-16.11-33.66-27.64-48.51-34.82-8.13-3.93-16.4-7.81-24.76-11.4-.5,8.17-1.66,16.18-4,22.27-5-4.37-19.52-26.82-22-32.17-17.17-5.55-34.52-8.91-51.68-8.15-55.13,2.45-107.8,21-155.73,50.76C-131.21,1764.36-126.58,1799.12-129.58,1806.43Z" style="fill:#fdbbcb"/><path d="M102.16,1017.61c-123.3,24.4-253.67,42.52-374.18,81,.63,37.26,53.11,197,246.89,148.35C60.38,1225.49,129.72,1100.76,102.16,1017.61Z" style="fill:#ff6b00"/><path d="M18.49,1180.51C68.3,1142,75.16,1076.66,80.12,1021.89c-109.81,21-224.36,38.39-331.93,70.48C-218.46,1223-73.23,1251.45,18.49,1180.51Z" style="fill:#ffd600"/><path d="M1504.68,1730.24c-99.32-77-198.53-163.54-306.62-229.26-27.7,24.92-113.78,169.3,50,283.66C1320.38,1835.09,1460,1805.59,1504.68,1730.24Z" style="fill:#00a35b"/><path d="M1326.85,1774c61.75,12.31,115.55-25.37,160.13-57.56-87.91-69.08-176.17-144.13-271-204.25C1139.32,1623,1213.13,1751.3,1326.85,1774Z" style="fill:#bde9c9"/><path d="M170,353.74C81.54,264.42-5.57,165.74-104.17,86.5-134.89,107.6-239,239.55-91.5,374.26-26.4,433.7,115.87,422.63,170,353.74Z" style="fill:#00a35b"/><path d="M-12,373.94c59.63,20.25,117.88-10.1,166.27-36.22C76.07,257.78-1.67,171.88-87.83,99.92-178.31,199.86-121.84,336.65-12,373.94Z" style="fill:#bde9c9"/><path d="M1423.2,104.33c-101.89,81.23-213.27,160.06-305.9,252.89,18.33,34,142.77,156,298,18.91C1483.81,315.63,1488.2,167.76,1423.2,104.33Z" style="fill:#ff6b00"/><path d="M1423.81,294.18c27.49-59.21,2.68-122.61-18.86-175.39-91.09,71.68-188.26,142.26-272,223.08C1225.91,446.23,1373.18,403.22,1423.81,294.18Z" style="fill:#ffd600"/><rect x="1206.55" y="1080.3" width="62" height="21.38" transform="translate(-5.66 6.46) rotate(-0.3)" style="fill:#fffef9"/><rect x="1276.21" y="1072.28" width="62" height="21.38" transform="translate(1791.27 -544.08) rotate(66.93)" style="fill:#fffef9"/><rect x="1230.92" y="1140.73" width="62" height="21.38" transform="matrix(-0.86, 0.52, -0.52, -0.86, 2937, 1486.51)" style="fill:#fffef9"/><rect x="1157.09" y="1033.1" width="62" height="21.38" transform="translate(2744.4 1324.78) rotate(148.93)" style="fill:#fffef9"/><rect x="1277.22" y="1179.74" width="62" height="21.38" transform="translate(2948.03 1853.44) rotate(159.71)" style="fill:#fffef9"/><rect x="-46.08" y="1661.35" width="62" height="21.38" transform="translate(1562.2 2227.16) rotate(108.87)" style="fill:#fffef9"/><rect x="-61.38" y="1729.79" width="62" height="21.38" transform="translate(57.74 3478.99) rotate(176.1)" style="fill:#fffef9"/><rect x="14.75" y="1630.14" width="62" height="21.38" transform="translate(-1550.42 2023.81) rotate(-101.89)" style="fill:#fffef9"/><rect x="55.25" y="69.17" width="62" height="21.38" transform="translate(189.72 24.08) rotate(108.87)" style="fill:#fffef9"/><rect x="39.95" y="137.61" width="62" height="21.38" transform="translate(151.83 291.42) rotate(176.1)" style="fill:#fffef9"/><rect x="-9.82" y="72.35" width="62" height="21.38" transform="translate(-55.71 120.88) rotate(-101.89)" style="fill:#fffef9"/><rect x="116.08" y="37.96" width="62" height="21.38" transform="translate(129.79 202.6) rotate(-101.89)" style="fill:#fffef9"/><rect x="-21.46" y="170.8" width="62" height="21.38" transform="translate(187.99 147.1) rotate(82.1)" style="fill:#fffef9"/><rect x="14.86" y="212.03" width="62" height="21.38" transform="translate(-112.03 59.09) rotate(-32.34)" style="fill:#fffef9"/></g></svg>