<svg id="fbc41dd8-7e3a-4891-a2b5-2b07d709c6e4" data-name="Layer 1" xmlns="http://www.w3.org/2000/svg" viewBox="0 0 900 300"><path d="M64,111c1.39-2.88-2.45-2.38-2.64-5-.22-3,4.29-3.31,7.21-3.53s7.2-.53,7.44,2.68c.2,2.76-2.66,2.68-4.19,5.72L60.42,134.62l.7,9.53c.19,2.7,3.76,2.36,3.95,5.06.14,1.89-1.12,2.64-3.58,3a34.69,34.69,0,0,1-4.85.72,42,42,0,0,1-5.27,0c-2.49,0-3.85-.59-4-2.49-.2-2.69,3.38-2.88,3.18-5.57L50,137.87,34.25,114.21c-2-3.07-5.26-2.9-5.46-5.67-.14-1.82,1.6-3.05,3.64-3.2l3.86-.28c5.53-.4,8.24,4.59,9.32,6.34l9.68,15.18c.24.27.47.47.69.46s.42-.25.62-.56Z" style="fill:#ff6b00"/><path d="M89.17,111.9c10.1-1.55,19.18,2.76,21.15,15.68s-5.4,19.8-15.51,21.34-19.18-2.76-21.16-15.75S79,113.45,89.17,111.9Zm-.06,4.95-.72.11c-4.55,1.14-6.3,5.69-3.8,15.28,2.33,9,6,12.38,10.21,11.74l.72-.12c4.63-1.07,6.31-5.61,3.87-15.28C97.06,119.56,93.44,116.19,89.11,116.85Z" style="fill:#ff6b00"/><path d="M108.17,112.37c-.38-1.56.79-2.9,3.69-3.62l3.19-.79c2.69-.67,6.32.31,7.23,4l3.85,15.52c1.27,5.1,3.81,7.48,7.36,6.6,5-1.23,5.5-11.15,4.72-15.54l-1.66-6.66c-.72-2.9-4.44-2.43-5.14-5.27-.37-1.48.57-2.84,3.19-3.5l3.69-.91c2.69-.67,6.39.3,7.3,4l5.2,21c.73,2.9,4.36,2.38,5.06,5.21.4,1.63-.77,3-3.67,3.7l-3.19.79a5.86,5.86,0,0,1-6.62-2.72c-.38-1-.91-2.48-1.16-2.87a7.75,7.75,0,0,0-.73,1.31c-1.35,4.24-4.24,8-8.78,9.17-7.37,1.83-12.74-1.35-14.59-8.79l-3.79-15.3C112.59,114.73,108.88,115.2,108.17,112.37Z" style="fill:#ff6b00"/><path d="M199.85,123.12c-12.93,3.36-26.08-1.37-30.3-17.62C165.18,88.69,174,78.11,186.9,74.75c6.57-1.71,12.83-2.28,17.67.38,7.12,3.58,4,11-.95,12.32a6.39,6.39,0,0,1-6.25-2c-3.16-3.78-7.11-5.32-11.21-4.25a9.15,9.15,0,0,0-1.87.63c-5.69,2.47-7.38,9.92-3.64,19.65,2.94,8.14,9.77,15.26,19,12.86,4.87-1.27,8.67-5.5,8-11.88,0-.53-.26-.69-.75-.56-2.88.82-5,1.74-8.23,2.59-3.88,1-6.2-7.89-2.31-8.9,3.67-1,5.27-.62,9.08-1.61s5.51-2,9.25-3c3.89-1,6.18,7.82,2.3,8.83l-1.77.46a.63.63,0,0,0-.52.89C218.28,112.22,212.44,119.92,199.85,123.12Z" style="fill:#ff6b00"/><path d="M237.41,77c10.09-1.62,19.19,2.61,21.26,15.52s-5.24,19.84-15.33,21.46-19.2-2.61-21.28-15.59S227.24,78.59,237.41,77Zm0,5-.72.11c-4.55,1.18-6.25,5.74-3.68,15.31,2.4,9,6,12.34,10.29,11.65l.72-.11c4.63-1.11,6.27-5.67,3.76-15.32C245.35,84.56,241.71,81.22,237.39,81.92Z" style="fill:#ff6b00"/><path d="M258.53,74.56c1.45-.13,2.12-.12,3.14-.15a.6.6,0,0,0,.66-.72l-.6-6.4c-.25-2.61,4.81-4.93,7.64-6a1.85,1.85,0,0,1,.65-.14c1-.09,1.39.75,1.49,1.84l.95,10a.63.63,0,0,0,.79.58A61,61,0,0,1,280,72.53c3.27-.32,3.83,5.57.56,5.88a58.08,58.08,0,0,1-6.81.06.61.61,0,0,0-.67.73L274.84,98c.39,4.07,1.45,5.22,2.76,5.09,1.82-.17,4.27-2.9,6.16-3.08a2,2,0,0,1,.89.14c2.48,1.38.11,8.86-8.68,9.7-4.36.41-10.23-.42-11.13-9.8L263,80.52a.6.6,0,0,0-.78-.58c-.65.13-1.52.29-3.11.51C256,80.81,255.33,74.87,258.53,74.56Z" style="fill:#ff6b00"/><path d="M329.27,107.36c-13.29.12-24.45-7.08-24.61-24.45s10.86-25.51,24.15-25.63,24.31,7.81,24.47,25.18c.08,8.62-2.57,14.77-6.77,18.75a.6.6,0,0,0,.09,1c1.76,1.07,3.37,2,4.84,3,2.8,1.94-.58,7.45-3.58,7.48a2.23,2.23,0,0,1-1.54-.65c-2-1.8-3.9-3.9-6-6.15a1.32,1.32,0,0,0-.88-.35.93.93,0,0,0-.43.07A27.86,27.86,0,0,1,329.27,107.36Zm12.1-26.1c-1.58-12.54-6.59-18.19-13.46-18.13a7,7,0,0,0-1.24.09c-7.58.87-11.75,7.55-10.1,20.82.95,8.1,4,17.92,13.82,17.83,2.26-.09,4.81-.77,3.93-1.49-1.62-1.37-3.46-2.6-5.37-4.19-2.36-2.09-.2-5.76,2.28-5.79a2.93,2.93,0,0,1,1.76.65,73.1,73.1,0,0,1,5.37,5.06.67.67,0,0,0,.44.21.47.47,0,0,0,.44-.37C341.25,92.72,342.08,87.75,341.37,81.26Z" style="fill:#ff6b00"/><path d="M356.43,73.07c.08-1.6,1.59-2.55,4.58-2.39l3.28.17c2.77.14,6,2.14,5.76,5.93l-.83,16C369,98,370.7,101,374.34,101.2c5.11.26,8.51-9.07,9-13.5l.35-6.85c.16-3-3.54-3.62-3.39-6.54.08-1.53,1.38-2.56,4.08-2.42l3.79.2c2.77.14,6,2.14,5.83,5.93L392.92,99.6c-.16,3,3.47,3.55,3.32,6.46-.09,1.68-1.6,2.62-4.59,2.47l-3.28-.17a5.86,5.86,0,0,1-5.54-4.53c-.09-1-.15-2.64-.28-3.08a8,8,0,0,0-1.08,1c-2.52,3.67-6.4,6.46-11.06,6.22-7.59-.39-11.81-5-11.41-12.65l.82-15.75C360,76.62,356.28,76,356.43,73.07Z" style="fill:#ff6b00"/><path d="M417.8,105.28c4,.48,7.51-1.3,11-4.34a2.77,2.77,0,0,1,2-.79c1,.12,1.42,1.06.46,2.93-3.73,7.12-9.73,9.34-17.13,8.51-9.14-1.1-15.7-7-16.32-17.12-.71-11.19,7.57-21.22,20.08-20.15,6.24.76,11.92,3,14.17,9.36,1.65,4.62-.45,8-5.43,9.64l-15.78,5.23c-.54.23-.82.71-.51,1.19A8.59,8.59,0,0,0,417.8,105.28Zm.69-15.44c3.13-.94,4.84-2.28,3.77-5.06a7.62,7.62,0,0,0-6.05-5.29,6,6,0,0,0-1.92.07c-5.3.68-7.18,6.48-6.45,12.6a.84.84,0,0,0,1.09.72Z" style="fill:#ff6b00"/><path d="M455.44,80.38c4.8,1,11,3.31,12.25,8.76.78,3.58-1.65,5.7-4.16,5.2a4.5,4.5,0,0,1-2.63-1.71c-2.91-3.7-3.76-6.92-7-7.58-3.58-.71-5.94.68-6.54,3.69C445.73,96.68,467,98,465,109.3c-1.43,8.65-10.37,9.1-17.89,7.61-7.23-1.44-13.21-4.71-14.41-9.86-.81-3.44,1.28-5,3.64-4.49a5.28,5.28,0,0,1,3.22,2.13c2.67,3.44,3.71,6.47,8,7.32,3.65.73,6.34-.45,6.91-3.31,1.2-6.39-19.66-8.15-17.26-20.25C438.92,80,447.86,78.87,455.44,80.38Z" style="fill:#ff6b00"/><path d="M473.54,84.94c1.41.37,2,.6,3,.93a.6.6,0,0,0,.87-.45L479,79.21c.66-2.55,6.21-3,9.24-3a2,2,0,0,1,.65.09c1,.26,1.05,1.18.77,2.24l-2.54,9.75c-.12.42.11.71.54.82a60.34,60.34,0,0,1,6.68,1.29c3.17.83,1.68,6.56-1.5,5.72a57.43,57.43,0,0,1-6.42-2.28.6.6,0,0,0-.87.45l-4.79,18.3c-1,4-.42,5.39.85,5.73,1.76.46,5-1.26,6.84-.78a1.92,1.92,0,0,1,.79.43c1.86,2.15-2.94,8.36-11.49,6.13-4.23-1.11-9.46-3.91-7.08-13l5-19a.61.61,0,0,0-.54-.82c-.66-.1-1.52-.25-3.1-.58C469.06,90,470.43,84.12,473.54,84.94Z" style="fill:#ff6b00"/><path d="M504.3,122.3c-.94,3.3,2.76,3.9,2.06,6.36-.48,1.68-1.77,1.92-4,1.58a38.65,38.65,0,0,1-5.09-1.07A47.22,47.22,0,0,1,492,127.3c-2-.88-3-1.77-2.51-3.45.7-2.46,4.16-1,5.11-4.31l5.2-18.25c.83-2.88-2.63-4.32-1.83-7.13.44-1.54,2.05-2.15,4.58-1.43l3.58,1c3.58,1,5.32,3.41,4.28,7.06Zm6.86-45C515.09,78.39,517,81.45,516,85s-4.26,5.08-8.19,4-5.93-4.2-4.93-7.71S507.23,76.15,511.16,77.27Z" style="fill:#ff6b00"/><path d="M533.8,100.89c9.87,2.68,16.43,10.28,13,22.9S533.86,139.71,524,137s-16.43-10.28-13-23S523.87,98.2,533.8,100.89Zm-2,4.51-.71-.19c-4.62-.8-8,2.66-9.65,12.44-1.51,9.19.43,13.73,4.59,14.86l.7.19c4.68.89,8-2.59,9.73-12.42C537.92,111.09,536,106.55,531.75,105.4Z" style="fill:#ff6b00"/><path d="M577.63,110.77c7.68,1.41,11.42,6.55,10,14.16l-2.9,15.87c-.65,3.52,2.53,3.58,2,6.24-.34,1.87-1.53,2.31-3.3,2.21a44.25,44.25,0,0,1-5.23-.58,45.42,45.42,0,0,1-5.32-1.35c-2.1-.68-3.15-1.47-2.8-3.33.48-2.66,4.05-1.49,4.7-5l2.34-12.78c1-5.24-.53-8.48-4.26-9.16-5.31-1-10,7.81-11.14,12.21l-1.31,7.1c-.64,3.52,2.54,3.59,2,6.24-.34,1.87-1.53,2.32-3.3,2.22a46.4,46.4,0,0,1-5.23-.59,43.52,43.52,0,0,1-5.32-1.34c-2.1-.69-3.15-1.47-2.83-3.2.46-2.51,4-1.41,4.66-4.78l3.43-18.74c.53-2.88-3-4-2.53-6.85.29-1.58,1.91-2.32,4.86-1.78l3.23.59a5.79,5.79,0,0,1,4.88,4.53c0,.66-.33,2.61-.33,3.43,0,.23.08.38.22.41a.55.55,0,0,0,.41-.22C567.85,112.32,572.53,109.84,577.63,110.77Z" style="fill:#ff6b00"/><path d="M611,115.08c4.87.47,11.31,2.18,13.07,7.48,1.14,3.49-1.07,5.84-3.61,5.6a4.54,4.54,0,0,1-2.8-1.44c-3.27-3.39-4.44-6.51-7.78-6.83-3.63-.34-5.84,1.28-6.13,4.33-.77,8.07,20.5,7.24,19.71,18.67-.55,8.75-9.4,10.11-17,9.38-7.34-.7-13.62-3.35-15.34-8.35-1.15-3.34.77-5.06,3.17-4.84a5.35,5.35,0,0,1,3.43,1.8c3,3.14,4.33,6.06,8.69,6.47,3.71.36,6.27-1.09,6.54-4,.55-6.48-20.39-6.13-19.22-18.41C594.54,116.37,603.31,114.35,611,115.08Z" style="fill:#ff6b00"/><path d="M648.72,132.06c-4.64,3-1.24,7.92-6.71,7.72l-2-.08c-3.14-.11-6.58-3.89-3.86-8.39,2.64-4.22,11.23-7.33,12-13.8.44-4.08-1.42-7-5-7.13-4.75-.17-6.48,3.2-8.69,5.67a6.65,6.65,0,0,1-5.2,2.51c-3.21-.11-5.65-3.27-3-7.27,3.55-5.13,10-7.08,17.63-6.8,9.41.35,16.12,4.83,15.8,13.29C659.4,125.66,653.14,129.16,648.72,132.06Zm-7.29,11.5c3.43.12,5.76,2.4,5.64,5.61-.12,3.36-2.61,5.45-6,5.33s-5.9-2.41-5.78-5.77C635.37,145.52,637.86,143.42,641.43,143.56Z" style="fill:#ff6b00"/><path d="M328.72,160.39l3.56.81c5.05,1.17,6,6.62,6.32,10.3L341,199.75c0,.37.09.54.31.59s.39-.06.54-.4l11.89-21.75a3,3,0,0,0,.29-1.59l-.13-1.07c-.31-3.22-3.92-4.43-3.32-7.06.46-2,2.67-2.46,4.37-2.06l3.63.83c5,1.14,6,6.62,6.25,10.28L367,206c0,.3.12.48.26.51s.32-.08.45-.34l13.53-25.58c1.24-2.49-1.71-3-1.12-5.57.64-2.78,4.44-2,7.22-1.42l.78.18c2.77.64,6.76,1.56,6,4.69-.62,2.7-3.92,1.72-5.34,4.31l-17.25,31.69c-1.74,3.34-3.94,5.08-7.35,4.3l-2.92-.67c-2.06-.48-3.68-1.6-4-5.57l-1.83-19.07c-.08-.62-.24-.88-.39-.92s-.4.13-.75.65l-8.61,15.32c-1.74,3.35-3.94,5.09-7.36,4.31l-3.06-.71c-2.06-.47-3.67-1.59-4-5.57l-3.55-37c-.38-3.24-3.93-4.43-3.32-7.06C324.81,160.46,327,160,328.72,160.39Z" style="fill:#ff6b00"/><path d="M402.21,223.17c3.86,1.1,7.62-.1,11.52-2.55a2.71,2.71,0,0,1,2.1-.46c.92.26,1.24,1.26,0,3-4.8,6.45-11.08,7.69-18.26,5.71-8.85-2.53-14.39-9.43-13.41-19.48,1.06-11.16,10.81-19.76,23-16.72,6,1.72,11.3,4.82,12.51,11.47.9,4.82-1.7,7.79-6.88,8.66l-16.41,2.68c-.57.14-.92.57-.69,1.09A8.58,8.58,0,0,0,402.21,223.17ZM405.33,208c3.24-.44,5.13-1.5,4.52-4.4a7.6,7.6,0,0,0-5.14-6.18,6,6,0,0,0-1.91-.24c-5.34-.17-8.11,5.27-8.35,11.43a.83.83,0,0,0,.59.85.79.79,0,0,0,.37,0Z" style="fill:#ff6b00"/><path d="M460.17,243.69c-13.16-2.26-23.2-12-20.35-28.53,2.94-17.12,15.31-23.14,28.47-20.88,6.69,1.15,12.64,3.21,15.95,7.63,5,6.19-.9,11.69-5.93,10.83a6.37,6.37,0,0,1-4.88-4.4c-1.33-4.74-4.29-7.77-8.47-8.49a9.11,9.11,0,0,0-2-.19c-6.21-.1-10.81,6-11.41,16.41-.67,8.63,2.62,17.93,12,19.55,5,.86,10.18-1.43,12.19-7.53.23-.48.05-.74-.46-.82-3-.44-5.25-.46-8.56-1-4-.68-2.4-9.74,1.56-9.06,3.74.64,5.06,1.61,8.94,2.27s5.85.42,9.67,1.07,2.41,9.67-1.55,9l-1.8-.3c-.5-.09-.75.09-.84.59C481.46,241.35,473,246,460.17,243.69Z" style="fill:#ff6b00"/><path d="M511.26,212c10.2.71,18.1,6.9,17.19,19.93s-9.61,18.14-19.8,17.42-18.11-6.9-17.19-20S501,211.31,511.26,212Zm-1.14,4.82-.73,0c-4.69.11-7.39,4.17-7.06,14.07.3,9.31,3.09,13.38,7.39,13.68l.72.06c4.76,0,7.39-4.1,7.14-14.07C517.28,221.23,514.49,217.16,510.12,216.85Z" style="fill:#ff6b00"/><path d="M530.63,213.82c1.46,0,2.12.11,3.13.21a.61.61,0,0,0,.75-.65l.13-6.42c.05-2.63,5.34-4.35,8.27-5.09a1.85,1.85,0,0,1,.66-.06c1,0,1.3.9,1.28,2l-.2,10.07c0,.44.28.66.71.67a58,58,0,0,1,6.8-.3c3.28.06,3.17,6-.12,5.91a61,61,0,0,1-6.77-.72.61.61,0,0,0-.75.64l-.37,18.9c-.08,4.09.84,5.35,2.15,5.38,1.83,0,4.58-2.4,6.48-2.36a2,2,0,0,1,.87.24c2.3,1.65-.91,8.81-9.74,8.64-4.38-.09-10.12-1.59-9.93-11l.39-19.64a.61.61,0,0,0-.71-.67c-.66.06-1.54.12-3.15.16C527.45,219.74,527.42,213.75,530.63,213.82Z" style="fill:#ff6b00"/><path d="M585.41,242.21c-.87,2.76,2.69,2.41,2.85,5.1s-3.85,3.15-6.76,3.31l-.8,0c-2.85.16-7,.4-7.18-2.81-.16-2.77,3.13-2.74,4-5.64l10.92-35.42c1.19-3.58,2.44-6,5.94-6.19l3.93-.22c2.12-.12,3.77.59,5.44,4.22L620.17,239c1.49,3,5.08,3.15,5.23,5.84.12,2-1.87,3.11-3.69,3.21l-4.59.26c-5.18.3-7.37-4.77-9-8.12l-1.33-2.92a1.2,1.2,0,0,0-1.14-.66l-18.07,1a1.12,1.12,0,0,0-1,.8Zm17.3-12c.51,0,.64-.33.47-.76l-7.92-17c-.16-.29-.31-.42-.46-.41s-.28.09-.41.46L589,230.16c-.12.45.05.8.56.77Z" style="fill:#ff6b00"/><path d="M649.83,206.78c7.72-1.22,12.94,2.39,14.15,10l2.52,15.94c.55,3.53,3.57,2.54,4,5.21.29,1.87-.69,2.69-2.38,3.18a44.31,44.31,0,0,1-5.14,1.18,43.79,43.79,0,0,1-5.46.5c-2.21.05-3.46-.35-3.75-2.22-.43-2.67,3.33-2.74,2.77-6.28l-2-12.83c-.83-5.27-3.31-7.83-7.06-7.24-5.33.84-6.88,10.69-6.47,15.21l1.13,7.14c.56,3.53,3.58,2.54,4,5.21.3,1.87-.68,2.69-2.38,3.18a44.63,44.63,0,0,1-5.13,1.18,42.06,42.06,0,0,1-5.47.49c-2.21.06-3.45-.34-3.73-2.07-.39-2.52,3.35-2.67,2.82-6.06l-3-18.82c-.46-2.89-4.21-2.74-4.66-5.62-.25-1.59,1-2.83,4-3.29l3.24-.52a5.81,5.81,0,0,1,6.11,2.66c.18.64.56,2.57.83,3.35.1.2.2.33.34.31s.21-.11.32-.35C641.11,211.48,644.71,207.59,649.83,206.78Z" style="fill:#ff6b00"/><path d="M682.75,199.77c4.75-1.18,11.39-1.71,14.82,2.7,2.23,2.91.93,5.86-1.55,6.48a4.52,4.52,0,0,1-3.11-.43c-4.22-2.11-6.36-4.66-9.61-3.85-3.55.88-5.09,3.15-4.35,6.12,2,7.87,21.74,0,24.8,11.06,2.4,8.43-5.5,12.65-12.94,14.5-7.15,1.78-13.95,1.37-17.24-2.78-2.19-2.76-1-5,1.39-5.61a5.27,5.27,0,0,1,3.82.56c3.87,2,6.1,4.27,10.35,3.21,3.61-.9,5.55-3.11,4.84-5.94-1.64-6.29-21.26,1-24.24-11C667.64,206.46,675.24,201.64,682.75,199.77Z" style="fill:#ff6b00"/><path d="M697.49,198.85c-.4-1.4.44-2.47,3.32-3.29l3.86-1.09c2.74-.77,5.61.54,7.57,3.7l11.87,17.58c.24.32.35.44.49.4s.24-.22.23-.52l1-15.46a3.26,3.26,0,0,0-.55-2l-.69-1.1c-2-2.86-5.11-2.5-5.63-4.32-.39-1.41.44-2.48,3.32-3.29l3.94-1.11c2.67-.76,5.59.46,7.57,3.7l11.25,17c.15.26.35.43.42.41s.22-.29.21-.59l.71-16.28c.28-5.47-4.46-5-4-7.45.14-1.1,2.84-2.32,5.58-3.09s5.4-1,5.88.16c1,2.15-2.37,4.23-2.49,9.43l-.54,21.46c0,3.88-.77,6.14-3.79,7l-1.61.46c-2.6.73-5.34-.62-7.38-3.83L731,207c-.17-.33-.35-.43-.42-.41s-.17.2-.22.59l-.85,12c-.3,3.8-1,6.19-3.72,7l-1.62.45c-2.67.76-5.35-.68-7.38-3.83l-13.72-19.56C701.16,200.32,698,200.68,697.49,198.85Z" style="fill:#ff6b00"/><path d="M780.46,206c3.93-.81,6.7-3.62,9-7.6a2.78,2.78,0,0,1,1.66-1.38c.93-.19,1.68.55,1.36,2.62-1.27,7.94-6.26,12-13.54,13.53-9,1.85-17.12-1.7-20.91-11-4.22-10.39.43-22.53,12.64-25.49,6.15-1.26,12.25-.95,16.4,4.38,3,3.84,2.11,7.69-2.08,10.86l-13.3,10c-.44.39-.55.93-.11,1.29A8.6,8.6,0,0,0,780.46,206Zm-4.26-14.85c2.67-1.89,3.86-3.7,2-6a7.61,7.61,0,0,0-7.42-3.09,5.87,5.87,0,0,0-1.79.67c-4.82,2.33-4.75,8.43-2.12,14a.85.85,0,0,0,.92.48,1,1,0,0,0,.35-.15Z" style="fill:#ff6b00"/><path d="M812.92,169.88c4.63-.61,7.65,1.05,8.13,4.74.37,3.34-1.57,5.36-4.76,5.78s-5.5-1-7.24-.74a2.69,2.69,0,0,0-1.19.45c-1.26,1-2.15,3.82-2.12,7.35l1.58,12c.44,3.41,4.08,2.49,4.41,5,.23,1.73-.85,2.47-3.06,3a38.1,38.1,0,0,1-5.09,1,49,49,0,0,1-5.55.36c-2.2,0-3.44-.43-3.67-2.17-.33-2.53,3.42-2.58,3-6L794.85,182c-.39-3-4.13-2.92-4.52-5.81-.21-1.59,1.11-2.8,4.08-3.19l3.25-.43a5.71,5.71,0,0,1,5.21,2.12c.39.68.9,2.9,1.21,3.59.1.21.2.35.34.33s.13-.17.18-.32C805.53,174.16,807.93,170.53,812.92,169.88Z" style="fill:#ff6b00"/><path d="M839.52,167.51c4.88-.35,11.51.28,14.13,5.22,1.69,3.25-.09,5.94-2.64,6.11a4.51,4.51,0,0,1-3-1c-3.78-2.8-5.45-5.68-8.8-5.45-3.64.26-5.55,2.22-5.33,5.28.57,8.08,21.41,3.76,22.51,15.17.91,8.72-7.6,11.51-15.25,12.05-7.35.52-14-1.06-16.5-5.71-1.68-3.1-.07-5.12,2.33-5.29a5.33,5.33,0,0,1,3.68,1.21c3.47,2.61,5.27,5.26,9.64,5,3.71-.26,6-2.11,5.79-5-.53-6.47-21.12-2.68-22-15C823.49,171.49,831.81,168.05,839.52,167.51Z" style="fill:#ff6b00"/><path d="M868,183.76c-.29,2.13-.9,3.61-3,3.67s-2.82-1.37-3.25-3.47l-3.53-21.44c-1-5,1.54-8.89,5.85-9s7,3.72,6.34,8.63Zm-2.62,9.29c3.35-.11,5.76,1.93,5.86,5.14s-2.17,5.4-5.52,5.51-5.84-1.93-5.94-5.14S861.91,193.15,865.34,193.05Z" style="fill:#ff6b00"/></svg>