<svg viewBox="0 0 1440 465" fill="none" preserveAspectRatio='none' xmlns="http://www.w3.org/2000/svg">
<path d="M0 22.3224L-0.220069 21.8735L-0.5 22.0107V22.3224V405.153V405.756L0.0922851 405.645L0 405.153C0.0922851 405.645 0.0924338 405.645 0.0928577 405.645L0.0950814 405.644L0.104494 405.643L0.143261 405.635C0.177998 405.629 0.230564 405.619 0.301204 405.607C0.442484 405.581 0.65606 405.544 0.943901 405.494C1.51958 405.396 2.39232 405.251 3.57786 405.066C5.94894 404.697 9.5712 404.17 14.5706 403.537C24.5696 402.27 40.0769 400.581 62.1007 398.891C106.149 395.512 176.261 392.132 280.5 392.132C380.355 392.132 503.625 408.738 632.1 426.045C637.702 426.8 643.313 427.556 648.933 428.312C783.427 446.403 922.711 464.5 1046 464.5C1169.29 464.5 1267.83 449.784 1335.54 435.065C1369.4 427.706 1395.56 420.346 1413.25 414.825C1422.1 412.065 1428.83 409.764 1433.35 408.153C1435.61 407.347 1437.32 406.714 1438.46 406.282C1438.78 406.162 1439.05 406.057 1439.28 405.968C1439.47 405.898 1439.62 405.838 1439.75 405.788C1439.89 405.732 1440 405.69 1440.08 405.661L1440.16 405.629L1440.18 405.621L1440.18 405.619C1440.18 405.618 1440.19 405.618 1440 405.153L1440.19 405.618L1440.5 405.492V405.153V22.3224V21.7055L1439.9 21.8333L1440 22.3224C1439.9 21.8333 1439.9 21.8334 1439.89 21.8337L1439.89 21.8352L1439.86 21.8409L1439.75 21.8637L1439.32 21.954C1438.94 22.0338 1438.37 22.1524 1437.62 22.3073C1436.11 22.6172 1433.88 23.0726 1430.97 23.6544C1425.15 24.8181 1416.62 26.4876 1405.77 28.5105C1384.07 32.5565 1353.11 38.0162 1316.05 43.671C1241.94 54.9809 1143.46 67.0695 1045.98 70.189C948.534 73.3078 816.457 55.8934 679.066 37.689L676.85 37.3954C540.168 19.2844 398.403 0.5 280.5 0.5C161.987 0.5 91.8386 5.83108 51.3098 11.1655C31.0449 13.8327 18.1807 16.5014 10.3756 18.5065C6.4728 19.5091 3.83362 20.3462 2.16566 20.9347C1.33162 21.229 0.74017 21.4613 0.354801 21.6211C0.162106 21.7011 0.0208986 21.7629 -0.0733817 21.8054C-0.120523 21.8266 -0.155937 21.843 -0.180194 21.8544L-0.208284 21.8678L-0.216188 21.8716L-0.218628 21.8728C-0.219432 21.8731 -0.220069 21.8735 0 22.3224Z" fill="#237D54" stroke="#055631"/>
</svg>
