<svg width="1440" height="1418" viewBox="0 0 1440 1418" fill="none" xmlns="http://www.w3.org/2000/svg">
<path d="M1109.19 113.466C1204.49 14.6457 1371.97 -0.752344 1440 0.0273035V695.72C1248.4 695.72 1195.51 736.413 1140.12 793.371C1042.56 893.709 958.502 985.164 776.381 985.164C594.26 985.164 571.307 1110.88 421.12 1160C302.131 1198.91 208.562 1172.86 137.21 1234.85C65.8588 1296.83 13.3015 1384.34 -2 1417.87V674.812C9.97509 656.685 39.2785 628.221 93.3017 588.271C186.608 519.272 261.452 495.883 421.12 483.603C580.788 471.324 580.289 327.479 776.381 286.548C972.473 245.616 1013.89 212.286 1109.19 113.466Z" fill="#237D54" fill-opacity="0.9"/>
</svg>
