<svg id="a6f743a2-dbae-4db8-bbbd-448948be1ec3" xmlns="http://www.w3.org/2000/svg" viewBox="0 0 539.9 715.6"><path d="M358.8,545.1l17.7,73.6H330.2L354,545.1Z" style="fill:#672f25"/><g style="isolation:isolate"><path d="M34.79,422.13h3.27c1.44,0,1.86.51,1.86,1.2,0,1.23-1.29,1.32-1.29,2.73v4.77a.43.43,0,0,0,.45.45h7.83a.43.43,0,0,0,.45-.45v-4.77c0-1.41-1.32-1.5-1.32-2.73,0-.69.42-1.2,1.86-1.2h3.27c1.44,0,2,.51,2,1.2,0,1.23-1.47,1.32-1.47,2.73V438.9c0,1.11,1.47,1.08,1.47,2.19,0,.78-.54,1.05-1.56,1.14a16.56,16.56,0,0,1-2.13.15,15.49,15.49,0,0,1-2-.15c-.84-.06-1.5-.39-1.5-1.2,0-1.14,1.38-1.14,1.38-2.28v-4.29a.43.43,0,0,0-.45-.45H39.08a.43.43,0,0,0-.45.45v4.29c0,1.14,1.23,1.14,1.23,2.28,0,.81-.54,1.14-1.35,1.2a16.35,16.35,0,0,1-2,.15,16.56,16.56,0,0,1-2.13-.15c-1-.09-1.56-.36-1.56-1.14,0-1.11,1.5-1.08,1.5-2.19V426.06c0-1.41-1.5-1.5-1.5-2.73C32.78,422.64,33.38,422.13,34.79,422.13Z" style="fill:#672f25"/><path d="M63,427.08c4.2,0,7.62,2.31,7.62,7.68s-3.42,7.71-7.62,7.71-7.62-2.31-7.62-7.71S58.76,427.08,63,427.08Zm-.33,2h-.3c-1.92.18-2.91,1.92-2.49,6,.39,3.81,1.65,5.4,3.42,5.4h.3c2-.15,2.91-1.89,2.52-6C65.72,430.68,64.46,429.09,62.66,429.09Z" style="fill:#672f25"/></g><g style="isolation:isolate"><path d="M93.05,427.08c3,0,4.8,1.8,4.8,5v6.63c0,1.44,1.32,1.26,1.32,2.37,0,.75-.48,1-1.2,1.11a16.28,16.28,0,0,1-4.41,0c-.9-.09-1.38-.36-1.38-1.11,0-1.11,1.53-.93,1.53-2.37v-5.34c0-2.19-.75-3.39-2.16-3.39-1.8,0-2.91,3.06-3.15,5.1v3.63c0,1.44,1.29,1.26,1.29,2.37,0,.75-.45,1-1.2,1.11a16.06,16.06,0,0,1-4.38,0c-.9-.09-1.41-.27-1.41-1.05,0-1.11,1.53-1,1.53-2.43v-5.34c0-2.19-.72-3.39-2.13-3.39-1.8,0-2.91,3.06-3.18,5.1v3.6c0,1.47,1.29,1.26,1.29,2.37,0,.75-.45,1.05-1.17,1.11a12.59,12.59,0,0,1-2.1.15,19.48,19.48,0,0,1-2.31-.15c-.9-.09-1.38-.33-1.38-1.05,0-1.08,1.53-.87,1.53-2.28V431c0-1.2-1.53-1.38-1.53-2.58,0-.66.6-1.08,1.83-1.08h1.35a2.37,2.37,0,0,1,2.22,1.47c0,.15.06,1.05.09,1.23s.09.18.15.18a.35.35,0,0,0,.18-.15,5.41,5.41,0,0,1,4.5-3c2.37,0,4,1.14,4.5,3.18.06.12.09.18.15.18s.12-.06.18-.15C89.42,428.46,91,427.08,93.05,427.08Z" style="fill:#672f25"/></g><g style="isolation:isolate"><path d="M110.17,439.71a5.75,5.75,0,0,0,4.26-2.31,1.13,1.13,0,0,1,.78-.42c.39,0,.63.36.33,1.17-1.17,3.09-3.51,4.29-6.57,4.32a7.15,7.15,0,0,1-7.5-6.18c-.84-4.53,2-9,7.2-9.21,2.58,0,5,.63,6.24,3.12.9,1.8.21,3.27-1.74,4.2L107,437.31c-.21.12-.3.33-.15.51A3.53,3.53,0,0,0,110.17,439.71Zm-.48-6.33c1.23-.54,1.86-1.17,1.29-2.25a3.13,3.13,0,0,0-2.73-1.86,2.47,2.47,0,0,0-.78.12c-2.13.54-2.61,3-2,5.46a.34.34,0,0,0,.33.27.33.33,0,0,0,.15,0Z" style="fill:#672f25"/></g><g style="isolation:isolate"><path d="M211.56,424.53v-.36c0-1.23.94-2,2.88-2H228.6c2,0,2.85.81,2.85,2v.36a1.54,1.54,0,0,1-1.53,1.74c-1.44,0-1.65-1.14-3-1.14H224a.3.3,0,0,0-.33.33V438.9c0,1.11,1.44,1.08,1.44,2.19,0,.78-.54,1.05-1.56,1.14a14.39,14.39,0,0,1-2,.15,18.26,18.26,0,0,1-2.16-.15c-1-.09-1.56-.36-1.56-1.14,0-1.11,1.47-1.08,1.47-2.19V425.46a.3.3,0,0,0-.33-.33h-2.94c-1.29,0-1.53,1.14-3,1.14A1.54,1.54,0,0,1,211.56,424.53Z" style="fill:#672f25"/></g><g style="isolation:isolate"><path d="M240,427.08c1.92,0,3.06.84,3.06,2.37a2,2,0,0,1-2.25,2.1c-1.38,0-2.19-.69-2.91-.69a1.06,1.06,0,0,0-.51.12,4.16,4.16,0,0,0-1.26,2.88v5c0,1.41,1.53,1.23,1.53,2.28,0,.72-.48,1-1.41,1.08a15.82,15.82,0,0,1-2.13.15,20.27,20.27,0,0,1-2.28-.15c-.89-.12-1.38-.36-1.38-1.08,0-1.05,1.53-.87,1.53-2.28V431c0-1.23-1.53-1.41-1.53-2.61,0-.66.6-1.08,1.83-1.08h1.35a2.34,2.34,0,0,1,2,1.14c.12.3.21,1.23.3,1.53,0,.09.06.15.12.15s.06-.06.09-.12A4,4,0,0,1,240,427.08Z" style="fill:#672f25"/></g><g style="isolation:isolate"><path d="M245.15,438.33c0-3.78,5.73-4.83,9-5.28a.37.37,0,0,0,.33-.39V432c0-1.95-.6-3.15-2.07-3.15s-2.22,1.62-3.12,2.52a2.36,2.36,0,0,1-1.65.66,1.66,1.66,0,0,1-1.8-1.62c0-2,3.33-3.33,6.57-3.33s6.24,1.35,6.24,5.13v6c0,2,1.2,1.35,1.65,2s-.78,2.13-2.67,2.13a2.6,2.6,0,0,1-2.58-1.65q-.09-.18-.18-.18a.31.31,0,0,0-.21.15,5.87,5.87,0,0,1-4.47,1.83C247.88,442.47,245.15,441.51,245.15,438.33Zm6.69,1.86a2.67,2.67,0,0,0,2.61-2.07v-3c0-.24-.12-.27-.33-.27-1.68.27-4.5,1-4.56,3A2.2,2.2,0,0,0,251.84,440.19Z" style="fill:#672f25"/></g><g style="isolation:isolate"><path d="M273.16,431.28c.75-2.1-.9-2.49-.48-3.39.21-.42,1.41-.6,2.55-.6s2.25.21,2.34.72c.12,1-1.26,1.5-2,3.45l-3.39,8.43c-.57,1.47-.78,2.34-1.92,2.34h-1c-1.14,0-1.92-.9-2.52-2.34l-3.84-9.27c-.57-1.32-1.74-1.56-1.74-2.34,0-.6.45-.93,1.68-.93h1.71c1.14,0,1.95.87,2.55,2.31l3.27,7.8q.09.18.18.18t.18-.18Z" style="fill:#672f25"/></g><g style="isolation:isolate"><path d="M287.5,439.71a5.75,5.75,0,0,0,4.26-2.31,1.13,1.13,0,0,1,.78-.42c.39,0,.63.36.33,1.17-1.17,3.09-3.51,4.29-6.57,4.32a7.15,7.15,0,0,1-7.5-6.18c-.84-4.53,2-9,7.2-9.21,2.58,0,5,.63,6.24,3.12.9,1.8.21,3.27-1.74,4.2l-6.18,2.91c-.21.12-.3.33-.15.51A3.53,3.53,0,0,0,287.5,439.71Zm-.48-6.33c1.23-.54,1.86-1.17,1.29-2.25a3.13,3.13,0,0,0-2.73-1.86,2.47,2.47,0,0,0-.78.12c-2.13.54-2.61,3-2,5.46a.34.34,0,0,0,.33.27.33.33,0,0,0,.15,0Z" style="fill:#672f25"/></g><g style="isolation:isolate"><path d="M300.65,438.81c0,1.44,1.53,1.23,1.53,2.31,0,.72-.48.93-1.41,1.05a12.07,12.07,0,0,1-2.13.15,14.43,14.43,0,0,1-2.27-.15c-.91-.09-1.39-.33-1.39-1.05,0-1.08,1.53-.87,1.53-2.31V423.42c0-1.23-1.53-1.38-1.53-2.58,0-.69.57-1.11,1.65-1.11h1.54a2.17,2.17,0,0,1,2.48,2.34Z" style="fill:#672f25"/></g><g style="isolation:isolate"><path d="M385.36,421.89c3.45,0,6.27.87,8,3.69s0,4.59-1.92,4.59a3,3,0,0,1-2.73-1.95c-1-2.49-2.4-3.84-4.35-3.84a5.83,5.83,0,0,0-.72.06c-2.52.39-3.69,3.18-3.2,7.44.32,3.72,2.51,7,6.5,7,1.95,0,3.66-1.08,5.22-2.94a1.28,1.28,0,0,1,.9-.54c.45,0,.75.48.57,1.29-1.05,4-4.35,5.79-8.19,5.76-5.1,0-9.84-3.24-9.84-10.14C375.58,425.19,380.08,421.89,385.36,421.89Z" style="fill:#672f25"/></g><g style="isolation:isolate"><path d="M396.62,438.33c0-3.78,5.73-4.83,9-5.28a.37.37,0,0,0,.33-.39V432c0-1.95-.6-3.15-2.07-3.15s-2.22,1.62-3.12,2.52a2.36,2.36,0,0,1-1.65.66,1.66,1.66,0,0,1-1.8-1.62c0-2,3.33-3.33,6.57-3.33s6.24,1.35,6.24,5.13v6c0,2,1.2,1.35,1.65,2s-.78,2.13-2.67,2.13a2.6,2.6,0,0,1-2.58-1.65q-.09-.18-.18-.18a.31.31,0,0,0-.21.15,5.87,5.87,0,0,1-4.47,1.83C399.35,442.47,396.62,441.51,396.62,438.33Zm6.69,1.86a2.67,2.67,0,0,0,2.61-2.07v-3c0-.24-.12-.27-.33-.27-1.68.27-4.5,1-4.56,3A2.2,2.2,0,0,0,403.31,440.19Z" style="fill:#672f25"/></g><g style="isolation:isolate"><path d="M434,427.08c3,0,4.8,1.8,4.8,5v6.63c0,1.44,1.32,1.26,1.32,2.37,0,.75-.48,1-1.2,1.11a16.28,16.28,0,0,1-4.41,0c-.9-.09-1.38-.36-1.38-1.11,0-1.11,1.53-.93,1.53-2.37v-5.34c0-2.19-.75-3.39-2.16-3.39-1.8,0-2.91,3.06-3.15,5.1v3.63c0,1.44,1.29,1.26,1.29,2.37,0,.75-.45,1-1.2,1.11a16.06,16.06,0,0,1-4.38,0c-.9-.09-1.41-.27-1.41-1.05,0-1.11,1.53-1,1.53-2.43v-5.34c0-2.19-.72-3.39-2.13-3.39-1.8,0-2.91,3.06-3.18,5.1v3.6c0,1.47,1.29,1.26,1.29,2.37,0,.75-.45,1.05-1.17,1.11a12.59,12.59,0,0,1-2.1.15,19.48,19.48,0,0,1-2.31-.15c-.89-.09-1.38-.33-1.38-1.05,0-1.08,1.53-.87,1.53-2.28V431c0-1.2-1.53-1.38-1.53-2.58,0-.66.6-1.08,1.83-1.08h1.35a2.37,2.37,0,0,1,2.22,1.47c0,.15.06,1.05.09,1.23s.09.18.15.18a.35.35,0,0,0,.18-.15,5.41,5.41,0,0,1,4.5-3c2.37,0,4,1.14,4.5,3.18.06.12.09.18.15.18s.12-.06.18-.15C430.39,428.46,432,427.08,434,427.08Z" style="fill:#672f25"/></g><g style="isolation:isolate"><path d="M443.6,444.78V431c0-1.2-1.53-1.38-1.53-2.58,0-.66.6-1.08,1.83-1.08h1.35a1.93,1.93,0,0,1,1.62.78c.06.09.15.51.21.66a.31.31,0,0,0,.24.15.41.41,0,0,0,.27-.15,5.45,5.45,0,0,1,4.44-1.71c3.6,0,6.84,2.31,6.84,7.68s-3.06,7.71-6.63,7.71a5.5,5.5,0,0,1-4.17-1.53c-.09-.09-.15-.12-.21-.12s-.12.09-.12.24v3.75c0,1.41,1.53,1.23,1.53,2.28,0,.72-.48,1-1.41,1.08a15.82,15.82,0,0,1-2.13.15,20,20,0,0,1-2.27-.15c-.91-.09-1.39-.36-1.39-1.08C442.07,446,443.6,446.22,443.6,444.78Zm7.74-4.2c1.92-.09,3.18-1.77,3-5.88-.09-2.25-.63-5.55-3.51-5.55-1.65.09-2.79,1.11-3.09,3.48v2.07C448,436.8,448.58,440.58,451.34,440.58Z" style="fill:#672f25"/></g><g style="isolation:isolate"><path d="M466.79,438.84c0,1.41,1.53,1.23,1.53,2.28,0,.72-.48,1-1.41,1.08a15.67,15.67,0,0,1-2.12.15,19.56,19.56,0,0,1-2.29-.15c-.89-.12-1.38-.36-1.38-1.08,0-1.05,1.53-.87,1.53-2.28V431c0-1.23-1.53-1.41-1.53-2.61,0-.66.58-1.08,1.66-1.08h1.52c1.53,0,2.49.75,2.49,2.31Zm-2.37-18.57a2.51,2.51,0,1,1-2.81,2.49A2.5,2.5,0,0,1,464.42,420.27Z" style="fill:#672f25"/></g><g style="isolation:isolate"><path d="M481.35,427.08c3.21,0,5.1,1.8,5.1,5v6.63c0,1.47,1.29,1.26,1.29,2.37,0,.78-.45,1.05-1.17,1.14a16.28,16.28,0,0,1-4.41,0c-.9-.12-1.38-.36-1.38-1.14,0-1.11,1.53-.9,1.53-2.37v-5.34c0-2.19-.84-3.39-2.4-3.39-2.22,0-3.48,3.9-3.6,5.76v3c0,1.47,1.29,1.26,1.29,2.37,0,.78-.45,1.05-1.17,1.14a16.28,16.28,0,0,1-4.41,0c-.9-.12-1.38-.36-1.38-1.08,0-1.05,1.53-.87,1.53-2.28V431c0-1.2-1.53-1.38-1.53-2.58,0-.66.6-1.08,1.83-1.08h1.35a2.39,2.39,0,0,1,2.31,1.47c0,.27.06,1.08.12,1.41,0,.09.06.15.12.15s.09,0,.15-.12A5.58,5.58,0,0,1,481.35,427.08Z" style="fill:#672f25"/></g><g style="isolation:isolate"><path d="M490,433.53c0-4.11,3.42-6.45,7.32-6.45.36,0,.69,0,1.05.06.19,0,.3,0,.3-.24.12-2.4,1.2-4.74,3.54-4.74a3.66,3.66,0,0,1,.78.09,2.12,2.12,0,0,1,1.44,3.39,1.38,1.38,0,0,1-1.08.42c-.51,0-1-.12-1.56-.12a1.92,1.92,0,0,0-1.86,1.23.23.23,0,0,0,.15.36,6.1,6.1,0,0,1,4.53,6c0,4.2-3.48,6.39-7.29,6.39h-.45a.74.74,0,0,0-.51.15c-1.55,1.08-.54,1.65,2.55,1.65.54,0,1.14,0,1.74,0,2,0,3.93.21,3.9,2.07,0,2.37-1.89,4.62-4,4.62-1.61,0-2.78-.81-2.43-1.62.54-1,2.1-1.86,1.57-2.52-.28-.33-2.11-.33-3.49-.33H496c-1.34,0-4.74,0-5.07-1.17s1.48-2.55,3-3.21c.17-.06.17-.15,0-.21A6.06,6.06,0,0,1,490,433.53Zm4.53.3c.3,2.73,1.36,4.26,3,4.26.12,0,.21,0,.34,0,1.79-.18,2.51-1.8,2.15-4.77-.27-2.55-1.29-4.26-3-4.26l-.3,0C495,429.21,494.21,431.07,494.51,433.83Z" style="fill:#672f25"/></g><g style="isolation:isolate"><path d="M105.13,653c2.67,0,6,.57,7.05,2.85a1.9,1.9,0,0,1-2.46,2.73c-2-1.29-2.7-3-5-3s-3.54,1-3.54,2.82c0,4.38,11.46,2.22,11.64,9.09.12,5.19-4.74,6.18-7.92,6.18-3.63,0-6.93-.84-8.07-3a1.85,1.85,0,0,1,1.65-2.82,2.12,2.12,0,0,1,.84.18c2,1,3.12,3.15,6,3.15,1.89,0,3.21-.81,3.21-2.43-.06-3.78-11.4-2.28-11.4-9.15C97.12,654.4,101.23,653,105.13,653Z" style="fill:#672f25"/></g><g style="isolation:isolate"><path d="M116.51,676V662.2c0-1.2-1.53-1.38-1.53-2.58,0-.66.6-1.08,1.83-1.08h1.35a1.93,1.93,0,0,1,1.62.78c.06.09.15.51.21.66a.31.31,0,0,0,.24.15.41.41,0,0,0,.27-.15,5.45,5.45,0,0,1,4.44-1.71c3.6,0,6.84,2.31,6.84,7.68s-3.06,7.71-6.63,7.71a5.5,5.5,0,0,1-4.17-1.53c-.09-.09-.15-.12-.21-.12s-.12.09-.12.24V676c0,1.41,1.53,1.23,1.53,2.28,0,.72-.48,1-1.41,1.08a15.82,15.82,0,0,1-2.13.15,20.27,20.27,0,0,1-2.28-.15c-.9-.09-1.38-.36-1.38-1.08C115,677.23,116.51,677.41,116.51,676Zm7.74-4.2c1.92-.09,3.18-1.77,3-5.88-.09-2.25-.63-5.55-3.51-5.55-1.65.09-2.79,1.11-3.09,3.48v2.07C120.89,668,121.49,671.77,124.25,671.77Z" style="fill:#672f25"/></g><g style="isolation:isolate"><path d="M142.1,658.27c4.2,0,7.62,2.31,7.62,7.68s-3.42,7.71-7.62,7.71-7.62-2.31-7.62-7.71S137.87,658.27,142.1,658.27Zm-.33,2h-.3c-1.92.18-2.91,1.92-2.49,6,.39,3.81,1.65,5.4,3.42,5.4h.3c2-.15,2.91-1.89,2.52-6C144.83,661.87,143.57,660.28,141.77,660.28Z" style="fill:#672f25"/></g><g style="isolation:isolate"><path d="M161.45,658.27c1.92,0,3.06.84,3.06,2.37a2,2,0,0,1-2.25,2.1c-1.38,0-2.19-.69-2.91-.69a1.06,1.06,0,0,0-.51.12,4.16,4.16,0,0,0-1.26,2.88v5c0,1.41,1.53,1.23,1.53,2.28,0,.72-.48,1-1.41,1.08a15.82,15.82,0,0,1-2.13.15,20.27,20.27,0,0,1-2.28-.15c-.9-.12-1.38-.36-1.38-1.08,0-1,1.53-.87,1.53-2.28v-7.8c0-1.23-1.53-1.41-1.53-2.61,0-.66.6-1.08,1.83-1.08h1.35a2.34,2.34,0,0,1,2,1.14c.12.3.21,1.23.3,1.53,0,.09.06.15.12.15s.06-.06.09-.12A4,4,0,0,1,161.45,658.27Z" style="fill:#672f25"/></g><g style="isolation:isolate"><path d="M167.36,658.54c.6,0,.87,0,1.29.06a.25.25,0,0,0,.3-.27v-2.64c0-1.08,2.16-1.83,3.36-2.16a.83.83,0,0,1,.27,0c.42,0,.54.36.54.81v4.14c0,.18.12.27.3.27a24.67,24.67,0,0,1,2.79-.18c1.35,0,1.35,2.43,0,2.43a24.23,24.23,0,0,1-2.79-.24.25.25,0,0,0-.3.27v7.77c0,1.68.39,2.19.93,2.19.75,0,1.86-1,2.64-1a.8.8,0,0,1,.36.09c1,.66-.3,3.63-3.93,3.63-1.8,0-4.17-.57-4.17-4.44v-8.07a.25.25,0,0,0-.3-.27c-.27,0-.63.06-1.29.09C166.1,661,166,658.54,167.36,658.54Z" style="fill:#672f25"/></g><g style="isolation:isolate"><path d="M185.33,670c0,1.41,1.53,1.23,1.53,2.28,0,.72-.48,1-1.41,1.08a15.82,15.82,0,0,1-2.13.15,19.4,19.4,0,0,1-2.28-.15c-.9-.12-1.38-.36-1.38-1.08,0-1,1.53-.87,1.53-2.28v-7.8c0-1.23-1.53-1.41-1.53-2.61,0-.66.57-1.08,1.65-1.08h1.53c1.53,0,2.49.75,2.49,2.31ZM183,651.46a2.51,2.51,0,1,1,0,5,2.51,2.51,0,1,1,0-5Z" style="fill:#672f25"/></g><g style="isolation:isolate"><path d="M199.89,658.27c3.21,0,5.1,1.8,5.1,5v6.63c0,1.47,1.29,1.26,1.29,2.37,0,.78-.45,1-1.17,1.14a16.28,16.28,0,0,1-4.41,0c-.9-.12-1.38-.36-1.38-1.14,0-1.11,1.53-.9,1.53-2.37v-5.34c0-2.19-.84-3.39-2.4-3.39-2.22,0-3.48,3.9-3.6,5.76v3c0,1.47,1.29,1.26,1.29,2.37,0,.78-.45,1-1.17,1.14a16.28,16.28,0,0,1-4.41,0c-.9-.12-1.38-.36-1.38-1.08,0-1,1.53-.87,1.53-2.28V662.2c0-1.2-1.53-1.38-1.53-2.58,0-.66.6-1.08,1.83-1.08h1.35a2.39,2.39,0,0,1,2.31,1.47c0,.27.06,1.08.12,1.41,0,.09.06.15.12.15s.09,0,.15-.12A5.58,5.58,0,0,1,199.89,658.27Z" style="fill:#672f25"/></g><g style="isolation:isolate"><path d="M208.52,664.72c0-4.11,3.42-6.45,7.32-6.45.36,0,.69,0,1,.06.18,0,.3,0,.3-.24.12-2.4,1.2-4.74,3.54-4.74a3.66,3.66,0,0,1,.78.09,2.12,2.12,0,0,1,1.44,3.39,1.38,1.38,0,0,1-1.08.42c-.51,0-1-.12-1.56-.12a1.92,1.92,0,0,0-1.86,1.23.23.23,0,0,0,.15.36,6.1,6.1,0,0,1,4.53,6c0,4.2-3.48,6.39-7.29,6.39h-.45a.74.74,0,0,0-.51.15c-1.56,1.08-.54,1.65,2.55,1.65.54,0,1.14,0,1.74,0,2,0,3.93.21,3.9,2.07,0,2.37-1.89,4.62-4,4.62-1.62,0-2.79-.81-2.43-1.62.54-1,2.1-1.86,1.56-2.52-.27-.33-2.1-.33-3.48-.33h-.18c-1.35,0-4.74,0-5.07-1.17s1.47-2.55,3-3.21c.18-.06.18-.15,0-.21A6.07,6.07,0,0,1,208.52,664.72Zm4.53.3c.3,2.73,1.35,4.26,3,4.26.12,0,.21,0,.33,0,1.8-.18,2.52-1.8,2.16-4.77-.27-2.55-1.29-4.26-3-4.26l-.3,0C213.5,660.4,212.75,662.26,213.05,665Z" style="fill:#672f25"/></g><g style="isolation:isolate"><path d="M270.13,653.32H281.5c1.95,0,3,.81,3,2v.54c0,1-.48,1.77-1.56,1.77-1.44-.06-1.74-1.35-3.09-1.35H275c-.69,0-.87.48-.87,1.26v4.26a.3.3,0,0,0,.33.33h4c.84,0,.9-1.41,2-1.41.81,0,1.05.57,1.17,1.26a15.36,15.36,0,0,1,0,2.88c-.09.69-.36,1.26-1.17,1.26-1.08,0-1.14-1.41-2-1.41h-4a.3.3,0,0,0-.33.33v4c0,.72.24,1.38,1.05,1.38h5c1.35,0,1.65-1.29,3.09-1.35h.06c.81,0,1.5.51,1.5,1.77v.54c0,1.23-1,2-3,2H269.71c-1,0-1.59-.33-1.59-1.11,0-1.08,1.5-1.08,1.5-2.13V657.25c0-1.41-1.5-1.5-1.5-2.73C268.12,653.83,268.72,653.32,270.13,653.32Z" style="fill:#672f25"/></g><g style="isolation:isolate"><path d="M298.05,662.47c.75-2.1-.9-2.49-.48-3.39.21-.42,1.41-.6,2.55-.6s2.25.21,2.34.72c.12,1-1.26,1.5-2,3.45L297,671.08c-.57,1.47-.78,2.34-1.92,2.34h-1c-1.14,0-1.92-.9-2.52-2.34l-3.84-9.27c-.57-1.32-1.74-1.56-1.74-2.34,0-.6.45-.93,1.68-.93h1.71c1.14,0,1.95.87,2.55,2.31l3.27,7.8q.09.18.18.18t.18-.18Z" style="fill:#672f25"/></g><g style="isolation:isolate"><path d="M312.4,670.9a5.75,5.75,0,0,0,4.26-2.31,1.13,1.13,0,0,1,.78-.42c.39,0,.63.36.33,1.17-1.17,3.09-3.51,4.29-6.57,4.32a7.15,7.15,0,0,1-7.5-6.18c-.84-4.53,2-9,7.2-9.21,2.58,0,5,.63,6.24,3.12.9,1.8.21,3.27-1.74,4.2l-6.18,2.91c-.21.12-.3.33-.15.51A3.53,3.53,0,0,0,312.4,670.9Zm-.48-6.33c1.23-.54,1.86-1.17,1.29-2.25a3.13,3.13,0,0,0-2.73-1.86,2.47,2.47,0,0,0-.78.12c-2.13.54-2.61,3-2,5.46a.34.34,0,0,0,.33.27.33.33,0,0,0,.15,0Z" style="fill:#672f25"/></g><g style="isolation:isolate"><path d="M329.58,658.27c1.92,0,3.06.84,3.06,2.37a2,2,0,0,1-2.25,2.1c-1.38,0-2.19-.69-2.91-.69a1.06,1.06,0,0,0-.51.12,4.16,4.16,0,0,0-1.26,2.88v5c0,1.41,1.53,1.23,1.53,2.28,0,.72-.48,1-1.41,1.08a15.82,15.82,0,0,1-2.13.15,20.27,20.27,0,0,1-2.28-.15c-.9-.12-1.38-.36-1.38-1.08,0-1,1.53-.87,1.53-2.28v-7.8c0-1.23-1.53-1.41-1.53-2.61,0-.66.6-1.08,1.83-1.08h1.35a2.34,2.34,0,0,1,2,1.14c.12.3.21,1.23.3,1.53,0,.09.06.15.12.15s.06-.06.09-.12A4,4,0,0,1,329.58,658.27Z" style="fill:#672f25"/></g><g style="isolation:isolate"><path d="M346.64,662.47c.72-2.1-.9-2.49-.48-3.39.21-.42,1.32-.6,2.49-.6s2.34.18,2.4.72c.15,1-1.23,1.5-2,3.45l-5.28,13c-1.05,2.58-2.31,3.81-4.26,3.81-2.43,0-4.17-1.8-3.33-3.45.24-.45.51-.6.81-.6.69,0,1.5.69,2.43.69s1.71-.51,2.79-2.76a3.61,3.61,0,0,1-2-2.28l-3.84-9.27c-.57-1.32-1.74-1.56-1.74-2.34,0-.57.45-.93,1.68-.93H338c1.14,0,1.95.87,2.55,2.31l3.24,7.68c.06.12.12.21.21.21s.12-.09.18-.21Z" style="fill:#672f25"/></g><g style="isolation:isolate"><path d="M352.93,659.47c0-.6.45-.93,1.68-.93h1.65a2.79,2.79,0,0,1,2.58,2.31l2.73,8.28c.06.15.09.21.15.21s.12-.06.15-.18l2.13-6a1.34,1.34,0,0,0,0-.84l-.15-.51c-.45-1.35-1.74-1.56-1.74-2.34,0-.6.45-.93,1.68-.93h1.68a2.78,2.78,0,0,1,2.58,2.31l2.55,8c0,.12.09.21.12.21s.12-.09.15-.21l2.1-6.36c.72-2.13-1.2-2.49-.75-3.39.18-.42,1.38-.6,2.55-.6s2.25.21,2.31.72c.15,1-1.41,1.41-2,3.45l-2.61,8.43c-.45,1.53-1,2.34-2.28,2.34h-.69c-1.11,0-2-.84-2.49-2.34l-1.68-4.65c0-.15-.09-.21-.12-.21s-.09.06-.15.21l-1.68,4.65c-.54,1.47-1.08,2.34-2.25,2.34h-.69c-1.14,0-2-.87-2.49-2.34l-3.24-9.27C354.22,660.46,352.93,660.25,352.93,659.47Z" style="fill:#672f25"/></g><g style="isolation:isolate"><path d="M378.45,652c0-.69.6-1.11,1.83-1.11h1.35a2.37,2.37,0,0,1,2.49,2.34V661c0,.24,0,.36.12.36s.15-.09.27-.24a5.58,5.58,0,0,1,4.65-2.88c3.21,0,5.1,1.8,5.1,5v6.63c0,1.47,1.29,1.26,1.29,2.37,0,.78-.45,1-1.17,1.14a16.28,16.28,0,0,1-4.41,0c-.9-.12-1.38-.36-1.38-1.14,0-1.11,1.53-.9,1.53-2.37v-5.34c0-2.19-.84-3.39-2.4-3.39-2.22,0-3.48,3.9-3.6,5.76v3c0,1.47,1.29,1.26,1.29,2.37,0,.78-.45,1-1.17,1.14a16.28,16.28,0,0,1-4.41,0c-.9-.12-1.38-.36-1.38-1.08,0-1,1.53-.87,1.53-2.28V654.61C380,653.38,378.45,653.23,378.45,652Z" style="fill:#672f25"/></g><g style="isolation:isolate"><path d="M406.64,670.9a5.75,5.75,0,0,0,4.26-2.31,1.13,1.13,0,0,1,.78-.42c.39,0,.63.36.33,1.17-1.17,3.09-3.51,4.29-6.57,4.32a7.15,7.15,0,0,1-7.5-6.18c-.84-4.53,2-9,7.2-9.21,2.58,0,5,.63,6.24,3.12.9,1.8.21,3.27-1.74,4.2l-6.18,2.91c-.21.12-.3.33-.15.51A3.53,3.53,0,0,0,406.64,670.9Zm-.48-6.33c1.23-.54,1.86-1.17,1.29-2.25a3.13,3.13,0,0,0-2.73-1.86,2.47,2.47,0,0,0-.78.12c-2.13.54-2.61,3-2,5.46a.34.34,0,0,0,.33.27.33.33,0,0,0,.15,0Z" style="fill:#672f25"/></g><g style="isolation:isolate"><path d="M423.82,658.27c1.92,0,3.06.84,3.06,2.37a2,2,0,0,1-2.25,2.1c-1.38,0-2.19-.69-2.91-.69a1.06,1.06,0,0,0-.51.12,4.16,4.16,0,0,0-1.26,2.88v5c0,1.41,1.53,1.23,1.53,2.28,0,.72-.48,1-1.41,1.08a15.82,15.82,0,0,1-2.13.15,20.27,20.27,0,0,1-2.28-.15c-.9-.12-1.38-.36-1.38-1.08,0-1,1.53-.87,1.53-2.28v-7.8c0-1.23-1.53-1.41-1.53-2.61,0-.66.6-1.08,1.83-1.08h1.35a2.34,2.34,0,0,1,2,1.14c.12.3.21,1.23.3,1.53,0,.09.06.15.12.15s.06-.06.09-.12A4,4,0,0,1,423.82,658.27Z" style="fill:#672f25"/></g><g style="isolation:isolate"><path d="M437.53,670.9a5.75,5.75,0,0,0,4.26-2.31,1.13,1.13,0,0,1,.78-.42c.39,0,.63.36.33,1.17-1.17,3.09-3.51,4.29-6.57,4.32a7.15,7.15,0,0,1-7.5-6.18c-.84-4.53,2-9,7.2-9.21,2.58,0,5,.63,6.24,3.12.9,1.8.21,3.27-1.74,4.2l-6.18,2.91c-.21.12-.3.33-.15.51A3.53,3.53,0,0,0,437.53,670.9Zm-.48-6.33c1.23-.54,1.86-1.17,1.29-2.25a3.13,3.13,0,0,0-2.73-1.86,2.47,2.47,0,0,0-.78.12c-2.13.54-2.61,3-2,5.46a.34.34,0,0,0,.33.27.33.33,0,0,0,.15,0Z" style="fill:#672f25"/></g><rect x="32.3" y="299.8" width="83.6" height="69.3" style="fill:#672f25"/><polygon points="139 319.1 9.3 319.1 74.1 260.1 139 319.1" style="fill:#00945e"/><path d="M230.4,297.2V277a13,13,0,0,1,13-13h31.5a13,13,0,0,1,13,13v20.2" style="fill:none;stroke:#672f25;stroke-miterlimit:10;stroke-width:7.119999885559082px"/><path d="M210,293.3h95.7A13.29,13.29,0,0,1,319,306.6v48.9a13.29,13.29,0,0,1-13.3,13.3H210a13.29,13.29,0,0,1-13.3-13.3V306.6A13.36,13.36,0,0,1,210,293.3Z" style="fill:#179b66"/><rect x="433.4" y="290.34" width="20.4" height="103.7" transform="translate(-58.43 590.87) rotate(-64)" style="fill:#672f25"/><path d="M443.6,314.3h0A23.32,23.32,0,0,1,420.3,291a23.69,23.69,0,0,1,2-9.4l21.4-31.4,21.4,31.4a23.25,23.25,0,0,1-12,30.7A24.54,24.54,0,0,1,443.6,314.3Z" style="fill:#ff6b00"/><rect x="391.71" y="332" width="103.7" height="20.4" transform="translate(-105.12 229.09) rotate(-26)" style="fill:#672f25"/><path d="M200.5,549.6c0-23.6-13.6-44.5-34.8-57.8a9.31,9.31,0,0,0-9.9,0C134.7,505,121,526,121,549.6s13.7,44.5,34.8,57.8a9.31,9.31,0,0,0,9.9,0C186.8,594.2,200.5,573.2,200.5,549.6Z" style="fill:#672f25"/><line x1="159.4" y1="519.4" x2="159.4" y2="582.9" style="fill:none;stroke:#fff;stroke-miterlimit:10;stroke-width:4.340000152587891px"/><line x1="152.5" y1="543.9" x2="166.3" y2="543.9" style="fill:none;stroke:#fff;stroke-miterlimit:10;stroke-width:4.340000152587891px"/><line x1="152.5" y1="527.5" x2="166.3" y2="527.5" style="fill:none;stroke:#fff;stroke-miterlimit:10;stroke-width:4.340000152587891px"/><line x1="152.5" y1="560.3" x2="166.3" y2="560.3" style="fill:none;stroke:#fff;stroke-miterlimit:10;stroke-width:4.340000152587891px"/><line x1="152.5" y1="576.7" x2="166.3" y2="576.7" style="fill:none;stroke:#fff;stroke-miterlimit:10;stroke-width:4.340000152587891px"/><path d="M363.9,553.6c6,0,12.7,0,18.2,2.8,6.4,2.7,12.4,6.7,18.9,9.1-.2-23-13.7-26.5-33.7-24.8,6.9-1.7,14-2.2,21-3.1,8.7-1.5,17.5-4.3,26.4-4.4.9-5.4-2.9-8.1-7.1-10.4-3-1.9-5.9-3.9-9.4-4.7-5.9-1-24.3,5.3-27.6,10.2-.4-7.2,3.8-15.2-1.4-21.8-3-5.7-9.2-8.8-15-11-1.9-.9-3.8.3-5.8.6,9.6,9.9,10.9,18.5,6.8,31.7-4.1-4.5-9.6-7.8-14.1-12-2.3-1.8-4.4-3.9-7.4-4.3-7.3-1.1-31,1-34.3,8.2,7.3,1.2,14.3,5.1,20.7,9,6.8,3.2,12,9.1,16,15.3-11.8-1.8-31.9,3-39.9,12.3,7.7.3,15.4-1.6,23-2.9C334.3,553.4,348.7,550.9,363.9,553.6Z" style="fill:#179b66"/><path id="SVGID_1_" d="M-91,144.87s104.3-52,230.1-57.4,273.2,75.6,496.1,66.6,240.7-33,240.7-33" style="fill:none"/><g style="isolation:isolate"><g style="isolation:isolate"><path d="M27.33,45.17l9.07-1.7c4-.75,5.43.45,5.79,2.36.64,3.42-2.9,4.34-2.16,8.25l2.48,13.23a1.2,1.2,0,0,0,1.48,1l21.72-4.08a1.2,1.2,0,0,0,1-1.48L64.25,49.54c-.74-3.91-4.45-3.47-5.08-6.89-.36-1.91.54-3.54,4.53-4.29l9.07-1.7c4-.75,5.84.37,6.2,2.28.64,3.41-3.39,4.43-2.66,8.34L83,82.9c.58,3.08,4.64,2.23,5.22,5.31.4,2.16-1,3.19-3.74,4a47.45,47.45,0,0,1-5.83,1.53,44.39,44.39,0,0,1-5.65.62c-2.36.27-4.37-.3-4.79-2.55-.59-3.16,3.24-3.87,2.64-7l-2.23-11.9a1.19,1.19,0,0,0-1.48-1L45.41,75.9a1.19,1.19,0,0,0-1,1.48l2.23,11.9c.59,3.16,4,2.52,4.6,5.69.42,2.24-.91,3.44-3.13,4a46.23,46.23,0,0,1-5.58,1.47,45.7,45.7,0,0,1-6,.7c-2.8.26-4.52-.19-4.92-2.36C31,95.74,35.21,95,34.64,92L28,56.34C27.23,52.43,23,53,22.38,49.55,22,47.63,23.42,45.91,27.33,45.17Z" style="fill:#f16a21"/></g><g style="isolation:isolate"><path d="M94.54,79.81c-.93-10.63,14.93-15,23.93-17.05a1,1,0,0,0,.83-1.18l-.16-1.85c-.48-5.48-2.47-8.71-6.6-8.35-4.47.39-5.84,5.1-8.15,7.85a6.67,6.67,0,0,1-4.48,2.26c-2.61.23-5.2-1.16-5.46-4.11C94,51.9,103,47.2,112.11,46.4c9.28-.81,17.87,2.27,18.8,12.89l1.48,16.87c.48,5.57,3.7,3.5,5.12,5.17,1.52,1.82-1.67,6.18-7,6.64a7.34,7.34,0,0,1-7.66-4c-.2-.32-.38-.47-.55-.46a.88.88,0,0,0-.55.48,16.61,16.61,0,0,1-12.12,6.24C103.24,90.78,95.32,88.75,94.54,79.81Zm19.27,3.59c3.29-.29,6.62-3.05,6.83-6.46l-.73-8.35c-.06-.68-.4-.73-1-.68-4.66,1.17-12.42,3.8-12.09,9.55A6.2,6.2,0,0,0,113.81,83.4Z" style="fill:#f16a21"/></g><g style="isolation:isolate"><path d="M146.51,93.83,148.39,55c.16-3.38-4.13-4.1-4-7.48.09-1.86,1.83-3,5.3-2.8l3.81.19A5.43,5.43,0,0,1,158,47.34c.16.26.35,1.45.5,1.88a.85.85,0,0,0,.66.46,1.16,1.16,0,0,0,.78-.39c2.95-3.16,7.17-4.48,12.75-4.21,10.15.49,19,7.44,18.23,22.58S181.25,89,171.18,88.49c-5-.24-8.81-1.78-11.54-4.88-.24-.26-.41-.36-.58-.36s-.35.23-.37.66l-.51,10.57c-.19,4,4.15,3.67,4,6.63-.1,2-1.48,2.64-4.12,2.85a43.89,43.89,0,0,1-6,.14,57.86,57.86,0,0,1-6.41-.74c-2.53-.37-3.84-1.2-3.74-3.23C142,97.17,146.32,97.89,146.51,93.83ZM168.9,83c5.43,0,9.21-4.56,9.26-16.17.06-6.35-1-15.73-9.14-16.12-4.66,0-8,2.75-9.18,9.39L159.56,66C160,71.93,161.12,82.67,168.9,83Z" style="fill:#f16a21"/></g><g style="isolation:isolate"><path d="M198.15,97.31,204.45,59c.55-3.34-3.63-4.54-3.08-7.88.31-1.84,2.17-2.74,5.59-2.17l3.76.61a5.46,5.46,0,0,1,4.16,2.92c.12.28.18,1.49.28,1.93a.87.87,0,0,0,.6.53,1.21,1.21,0,0,0,.82-.29c3.29-2.81,7.64-3.64,13.15-2.74,10,1.65,18,9.57,15.54,24.52s-12.05,20.08-22,18.44c-4.92-.81-8.55-2.78-10.91-6.17-.21-.29-.36-.4-.53-.43s-.37.2-.44.62l-1.72,10.44c-.64,3.93,3.7,4.12,3.22,7-.33,2-1.78,2.45-4.42,2.36a44.89,44.89,0,0,1-6-.55,58.78,58.78,0,0,1-6.28-1.46c-2.47-.67-3.68-1.64-3.35-3.64C193.32,100.12,197.5,101.32,198.15,97.31Zm23.48-8.15c5.39.62,9.67-3.48,11.05-15,.78-6.3.78-15.74-7.24-17.06-4.64-.5-8.28,1.81-10.2,8.28l-.94,5.76C214,77.09,214,87.89,221.63,89.16Z" style="fill:#f16a21"/></g><g style="isolation:isolate"><path d="M285.26,75.17c3.26-5.36-1-7.41.73-9.64.83-1,4-.86,7.22-.15s6.35,1.91,6.19,3.44c-.17,2.73-4.3,3.39-7.63,8.29l-22.43,32.71c-4.45,6.47-8.67,9.1-14,7.93-6.7-1.47-10.41-7.49-7.1-11.53a2.57,2.57,0,0,1,2.6-1.16c1.9.41,3.72,2.81,6.28,3.37s5-.37,9.36-5.92c-2.17-1.17-3.48-3.89-4.16-7.5l-5-27.88c-.77-4-3.85-5.36-3.38-7.51.34-1.57,1.8-2.29,5.19-1.54l4.72,1c3.14.69,4.85,3.58,5.63,7.91l4.29,23.13c.09.37.21.65.45.71s.39-.18.63-.47Z" style="fill:#f16a21"/></g><g style="isolation:isolate"><path d="M333.56,60l9,2.08c4,.91,4.79,2.58,4.35,4.48-.78,3.38-4.39,2.81-5.29,6.69l-3,13.11a1.2,1.2,0,0,0,.95,1.53l21.53,5a1.2,1.2,0,0,0,1.52-.95l3-13.12c.9-3.87-2.68-5-1.89-8.34.44-1.9,1.92-3,5.88-2.12l9,2.08c4,.92,5.2,2.68,4.76,4.58-.78,3.38-4.88,2.7-5.78,6.57l-8.17,35.31c-.71,3,3.35,3.9,2.65,7-.5,2.14-2.16,2.54-5,2.14a46.25,46.25,0,0,1-6-1,42.84,42.84,0,0,1-5.43-1.69c-2.27-.7-3.88-2-3.36-4.25.72-3.14,4.52-2.26,5.24-5.39l2.73-11.8a1.2,1.2,0,0,0-.95-1.52l-21.53-5a1.2,1.2,0,0,0-1.52,1l-2.73,11.8c-.73,3.14,2.65,3.92,1.93,7-.52,2.23-2.21,2.79-4.48,2.44a40.71,40.71,0,0,1-11.46-2.65c-2.67-.88-4.06-2-3.57-4.13.71-3,4.81-2,5.52-5.07l8.17-35.3c.9-3.88-3.17-5.08-2.38-8.46C327.71,60.07,329.68,59.05,333.56,60Z" style="fill:#f16a21"/></g><g style="isolation:isolate"><path d="M407,90.66c11.61,2.38,19.77,10.7,16.73,25.55s-13.82,19.38-25.43,17-19.76-10.7-16.71-25.63S395.3,88.27,407,90.66ZM405,96l-.83-.17c-5.41-.58-9.13,3.67-10.26,15.1-1.07,10.76,1.51,15.87,6.41,16.87l.82.17c5.48.69,9.12-3.58,10.35-15.08C412.51,102.16,409.93,97.05,405,96Z" style="fill:#f16a21"/></g><g style="isolation:isolate"><path d="M430.64,99.42c.3-1.84,2.17-2.73,5.59-2.17l3.76.62c3.18.52,6.59,3.23,5.88,7.57l-3,18.3c-1,6,.63,9.71,4.81,10.4,5.85,1,11-9.35,12.15-14.39l1.29-7.85c.56-3.43-3.62-4.63-3.07-8,.29-1.76,1.92-2.78,5-2.27l4.35.72c3.17.52,6.67,3.24,6,7.58l-4.07,24.74c-.57,3.42,3.54,4.53,3,7.87-.32,1.92-2.18,2.81-5.6,2.25l-3.76-.62a6.79,6.79,0,0,1-5.81-5.93c0-1.2.16-3.06.08-3.59a9.5,9.5,0,0,0-1.38,1.06c-3.38,3.9-8.21,6.63-13.56,5.75-8.69-1.43-13-7.28-11.51-16.05l3-18C434.27,104,430.09,102.76,430.64,99.42Z" style="fill:#f16a21"/></g><g style="isolation:isolate"><path d="M507.65,106.87c5.38.65,8.29,3.39,7.78,7.68-.55,3.85-3.32,5.57-7,5.12-3.85-.55-5.9-2.67-7.92-2.91a3,3,0,0,0-1.47.16c-1.72.82-3.51,3.68-4.5,7.65l-1.68,14c-.47,3.95,3.88,4,3.52,6.9-.24,2-1.66,2.53-4.31,2.55a45,45,0,0,1-6-.29,60.4,60.4,0,0,1-6.34-1.19c-2.48-.64-3.74-1.48-3.5-3.5.35-2.94,4.58-1.92,5.05-5.87l2.63-21.86c.41-3.44-3.81-4.46-3.41-7.82.22-1.85,2.05-2.83,5.49-2.42l3.79.46a6.61,6.61,0,0,1,5.25,3.87c.23.88.17,3.52.32,4.39.05.26.12.44.29.46s.19-.15.29-.31C498.12,109.57,501.85,106.18,507.65,106.87Z" style="fill:#f16a21"/></g><g style="isolation:isolate"><path d="M520.33,144.12c.72-3.43,4.18-5.17,7.22-4.91s6.26,2.33,3.91,7l-5.67,11.49a5,5,0,0,1-5.06,2.46c-1.94-.17-3.34-1.65-3-3.41Z" style="fill:#f16a21"/></g></g><path id="SVGID_2_" d="M-91,229.07s104.3-52,230.1-57.4,273.2,75.5,496.1,66.5,240.7-33,240.7-33" style="fill:none"/><g style="isolation:isolate"><g style="isolation:isolate"><path d="M104.56,164.88c-.94,3.21,3.18,2.72,3.43,5.85s-4.38,3.74-7.76,4l-.93.07c-3.29.26-8.1.63-8.39-3.08-.25-3.21,3.57-3.25,4.49-6.64l11.81-41.34c1.29-4.18,2.68-7,6.73-7.32l4.56-.36c2.45-.19,4.38.59,6.4,4.77l19.9,39.47c1.79,3.42,6,3.52,6.21,6.65.18,2.36-2.1,3.64-4.21,3.81l-5.32.41c-6,.47-8.65-5.35-10.57-9.2l-1.62-3.35a1.39,1.39,0,0,0-1.33-.75L107,159.51a1.29,1.29,0,0,0-1.2.94Zm19.77-14.37c.59,0,.73-.39.52-.89l-9.58-19.46c-.2-.33-.38-.48-.55-.47s-.33.11-.46.55l-5.79,20.57c-.13.52.07.93.66.89Z" style="fill:#f16a21"/></g><g style="isolation:isolate"><path d="M187.7,130.37c9,.72,13.94,6.21,13.23,15.16l-1.49,18.65c-.33,4.13,3.35,3.83,3.1,7-.18,2.19-1.51,2.85-3.55,2.94a45.66,45.66,0,0,1-12.41-1c-2.5-.54-3.8-1.32-3.62-3.51.24-3.13,4.5-2.19,4.83-6.33l1.2-15c.49-6.16-1.6-9.73-6-10.08-6.25-.5-10.67,10.19-11.42,15.4l-.67,8.35c-.33,4.14,3.35,3.84,3.1,7-.18,2.2-1.5,2.85-3.55,2.94a45.66,45.66,0,0,1-12.41-1c-2.5-.53-3.8-1.32-3.64-3.34.24-3,4.5-2.11,4.82-6.07l1.76-22c.27-3.38-4-4.23-3.73-7.61.15-1.85,1.93-2.9,5.39-2.62l3.8.3c2.53.2,5.39,1.7,6.17,4.65,0,.77-.07,3.06,0,4,.07.26.14.43.31.45a.66.66,0,0,0,.44-.31C176.59,133.31,181.7,129.89,187.7,130.37Z" style="fill:#f16a21"/></g><g style="isolation:isolate"><path d="M244.39,150.66c3-5.48-1.27-7.37.34-9.66.79-1.06,4-1,7.21-.44s6.42,1.66,6.32,3.19c-.06,2.74-4.16,3.56-7.29,8.59l-21.12,33.57c-4.19,6.65-8.3,9.44-13.72,8.48-6.75-1.2-10.69-7.06-7.54-11.23a2.56,2.56,0,0,1,2.54-1.27c1.92.34,3.83,2.66,6.41,3.12s5-.57,9.12-6.29c-2.21-1.08-3.63-3.74-4.46-7.33l-6.08-27.66c-.93-3.95-4.06-5.19-3.68-7.36.28-1.58,1.71-2.36,5.13-1.75l4.75.84c3.17.57,5,3.38,5.94,7.68l5.21,22.94c.11.37.23.65.48.69s.38-.19.6-.49Z" style="fill:#f16a21"/></g><g style="isolation:isolate"><path d="M294.2,134.81l9,2.1c3.95.92,4.78,2.59,4.34,4.49-.79,3.38-4.4,2.8-5.3,6.67l-3.06,13.11a1.2,1.2,0,0,0,.94,1.53l21.52,5a1.2,1.2,0,0,0,1.53-1l3.06-13.11c.91-3.88-2.66-5-1.87-8.35.44-1.9,1.92-3,5.88-2.1l9,2.09c3.95.93,5.19,2.7,4.75,4.59-.79,3.38-4.89,2.69-5.79,6.56l-8.25,35.29c-.71,3.05,3.35,3.91,2.64,7-.5,2.15-2.16,2.54-5,2.13a46,46,0,0,1-5.95-.95,42.92,42.92,0,0,1-5.43-1.7c-2.27-.71-3.87-2-3.35-4.26.73-3.14,4.52-2.25,5.25-5.38l2.76-11.79a1.2,1.2,0,0,0-.95-1.53l-21.52-5a1.21,1.21,0,0,0-1.53.95L294.08,183c-.73,3.13,2.65,3.92,1.92,7.06-.52,2.22-2.22,2.78-4.48,2.43a48.06,48.06,0,0,1-5.71-.9,46.45,46.45,0,0,1-5.76-1.78c-2.66-.88-4.05-2-3.55-4.14.71-3.05,4.82-2,5.53-5.05l8.24-35.29c.91-3.88-3.16-5.09-2.37-8.47C288.35,134.92,290.32,133.9,294.2,134.81Z" style="fill:#f16a21"/></g><g style="isolation:isolate"><path d="M368.23,166.39c11.57,2.61,19.54,11.1,16.2,25.88s-14.21,19.1-25.78,16.48-19.53-11.1-16.17-26S356.59,163.75,368.23,166.39Zm-2.16,5.33-.82-.19c-5.4-.7-9.21,3.47-10.57,14.88-1.3,10.74,1.18,15.9,6.05,17l.83.19c5.46.8,9.18-3.4,10.65-14.87C373.51,178,371,172.84,366.07,171.72Z" style="fill:#f16a21"/></g><g style="isolation:isolate"><path d="M392.11,175.74c.36-1.82,2.25-2.66,5.66-2l3.73.74c3.16.63,6.49,3.44,5.64,7.76l-3.6,18.19c-1.18,6,.32,9.73,4.48,10.55,5.81,1.15,11.27-9,12.6-14l1.54-7.81c.68-3.41-3.46-4.74-2.81-8.06.35-1.75,2-2.72,5.08-2.11l4.32.85c3.16.63,6.57,3.46,5.71,7.78l-4.85,24.59c-.67,3.4,3.4,4.64,2.74,8-.38,1.91-2.27,2.75-5.67,2.07l-3.74-.74a6.79,6.79,0,0,1-5.61-6.11c.06-1.2.26-3.06.19-3.59a9.86,9.86,0,0,0-1.41,1c-3.51,3.79-8.42,6.36-13.74,5.31-8.64-1.7-12.72-7.69-11-16.41l3.55-17.94C395.59,180.4,391.45,179.07,392.11,175.74Z" style="fill:#f16a21"/></g></g><g style="isolation:isolate"><path d="M469.1,185.93c5.35.86,8.15,3.71,7.47,8-.7,3.83-3.53,5.44-7.21,4.85-3.83-.7-5.79-2.9-7.8-3.22a3,3,0,0,0-1.47.11c-1.75.75-3.66,3.53-4.8,7.46L453.07,217c-.63,3.93,3.72,4.11,3.25,7-.32,2-1.77,2.46-4.41,2.38a43.15,43.15,0,0,1-6-.53,58.62,58.62,0,0,1-6.29-1.43c-2.46-.74-3.69-1.62-3.37-3.63.47-2.93,4.65-1.74,5.28-5.67L445,193.4c.55-3.43-3.64-4.61-3.1-8,.29-1.84,2.15-2.75,5.58-2.2l3.76.6a6.62,6.62,0,0,1,5.1,4.07c.2.89,0,3.53.15,4.4,0,.27.1.45.27.47s.19-.14.3-.29C459.47,188.25,463.33,185,469.1,185.93Z" style="fill:#f16a21"/></g></svg>