<?xml version="1.0" encoding="utf-8"?>
<!-- Generator: Adobe Illustrator 25.3.1, SVG Export Plug-In . SVG Version: 6.00 Build 0)  -->
<svg version="1.1" id="a6f743a2-dbae-4db8-bbbd-448948be1ec3"
	 xmlns="http://www.w3.org/2000/svg" xmlns:xlink="http://www.w3.org/1999/xlink" x="0px" y="0px" viewBox="0 0 1430 292.5"
	 style="enable-background:new 0 0 1430 292.5;" xml:space="preserve">
<style type="text/css">
	.st0{fill:#FF6A00;}
	.st1{font-family:'Hornbill-Bold';}
	.st2{font-size:110px;}
	.st3{font-size:110.4446px;}
	.st4{font-size:109.6971px;}
	.st5{font-size:109.8349px;}
	.st6{font-size:110.1978px;}
</style>
<text transform="matrix(0.9985 -5.390453e-02 5.390453e-02 0.9985 178.47 218.38)" class="st0 st1 st2">H</text>
<text transform="matrix(0.9901 -0.1406 0.1406 0.9901 260.3199 213.75)" class="st0 st1 st2">a</text>
<text transform="matrix(0.9735 -0.2289 0.2289 0.9735 320.69 205.36)" class="st0 st1 st2">p</text>
<text transform="matrix(0.9613 -0.2756 0.2756 0.9613 383.4802 190.22)" class="st0 st1 st2">p</text>
<text transform="matrix(0.9711 -0.2389 0.2389 0.9711 441.95 173.0201)" class="st0 st1 st2">y</text>
<text transform="matrix(0.9936 -0.1132 0.1132 0.9936 521.36 154.04)" class="st0 st1 st2">H</text>
<text transform="matrix(0.9993 -3.856221e-02 3.856221e-02 0.9993 597.78 145.6)" class="st0 st1 st2">o</text>
<text transform="matrix(1 9.599164e-03 -9.599164e-03 1 654.46 143.25)" class="st0 st1 st2">u</text>
<text transform="matrix(0.9982 6.000326e-02 -6.000326e-02 0.9982 718.05 143.9101)" class="st0 st1 st2">r</text>
<text transform="matrix(0.996 8.963770e-02 -8.963770e-02 0.996 752.7894 145.8996)" class="st0 st1 st3">,</text>
<text transform="matrix(0.9815 0.1913 -0.1913 0.9815 804.8101 150.18)" class="st0 st1 st2">A</text>
<text transform="matrix(0.9627 0.2707 -0.2707 0.9627 880.2806 165.3706)" class="st0 st1 st4">n</text>
<text transform="matrix(0.9658 0.2593 -0.2593 0.9658 940.03 182.57)" class="st0 st1 st2">y</text>
<text transform="matrix(0.9915 0.1302 -0.1302 0.9915 1027.37 205.18)" class="st0 st1 st5">H</text>
<text transform="matrix(0.999 4.466556e-02 -4.466556e-02 0.999 1108.92 215.18)" class="st0 st1 st2">o</text>
<text transform="matrix(1 -7.330317e-03 7.330317e-03 1 1168.79 217.93)" class="st0 st1 st2">u</text>
<text transform="matrix(0.9982 -5.989229e-02 5.989229e-02 0.9982 1235.78 217.3097)" class="st0 st1 st6">r</text>
</svg>
