<svg id="a6f743a2-dbae-4db8-bbbd-448948be1ec3" xmlns="http://www.w3.org/2000/svg" viewBox="0 0 539.88 715.59"><path d="M358.85,545.09l17.7,73.6h-46.3l23.8-73.6Z" style="fill:#672f25"/><g style="isolation:isolate"><path d="M34.79,422.13h3.27c1.44,0,1.86.51,1.86,1.2,0,1.23-1.29,1.32-1.29,2.73v4.77a.43.43,0,0,0,.45.45h7.83a.43.43,0,0,0,.45-.45v-4.77c0-1.41-1.32-1.5-1.32-2.73,0-.69.42-1.2,1.86-1.2h3.27c1.44,0,2,.51,2,1.2,0,1.23-1.47,1.32-1.47,2.73V438.9c0,1.11,1.47,1.08,1.47,2.19,0,.78-.54,1.05-1.56,1.14a16.56,16.56,0,0,1-2.13.15,15.49,15.49,0,0,1-2-.15c-.84-.06-1.5-.39-1.5-1.2,0-1.14,1.38-1.14,1.38-2.28v-4.29a.43.43,0,0,0-.45-.45H39.08a.43.43,0,0,0-.45.45v4.29c0,1.14,1.23,1.14,1.23,2.28,0,.81-.54,1.14-1.35,1.2a16.35,16.35,0,0,1-2,.15,16.56,16.56,0,0,1-2.13-.15c-1-.09-1.56-.36-1.56-1.14,0-1.11,1.5-1.08,1.5-2.19V426.06c0-1.41-1.5-1.5-1.5-2.73C32.78,422.64,33.38,422.13,34.79,422.13Z" style="fill:#672f25"/><path d="M63,427.08c4.2,0,7.62,2.31,7.62,7.68s-3.42,7.71-7.62,7.71-7.62-2.31-7.62-7.71S58.76,427.08,63,427.08Zm-.33,2h-.3c-1.92.18-2.91,1.92-2.49,6,.39,3.81,1.65,5.4,3.42,5.4h.3c2-.15,2.91-1.89,2.52-6C65.72,430.68,64.46,429.09,62.66,429.09Z" style="fill:#672f25"/></g><g style="isolation:isolate"><path d="M93.05,427.08c3,0,4.8,1.8,4.8,5v6.63c0,1.44,1.32,1.26,1.32,2.37,0,.75-.48,1-1.2,1.11a16.28,16.28,0,0,1-4.41,0c-.9-.09-1.38-.36-1.38-1.11,0-1.11,1.53-.93,1.53-2.37v-5.34c0-2.19-.75-3.39-2.16-3.39-1.8,0-2.91,3.06-3.15,5.1v3.63c0,1.44,1.29,1.26,1.29,2.37,0,.75-.45,1-1.2,1.11a16.06,16.06,0,0,1-4.38,0c-.9-.09-1.41-.27-1.41-1.05,0-1.11,1.53-1,1.53-2.43v-5.34c0-2.19-.72-3.39-2.13-3.39-1.8,0-2.91,3.06-3.18,5.1v3.6c0,1.47,1.29,1.26,1.29,2.37,0,.75-.45,1.05-1.17,1.11a12.59,12.59,0,0,1-2.1.15,19.48,19.48,0,0,1-2.31-.15c-.9-.09-1.38-.33-1.38-1.05,0-1.08,1.53-.87,1.53-2.28V431c0-1.2-1.53-1.38-1.53-2.58,0-.66.6-1.08,1.83-1.08h1.35a2.37,2.37,0,0,1,2.22,1.47c0,.15.06,1.05.09,1.23s.09.18.15.18a.35.35,0,0,0,.18-.15,5.41,5.41,0,0,1,4.5-3c2.37,0,4,1.14,4.5,3.18.06.12.09.18.15.18s.12-.06.18-.15C89.42,428.46,91,427.08,93.05,427.08Z" style="fill:#672f25"/></g><g style="isolation:isolate"><path d="M110.17,439.71a5.75,5.75,0,0,0,4.26-2.31,1.13,1.13,0,0,1,.78-.42c.39,0,.63.36.33,1.17-1.17,3.09-3.51,4.29-6.57,4.32a7.15,7.15,0,0,1-7.5-6.18c-.84-4.53,2-9,7.2-9.21,2.58,0,5,.63,6.24,3.12.9,1.8.21,3.27-1.74,4.2L107,437.31c-.21.12-.3.33-.15.51A3.53,3.53,0,0,0,110.17,439.71Zm-.48-6.33c1.23-.54,1.86-1.17,1.29-2.25a3.13,3.13,0,0,0-2.73-1.86,2.47,2.47,0,0,0-.78.12c-2.13.54-2.61,3-2,5.46a.34.34,0,0,0,.33.27.33.33,0,0,0,.15,0Z" style="fill:#672f25"/></g><g style="isolation:isolate"><path d="M211.56,424.53v-.36c0-1.23.93-2,2.88-2H228.6c2,0,2.85.81,2.85,2v.36a1.54,1.54,0,0,1-1.53,1.74c-1.44,0-1.65-1.14-3-1.14H224a.3.3,0,0,0-.33.33V438.9c0,1.11,1.44,1.08,1.44,2.19,0,.78-.54,1.05-1.56,1.14a14.39,14.39,0,0,1-2,.15,18.26,18.26,0,0,1-2.16-.15c-1-.09-1.56-.36-1.56-1.14,0-1.11,1.47-1.08,1.47-2.19V425.46a.3.3,0,0,0-.33-.33h-2.94c-1.29,0-1.53,1.14-3,1.14A1.54,1.54,0,0,1,211.56,424.53Z" style="fill:#672f25"/></g><g style="isolation:isolate"><path d="M240,427.08c1.92,0,3.06.84,3.06,2.37a2,2,0,0,1-2.25,2.1c-1.38,0-2.19-.69-2.91-.69a1.06,1.06,0,0,0-.51.12,4.16,4.16,0,0,0-1.26,2.88v5c0,1.41,1.53,1.23,1.53,2.28,0,.72-.48,1-1.41,1.08a15.82,15.82,0,0,1-2.13.15,20.27,20.27,0,0,1-2.28-.15c-.89-.12-1.38-.36-1.38-1.08,0-1.05,1.53-.87,1.53-2.28V431c0-1.23-1.53-1.41-1.53-2.61,0-.66.6-1.08,1.83-1.08h1.35a2.34,2.34,0,0,1,2,1.14c.12.3.21,1.23.3,1.53,0,.09.06.15.12.15s.06-.06.09-.12A4,4,0,0,1,240,427.08Z" style="fill:#672f25"/></g><g style="isolation:isolate"><path d="M245.15,438.33c0-3.78,5.73-4.83,9-5.28a.37.37,0,0,0,.33-.39V432c0-1.95-.6-3.15-2.07-3.15s-2.22,1.62-3.12,2.52a2.36,2.36,0,0,1-1.65.66,1.66,1.66,0,0,1-1.8-1.62c0-2,3.33-3.33,6.57-3.33s6.24,1.35,6.24,5.13v6c0,2,1.2,1.35,1.65,2s-.78,2.13-2.67,2.13a2.6,2.6,0,0,1-2.58-1.65q-.09-.18-.18-.18a.31.31,0,0,0-.21.15,5.87,5.87,0,0,1-4.47,1.83C247.88,442.47,245.15,441.51,245.15,438.33Zm6.69,1.86a2.67,2.67,0,0,0,2.61-2.07v-3c0-.24-.12-.27-.33-.27-1.68.27-4.5,1-4.56,3A2.2,2.2,0,0,0,251.84,440.19Z" style="fill:#672f25"/></g><g style="isolation:isolate"><path d="M273.16,431.28c.75-2.1-.9-2.49-.48-3.39.21-.42,1.41-.6,2.55-.6s2.25.21,2.34.72c.12,1-1.26,1.5-2,3.45l-3.39,8.43c-.57,1.47-.78,2.34-1.92,2.34h-1c-1.14,0-1.92-.9-2.52-2.34l-3.84-9.27c-.57-1.32-1.74-1.56-1.74-2.34,0-.6.45-.93,1.68-.93h1.71c1.14,0,1.95.87,2.55,2.31l3.27,7.8q.09.18.18.18t.18-.18Z" style="fill:#672f25"/></g><g style="isolation:isolate"><path d="M287.5,439.71a5.75,5.75,0,0,0,4.26-2.31,1.13,1.13,0,0,1,.78-.42c.39,0,.63.36.33,1.17-1.17,3.09-3.51,4.29-6.57,4.32a7.15,7.15,0,0,1-7.5-6.18c-.84-4.53,2-9,7.2-9.21,2.58,0,5,.63,6.24,3.12.9,1.8.21,3.27-1.74,4.2l-6.18,2.91c-.21.12-.3.33-.15.51A3.53,3.53,0,0,0,287.5,439.71Zm-.48-6.33c1.23-.54,1.86-1.17,1.29-2.25a3.13,3.13,0,0,0-2.73-1.86,2.47,2.47,0,0,0-.78.12c-2.13.54-2.61,3-2,5.46a.34.34,0,0,0,.33.27.33.33,0,0,0,.15,0Z" style="fill:#672f25"/></g><g style="isolation:isolate"><path d="M300.65,438.81c0,1.44,1.53,1.23,1.53,2.31,0,.72-.48.93-1.41,1.05a12.07,12.07,0,0,1-2.13.15,14.56,14.56,0,0,1-2.28-.15c-.9-.09-1.38-.33-1.38-1.05,0-1.08,1.53-.87,1.53-2.31V423.42c0-1.23-1.53-1.38-1.53-2.58,0-.69.57-1.11,1.65-1.11h1.53a2.18,2.18,0,0,1,2.49,2.34Z" style="fill:#672f25"/></g><g style="isolation:isolate"><path d="M385.36,421.89c3.45,0,6.27.87,8,3.69s0,4.59-1.92,4.59a3,3,0,0,1-2.73-1.95c-1-2.49-2.4-3.84-4.35-3.84a5.83,5.83,0,0,0-.72.06c-2.52.39-3.69,3.18-3.21,7.44.33,3.72,2.52,7,6.51,7,1.95,0,3.66-1.08,5.22-2.94a1.28,1.28,0,0,1,.9-.54c.45,0,.75.48.57,1.29-1.05,4-4.35,5.79-8.19,5.76-5.1,0-9.84-3.24-9.84-10.14C375.58,425.19,380.08,421.89,385.36,421.89Z" style="fill:#672f25"/></g><g style="isolation:isolate"><path d="M396.62,438.33c0-3.78,5.73-4.83,9-5.28a.37.37,0,0,0,.33-.39V432c0-1.95-.6-3.15-2.07-3.15s-2.22,1.62-3.12,2.52a2.36,2.36,0,0,1-1.65.66,1.66,1.66,0,0,1-1.8-1.62c0-2,3.33-3.33,6.57-3.33s6.24,1.35,6.24,5.13v6c0,2,1.2,1.35,1.65,2s-.78,2.13-2.67,2.13a2.6,2.6,0,0,1-2.58-1.65q-.09-.18-.18-.18a.31.31,0,0,0-.21.15,5.87,5.87,0,0,1-4.47,1.83C399.35,442.47,396.62,441.51,396.62,438.33Zm6.69,1.86a2.67,2.67,0,0,0,2.61-2.07v-3c0-.24-.12-.27-.33-.27-1.68.27-4.5,1-4.56,3A2.2,2.2,0,0,0,403.31,440.19Z" style="fill:#672f25"/></g><g style="isolation:isolate"><path d="M434,427.08c3,0,4.8,1.8,4.8,5v6.63c0,1.44,1.32,1.26,1.32,2.37,0,.75-.48,1-1.2,1.11a16.28,16.28,0,0,1-4.41,0c-.9-.09-1.38-.36-1.38-1.11,0-1.11,1.53-.93,1.53-2.37v-5.34c0-2.19-.75-3.39-2.16-3.39-1.8,0-2.91,3.06-3.15,5.1v3.63c0,1.44,1.29,1.26,1.29,2.37,0,.75-.45,1-1.2,1.11a16.06,16.06,0,0,1-4.38,0c-.9-.09-1.41-.27-1.41-1.05,0-1.11,1.53-1,1.53-2.43v-5.34c0-2.19-.72-3.39-2.13-3.39-1.8,0-2.91,3.06-3.18,5.1v3.6c0,1.47,1.29,1.26,1.29,2.37,0,.75-.45,1.05-1.17,1.11a12.59,12.59,0,0,1-2.1.15,19.48,19.48,0,0,1-2.31-.15c-.89-.09-1.38-.33-1.38-1.05,0-1.08,1.53-.87,1.53-2.28V431c0-1.2-1.53-1.38-1.53-2.58,0-.66.6-1.08,1.83-1.08h1.35a2.37,2.37,0,0,1,2.22,1.47c0,.15.06,1.05.09,1.23s.09.18.15.18a.35.35,0,0,0,.18-.15,5.41,5.41,0,0,1,4.5-3c2.37,0,4,1.14,4.5,3.18.06.12.09.18.15.18s.12-.06.18-.15C430.39,428.46,432,427.08,434,427.08Z" style="fill:#672f25"/></g><g style="isolation:isolate"><path d="M443.6,444.78V431c0-1.2-1.53-1.38-1.53-2.58,0-.66.6-1.08,1.83-1.08h1.35a1.93,1.93,0,0,1,1.62.78c.06.09.15.51.21.66a.31.31,0,0,0,.24.15.41.41,0,0,0,.27-.15,5.45,5.45,0,0,1,4.44-1.71c3.6,0,6.84,2.31,6.84,7.68s-3.06,7.71-6.63,7.71a5.5,5.5,0,0,1-4.17-1.53c-.09-.09-.15-.12-.21-.12s-.12.09-.12.24v3.75c0,1.41,1.53,1.23,1.53,2.28,0,.72-.48,1-1.41,1.08a15.82,15.82,0,0,1-2.13.15,20,20,0,0,1-2.27-.15c-.9-.09-1.39-.36-1.39-1.08C442.07,446,443.6,446.22,443.6,444.78Zm7.74-4.2c1.92-.09,3.18-1.77,3-5.88-.09-2.25-.63-5.55-3.51-5.55-1.65.09-2.79,1.11-3.09,3.48v2.07C448,436.8,448.58,440.58,451.34,440.58Z" style="fill:#672f25"/></g><g style="isolation:isolate"><path d="M466.79,438.84c0,1.41,1.53,1.23,1.53,2.28,0,.72-.48,1-1.41,1.08a15.82,15.82,0,0,1-2.13.15,19.4,19.4,0,0,1-2.28-.15c-.9-.12-1.38-.36-1.38-1.08,0-1.05,1.53-.87,1.53-2.28V431c0-1.23-1.53-1.41-1.53-2.61,0-.66.57-1.08,1.65-1.08h1.53c1.53,0,2.49.75,2.49,2.31Zm-2.37-18.57a2.51,2.51,0,1,1,0,5,2.51,2.51,0,1,1,0-5Z" style="fill:#672f25"/></g><g style="isolation:isolate"><path d="M481.35,427.08c3.21,0,5.1,1.8,5.1,5v6.63c0,1.47,1.29,1.26,1.29,2.37,0,.78-.45,1.05-1.17,1.14a16.28,16.28,0,0,1-4.41,0c-.9-.12-1.38-.36-1.38-1.14,0-1.11,1.53-.9,1.53-2.37v-5.34c0-2.19-.84-3.39-2.4-3.39-2.22,0-3.48,3.9-3.6,5.76v3c0,1.47,1.29,1.26,1.29,2.37,0,.78-.45,1.05-1.17,1.14a16.28,16.28,0,0,1-4.41,0c-.9-.12-1.38-.36-1.38-1.08,0-1.05,1.53-.87,1.53-2.28V431c0-1.2-1.53-1.38-1.53-2.58,0-.66.6-1.08,1.83-1.08h1.35a2.39,2.39,0,0,1,2.31,1.47c0,.27.06,1.08.12,1.41,0,.09.06.15.12.15s.09,0,.15-.12A5.58,5.58,0,0,1,481.35,427.08Z" style="fill:#672f25"/></g><g style="isolation:isolate"><path d="M490,433.53c0-4.11,3.42-6.45,7.32-6.45.36,0,.69,0,1.05.06.18,0,.3,0,.3-.24.12-2.4,1.2-4.74,3.54-4.74a3.66,3.66,0,0,1,.78.09,2.12,2.12,0,0,1,1.44,3.39,1.38,1.38,0,0,1-1.08.42c-.51,0-1-.12-1.56-.12a1.92,1.92,0,0,0-1.86,1.23.23.23,0,0,0,.15.36,6.1,6.1,0,0,1,4.53,6c0,4.2-3.48,6.39-7.29,6.39h-.45a.74.74,0,0,0-.51.15c-1.56,1.08-.54,1.65,2.55,1.65.54,0,1.14,0,1.74,0,2,0,3.93.21,3.9,2.07,0,2.37-1.89,4.62-4,4.62-1.62,0-2.79-.81-2.43-1.62.54-1,2.1-1.86,1.56-2.52-.27-.33-2.1-.33-3.48-.33H496c-1.35,0-4.74,0-5.07-1.17s1.47-2.55,3-3.21c.18-.06.18-.15,0-.21A6.07,6.07,0,0,1,490,433.53Zm4.53.3c.3,2.73,1.35,4.26,3,4.26.12,0,.21,0,.33,0,1.8-.18,2.52-1.8,2.16-4.77-.27-2.55-1.29-4.26-3-4.26l-.3,0C495,429.21,494.21,431.07,494.51,433.83Z" style="fill:#672f25"/></g><g style="isolation:isolate"><path d="M105.13,653c2.67,0,6,.57,7.05,2.85a1.9,1.9,0,0,1-2.46,2.73c-2-1.29-2.7-3-5-3s-3.54,1-3.54,2.82c0,4.38,11.46,2.22,11.64,9.09.12,5.19-4.74,6.18-7.92,6.18-3.63,0-6.93-.84-8.07-3a1.85,1.85,0,0,1,1.65-2.82,2.12,2.12,0,0,1,.84.18c2,1,3.12,3.15,6,3.15,1.89,0,3.21-.81,3.21-2.43-.06-3.78-11.4-2.28-11.4-9.15C97.12,654.4,101.23,653,105.13,653Z" style="fill:#672f25"/></g><g style="isolation:isolate"><path d="M116.51,676V662.2c0-1.2-1.53-1.38-1.53-2.58,0-.66.6-1.08,1.83-1.08h1.35a1.93,1.93,0,0,1,1.62.78c.06.09.15.51.21.66a.31.31,0,0,0,.24.15.41.41,0,0,0,.27-.15,5.45,5.45,0,0,1,4.44-1.71c3.6,0,6.84,2.31,6.84,7.68s-3.06,7.71-6.63,7.71a5.5,5.5,0,0,1-4.17-1.53c-.09-.09-.15-.12-.21-.12s-.12.09-.12.24V676c0,1.41,1.53,1.23,1.53,2.28,0,.72-.48,1-1.41,1.08a15.82,15.82,0,0,1-2.13.15,20.27,20.27,0,0,1-2.28-.15c-.9-.09-1.38-.36-1.38-1.08C115,677.23,116.51,677.41,116.51,676Zm7.74-4.2c1.92-.09,3.18-1.77,3-5.88-.09-2.25-.63-5.55-3.51-5.55-1.65.09-2.79,1.11-3.09,3.48v2.07C120.89,668,121.49,671.77,124.25,671.77Z" style="fill:#672f25"/></g><g style="isolation:isolate"><path d="M142.1,658.27c4.2,0,7.62,2.31,7.62,7.68s-3.42,7.71-7.62,7.71-7.62-2.31-7.62-7.71S137.87,658.27,142.1,658.27Zm-.33,2h-.3c-1.92.18-2.91,1.92-2.49,6,.39,3.81,1.65,5.4,3.42,5.4h.3c2-.15,2.91-1.89,2.52-6C144.83,661.87,143.57,660.28,141.77,660.28Z" style="fill:#672f25"/></g><g style="isolation:isolate"><path d="M161.45,658.27c1.92,0,3.06.84,3.06,2.37a2,2,0,0,1-2.25,2.1c-1.38,0-2.19-.69-2.91-.69a1.06,1.06,0,0,0-.51.12,4.16,4.16,0,0,0-1.26,2.88v5c0,1.41,1.53,1.23,1.53,2.28,0,.72-.48,1-1.41,1.08a15.82,15.82,0,0,1-2.13.15,20.27,20.27,0,0,1-2.28-.15c-.9-.12-1.38-.36-1.38-1.08,0-1,1.53-.87,1.53-2.28v-7.8c0-1.23-1.53-1.41-1.53-2.61,0-.66.6-1.08,1.83-1.08h1.35a2.34,2.34,0,0,1,2,1.14c.12.3.21,1.23.3,1.53,0,.09.06.15.12.15s.06-.06.09-.12A4,4,0,0,1,161.45,658.27Z" style="fill:#672f25"/></g><g style="isolation:isolate"><path d="M167.36,658.54c.6,0,.87,0,1.29.06a.25.25,0,0,0,.3-.27v-2.64c0-1.08,2.16-1.83,3.36-2.16a.83.83,0,0,1,.27,0c.42,0,.54.36.54.81v4.14c0,.18.12.27.3.27a24.67,24.67,0,0,1,2.79-.18c1.35,0,1.35,2.43,0,2.43a24.23,24.23,0,0,1-2.79-.24.25.25,0,0,0-.3.27v7.77c0,1.68.39,2.19.93,2.19.75,0,1.86-1,2.64-1a.8.8,0,0,1,.36.09c1,.66-.3,3.63-3.93,3.63-1.8,0-4.17-.57-4.17-4.44v-8.07a.25.25,0,0,0-.3-.27c-.27,0-.63.06-1.29.09C166.1,661,166,658.54,167.36,658.54Z" style="fill:#672f25"/></g><g style="isolation:isolate"><path d="M185.33,670c0,1.41,1.53,1.23,1.53,2.28,0,.72-.48,1-1.41,1.08a15.82,15.82,0,0,1-2.13.15,19.4,19.4,0,0,1-2.28-.15c-.9-.12-1.38-.36-1.38-1.08,0-1,1.53-.87,1.53-2.28v-7.8c0-1.23-1.53-1.41-1.53-2.61,0-.66.57-1.08,1.65-1.08h1.53c1.53,0,2.49.75,2.49,2.31ZM183,651.46a2.51,2.51,0,1,1,0,5,2.51,2.51,0,1,1,0-5Z" style="fill:#672f25"/></g><g style="isolation:isolate"><path d="M199.89,658.27c3.21,0,5.1,1.8,5.1,5v6.63c0,1.47,1.29,1.26,1.29,2.37,0,.78-.45,1-1.17,1.14a16.28,16.28,0,0,1-4.41,0c-.9-.12-1.38-.36-1.38-1.14,0-1.11,1.53-.9,1.53-2.37v-5.34c0-2.19-.84-3.39-2.4-3.39-2.22,0-3.48,3.9-3.6,5.76v3c0,1.47,1.29,1.26,1.29,2.37,0,.78-.45,1-1.17,1.14a16.28,16.28,0,0,1-4.41,0c-.9-.12-1.38-.36-1.38-1.08,0-1,1.53-.87,1.53-2.28V662.2c0-1.2-1.53-1.38-1.53-2.58,0-.66.6-1.08,1.83-1.08h1.35a2.39,2.39,0,0,1,2.31,1.47c0,.27.06,1.08.12,1.41,0,.09.06.15.12.15s.09,0,.15-.12A5.58,5.58,0,0,1,199.89,658.27Z" style="fill:#672f25"/></g><g style="isolation:isolate"><path d="M208.52,664.72c0-4.11,3.42-6.45,7.32-6.45.36,0,.69,0,1,.06.18,0,.3,0,.3-.24.12-2.4,1.2-4.74,3.54-4.74a3.66,3.66,0,0,1,.78.09,2.12,2.12,0,0,1,1.44,3.39,1.38,1.38,0,0,1-1.08.42c-.51,0-1-.12-1.56-.12a1.92,1.92,0,0,0-1.86,1.23.23.23,0,0,0,.15.36,6.1,6.1,0,0,1,4.53,6c0,4.2-3.48,6.39-7.29,6.39h-.45a.74.74,0,0,0-.51.15c-1.56,1.08-.54,1.65,2.55,1.65.54,0,1.14,0,1.74,0,2,0,3.93.21,3.9,2.07,0,2.37-1.89,4.62-4,4.62-1.62,0-2.79-.81-2.43-1.62.54-1,2.1-1.86,1.56-2.52-.27-.33-2.1-.33-3.48-.33h-.18c-1.35,0-4.74,0-5.07-1.17s1.47-2.55,3-3.21c.18-.06.18-.15,0-.21A6.07,6.07,0,0,1,208.52,664.72Zm4.53.3c.3,2.73,1.35,4.26,3,4.26.12,0,.21,0,.33,0,1.8-.18,2.52-1.8,2.16-4.77-.27-2.55-1.29-4.26-3-4.26l-.3,0C213.5,660.4,212.75,662.26,213.05,665Z" style="fill:#672f25"/></g><g style="isolation:isolate"><path d="M270.13,653.32H281.5c1.95,0,3,.81,3,2v.54c0,1-.48,1.77-1.56,1.77-1.44-.06-1.74-1.35-3.09-1.35H275c-.69,0-.87.48-.87,1.26v4.26a.3.3,0,0,0,.33.33h4c.84,0,.9-1.41,2-1.41.81,0,1.05.57,1.17,1.26a15.36,15.36,0,0,1,0,2.88c-.09.69-.36,1.26-1.17,1.26-1.08,0-1.14-1.41-2-1.41h-4a.3.3,0,0,0-.33.33v4c0,.72.24,1.38,1.05,1.38h5c1.35,0,1.65-1.29,3.09-1.35h.06c.81,0,1.5.51,1.5,1.77v.54c0,1.23-1,2-3,2H269.71c-1,0-1.59-.33-1.59-1.11,0-1.08,1.5-1.08,1.5-2.13V657.25c0-1.41-1.5-1.5-1.5-2.73C268.12,653.83,268.72,653.32,270.13,653.32Z" style="fill:#672f25"/></g><g style="isolation:isolate"><path d="M298.05,662.47c.75-2.1-.9-2.49-.48-3.39.21-.42,1.41-.6,2.55-.6s2.25.21,2.34.72c.12,1-1.26,1.5-2,3.45L297,671.08c-.57,1.47-.78,2.34-1.92,2.34h-1c-1.14,0-1.92-.9-2.52-2.34l-3.84-9.27c-.57-1.32-1.74-1.56-1.74-2.34,0-.6.45-.93,1.68-.93h1.71c1.14,0,1.95.87,2.55,2.31l3.27,7.8q.09.18.18.18t.18-.18Z" style="fill:#672f25"/></g><g style="isolation:isolate"><path d="M312.4,670.9a5.75,5.75,0,0,0,4.26-2.31,1.13,1.13,0,0,1,.78-.42c.39,0,.63.36.33,1.17-1.17,3.09-3.51,4.29-6.57,4.32a7.15,7.15,0,0,1-7.5-6.18c-.84-4.53,2-9,7.2-9.21,2.58,0,5,.63,6.24,3.12.9,1.8.21,3.27-1.74,4.2l-6.18,2.91c-.21.12-.3.33-.15.51A3.53,3.53,0,0,0,312.4,670.9Zm-.48-6.33c1.23-.54,1.86-1.17,1.29-2.25a3.13,3.13,0,0,0-2.73-1.86,2.47,2.47,0,0,0-.78.12c-2.13.54-2.61,3-2,5.46a.34.34,0,0,0,.33.27.33.33,0,0,0,.15,0Z" style="fill:#672f25"/></g><g style="isolation:isolate"><path d="M329.58,658.27c1.92,0,3.06.84,3.06,2.37a2,2,0,0,1-2.25,2.1c-1.38,0-2.19-.69-2.91-.69a1.06,1.06,0,0,0-.51.12,4.16,4.16,0,0,0-1.26,2.88v5c0,1.41,1.53,1.23,1.53,2.28,0,.72-.48,1-1.41,1.08a15.82,15.82,0,0,1-2.13.15,20.27,20.27,0,0,1-2.28-.15c-.9-.12-1.38-.36-1.38-1.08,0-1,1.53-.87,1.53-2.28v-7.8c0-1.23-1.53-1.41-1.53-2.61,0-.66.6-1.08,1.83-1.08h1.35a2.34,2.34,0,0,1,2,1.14c.12.3.21,1.23.3,1.53,0,.09.06.15.12.15s.06-.06.09-.12A4,4,0,0,1,329.58,658.27Z" style="fill:#672f25"/></g><g style="isolation:isolate"><path d="M346.64,662.47c.72-2.1-.9-2.49-.48-3.39.21-.42,1.32-.6,2.49-.6s2.34.18,2.4.72c.15,1-1.23,1.5-2,3.45l-5.28,13c-1.05,2.58-2.31,3.81-4.26,3.81-2.43,0-4.17-1.8-3.33-3.45.24-.45.51-.6.81-.6.69,0,1.5.69,2.43.69s1.71-.51,2.79-2.76a3.61,3.61,0,0,1-2-2.28l-3.84-9.27c-.57-1.32-1.74-1.56-1.74-2.34,0-.57.45-.93,1.68-.93H338c1.14,0,1.95.87,2.55,2.31l3.24,7.68c.06.12.12.21.21.21s.12-.09.18-.21Z" style="fill:#672f25"/></g><g style="isolation:isolate"><path d="M352.93,659.47c0-.6.45-.93,1.68-.93h1.65a2.79,2.79,0,0,1,2.58,2.31l2.73,8.28c.06.15.09.21.15.21s.12-.06.15-.18l2.13-6a1.34,1.34,0,0,0,0-.84l-.15-.51c-.45-1.35-1.74-1.56-1.74-2.34,0-.6.45-.93,1.68-.93h1.68a2.78,2.78,0,0,1,2.58,2.31l2.55,8c0,.12.09.21.12.21s.12-.09.15-.21l2.1-6.36c.72-2.13-1.2-2.49-.75-3.39.18-.42,1.38-.6,2.55-.6s2.25.21,2.31.72c.15,1-1.41,1.41-2,3.45l-2.61,8.43c-.45,1.53-1,2.34-2.28,2.34h-.69c-1.11,0-2-.84-2.49-2.34l-1.68-4.65c0-.15-.09-.21-.12-.21s-.09.06-.15.21l-1.68,4.65c-.54,1.47-1.08,2.34-2.25,2.34h-.69c-1.14,0-2-.87-2.49-2.34l-3.24-9.27C354.22,660.46,352.93,660.25,352.93,659.47Z" style="fill:#672f25"/></g><g style="isolation:isolate"><path d="M378.45,652c0-.69.6-1.11,1.83-1.11h1.35a2.37,2.37,0,0,1,2.49,2.34V661c0,.24,0,.36.12.36s.15-.09.27-.24a5.58,5.58,0,0,1,4.65-2.88c3.21,0,5.1,1.8,5.1,5v6.63c0,1.47,1.29,1.26,1.29,2.37,0,.78-.45,1-1.17,1.14a16.28,16.28,0,0,1-4.41,0c-.9-.12-1.38-.36-1.38-1.14,0-1.11,1.53-.9,1.53-2.37v-5.34c0-2.19-.84-3.39-2.4-3.39-2.22,0-3.48,3.9-3.6,5.76v3c0,1.47,1.29,1.26,1.29,2.37,0,.78-.45,1-1.17,1.14a16.28,16.28,0,0,1-4.41,0c-.9-.12-1.38-.36-1.38-1.08,0-1,1.53-.87,1.53-2.28V654.61C380,653.38,378.45,653.23,378.45,652Z" style="fill:#672f25"/></g><g style="isolation:isolate"><path d="M406.64,670.9a5.75,5.75,0,0,0,4.26-2.31,1.13,1.13,0,0,1,.78-.42c.39,0,.63.36.33,1.17-1.17,3.09-3.51,4.29-6.57,4.32a7.15,7.15,0,0,1-7.5-6.18c-.84-4.53,2-9,7.2-9.21,2.58,0,5,.63,6.24,3.12.9,1.8.21,3.27-1.74,4.2l-6.18,2.91c-.21.12-.3.33-.15.51A3.53,3.53,0,0,0,406.64,670.9Zm-.48-6.33c1.23-.54,1.86-1.17,1.29-2.25a3.13,3.13,0,0,0-2.73-1.86,2.47,2.47,0,0,0-.78.12c-2.13.54-2.61,3-2,5.46a.34.34,0,0,0,.33.27.33.33,0,0,0,.15,0Z" style="fill:#672f25"/></g><g style="isolation:isolate"><path d="M423.82,658.27c1.92,0,3.06.84,3.06,2.37a2,2,0,0,1-2.25,2.1c-1.38,0-2.19-.69-2.91-.69a1.06,1.06,0,0,0-.51.12,4.16,4.16,0,0,0-1.26,2.88v5c0,1.41,1.53,1.23,1.53,2.28,0,.72-.48,1-1.41,1.08a15.82,15.82,0,0,1-2.13.15,20.27,20.27,0,0,1-2.28-.15c-.9-.12-1.38-.36-1.38-1.08,0-1,1.53-.87,1.53-2.28v-7.8c0-1.23-1.53-1.41-1.53-2.61,0-.66.6-1.08,1.83-1.08h1.35a2.34,2.34,0,0,1,2,1.14c.12.3.21,1.23.3,1.53,0,.09.06.15.12.15s.06-.06.09-.12A4,4,0,0,1,423.82,658.27Z" style="fill:#672f25"/></g><g style="isolation:isolate"><path d="M437.53,670.9a5.75,5.75,0,0,0,4.26-2.31,1.13,1.13,0,0,1,.78-.42c.39,0,.63.36.33,1.17-1.17,3.09-3.51,4.29-6.57,4.32a7.15,7.15,0,0,1-7.5-6.18c-.84-4.53,2-9,7.2-9.21,2.58,0,5,.63,6.24,3.12.9,1.8.21,3.27-1.74,4.2l-6.18,2.91c-.21.12-.3.33-.15.51A3.53,3.53,0,0,0,437.53,670.9Zm-.48-6.33c1.23-.54,1.86-1.17,1.29-2.25a3.13,3.13,0,0,0-2.73-1.86,2.47,2.47,0,0,0-.78.12c-2.13.54-2.61,3-2,5.46a.34.34,0,0,0,.33.27.33.33,0,0,0,.15,0Z" style="fill:#672f25"/></g><rect x="32.29" y="299.8" width="83.6" height="69.3" style="fill:#672f25"/><polygon points="138.99 319.1 9.29 319.1 74.09 260.1 138.99 319.1" style="fill:#00945e"/><path d="M230.39,297.2V277a13,13,0,0,1,13-13h31.5a13,13,0,0,1,13,13v20.2" style="fill:none;stroke:#672f25;stroke-miterlimit:10;stroke-width:7.119999885559082px"/><path d="M210,293.3h95.7A13.29,13.29,0,0,1,319,306.6v48.9a13.29,13.29,0,0,1-13.3,13.3H210a13.29,13.29,0,0,1-13.3-13.3V306.6A13.36,13.36,0,0,1,210,293.3Z" style="fill:#179b66"/><rect x="433.43" y="290.33" width="20.4" height="103.7" transform="translate(-58.4 590.9) rotate(-64)" style="fill:#672f25"/><path d="M443.59,314.3h0a23.32,23.32,0,0,1-23.3-23.3,23.69,23.69,0,0,1,2-9.4l21.4-31.4,21.4,31.4a23.25,23.25,0,0,1-12,30.7A24.54,24.54,0,0,1,443.59,314.3Z" style="fill:#ff6b00"/><rect x="391.71" y="332" width="103.7" height="20.4" transform="translate(-105.12 229.09) rotate(-26)" style="fill:#672f25"/><path d="M200.55,549.59c0-23.6-13.6-44.5-34.8-57.8a9.31,9.31,0,0,0-9.9,0c-21.1,13.2-34.8,34.2-34.8,57.8s13.7,44.5,34.8,57.8a9.31,9.31,0,0,0,9.9,0C186.85,594.19,200.55,573.19,200.55,549.59Z" style="fill:#672f25"/><line x1="159.45" y1="519.39" x2="159.45" y2="582.89" style="fill:none;stroke:#fff;stroke-miterlimit:10;stroke-width:4.340000152587891px"/><line x1="163.55" y1="543.89" x2="177.35" y2="543.89" style="fill:none;stroke:#fff;stroke-miterlimit:10;stroke-width:4.340000152587891px"/><line x1="152.55" y1="560.29" x2="166.35" y2="560.29" style="fill:none;stroke:#fff;stroke-miterlimit:10;stroke-width:4.340000152587891px"/><line x1="152.55" y1="576.69" x2="166.35" y2="576.69" style="fill:none;stroke:#fff;stroke-miterlimit:10;stroke-width:4.340000152587891px"/><path d="M364,553.59c6,0,12.7,0,18.2,2.8,6.4,2.7,12.4,6.7,18.9,9.1-.2-23-13.7-26.5-33.7-24.8,6.9-1.7,14-2.2,21-3.1,8.7-1.5,17.5-4.3,26.4-4.4.9-5.4-2.9-8.1-7.1-10.4-3-1.9-5.9-3.9-9.4-4.7-5.9-1-24.3,5.3-27.6,10.2-.4-7.2,3.8-15.2-1.4-21.8-3-5.7-9.2-8.8-15-11-1.9-.9-3.8.3-5.8.6,9.6,9.9,10.9,18.5,6.8,31.7-4.1-4.5-9.6-7.8-14.1-12-2.3-1.8-4.4-3.9-7.4-4.3-7.3-1.1-31,1-34.3,8.2,7.3,1.2,14.3,5.1,20.7,9,6.8,3.2,12,9.1,16,15.3-11.8-1.8-31.9,3-39.9,12.3,7.7.3,15.4-1.6,23-2.9C334.35,553.39,348.75,550.89,364,553.59Z" style="fill:#179b66"/><path d="M22.1,78.6l8.78-2.84c3.86-1.25,5.43-.25,6,1.6C38,80.67,34.6,82,35.82,85.82L40,98.62a1.2,1.2,0,0,0,1.6.82l21-6.81a1.19,1.19,0,0,0,.82-1.6l-4.15-12.8C58,74.44,54.42,75.35,53.35,72c-.6-1.85.08-3.58,3.95-4.83l8.78-2.85c3.86-1.25,5.84-.38,6.44,1.48,1.07,3.3-2.8,4.82-1.58,8.61L82.1,108.92c1,3,4.89,1.62,5.86,4.6.67,2.1-.54,3.29-3.2,4.42a48.34,48.34,0,0,1-5.59,2.26,44.67,44.67,0,0,1-5.53,1.34c-2.31.57-4.36.26-5.07-1.92-1-3.06,2.72-4.26,1.72-7.32l-3.72-11.52A1.21,1.21,0,0,0,65,100l-21,6.81a1.2,1.2,0,0,0-.82,1.6l3.73,11.52c1,3.06,4.3,2,5.29,5,.7,2.18-.46,3.53-2.58,4.4a47.31,47.31,0,0,1-5.35,2.17A46.25,46.25,0,0,1,38.36,133c-2.74.62-4.5.39-5.18-1.7-1-3,3.09-4.21,2.12-7.19L24.14,89.6c-1.22-3.79-5.33-2.73-6.4-6C17.14,81.72,18.31,79.83,22.1,78.6Z" style="fill:#f16a21"/><path d="M91.87,104.67c-2.44-10.38,12.62-17,21.23-20.3a1,1,0,0,0,.65-1.29l-.42-1.81c-1.26-5.36-3.69-8.27-7.73-7.32-4.36,1-5,5.89-6.94,8.94a6.61,6.61,0,0,1-4.1,2.88c-2.56.61-5.32-.4-6-3.28-1.26-5.36,7-11.3,15.9-13.4,9.07-2.13,18-.32,20.46,10.06l3.88,16.48c1.28,5.44,4.17,2.94,5.81,4.38s-.77,6.35-6,7.57a7.33,7.33,0,0,1-8.15-2.86c-.24-.29-.45-.42-.61-.38a.84.84,0,0,0-.48.55c-2,3.69-5.82,6.67-11.1,7.91C102.05,114.28,93.93,113.41,91.87,104.67Zm19.58.79c3.22-.76,6.12-4,5.83-7.38l-1.92-8.16c-.15-.66-.5-.66-1.08-.53-4.44,1.83-11.74,5.55-10.58,11.19A6.19,6.19,0,0,0,111.45,105.46Z" style="fill:#f16a21"/><path d="M144.58,111.3l-5.86-38.42c-.51-3.35-4.86-3.2-5.37-6.54-.28-1.85,1.21-3.27,4.65-3.8l3.76-.57a5.4,5.4,0,0,1,4.85,1.49c.21.22.64,1.35.87,1.75a.87.87,0,0,0,.73.31,1.13,1.13,0,0,0,.69-.53c2.27-3.69,6.14-5.82,11.66-6.66,10-1.53,20.07,3.53,22.35,18.51s-5.25,22.82-15.21,24.34c-4.94.75-9,0-12.29-2.5-.29-.21-.47-.27-.63-.24s-.3.3-.24.72l1.6,10.46c.6,3.93,4.79,2.78,5.24,5.71.31,2-.93,2.88-3.47,3.61a45.45,45.45,0,0,1-5.88,1.33,58.57,58.57,0,0,1-6.43.55c-2.55.13-4-.42-4.31-2.43C140.85,115.46,145.19,115.32,144.58,111.3Zm19.8-15c5.32-1.07,8.12-6.3,5.87-17.69-1.21-6.23-4.12-15.21-12.16-14-4.56.95-7.31,4.28-7.13,11l.88,5.77C153.4,87.17,156.68,97.46,164.38,96.29Z" style="fill:#f16a21"/><path d="M194.65,104.1l-2.26-38.79c-.2-3.38-4.54-3.64-4.74-7-.11-1.86,1.51-3.14,5-3.34l3.8-.22a5.42,5.42,0,0,1,4.69,1.93c.19.24.51,1.41.7,1.82a.88.88,0,0,0,.71.39,1.19,1.19,0,0,0,.73-.47c2.6-3.46,6.65-5.22,12.23-5.55,10.14-.59,19.65,5.39,20.53,20.51s-7.35,22.23-17.41,22.82c-5,.29-9-.84-12-3.63-.27-.24-.44-.31-.61-.3s-.32.27-.3.69l.62,10.57c.23,4,4.51,3.21,4.68,6.17.12,2-1.19,2.78-3.79,3.27a44.65,44.65,0,0,1-6,.78,60.68,60.68,0,0,1-6.45,0c-2.55-.11-3.95-.79-4.06-2.82C190.54,107.9,194.88,108.16,194.65,104.1ZM215.76,91c5.4-.57,8.67-5.51,7.49-17.06-.62-6.32-2.69-15.53-10.8-15.06-4.64.53-7.68,3.59-8.14,10.31l.34,5.83C205.68,80.9,208,91.45,215.76,91Z" style="fill:#f16a21"/><path d="M272.79,66.11c2.48-5.76-2-7.2-.63-9.65.69-1.13,3.85-1.4,7.14-1.15s6.55,1,6.6,2.53c.22,2.74-3.78,4-6.39,9.28l-17.63,35.52c-3.51,7-7.32,10.23-12.81,9.82-6.83-.52-11.35-6-8.63-10.42a2.56,2.56,0,0,1,2.41-1.52c1.94.15,4.07,2.26,6.69,2.46s4.92-1.07,8.44-7.17c-2.32-.86-4-3.36-5.17-6.85L244,62.06c-1.33-3.84-4.57-4.76-4.4-7,.12-1.6,1.46-2.52,4.92-2.26l4.82.37c3.2.24,5.3,2.86,6.68,7l7.48,22.3c.14.35.29.62.55.64s.35-.23.55-.55Z" style="fill:#f16a21"/><path d="M322.92,47.11,332,49c4,.82,4.85,2.46,4.46,4.37-.7,3.4-4.32,2.92-5.12,6.82l-2.7,13.18a1.19,1.19,0,0,0,1,1.5l21.64,4.44a1.19,1.19,0,0,0,1.5-1l2.71-13.18c.79-3.9-2.8-4.9-2.11-8.3.4-1.91,1.85-3.08,5.83-2.26l9,1.85c4,.82,5.26,2.55,4.87,4.46-.7,3.4-4.81,2.82-5.61,6.71l-7.28,35.5c-.63,3.07,3.45,3.82,2.82,6.89-.44,2.15-2.09,2.59-5,2.26a45.88,45.88,0,0,1-6-.79,42.41,42.41,0,0,1-5.47-1.55c-2.29-.65-3.93-1.93-3.47-4.17.65-3.15,4.46-2.37,5.11-5.52l2.43-11.86a1.2,1.2,0,0,0-1-1.5L328,82.39a1.19,1.19,0,0,0-1.5,1L324.1,95.24c-.64,3.15,2.76,3.84,2.11,7-.46,2.24-2.14,2.84-4.41,2.55a40.77,40.77,0,0,1-11.53-2.37c-2.68-.81-4.11-1.88-3.66-4,.63-3.07,4.76-2.14,5.39-5.21l7.28-35.49c.8-3.9-3.3-5-2.6-8.4C317.07,47.38,319,46.31,322.92,47.11Z" style="fill:#f16a21"/><path d="M398.63,77.91c11.54,2.7,19.45,11.25,16,26s-14.36,19-25.9,16.29-19.45-11.24-16-26.08S387,75.19,398.63,77.91Zm-2.2,5.31L395.6,83c-5.39-.74-9.23,3.4-10.68,14.8-1.38,10.72,1.06,15.9,5.93,17l.82.19c5.46.85,9.22-3.32,10.77-14.78C403.81,89.56,401.37,84.38,396.43,83.22Z" style="fill:#f16a21"/><path d="M423.13,87.66c.41-1.82,2.33-2.6,5.71-1.83l3.72.85c3.13.71,6.38,3.62,5.4,7.91l-4.11,18.08c-1.36,5.94,0,9.73,4.17,10.67,5.78,1.32,11.52-8.66,13-13.62l1.76-7.76c.77-3.39-3.33-4.84-2.57-8.14.39-1.74,2.08-2.65,5.13-2l4.29,1c3.14.71,6.47,3.64,5.49,7.93l-5.56,24.44c-.77,3.38,3.26,4.73,2.51,8-.43,1.9-2.34,2.68-5.73,1.91l-3.71-.84a6.8,6.8,0,0,1-5.44-6.27c.1-1.2.35-3,.3-3.58a9.23,9.23,0,0,0-1.44,1c-3.62,3.69-8.6,6.12-13.88,4.92-8.59-2-12.49-8.06-10.52-16.72l4.06-17.83C426.48,92.41,422.38,91,423.13,87.66Z" style="fill:#f16a21"/><path d="M500,100.54c5.31,1.08,8,4,7.13,8.28-.86,3.8-3.76,5.28-7.41,4.54-3.8-.86-5.67-3.14-7.66-3.55a3,3,0,0,0-1.48,0c-1.77.67-3.79,3.37-5.1,7.25l-2.81,13.77c-.79,3.9,3.54,4.27,2.95,7.17-.41,2-1.87,2.38-4.51,2.19a44.65,44.65,0,0,1-6-.78,58.14,58.14,0,0,1-6.22-1.7c-2.42-.84-3.61-1.78-3.2-3.77.59-2.9,4.72-1.54,5.51-5.44l4.4-21.57c.69-3.4-3.44-4.76-2.76-8.08.37-1.83,2.27-2.65,5.67-2l3.73.77a6.6,6.6,0,0,1,4.92,4.28c.16.9-.12,3.52,0,4.4,0,.27.09.45.25.48s.2-.13.32-.28C490.23,102.45,494.23,99.38,500,100.54Z" style="fill:#f16a21"/><path d="M503.29,137.64c1-3.33,4.67-4.73,7.67-4.18s6,2.92,3.21,7.31l-6.75,10.9a5.05,5.05,0,0,1-5.27,2c-1.92-.36-3.17-2-2.68-3.68Z" style="fill:#f16a21"/><path d="M88.93,191.68c-.4,3.32,3.59,2.16,4.34,5.2s-3.7,4.41-7,5.22l-.9.23c-3.2.79-7.89,2-8.78-1.66-.78-3.12,3-3.79,3.33-7.28l4.82-42.72c.58-4.33,1.48-7.35,5.43-8.33l4.43-1.1c2.39-.6,4.42-.14,7.1,3.64l26.14,35.63c2.33,3.09,6.46,2.49,7.22,5.53.57,2.3-1.46,3.94-3.52,4.46l-5.17,1.28c-5.84,1.45-9.42-3.85-11.94-7.32l-2.16-3a1.39,1.39,0,0,0-1.43-.52L90.47,186a1.31,1.31,0,0,0-1,1.13Zm17.12-17.44c.58-.14.66-.51.37-1L93.75,155.67c-.24-.29-.45-.41-.61-.37s-.31.16-.37.61l-2.31,21.25c0,.53.23.9.8.76Z" style="fill:#f16a21"/><path d="M160.77,142.42c8.95-1.4,15,2.81,16.38,11.67L180,172.58c.64,4.1,4.15,3,4.63,6,.34,2.18-.8,3.13-2.77,3.69a49,49,0,0,1-6,1.35,50.35,50.35,0,0,1-6.34.56c-2.56.06-4-.4-4.34-2.58-.48-3.1,3.87-3.17,3.24-7.27l-2.32-14.89c-.95-6.11-3.81-9.09-8.16-8.42-6.19,1-8,12.39-7.54,17.62l1.28,8.29c.64,4.1,4.15,3,4.63,6.05.34,2.17-.8,3.12-2.77,3.68a50.6,50.6,0,0,1-6,1.36,52.29,52.29,0,0,1-6.34.56c-2.56.05-4-.41-4.31-2.42-.46-2.93,3.89-3.09,3.27-7l-3.39-21.84c-.52-3.34-4.86-3.18-5.38-6.53-.29-1.84,1.2-3.27,4.63-3.8l3.77-.59c2.51-.39,5.63.41,7.08,3.1.2.74.63,3,.94,3.88.12.24.23.39.4.37a.71.71,0,0,0,.37-.4C150.65,147.84,154.83,143.34,160.77,142.42Z" style="fill:#f16a21"/><path d="M215.58,148.76c1.6-6-3-6.82-2-9.44.51-1.23,3.6-2,6.89-2.2s6.62,0,6.9,1.55c.62,2.67-3.16,4.47-5,10.11L210.14,186.5c-2.43,7.47-5.73,11.19-11.22,11.59-6.84.49-12.1-4.23-10.07-9,.59-1.32,1.32-1.79,2.16-1.85,1.94-.14,4.36,1.63,7,1.45s4.71-1.79,7.3-8.34c-2.42-.5-4.45-2.73-6.12-6L186.48,149c-1.87-3.6-5.21-4-5.37-6.24-.12-1.6,1.08-2.71,4.54-3l4.81-.34c3.21-.23,5.67,2.05,7.65,6l10.67,21c.2.32.38.56.64.54s.32-.27.46-.62Z" style="fill:#f16a21"/><path d="M265.4,123.27l9.15,1.15c4,.51,5,2.09,4.79,4-.44,3.44-4.08,3.24-4.58,7.19L273.08,149a1.19,1.19,0,0,0,1.1,1.42l21.92,2.77a1.2,1.2,0,0,0,1.42-1.11l1.68-13.35c.5-4-3.16-4.67-2.73-8.11.25-1.93,1.6-3.21,5.63-2.7l9.16,1.15c4,.51,5.45,2.14,5.2,4.07-.43,3.44-4.58,3.18-5.08,7.12l-4.53,36c-.39,3.1,3.74,3.54,3.35,6.65-.28,2.18-1.89,2.75-4.78,2.64a47.06,47.06,0,0,1-6-.33,46,46,0,0,1-5.58-1.13c-2.33-.47-4.06-1.62-3.77-3.89.4-3.19,4.26-2.71,4.67-5.9l1.51-12a1.2,1.2,0,0,0-1.1-1.42l-21.93-2.76a1.19,1.19,0,0,0-1.41,1.1l-1.52,12c-.4,3.19,3,3.63,2.64,6.82-.29,2.27-1.91,3-4.2,2.88a46.37,46.37,0,0,1-5.77-.3,47.16,47.16,0,0,1-5.91-1.17c-2.74-.6-4.24-1.56-4-3.74.39-3.11,4.58-2.5,5-5.61l4.53-35.95c.5-4-3.67-4.73-3.24-8.17C259.59,124,261.45,122.77,265.4,123.27Z" style="fill:#f16a21"/><path d="M344.43,149.92c11.61,2.4,19.74,10.74,16.67,25.58s-13.85,19.35-25.46,16.95S315.9,181.72,319,166.79,332.74,147.5,344.43,149.92Zm-2.06,5.37-.83-.18c-5.41-.6-9.14,3.65-10.29,15.08-1.1,10.75,1.47,15.87,6.37,16.88l.83.17c5.47.7,9.12-3.56,10.37-15.06C349.92,161.43,347.34,156.31,342.37,155.29Z" style="fill:#f16a21"/><path d="M370.1,159.31c.42-1.82,2.34-2.59,5.72-1.8l3.71.87c3.13.73,6.36,3.66,5.36,7.94l-4.21,18.06c-1.39,5.93,0,9.73,4.11,10.69,5.77,1.35,11.57-8.6,13.07-13.55l1.81-7.75c.79-3.38-3.3-4.85-2.53-8.15.4-1.73,2.09-2.64,5.14-1.93l4.29,1c3.13.73,6.44,3.68,5.44,8l-5.69,24.41c-.79,3.38,3.23,4.75,2.47,8.05-.45,1.9-2.37,2.66-5.75,1.88l-3.71-.87a6.79,6.79,0,0,1-5.39-6.3c.1-1.19.36-3,.31-3.58a9.23,9.23,0,0,0-1.44,1c-3.64,3.67-8.63,6.07-13.91,4.84-8.57-2-12.45-8.12-10.43-16.78l4.16-17.81C373.42,164.08,369.33,162.6,370.1,159.31Z" style="fill:#f16a21"/><path d="M447.78,173.5c5.28,1.22,7.88,4.25,6.92,8.46-1,3.78-3.89,5.19-7.52,4.35-3.78-1-5.59-3.29-7.57-3.74a3,3,0,0,0-1.48,0c-1.79.63-3.88,3.28-5.29,7.13l-3.15,13.69c-.9,3.88,3.42,4.35,2.76,7.24-.46,2-1.93,2.34-4.56,2.08a43.88,43.88,0,0,1-6-.94,56.31,56.31,0,0,1-6.17-1.86c-2.4-.9-3.57-1.86-3.11-3.84.66-2.89,4.76-1.42,5.65-5.3l4.94-21.45c.78-3.39-3.31-4.85-2.55-8.15.42-1.82,2.33-2.59,5.72-1.81l3.71.85a6.6,6.6,0,0,1,4.8,4.41c.14.9-.2,3.52-.14,4.4,0,.27.07.45.24.49s.2-.13.32-.27C438,175.16,442.09,172.19,447.78,173.5Z" style="fill:#f16a21"/></svg>