<svg id="Layer_1" data-name="Layer 1" xmlns="http://www.w3.org/2000/svg" xmlns:xlink="http://www.w3.org/1999/xlink" viewBox="0 0 708.47 1217.26"><defs><clipPath id="clip-path"><polygon points="5.97 242.87 6.97 242.87 5.97 243.87 5.97 242.87" style="fill:none"/></clipPath><clipPath id="clip-path-2" transform="translate(-10.23 -49.71)"><polygon points="3.97 240.87 2.97 240.87 3.97 239.87 3.97 240.87" style="fill:none;clip-path:url(#clip-path)"/></clipPath></defs><path d="M34.43,401.28A93.17,93.17,0,1,1,192.82,493" transform="translate(-10.23 -49.71)" style="fill:none;stroke:#10a05b;stroke-miterlimit:10;stroke-width:4.207377910614014px"/><g style="isolation:isolate"><path d="M15,443.14l.06-3.44c0-1.1.65-1.31,1.76-1.77l3.74-1.47.26-13.06-3.67-1.66c-1.1-.46-1.71-.69-1.69-1.84l.07-3.22c0-1.1.65-1.66,1.74-1.11l25.47,12.64a2.21,2.21,0,0,1,1.46,2.1v.4a2.29,2.29,0,0,1-1.54,2.09l-26,11.57C15.58,444.83,15,444.29,15,443.14Zm9.87-8.4,11.21-4.41-11-5Z" transform="translate(-10.23 -49.71)" style="fill:#10a05b"/></g><g style="isolation:isolate"><path d="M18.73,451.35l27-5.79c1-.21,1.54.26,2,1.28l1,2.28c.51,1.11-.15,1.84-1.27,2.08L20,457.1a1.53,1.53,0,0,1-2-1.24l-.54-2.51A1.57,1.57,0,0,1,18.73,451.35Z" transform="translate(-10.23 -49.71)" style="fill:#10a05b"/></g><g style="isolation:isolate"><path d="M22.07,464.37,48,455c1-.34,1.56.05,2.19,1l1.28,2.12c.65,1,.1,1.84-1,2.23l-26.4,9.55a1.53,1.53,0,0,1-2.17-.95L21,466.53A1.57,1.57,0,0,1,22.07,464.37Z" transform="translate(-10.23 -49.71)" style="fill:#10a05b"/></g><g style="isolation:isolate"><path d="M69.32,492.89,50.08,509.34a1.79,1.79,0,0,1-2.69-.3l-.23-.27a3.41,3.41,0,0,1-.49-3L50.31,484,37.74,494.71a1.56,1.56,0,0,1-2.43-.13l-1.63-1.91a1.59,1.59,0,0,1,.22-2.45l19.21-16.43a1.76,1.76,0,0,1,2.69.31l.23.27a3.4,3.4,0,0,1,.49,3l-3.61,21.76,12.57-10.75a1.53,1.53,0,0,1,2.4.16l1.63,1.91A1.56,1.56,0,0,1,69.32,492.89Z" transform="translate(-10.23 -49.71)" style="fill:#10a05b"/></g><g style="isolation:isolate"><path d="M81.58,516.29l-6,10a1.51,1.51,0,0,1-2.29.63l-1.2-.73a1.56,1.56,0,0,1-.54-2.34l.39-.64A10.39,10.39,0,0,1,64.1,522c-4.41-2.67-5.91-6.93-3.71-10.55,2.33-3.84,7.13-4.44,12-1.51a15.06,15.06,0,0,1,4.28,4l.62-1c1.32-2.19.56-4.51-2-6.08a10.08,10.08,0,0,0-5.72-1.46c-1,0-1.57-.55-1.56-1.67l0-.81c0-1.33.74-1.82,1.67-1.82a14.45,14.45,0,0,1,8.23,2.16C82.61,506.09,85,510.71,81.58,516.29Zm-7.67,2.36.84-1.39a12.31,12.31,0,0,0-3.67-3.73c-2.38-1.44-4.69-1.19-5.79.62s-.24,3.72,2,5.07C69.72,520.7,72.79,520.5,73.91,518.65Z" transform="translate(-10.23 -49.71)" style="fill:#10a05b"/></g><g style="isolation:isolate"><path d="M96.64,534.65a8.54,8.54,0,0,1-5.12-.19c-4-1.3-6.61-4.75-4.91-9.94l3.25-10-2-.67a1.57,1.57,0,0,1-1.12-2.13l.35-1a1.52,1.52,0,0,1,2.13-1l2.06.67L93,505.1c.31-1,1-1.25,2.12-1.12l2.41.28c1.21.12,1.51,1.05,1.16,2.14l-1.89,5.77,4.65,1.52a1.53,1.53,0,0,1,1.12,2.08l-.34,1.05a1.57,1.57,0,0,1-2.15,1.06l-4.65-1.52-3.08,9.46c-.77,2.35.08,3.59,1.71,4.13a4.16,4.16,0,0,0,2.13,0c1.15-.28,1.48.29,1.62,1.13l.18,2C98.12,534.11,97.31,534.45,96.64,534.65Z" transform="translate(-10.23 -49.71)" style="fill:#10a05b"/></g><g style="isolation:isolate"><path d="M125.82,517.9l-1.23,18.83a1.57,1.57,0,0,1-1.79,1.61l-1.58-.1a1.56,1.56,0,0,1-1.56-1.83l.08-1.19a7.66,7.66,0,0,1-7,3c-5.37-.35-8.7-4.24-8.34-9.65l.78-12.06A1.5,1.5,0,0,1,107,515l2.55.17a1.53,1.53,0,0,1,1.57,1.78l-.75,11.39c-.18,2.78,1.37,4.78,4,4.95s4.66-1.59,4.85-4.5l.74-11.26A1.5,1.5,0,0,1,121.7,516l2.56.17A1.53,1.53,0,0,1,125.82,517.9Z" transform="translate(-10.23 -49.71)" style="fill:#10a05b"/></g><g style="isolation:isolate"><path d="M145.2,514.64l-.18,2.27a1.26,1.26,0,0,1-1.55,1.32,5.93,5.93,0,0,0-2,0c-2.87.52-4.08,3-3.52,6.1l1.86,10.33a1.53,1.53,0,0,1-1.3,2l-2.52.46a1.57,1.57,0,0,1-2-1.4l-3.35-18.57a1.53,1.53,0,0,1,1.35-2l1.65-.3a1.54,1.54,0,0,1,1.95,1.35l.24,1.35a7,7,0,0,1,5.21-4.39,9,9,0,0,1,2.81-.1A1.26,1.26,0,0,1,145.2,514.64Z" transform="translate(-10.23 -49.71)" style="fill:#10a05b"/></g><g style="isolation:isolate"><path d="M167.5,513.05l4.66,10.59a1.51,1.51,0,0,1-.8,2.22l-1.29.57a1.56,1.56,0,0,1-2.21-.9l-.3-.68a10.35,10.35,0,0,1-5.4,5.68c-4.7,2.06-9,.85-10.71-3-1.8-4.1.45-8.34,5.59-10.6a14.93,14.93,0,0,1,5.69-1.21l-.47-1.09c-1-2.32-3.35-3-6.12-1.81a10.1,10.1,0,0,0-4.45,3.82,1.41,1.41,0,0,1-2.25.32l-.64-.48a1.58,1.58,0,0,1-.53-2.4,14.38,14.38,0,0,1,6.45-5.47C159.78,506.38,164.89,507.11,167.5,513.05ZM165,520.64l-.65-1.48a12.28,12.28,0,0,0-5.13.86c-2.53,1.11-3.65,3.14-2.8,5.06s2.89,2.33,5.26,1.29C164.32,525.22,165.91,522.61,165,520.64Z" transform="translate(-10.23 -49.71)" style="fill:#10a05b"/></g><g style="isolation:isolate"><path d="M179.49,518.64l-16-22.33c-.58-.82-.38-1.51.36-2.36l1.69-1.8c.81-.9,1.73-.59,2.4.34l16.29,22.75a1.54,1.54,0,0,1-.32,2.34l-2.08,1.48A1.55,1.55,0,0,1,179.49,518.64Z" transform="translate(-10.23 -49.71)" style="fill:#10a05b"/></g><polyline points="114.67 353.44 120.48 335.09 139.07 328.4" style="fill:none;stroke:#ff6b00;stroke-miterlimit:10;stroke-width:4.207377910614014px"/><path d="M103.76,408.69a16.29,16.29,0,0,1-10.42.79A15.77,15.77,0,0,1,82,397.92a15.95,15.95,0,1,1,30.76-8.44l.1.37a16.14,16.14,0,0,1,.52,4.21" transform="translate(-10.23 -49.71)" style="fill:#ff6b00"/><path d="M120.28,462.08c30.64,0,34.14-8.8,34.14-15.44s-6.51-12.32-6.51-12.32-10.66-7.23-10.66-20,10.66-19.77,10.66-19.77H92.66s10.68,7,10.68,19.77-10.66,20-10.66,20-6.51,5.69-6.51,12.32S89.64,462.08,120.28,462.08Z" transform="translate(-10.23 -49.71)" style="fill:#e10600"/><g style="clip-path:url(#clip-path-2)"><path d="M121.91,378c30.64,0,34.14-8.8,34.14-15.44s-6.51-12.32-6.51-12.32-10.66-7.23-10.66-20,10.66-19.77,10.66-19.77H94.29s10.68,7,10.68,19.77-10.66,20-10.66,20S87.8,356,87.8,362.6,91.27,378,121.91,378Z" transform="translate(-10.23 -49.71)" style="fill:#ff6b00"/></g><path d="M142.34,485.81H96.18S120,474,120,462.08C120,474.05,142.34,485.81,142.34,485.81Z" transform="translate(-10.23 -49.71)" style="fill:#ff6b00"/><path d="M289.34,388.09a93.18,93.18,0,1,1,164.48,87.62h0q-2.1,3.92-4.54,7.62" transform="translate(-10.23 -49.71)" style="fill:none;stroke:#10a05b;stroke-miterlimit:10;stroke-width:4.207377910614014px"/><g style="isolation:isolate"><path d="M269.7,403.44l24.73,5a1.56,1.56,0,0,1,1.34,2l-.51,2.51a1.53,1.53,0,0,1-2,1.3l-21.57-4.41-2.17,10.64a1.56,1.56,0,0,1-2,1.39l-1.51-.31a1.59,1.59,0,0,1-1.33-2.07l3-14.78A1.56,1.56,0,0,1,269.7,403.44Z" transform="translate(-10.23 -49.71)" style="fill:#009859"/></g><g style="isolation:isolate"><path d="M274.78,426.93c6.61-.46,12,4.3,12.44,11.27s-4.14,12.39-10.76,12.85-11.95-4.26-12.44-11.23S268.16,427.39,274.78,426.93Zm1.28,18.3a6.26,6.26,0,1,0-6.92-5.77A6.2,6.2,0,0,0,276.06,445.23Z" transform="translate(-10.23 -49.71)" style="fill:#009859"/></g><g style="isolation:isolate"><path d="M298.71,481.39l-20.64.82c-1.29,0-1.94-.36-2.33-1.25l-.1-.25a2.06,2.06,0,0,1,.67-2.56l10.08-9.44-13.8.88a2.08,2.08,0,0,1-2.34-1.25l-.1-.25a2.1,2.1,0,0,1,.67-2.56l14.71-14.45a1.16,1.16,0,0,1,2,.46l1,2.28a2,2,0,0,1-.69,2.62l-10.67,9,14.35-1.27a1.91,1.91,0,0,1,2.28,1.23l.09.2a2,2,0,0,1-.65,2.5l-10.48,9.53L296.36,476a2.06,2.06,0,0,1,2.39,1.27l1,2.32C300.16,480.52,299.8,481.35,298.71,481.39Z" transform="translate(-10.23 -49.71)" style="fill:#009859"/></g><g style="isolation:isolate"><path d="M302.52,495c5.37-6.64,14.63-7.35,21.37-1.9a15.07,15.07,0,0,1,5.71,10.46,1.47,1.47,0,0,1-1.57,1.81l-2.1.06a1.7,1.7,0,0,1-1.81-1.63,9.84,9.84,0,0,0-3.58-6.48,9.51,9.51,0,0,0-12,14.8,9.75,9.75,0,0,0,7.08,2.14c1.13-.06,1.77.34,2,1.42l.4,2a1.48,1.48,0,0,1-1.43,1.92,15,15,0,0,1-11.49-3.37C298.42,510.84,297.16,501.63,302.52,495Z" transform="translate(-10.23 -49.71)" style="fill:#009859"/></g><g style="isolation:isolate"><path d="M346,521.94l-4.2,10.86a1.51,1.51,0,0,1-2.14,1l-1.31-.51a1.57,1.57,0,0,1-1-2.21l.27-.7a10.42,10.42,0,0,1-7.88.22c-4.81-1.86-7-5.79-5.5-9.74,1.62-4.2,6.23-5.63,11.5-3.59a15.16,15.16,0,0,1,4.92,3.17l.43-1.11c.92-2.38-.24-4.53-3.08-5.63a10.07,10.07,0,0,0-5.88-.43,1.44,1.44,0,0,1-1.84-1.37l-.11-.8c-.2-1.31.41-1.92,1.33-2.09a14.58,14.58,0,0,1,8.48.68C345.22,511.71,348.35,515.85,346,521.94Zm-7.14,3.67.59-1.52a12.37,12.37,0,0,0-4.27-3c-2.59-1-4.83-.35-5.59,1.62s.41,3.71,2.84,4.64C335.1,528.37,338.08,527.63,338.86,525.61Z" transform="translate(-10.23 -49.71)" style="fill:#009859"/></g><g style="isolation:isolate"><path d="M350.44,534.42l4.41-27.3c.16-1,.8-1.35,1.94-1.43l2.48-.09c1.22-.07,1.66.8,1.48,1.94l-4.5,27.82a1.54,1.54,0,0,1-1.89,1.44l-2.53-.41A1.57,1.57,0,0,1,350.44,534.42Z" transform="translate(-10.23 -49.71)" style="fill:#009859"/></g><g style="isolation:isolate"><path d="M363.38,527.47c-.34-6.62,4.53-11.86,11.5-12.2s12.29,4.38,12.62,11S383,538.12,376,538.46,363.71,534.08,363.38,527.47Zm18.3-.92a6.25,6.25,0,1,0-5.9,6.8A6.19,6.19,0,0,0,381.68,526.55Z" transform="translate(-10.23 -49.71)" style="fill:#009859"/></g><g style="isolation:isolate"><path d="M404.27,511.11l.12,2.27c0,1.14-.59,1.48-1.37,1.49a6,6,0,0,0-1.95.25c-2.77.87-3.65,3.46-2.7,6.47l3.15,10a1.54,1.54,0,0,1-1,2.13l-2.43.76a1.55,1.55,0,0,1-2.1-1.13l-5.67-17.93a1.53,1.53,0,0,1,1.09-2.09l1.59-.5a1.53,1.53,0,0,1,2.1,1.09l.41,1.29a6.88,6.88,0,0,1,4.59-5,8.62,8.62,0,0,1,2.76-.46C403.52,509.74,404.21,509.89,404.27,511.11Z" transform="translate(-10.23 -49.71)" style="fill:#009859"/></g><g style="isolation:isolate"><path d="M401.47,501.84a3.78,3.78,0,1,1,5.09,1.67A3.8,3.8,0,0,1,401.47,501.84Zm13.37,24.59-8.49-16.8a1.53,1.53,0,0,1,.73-2.25l2.28-1.15a1.49,1.49,0,0,1,2.21.76l8.49,16.8a1.52,1.52,0,0,1-.67,2.26l-2.28,1.16A1.57,1.57,0,0,1,414.84,526.43Z" transform="translate(-10.23 -49.71)" style="fill:#009859"/></g><g style="isolation:isolate"><path d="M435.25,510.87a9,9,0,0,0,3.11-5.08c.23-1,.63-1.47,1.65-1.33l1.5.16c1.18.12,1.32.86,1.27,1.58-.3,3.21-2.7,6.5-5.14,8.48-5.16,4.16-12.22,4-16.67-1.49a11.46,11.46,0,1,1,17.52-14.77,1.54,1.54,0,0,1-.27,2.54l-11.91,9.62C429,513.28,432.6,513,435.25,510.87Zm-11.18-3.14,8.81-7.11a6,6,0,0,0-3.35-1.62,5.38,5.38,0,0,0-4.2,1.29A5.49,5.49,0,0,0,424.07,507.73Z" transform="translate(-10.23 -49.71)" style="fill:#009859"/></g><circle cx="326.42" cy="345.45" r="19.37" style="fill:#00945e"/><path d="M409.13,393.91H333.9c0,6.91-2,21.16,8.42,25.37s11.41-.78,13.87,9.55c2.35,9.91,6.86,9.76,15.32,9.73s13,.18,15.33-9.73c2.5-10.35,3.42-5.35,13.86-9.55S409.13,400.84,409.13,393.91Z" transform="translate(-10.23 -49.71)" style="fill:#ffd600"/><rect x="355.09" y="395.62" width="3.16" height="9.17" transform="translate(-185.3 282.46) rotate(-41)" style="fill:#fffef9"/><rect x="367.82" y="396.33" width="3.16" height="9.17" transform="translate(-182.64 290.98) rotate(-41)" style="fill:#fffef9"/><rect x="359.02" y="407.34" width="9.17" height="3.16" transform="translate(-193.79 365.36) rotate(-49)" style="fill:#fffef9"/><rect x="350.17" y="403.55" width="3.16" height="9.17" transform="translate(-189.8 269) rotate(-39.69)" style="fill:#fffef9"/><rect x="400.03" y="395.59" width="3.16" height="9.17" transform="translate(-169.85 430.77) rotate(-53.04)" style="fill:#fffef9"/><rect x="341.08" y="398.64" width="9.17" height="3.16" transform="translate(-193.39 348.82) rotate(-49)" style="fill:#fffef9"/><rect x="397.68" y="403.54" width="3.16" height="9.17" transform="translate(-181.88 352.15) rotate(-45)" style="fill:#fffef9"/><rect x="375.03" y="397.84" width="9.17" height="3.16" transform="translate(-181.47 335.71) rotate(-45)" style="fill:#fffef9"/><rect x="388.54" y="396.56" width="3.16" height="9.17" transform="translate(-156.27 191.31) rotate(-29.17)" style="fill:#fffef9"/><rect x="371.26" y="407.35" width="9.17" height="3.16" transform="translate(-182.66 270.48) rotate(-38.22)" style="fill:#fffef9"/><rect x="386.93" y="404.32" width="3.16" height="9.17" transform="translate(-185.58 344.78) rotate(-45)" style="fill:#fffef9"/><rect x="339.11" y="403.55" width="3.16" height="9.17" transform="translate(-199.04 310.74) rotate(-45)" style="fill:#fffef9"/><rect x="358.52" y="373.65" width="5.53" height="52.05" style="fill:#ffd600"/><ellipse cx="361.28" cy="426.03" rx="24.28" ry="6.71" style="fill:#ffd600"/><path d="M532,403.12a93.18,93.18,0,1,1,154.72,94.49" transform="translate(-10.23 -49.71)" style="fill:none;stroke:#10a05b;stroke-miterlimit:10;stroke-width:4.207377910614014px"/><g style="isolation:isolate"><path d="M540.79,447.11l-25.33.76a1.79,1.79,0,0,1-1.91-1.93v-.35a3.4,3.4,0,0,1,1.51-2.65l16.52-14.72-16.55.5a1.56,1.56,0,0,1-1.81-1.62l-.08-2.52a1.59,1.59,0,0,1,1.71-1.77l25.29-.76A1.77,1.77,0,0,1,542,424v.35a3.37,3.37,0,0,1-1.51,2.65L524.07,441.7l16.54-.5a1.52,1.52,0,0,1,1.77,1.63l.08,2.51A1.56,1.56,0,0,1,540.79,447.11Z" transform="translate(-10.23 -49.71)" style="fill:#009859"/></g><g style="isolation:isolate"><path d="M526.34,454.62c6.15-2.38,12.63.59,15.14,7.07s-.31,13-6.46,15.37-12.61-.54-15.12-7S520.19,457,526.34,454.62Zm6.59,17a6.22,6.22,0,1,0-8.27-3.44A6.16,6.16,0,0,0,532.93,471.64Z" transform="translate(-10.23 -49.71)" style="fill:#009859"/></g><g style="isolation:isolate"><path d="M553.06,497.76l-8.92,7.09a1.52,1.52,0,0,1-2.34-.21l-1.58-2a1.55,1.55,0,0,1,.3-2.36l8.57-6.82c2.26-1.8,2.68-4.36.91-6.59a4.54,4.54,0,0,0-6.74-.74L534.69,493a1.53,1.53,0,0,1-2.35-.2l-1.58-2a1.56,1.56,0,0,1,.3-2.37l14.68-11.66a1.5,1.5,0,0,1,2.33.27l1,1.3a1.53,1.53,0,0,1-.27,2.34l-1.16.92a8.12,8.12,0,0,1,7.1,3.31C558.16,489.12,557.44,494.27,553.06,497.76Z" transform="translate(-10.23 -49.71)" style="fill:#009859"/></g><g style="isolation:isolate"><path d="M557.53,502.36l.75-1a1.51,1.51,0,0,1,2.32-.34l10.58,7.7a1.48,1.48,0,0,1,.35,2.29l-.75,1a1.5,1.5,0,0,1-2.31.4l-10.57-7.7A1.53,1.53,0,0,1,557.53,502.36Z" transform="translate(-10.23 -49.71)" style="fill:#009859"/></g><g style="isolation:isolate"><path d="M576.64,514.24c2.76-8,11.06-11.9,19.19-9.1a15.11,15.11,0,0,1,7.91,6.14,1.51,1.51,0,0,1-.77,2.35l-1.7.76a1.91,1.91,0,0,1-2.48-.81,9.82,9.82,0,0,0-4.56-3.39,9.64,9.64,0,0,0-6.17,18.26,11.24,11.24,0,0,0,6.19.32l1.73-5L590.93,522a1.53,1.53,0,0,1-1.08-2.14l.38-1.09a1.54,1.54,0,0,1,2.17-1l8.5,2.94a1.57,1.57,0,0,1,1.07,2.18L598.83,532a2.79,2.79,0,0,1-2.39,1.79,18.32,18.32,0,0,1-10.4-.56A14.73,14.73,0,0,1,576.64,514.24Z" transform="translate(-10.23 -49.71)" style="fill:#009859"/></g><g style="isolation:isolate"><path d="M639.33,537.21l-2.2.1c-1.1.05-1.62-.54-1.8-1.64l-2.62-15.5-5.78,16.2a2.32,2.32,0,0,1-2,1.73h-.35a2.22,2.22,0,0,1-2.19-1.53l-7.3-15.6-1.13,15.68c-.08,1.11-.58,1.75-1.68,1.8l-2.51.12a1.38,1.38,0,0,1-1.62-1.65l2.51-25.81a1.55,1.55,0,0,1,1.65-1.57l.35,0a2.08,2.08,0,0,1,2,1.41l9.71,19.15,7.6-20a2.13,2.13,0,0,1,1.91-1.59l.36,0A1.61,1.61,0,0,1,636,510l4.8,25.47C641,536.51,640.43,537.16,639.33,537.21Z" transform="translate(-10.23 -49.71)" style="fill:#009859"/></g><g style="isolation:isolate"><path d="M645.07,521.51c-3.65-7.64-.31-16.24,7.6-20s16.71-1,20.36,6.67.36,16.22-7.6,20S648.72,529.16,645.07,521.51Zm22.53-10.76a9.45,9.45,0,1,0-4.48,12.6A9.21,9.21,0,0,0,667.6,510.75Z" transform="translate(-10.23 -49.71)" style="fill:#009859"/></g><polygon points="623.6 350.16 578.42 422.77 586.06 424.79 633.47 340.67 623.6 350.16" style="fill:#672f25"/><polygon points="633.02 331.34 638.46 332.06 641.27 322.7 636.4 321.44 633.02 331.34" style="fill:#672f25"/><polygon points="568.34 353.12 660.61 395.03 633.69 335.29 568.34 353.12" style="fill:#00945e"/><path d="M36.58,870.18a93.18,93.18,0,0,1,163.57,89.25c-1.26,2.33-2.63,4.59-4.09,6.8" transform="translate(-10.23 -49.71)" style="fill:none;stroke:#10a05b;stroke-miterlimit:10;stroke-width:4.207377910614014px"/><g style="isolation:isolate"><path d="M28.39,888.22c8.38,1.2,13.78,8.62,12.55,17.13a15.12,15.12,0,0,1-4.54,8.93A1.51,1.51,0,0,1,34,914l-1.07-1.54a1.91,1.91,0,0,1,.33-2.58,9.86,9.86,0,0,0,2.48-5.12,9.3,9.3,0,0,0-8.15-10.58,9.32,9.32,0,0,0-10.95,8,11.19,11.19,0,0,0,.86,6.14l5.23.75.76-5.28a1.53,1.53,0,0,1,1.91-1.46l1.13.16a1.55,1.55,0,0,1,1.42,1.94l-1.29,8.91a1.56,1.56,0,0,1-1.94,1.45l-9.52-1.37c-1.13-.16-1.7-.86-2.2-2A18.15,18.15,0,0,1,11.54,901,14.72,14.72,0,0,1,28.39,888.22Z" transform="translate(-10.23 -49.71)" style="fill:#009859"/></g><g style="isolation:isolate"><path d="M13.11,922.06l27.57-2.75c1-.1,1.51.43,1.89,1.5l.73,2.38c.38,1.16-.36,1.82-1.5,1.93l-28.1,2.81a1.53,1.53,0,0,1-1.88-1.46l-.26-2.56A1.58,1.58,0,0,1,13.11,922.06Z" transform="translate(-10.23 -49.71)" style="fill:#009859"/></g><g style="isolation:isolate"><path d="M38.88,950.62l-18,5.73a1.56,1.56,0,0,1-2.15-1.07l-.48-1.52a1.56,1.56,0,0,1,1.13-2.11l1.13-.37a7.67,7.67,0,0,1-5.37-5.37c-1.63-5.12.77-9.64,5.94-11.28L32.61,931a1.49,1.49,0,0,1,2.09,1l.78,2.44a1.53,1.53,0,0,1-1.09,2.1L23.51,940c-2.65.85-3.94,3-3.13,5.58s3.19,3.75,6,2.87L37.1,945a1.5,1.5,0,0,1,2.09,1.05l.78,2.43A1.54,1.54,0,0,1,38.88,950.62Z" transform="translate(-10.23 -49.71)" style="fill:#009859"/></g><g style="isolation:isolate"><path d="M32,977.13a8.62,8.62,0,0,1-3.81-3.45c-2.21-3.56-2-7.9,2.65-10.78l8.92-5.53-1.14-1.84a1.57,1.57,0,0,1,.52-2.35l.93-.58a1.54,1.54,0,0,1,2.3.6L43.51,955l4.72-2.93c.86-.54,1.57-.31,2.34.51l1.67,1.77c.85.87.48,1.78-.49,2.39L46.58,960l2.58,4.16a1.53,1.53,0,0,1-.48,2.32l-.94.59a1.56,1.56,0,0,1-2.33-.58l-2.58-4.16-8.47,5.26c-2.1,1.3-2.25,2.8-1.35,4.26a4.17,4.17,0,0,0,1.63,1.38c1.06.53,1,1.17.52,1.91L34,976.77C33.47,977.67,32.64,977.41,32,977.13Z" transform="translate(-10.23 -49.71)" style="fill:#009859"/></g><g style="isolation:isolate"><path d="M46.56,988.7A8.94,8.94,0,0,0,52,991.2c1,.12,1.53.46,1.51,1.48v1.5c0,1.19-.7,1.41-1.42,1.45-3.21.06-6.75-1.93-9-4.12-4.72-4.63-5.39-11.64-.45-16.68A11.26,11.26,0,0,1,59,974.64a10.8,10.8,0,0,1,.29,15.83,1.54,1.54,0,0,1-2.56,0l-10.9-10.68C43.44,982.75,44.13,986.32,46.56,988.7Zm1.82-11.43,8.06,7.9a6,6,0,0,0,1.21-3.5,5.33,5.33,0,0,0-1.76-4A5.45,5.45,0,0,0,48.38,977.27Z" transform="translate(-10.23 -49.71)" style="fill:#009859"/></g><g style="isolation:isolate"><path d="M84,1002.21l-5.27,10.2a1.53,1.53,0,0,1-2.24.78L74.17,1012a1.57,1.57,0,0,1-.7-2.31l5.07-9.81c1.34-2.59.66-5.13-1.89-6.45a4.58,4.58,0,0,0-6.51,2.11l-5.07,9.81a1.54,1.54,0,0,1-2.25.78L60.55,1005a1.57,1.57,0,0,1-.7-2.31l8.68-16.8a1.54,1.54,0,0,1,2.26-.72l1.49.77a1.53,1.53,0,0,1,.72,2.27l-.69,1.33a8.18,8.18,0,0,1,7.91.11C85.09,992.14,86.56,997.18,84,1002.21Z" transform="translate(-10.23 -49.71)" style="fill:#009859"/></g><g style="isolation:isolate"><path d="M100.84,1018.28l1.86-25.11a1.59,1.59,0,0,1,1.88-1.59l16.36,1.21a1.56,1.56,0,0,1,1.64,1.8l-.11,1.54a1.6,1.6,0,0,1-1.89,1.59l-12.18-.9-.54,7.25,8.84.66a1.58,1.58,0,0,1,1.63,1.84l-.09,1.32a1.56,1.56,0,0,1-1.89,1.54l-8.83-.65-.74,9.94a1.55,1.55,0,0,1-1.8,1.63l-2.55-.18A1.6,1.6,0,0,1,100.84,1018.28Z" transform="translate(-10.23 -49.71)" style="fill:#009859"/></g><g style="isolation:isolate"><path d="M137.5,998.55l-.27,2.26a1.26,1.26,0,0,1-1.61,1.24,6.26,6.26,0,0,0-2-.09c-2.89.39-4.21,2.8-3.78,5.94l1.41,10.4a1.54,1.54,0,0,1-1.39,1.93l-2.53.34a1.56,1.56,0,0,1-1.89-1.48l-2.54-18.7a1.54,1.54,0,0,1,1.44-1.89l1.66-.22a1.53,1.53,0,0,1,1.88,1.43l.19,1.36a6.94,6.94,0,0,1,5.4-4.16,9,9,0,0,1,2.8,0A1.26,1.26,0,0,1,137.5,998.55Z" transform="translate(-10.23 -49.71)" style="fill:#009859"/></g><g style="isolation:isolate"><path d="M155.72,1009.53a8.92,8.92,0,0,0,4.48-3.92c.51-.86,1-1.21,2-.78l1.37.59a1.28,1.28,0,0,1,.75,1.89c-1.24,3-4.5,5.4-7.41,6.56-6.15,2.45-12.84.21-15.45-6.35a11.44,11.44,0,1,1,21.07-8.9,1.55,1.55,0,0,1-1,2.35l-14.19,5.64C149,1010,152.56,1010.79,155.72,1009.53Zm-9.72-6.29,10.5-4.18a6,6,0,0,0-2.72-2.53,5.34,5.34,0,0,0-4.38,0A5.48,5.48,0,0,0,146,1003.24Z" transform="translate(-10.23 -49.71)" style="fill:#009859"/></g><g style="isolation:isolate"><path d="M181.27,994.53a9.07,9.07,0,0,0,3.2-5c.24-1,.65-1.46,1.67-1.31l1.49.18a1.28,1.28,0,0,1,1.26,1.6c-.35,3.21-2.8,6.48-5.27,8.42-5.23,4.11-12.3,3.85-16.67-1.72a11.48,11.48,0,1,1,17.74-14.55,1.55,1.55,0,0,1-.3,2.55l-12.06,9.46C174.93,996.85,178.59,996.63,181.27,994.53Zm-11.15-3.3,8.92-7a6,6,0,0,0-3.33-1.66,5.4,5.4,0,0,0-4.22,1.23A5.5,5.5,0,0,0,170.12,991.23Z" transform="translate(-10.23 -49.71)" style="fill:#009859"/></g><polygon points="114.3 875.97 121.94 874.37 96.31 809.79 88.19 810.17 114.3 875.97" style="fill:#e10600"/><circle cx="135.62" cy="833.01" r="19.6" style="fill:#00945e"/><rect x="90.52" y="876.82" width="23.98" height="23.98" rx="1.92" transform="translate(-715.33 454.05) rotate(-57.93)" style="fill:#fffef9"/><rect x="108.25" y="877.24" width="23.98" height="23.98" rx="1.92" transform="translate(-385.92 91.7) rotate(-25.85)" style="fill:#fffef9"/><rect x="122.76" y="875.77" width="23.98" height="23.98" rx="1.92" transform="translate(-567.65 266.06) rotate(-41.8)" style="fill:#fffef9"/><path d="M150.46,887.24H88.24s-14.59,31.19,4.47,67.91c0,0,5.83,4.18,26.64,4.18S146,955.15,146,955.15C165,918.43,150.46,887.24,150.46,887.24Z" transform="translate(-10.23 -49.71)" style="fill:#db6015"/><path d="M73.48,950.92c-2.79,0-6-.63-8-3-1.48-1.68-2.88-4.74-1.13-9.77a50.9,50.9,0,0,0,3.16-16.51v-.06a51,51,0,0,0-3.2-16.52c-1.75-5-.35-8.08,1.13-9.76,4.25-4.83,13-2.46,14-2.17A88.63,88.63,0,0,0,90,895.24l-1,8.19a93.63,93.63,0,0,1-11.82-2.36c-2-.57-4.84-.68-5.86-.25a5.38,5.38,0,0,0,.32,1.36,60.91,60.91,0,0,1,3.64,19.36v.06A61.29,61.29,0,0,1,71.65,941a4.82,4.82,0,0,0-.32,1.36c1,.43,3.88.32,5.86-.25A91.77,91.77,0,0,1,89,939.75L90,948l-.48-4.11L90,948a82.68,82.68,0,0,0-10.66,2.11A22.79,22.79,0,0,1,73.48,950.92Z" transform="translate(-10.23 -49.71)" style="fill:#db6015"/><rect x="73.38" y="833.01" width="71.46" height="6.76" rx="3.08" style="fill:#db6015"/><path d="M274.24,914.91a93.17,93.17,0,1,1,134.67,83.43" transform="translate(-10.23 -49.71)" style="fill:none;stroke:#10a05b;stroke-miterlimit:10;stroke-width:4.207377910614014px"/><g style="isolation:isolate"><path d="M301.67,962.59l-28.19.73c-1.26,0-1.93-.22-2.38-1.13l-.15-.32c-.44-.87-.24-1.56.56-2.54l17.63-22c.71-.94,1.62-.5,2.11.49l1.25,2.52a2.29,2.29,0,0,1-.48,2.8L279.08,958l19.79-1.1a2.36,2.36,0,0,1,2.54,1.35l1.15,2.33C303.05,961.61,302.85,962.6,301.67,962.59Z" transform="translate(-10.23 -49.71)" style="fill:#009859"/></g><g style="isolation:isolate"><path d="M292,985a9.1,9.1,0,0,0,5.31,2.81c1,.17,1.52.53,1.44,1.57l-.06,1.51c-.05,1.2-.78,1.39-1.51,1.39-3.24-.11-6.71-2.3-8.85-4.63-4.52-4.92-4.82-12,.43-16.85a11.54,11.54,0,1,1,16,16.66,1.56,1.56,0,0,1-2.58-.11L291.72,976C289.17,978.83,289.68,982.47,292,985Zm2.44-11.44,7.72,8.4a6.08,6.08,0,0,0,1.4-3.47,5.34,5.34,0,0,0-1.56-4.13A5.52,5.52,0,0,0,294.44,973.56Z" transform="translate(-10.23 -49.71)" style="fill:#009859"/></g><g style="isolation:isolate"><path d="M332.32,994.19l-9.27,15.63c-3.77,6.37-10.06,6.59-15.63,3.29a13,13,0,0,1-6.58-8.72,1.48,1.48,0,0,1,1.23-2l1.22-.4a1.47,1.47,0,0,1,1.95,1.2,9.32,9.32,0,0,0,4.46,6.14c2.92,1.73,6.3,1.73,8.22-1.49l1.35-2.28a10.53,10.53,0,0,1-6.9-1.42A10.39,10.39,0,1,1,323,986.31a10.4,10.4,0,0,1,4.79,6l.36-.61a1.54,1.54,0,0,1,2.3-.59l1.32.79A1.5,1.5,0,0,1,332.32,994.19Zm-8.63,4.62a5.89,5.89,0,1,0-8,2.06A5.67,5.67,0,0,0,323.69,998.81Z" transform="translate(-10.23 -49.71)" style="fill:#009859"/></g><g style="isolation:isolate"><path d="M353.85,1007.28l-2.73,11.32a1.51,1.51,0,0,1-2,1.29l-1.37-.33a1.58,1.58,0,0,1-1.23-2.07l.18-.73a10.41,10.41,0,0,1-7.79,1.25c-5-1.21-7.73-4.81-6.73-8.93,1.05-4.37,5.44-6.39,10.93-5.07a15.14,15.14,0,0,1,5.29,2.5l.28-1.15c.6-2.49-.83-4.47-3.78-5.18a10,10,0,0,0-5.89.35,1.44,1.44,0,0,1-2-1.12l-.22-.78a1.59,1.59,0,0,1,1-2.25,14.55,14.55,0,0,1,8.5-.44C351.74,997.25,355.38,1000.94,353.85,1007.28Zm-6.59,4.58.38-1.59a12.46,12.46,0,0,0-4.63-2.43c-2.7-.65-4.83.29-5.33,2.34s.9,3.62,3.43,4.23C343.89,1015.08,346.75,1014,347.26,1011.86Z" transform="translate(-10.23 -49.71)" style="fill:#009859"/></g><g style="isolation:isolate"><path d="M381.77,1007.11l.58,11.45a1.52,1.52,0,0,1-1.54,1.8l-2.55.13a1.56,1.56,0,0,1-1.76-1.63l-.56-11c-.15-2.91-2-4.76-4.87-4.61a4.58,4.58,0,0,0-4.56,5.09l.56,11a1.53,1.53,0,0,1-1.54,1.8l-2.56.13a1.58,1.58,0,0,1-1.76-1.64l-.95-18.85a1.54,1.54,0,0,1,1.59-1.76l1.67-.08a1.53,1.53,0,0,1,1.76,1.59l.08,1.5a8.12,8.12,0,0,1,6.86-3.88C377.69,997.87,381.49,1001.47,381.77,1007.11Z" transform="translate(-10.23 -49.71)" style="fill:#009859"/></g><circle cx="381.76" cy="838.93" r="20.88" style="fill:#ff6b00"/><path d="M401.24,916.25l-7.1-30.39H336l-7.1,30.39s-9.53,24.18,15.64,34.18c0,0,4,2.6,14.8,2.66h11.5c10.76-.07,14.76-2.66,14.76-2.66C410.77,940.43,401.24,916.25,401.24,916.25Z" transform="translate(-10.23 -49.71)" style="fill:#fdbbcb"/><rect x="362.53" y="887.86" width="3.8" height="11.03" transform="translate(-506.95 408.52) rotate(-41)" style="fill:#ff6b00"/><rect x="350.01" y="891.36" width="6.66" height="6.66" transform="translate(-584.56 590.52) rotate(-53.11)" style="fill:#fffef9"/><rect x="372.63" y="890.47" width="5.75" height="5.75" transform="translate(-31.02 -40.68) rotate(-1.34)" style="fill:#fffef9"/><rect x="333.45" y="905.2" width="5.75" height="5.75" transform="translate(-31.37 -41.59) rotate(-1.34)" style="fill:#fffef9"/><rect x="340.8" y="889.2" width="5.75" height="5.75" transform="translate(-482.79 344.71) rotate(-37.56)" style="fill:#672f25"/><rect x="346.89" y="915.52" width="11.03" height="3.8" transform="translate(-186.06 38.97) rotate(-11.5)" style="fill:#fffef9"/><rect x="341.24" y="897.06" width="3.8" height="11.03" transform="translate(-547.94 457.29) rotate(-45)" style="fill:#ff6b00"/><rect x="361.18" y="902.41" width="6.66" height="6.66" transform="translate(-588.93 603.87) rotate(-53.11)" style="fill:#fffef9"/><rect x="333.75" y="915.48" width="11.03" height="3.8" transform="translate(-559.55 458.89) rotate(-45)" style="fill:#ff6b00"/><rect x="350.9" y="903.32" width="6.66" height="6.66" transform="translate(-583.26 1153.06) rotate(-86.37)" style="fill:#672f25"/><path d="M113.34,586.28a95.25,95.25,0,0,0-93.83,79.59l4.15.69a90.89,90.89,0,1,1,132,95.26l2,3.72a95.09,95.09,0,0,0-44.25-179.26Z" transform="translate(-10.23 -49.71)" style="fill:#10a05b"/><path d="M286,646.79A90.87,90.87,0,1,1,430,747.14l2.28,3.57A95.06,95.06,0,1,0,281.92,645.84Z" transform="translate(-10.23 -49.71)" style="fill:#10a05b"/><path d="M269,663.73l24.54.77a1.54,1.54,0,0,1,1.62,1.77l-.31,10.14c-.28,8.94-6.05,14.49-14.39,14.22s-13.83-6.15-13.55-15.09l.32-10.14A1.58,1.58,0,0,1,269,663.73Zm2.73,11.79c-.17,5.33,3.24,9,8.88,9.18s9.26-3.28,9.43-8.61l.18-5.89-18.31-.57Z" transform="translate(-10.23 -49.71)" style="fill:#10a05b"/><path d="M286.18,713.9l-10.88,3.22a1.47,1.47,0,0,1-2.06-1l-.39-1.32a1.52,1.52,0,0,1,1.14-2l.7-.21a10.18,10.18,0,0,1-4.86-6c-1.42-4.82.29-8.87,4.25-10,4.21-1.25,8.06,1.47,9.62,6.75a14.68,14.68,0,0,1,.48,5.69l1.11-.33c2.39-.71,3.36-2.88,2.52-5.73a9.8,9.8,0,0,0-3.17-4.8,1.39,1.39,0,0,1,0-2.23l.55-.57a1.56,1.56,0,0,1,2.4-.22,14.16,14.16,0,0,1,4.52,7C293.62,707.21,292.29,712.09,286.18,713.9Zm-7.08-3.33,1.52-.45a12,12,0,0,0-.2-5.09c-.77-2.6-2.6-3.94-4.58-3.36s-2.62,2.53-1.9,5C274.73,709.31,277.08,711.17,279.1,710.57Z" transform="translate(-10.23 -49.71)" style="fill:#10a05b"/><path d="M279.16,724.7l16.2-8.74a1.49,1.49,0,0,1,2.21.66l1.19,2.2a1.46,1.46,0,0,1-.69,2.17l-16.19,8.74a1.49,1.49,0,0,1-2.23-.6l-1.19-2.2A1.52,1.52,0,0,1,279.16,724.7ZM302.84,711a3.69,3.69,0,1,1-1.5,5A3.7,3.7,0,0,1,302.84,711Z" transform="translate(-10.23 -49.71)" style="fill:#10a05b"/><path d="M309.21,736.65l-2,.87a1.22,1.22,0,0,1-1.83-.75,5.91,5.91,0,0,0-.89-1.71c-1.74-2.24-4.41-2.19-6.86-.29L289.5,741a1.49,1.49,0,0,1-2.3-.23l-1.53-2a1.53,1.53,0,0,1,.33-2.32l14.55-11.26a1.49,1.49,0,0,1,2.29.29l1,1.29a1.49,1.49,0,0,1-.29,2.29l-1.05.82a6.75,6.75,0,0,1,6.14,2.53,8.62,8.62,0,0,1,1.35,2.38A1.22,1.22,0,0,1,309.21,736.65Z" transform="translate(-10.23 -49.71)" style="fill:#10a05b"/><path d="M326.08,750.46l-22,11.48c-4.14,2.18-6.84,1.55-9.15-.31a7.61,7.61,0,0,1-2.11-2.59c-.24-.59-.44-1.3.39-1.85l1.42-1c.71-.48,1.34-.36,1.93.62a4.5,4.5,0,0,0,1,1.18c.77.62,1.66,1,3.35.1l3.16-1.59,5.16-19.66c.26-1,1.16-1.16,2-.51l2.17,1.75a2,2,0,0,1,.55,2.54l-4.15,13.29,12.11-6.85a2,2,0,0,1,2.57,0l1.74,1.4C327,749.08,327,750,326.08,750.46Z" transform="translate(-10.23 -49.71)" style="fill:#10a05b"/><path d="M330.69,772.94l7.47-23.39a1.55,1.55,0,0,1,2.15-1.08l15.24,4.87a1.52,1.52,0,0,1,1.14,2.08l-.46,1.43a1.55,1.55,0,0,1-2.15,1.08l-11.35-3.63-2.15,6.77,8.23,2.62a1.55,1.55,0,0,1,1.13,2.12l-.39,1.23a1.53,1.53,0,0,1-2.14,1l-8.23-2.63-3,9.26a1.52,1.52,0,0,1-2.08,1.14l-2.37-.76A1.55,1.55,0,0,1,330.69,772.94Z" transform="translate(-10.23 -49.71)" style="fill:#10a05b"/><path d="M370.48,762.45l-.75,2.09a1.23,1.23,0,0,1-1.8.83,6,6,0,0,0-1.85-.51c-2.83-.25-4.6,1.75-4.87,4.84l-.9,10.19a1.5,1.5,0,0,1-1.74,1.53l-2.48-.22a1.52,1.52,0,0,1-1.48-1.81l1.62-18.33a1.49,1.49,0,0,1,1.77-1.49l1.63.15a1.49,1.49,0,0,1,1.48,1.77l-.12,1.33a6.75,6.75,0,0,1,6-2.79,8.66,8.66,0,0,1,2.67.62A1.23,1.23,0,0,1,370.48,762.45Z" transform="translate(-10.23 -49.71)" style="fill:#10a05b"/><path d="M384.89,777a8.71,8.71,0,0,0,5.12-2.7c.68-.71,1.26-.92,2.05-.3l1.17.87a1.25,1.25,0,0,1,.28,2c-1.85,2.53-5.49,4.1-8.51,4.54-6.38.93-12.21-2.7-13.2-9.51a11.14,11.14,0,1,1,22-3.67c.18,1.19-.21,1.81-1.49,2l-14.72,2.14C378.42,775.89,381.61,777.47,384.89,777Zm-7.8-8.17,10.9-1.58a5.84,5.84,0,0,0-2-3,5.2,5.2,0,0,0-4.14-1A5.34,5.34,0,0,0,377.09,768.82Z" transform="translate(-10.23 -49.71)" style="fill:#10a05b"/><path d="M412.35,768.4a8.7,8.7,0,0,0,4.12-4.07c.45-.88.94-1.25,1.87-.88l1.37.5a1.24,1.24,0,0,1,.84,1.79c-1,3-4.06,5.51-6.82,6.81-5.84,2.74-12.47,1-15.4-5.27a11.15,11.15,0,1,1,20-9.89,1.51,1.51,0,0,1-.85,2.35L404,766.06C405.85,769.22,409.35,769.81,412.35,768.4Zm-9.83-5.55,10-4.68a5.77,5.77,0,0,0-2.79-2.3,5.24,5.24,0,0,0-4.26.24A5.35,5.35,0,0,0,402.52,762.85Z" transform="translate(-10.23 -49.71)" style="fill:#10a05b"/><path d="M616.17,586.6a95,95,0,0,0-94.49,85.23l4.05-.13A91,91,0,1,1,657,762.86l1,4A95,95,0,0,0,616.17,586.6Z" transform="translate(-10.23 -49.71)" style="fill:#10a05b"/><path d="M514.45,691.68l24.15-4.45a1.55,1.55,0,0,1,2,1.39l2.9,15.74a1.52,1.52,0,0,1-1.3,2l-1.48.28a1.55,1.55,0,0,1-2-1.39l-2.15-11.72-7,1.29,1.56,8.5a1.54,1.54,0,0,1-1.34,2l-1.27.24a1.53,1.53,0,0,1-1.92-1.4l-1.56-8.5-9.56,1.76a1.53,1.53,0,0,1-2-1.3l-.45-2.45A1.55,1.55,0,0,1,514.45,691.68Z" transform="translate(-10.23 -49.71)" style="fill:#10a05b"/><path d="M537.79,727.69l-10.3,4.77a1.48,1.48,0,0,1-2.19-.74l-.58-1.25a1.53,1.53,0,0,1,.84-2.19l.66-.31a10.18,10.18,0,0,1-5.67-5.19c-2.11-4.56-1-8.82,2.75-10.55,4-1.84,8.18.28,10.49,5.28a14.71,14.71,0,0,1,1.3,5.56l1-.49c2.26-1.05,2.91-3.33,1.66-6a9.8,9.8,0,0,0-3.83-4.29,1.39,1.39,0,0,1-.36-2.2l.47-.64a1.55,1.55,0,0,1,2.34-.56,14.15,14.15,0,0,1,5.49,6.22C544.18,720,543.57,725,537.79,727.69Zm-7.49-2.27,1.45-.66a12.11,12.11,0,0,0-1-5c-1.14-2.46-3.14-3.52-5-2.66s-2.22,2.88-1.15,5.18C525.8,724.81,528.39,726.31,530.3,725.42Z" transform="translate(-10.23 -49.71)" style="fill:#10a05b"/><path d="M540.2,750.85a8.44,8.44,0,0,1-4.07-2.92c-2.53-3.2-2.81-7.43,1.37-10.74l8-6.36-1.31-1.65a1.53,1.53,0,0,1,.24-2.33l.85-.67a1.49,1.49,0,0,1,2.28.33l1.31,1.65,4.25-3.36c.78-.62,1.49-.47,2.33.24l1.81,1.52c.93.75.67,1.67-.21,2.37l-4.65,3.68,3,3.74a1.5,1.5,0,0,1-.2,2.31l-.85.66A1.52,1.52,0,0,1,552,739l-3-3.74-7.62,6c-1.89,1.49-1.87,3-.83,4.28a4,4,0,0,0,1.73,1.15c1.09.4,1,1,.71,1.79l-.93,1.73C541.69,751.2,540.85,751.05,540.2,750.85Z" transform="translate(-10.23 -49.71)" style="fill:#10a05b"/><path d="M554.73,762.78l13-20.83a1.55,1.55,0,0,1,2.35-.51l13.57,8.46a1.52,1.52,0,0,1,.6,2.3l-.8,1.27a1.55,1.55,0,0,1-2.35.52L571,747.68l-3.76,6,7.34,4.58a1.55,1.55,0,0,1,.57,2.33l-.68,1.1a1.53,1.53,0,0,1-2.33.47l-7.33-4.57-5.14,8.24a1.52,1.52,0,0,1-2.3.6l-2.11-1.32A1.55,1.55,0,0,1,554.73,762.78Z" transform="translate(-10.23 -49.71)" style="fill:#10a05b"/><path d="M595.91,762.42l-1.24,1.85a1.23,1.23,0,0,1-1.95.36,5.81,5.81,0,0,0-1.67-1c-2.68-.93-4.89.57-5.91,3.49l-3.38,9.66a1.49,1.49,0,0,1-2.06,1.06l-2.35-.82a1.53,1.53,0,0,1-1-2.13l6.08-17.37a1.49,1.49,0,0,1,2.08-1l1.54.54a1.49,1.49,0,0,1,1,2.08l-.44,1.26a6.77,6.77,0,0,1,6.53-1.22,8.69,8.69,0,0,1,2.43,1.26A1.22,1.22,0,0,1,595.91,762.42Z" transform="translate(-10.23 -49.71)" style="fill:#10a05b"/><path d="M606.35,780a8.71,8.71,0,0,0,5.63-1.38c.83-.52,1.44-.59,2,.21L615,780a1.24,1.24,0,0,1-.2,2c-2.4,2-6.31,2.66-9.35,2.36-6.42-.65-11.2-5.57-10.52-12.42a11.14,11.14,0,1,1,22.21,1.74c-.11,1.2-.64,1.71-1.92,1.58l-14.81-1.48C600.35,777.38,603.06,779.68,606.35,780Zm-5.59-9.8,11,1.09a5.83,5.83,0,0,0-1.22-3.4,5.21,5.21,0,0,0-3.78-2A5.35,5.35,0,0,0,600.76,770.2Z" transform="translate(-10.23 -49.71)" style="fill:#10a05b"/><path d="M635,778.41a8.77,8.77,0,0,0,5-2.93c.65-.74,1.22-1,2-.39l1.21.82a1.24,1.24,0,0,1,.37,1.94c-1.73,2.61-5.3,4.34-8.3,4.92C629,784,623,780.62,621.7,773.86a11.14,11.14,0,1,1,21.79-4.65c.22,1.18-.14,1.82-1.41,2.06l-14.61,2.8C628.5,777.59,631.75,779,635,778.41Zm-8.15-7.81,10.81-2.07a5.85,5.85,0,0,0-2.13-2.92,5.2,5.2,0,0,0-4.19-.82A5.33,5.33,0,0,0,626.85,770.6Z" transform="translate(-10.23 -49.71)" style="fill:#10a05b"/><path d="M514.37,899.06l.71-2c.36-1,1.08-1.27,2.14-1l15,3.27-12.56-11.13a2.25,2.25,0,0,1-.82-2.47l.12-.32a2.16,2.16,0,0,1,2.18-1.43l16.77-.92-13.78-6.73a1.61,1.61,0,0,1-1-2.18l.81-2.31a1.35,1.35,0,0,1,2.08-.87l22.43,11.67a1.52,1.52,0,0,1,.82,2.07l-.11.32a2,2,0,0,1-2,1.3l-20.86,1.82,15.28,14.14a2.06,2.06,0,0,1,.74,2.3l-.11.33a1.59,1.59,0,0,1-1.94,1.1L515.46,901A1.34,1.34,0,0,1,514.37,899.06Z" transform="translate(-10.23 -49.71)" style="fill:#10a05b"/><path d="M526.63,930l-11.35.18a1.47,1.47,0,0,1-1.7-1.56l0-1.38a1.53,1.53,0,0,1,1.65-1.66h.73a10.14,10.14,0,0,1-3.08-7.05c-.09-5,2.65-8.47,6.78-8.54,4.39-.07,7.37,3.58,7.46,9.08a14.83,14.83,0,0,1-1.07,5.61l1.16,0c2.5,0,4-1.87,4-4.84a9.82,9.82,0,0,0-1.77-5.47,1.39,1.39,0,0,1,.57-2.16l.68-.4a1.55,1.55,0,0,1,2.37.43,14.21,14.21,0,0,1,2.5,7.92C535.59,925.57,533,929.91,526.63,930Zm-5.93-5.11,1.59,0a12,12,0,0,0,1.17-5c-.05-2.71-1.45-4.5-3.51-4.46s-3.2,1.73-3.16,4.26C516.83,922.52,518.59,924.94,520.7,924.91Z" transform="translate(-10.23 -49.71)" style="fill:#10a05b"/><path d="M549.35,952.06l-26.06,8.44a1.53,1.53,0,0,1-2.1-1l-.53-1.64a1.5,1.5,0,0,1,1.11-2l.86-.27a9.55,9.55,0,0,1-5.2-5.87c-1.95-6,1.41-11.84,7.42-13.79s12.15.81,14.1,6.82a10.87,10.87,0,0,1,0,6.75l8.18-2.65c.94-.3,1.52.1,2.08,1l1.15,2.16C550.9,951,550.41,951.72,549.35,952.06Zm-19.08.53c3.88-1.26,5.23-4.5,4.22-7.6-1.11-3.44-4.54-4.82-7.89-3.73s-5.29,4.2-4.17,7.63C523.43,952,526.42,953.84,530.27,952.59Z" transform="translate(-10.23 -49.71)" style="fill:#10a05b"/><path d="M536.2,977.48A8.75,8.75,0,0,0,541,980.8c.94.28,1.39.7,1.2,1.68l-.24,1.44a1.25,1.25,0,0,1-1.61,1.15c-3.1-.49-6.16-3-7.94-5.49-3.74-5.25-3.18-12.09,2.42-16.09a11.14,11.14,0,1,1,13.32,17.86,1.51,1.51,0,0,1-2.46-.41L537,968.83C534.22,971.23,534.28,974.78,536.2,977.48Zm3.69-10.67,6.4,9a5.83,5.83,0,0,0,1.76-3.16,5.2,5.2,0,0,0-1-4.14A5.34,5.34,0,0,0,539.89,966.81Z" transform="translate(-10.23 -49.71)" style="fill:#10a05b"/><path d="M554.06,998.94,565,984.11a1.49,1.49,0,0,1,2.28-.35l2,1.48a1.45,1.45,0,0,1,.31,2.25l-10.89,14.84a1.48,1.48,0,0,1-2.27.4l-2-1.47A1.52,1.52,0,0,1,554.06,998.94Zm15.53-22.52a3.7,3.7,0,1,1,.79,5.17A3.69,3.69,0,0,1,569.59,976.42Z" transform="translate(-10.23 -49.71)" style="fill:#10a05b"/><path d="M589.29,1005.56l-4.52,10.22a1.49,1.49,0,0,1-2.13.89l-2.28-1a1.52,1.52,0,0,1-.82-2.19l4.35-9.83c1.15-2.6.34-5-2.22-6.16a4.46,4.46,0,0,0-6.2,2.43l-4.35,9.83a1.48,1.48,0,0,1-2.13.89l-2.28-1a1.53,1.53,0,0,1-.82-2.19l7.45-16.83a1.5,1.5,0,0,1,2.16-.83l1.49.66a1.49,1.49,0,0,1,.83,2.15l-.59,1.34a8,8,0,0,1,7.68-.36C589.79,995.71,591.52,1000.52,589.29,1005.56Z" transform="translate(-10.23 -49.71)" style="fill:#10a05b"/><path d="M618.18,1021.28a8.31,8.31,0,0,1-4.89,1.11c-4.08-.22-7.42-2.82-7.13-8.14l.56-10.22-2.11-.11a1.53,1.53,0,0,1-1.58-1.73l.06-1.07a1.5,1.5,0,0,1,1.76-1.5l2.1.12.3-5.41c0-1,.64-1.43,1.72-1.59l2.35-.34c1.17-.2,1.69.61,1.62,1.72l-.32,5.93,4.77.26A1.48,1.48,0,0,1,619,1002l-.05,1.07a1.53,1.53,0,0,1-1.77,1.54l-4.76-.26-.54,9.7c-.13,2.41,1,3.38,2.66,3.47a4,4,0,0,0,2-.54c1-.55,1.47-.09,1.81.66l.68,1.85C619.43,1020.4,618.76,1020.93,618.18,1021.28Z" transform="translate(-10.23 -49.71)" style="fill:#10a05b"/><path d="M643.74,1005.25l2.17,11a1.51,1.51,0,0,1-1.24,2l-2.45.48a1.53,1.53,0,0,1-1.93-1.33l-2.08-10.55c-.54-2.78-2.6-4.31-5.34-3.77a4.46,4.46,0,0,0-3.68,5.55l2.08,10.55a1.5,1.5,0,0,1-1.24,1.95l-2.41.48a1.52,1.52,0,0,1-1.92-1.33l-5.2-26.37c-.19-1,.27-1.5,1.28-2L624,991c1.1-.43,1.78.14,2,1.23l1.81,9.2a8.28,8.28,0,0,1,5.49-3.49C638.5,996.91,642.68,999.85,643.74,1005.25Z" transform="translate(-10.23 -49.71)" style="fill:#10a05b"/><path d="M663.86,1005.72a8.78,8.78,0,0,0,3.89-4.3c.39-.89.86-1.29,1.81-1l1.4.42a1.24,1.24,0,0,1,.94,1.74c-.87,3-3.75,5.74-6.43,7.19-5.68,3.06-12.4,1.65-15.67-4.4a11.15,11.15,0,1,1,19.38-11,1.51,1.51,0,0,1-.71,2.39l-13.1,7.07C657.41,1006.9,661,1007.29,663.86,1005.72Zm-10.12-5,9.68-5.22a5.8,5.8,0,0,0-2.91-2.14,5.23,5.23,0,0,0-4.24.47A5.34,5.34,0,0,0,653.74,1000.72Z" transform="translate(-10.23 -49.71)" style="fill:#10a05b"/><path d="M681,983.51,669.63,975a1.52,1.52,0,0,1-.33-2.35l1.49-2a1.48,1.48,0,0,1,2.32-.3L684.68,979c3.41,2.55,7.37,2.07,9.84-1.23s1.79-7.21-1.62-9.76l-11.57-8.65A1.52,1.52,0,0,1,681,957l1.42-1.89a1.51,1.51,0,0,1,2.34-.34l11.4,8.53c6,4.5,7.05,11.55,2.54,17.57S687.06,988,681,983.51Z" transform="translate(-10.23 -49.71)" style="fill:#10a05b"/><path d="M706.66,960.07c-1,.49-1.88.47-2.43-.61l-.79-1.31a1.57,1.57,0,0,1,.57-2.43,10.45,10.45,0,0,0,5.27-5.88c1-2.94.29-5.19-1.54-5.8-2.66-.86-4,2-6.37,5.21-2.21,3-5.56,6.77-10.38,5.19-4.5-1.47-6.35-6.46-4.48-12.18a13.31,13.31,0,0,1,6-7.67c.91-.57,1.83-.63,2.42.47l.8,1.3a1.59,1.59,0,0,1-.56,2.4,8.76,8.76,0,0,0-4.13,4.89c-.79,2.41-.21,4.5,1.47,5.05,2,.65,3.48-1.26,5-3.33,3-4,6-8.93,12-7,5,1.63,6.43,7,4.58,12.68C712.77,955.19,710,958.59,706.66,960.07Z" transform="translate(-10.23 -49.71)" style="fill:#10a05b"/><path d="M718.7,907l0,3.35c0,1.08-.61,1.29-1.69,1.76l-3.62,1.48-.09,12.72,3.6,1.58c1.08.43,1.68.65,1.67,1.77l0,3.14c0,1.07-.62,1.63-1.69,1.11l-25-12a2.14,2.14,0,0,1-1.44-2v-.39a2.22,2.22,0,0,1,1.47-2L717,905.85C718.11,905.38,718.71,905.9,718.7,907Zm-9.52,8.32-10.86,4.44,10.8,4.72Z" transform="translate(-10.23 -49.71)" style="fill:#10a05b"/><path d="M270.51,1202.64l-.93-3.4c-.29-1.08.06-1.75.93-2.8l7.93-10-3.19-1.71-7.3,2a1.52,1.52,0,0,1-2.09-1.12l-.66-2.41a1.55,1.55,0,0,1,1.22-2.07l23.68-6.48a1.52,1.52,0,0,1,2.06,1.17l.66,2.41a1.49,1.49,0,0,1-1.19,2l-10.16,2.78,12.82,6.61c1.18.57,1.9.91,2.19,2l.95,3.45c.27,1-.33,1.73-1.41,1.23l-13.11-6.71-10.53,13.31C271.6,1203.86,270.79,1203.64,270.51,1202.64Z" transform="translate(-10.23 -49.71)" style="fill:#10a05b"/><path d="M282.3,1203.09c5.46-3.43,12.23-1.79,15.83,4s2.12,12.52-3.34,16-12.2,1.82-15.81-3.93S276.83,1206.51,282.3,1203.09Zm9.48,15.11a6.09,6.09,0,1,0-8.58-1.78A6,6,0,0,0,291.78,1218.2Z" transform="translate(-10.23 -49.71)" style="fill:#10a05b"/><path d="M292.72,1232.27c-.07-1.06.26-1.75,1.57-1.83l1.09-.11a1.51,1.51,0,0,1,1.86,1.53,8.29,8.29,0,0,0,2.51,5.28c1.36,1.25,2.8,1.46,3.65.55,1.13-1.24.21-2.9-.7-4.78-1.78-3.28-3.63-6.79-.84-9.83,2.64-2.88,6.71-2.54,10.35.81a11.05,11.05,0,0,1,3.67,6.81c.1,1-.2,1.68-1.59,1.86l-1,.17a1.62,1.62,0,0,1-1.89-1.44,6.46,6.46,0,0,0-2.13-4.23c-1.23-1.14-2.49-1.3-3.22-.51-.93,1,.09,2.71,1.29,5.15,1.67,3.52,2.81,6.67.11,9.62s-7,2.52-10.69-.89A12.12,12.12,0,0,1,292.72,1232.27Z" transform="translate(-10.23 -49.71)" style="fill:#10a05b"/><path d="M334.76,1249l-5.11,10a1.49,1.49,0,0,1-2.18.77l-2.22-1.15a1.52,1.52,0,0,1-.69-2.23l4.92-9.57c1.29-2.52.63-5-1.86-6.27a4.45,4.45,0,0,0-6.33,2.07l-4.91,9.56a1.5,1.5,0,0,1-2.18.77l-2.18-1.12a1.53,1.53,0,0,1-.69-2.24l12.28-23.91c.45-.88,1.15-1,2.22-.75l2.26.68c1.13.34,1.32,1.21.81,2.2l-4.29,8.34a8.31,8.31,0,0,1,6.48.67C335.83,1239.18,337.28,1244.08,334.76,1249Z" transform="translate(-10.23 -49.71)" style="fill:#10a05b"/><path d="M350.23,1261.83a8.79,8.79,0,0,0,5.72-1c.86-.46,1.48-.48,2,.36l.83,1.19a1.24,1.24,0,0,1-.34,1.95c-2.55,1.82-6.5,2.17-9.5,1.64-6.35-1.12-10.75-6.39-9.55-13.17a11.14,11.14,0,1,1,22,3.41c-.21,1.18-.77,1.65-2,1.43l-14.65-2.59C344.44,1258.75,347,1261.25,350.23,1261.83Zm-4.83-10.2,10.83,1.91a5.86,5.86,0,0,0-1-3.49,5.19,5.19,0,0,0-3.62-2.25A5.32,5.32,0,0,0,345.4,1251.63Z" transform="translate(-10.23 -49.71)" style="fill:#10a05b"/><path d="M380.62,1246.2l-.41,2.18a1.23,1.23,0,0,1-1.65,1.1,6,6,0,0,0-1.92-.21c-2.83.19-4.27,2.44-4.06,5.53l.69,10.22a1.49,1.49,0,0,1-1.47,1.78l-2.49.17a1.53,1.53,0,0,1-1.74-1.57L366.32,1247a1.49,1.49,0,0,1,1.52-1.74l1.63-.11a1.49,1.49,0,0,1,1.74,1.52l.09,1.33a6.78,6.78,0,0,1,5.53-3.7,8.85,8.85,0,0,1,2.73.2A1.24,1.24,0,0,1,380.62,1246.2Z" transform="translate(-10.23 -49.71)" style="fill:#10a05b"/><path d="M13.69,679.77c.71-.86,1.57-1.2,2.52-.41l1.28.9c.9.72,1.2,1.57.45,2.53a10.64,10.64,0,0,0-2.58,7.65c.28,3.16,1.82,5,3.79,4.83,2.85-.26,2.91-3.49,3.88-7.46.85-3.75,2.49-8.62,7.66-9.09,4.82-.43,8.58,3.51,9.13,9.65A13.63,13.63,0,0,1,37.29,698c-.63.89-1.47,1.32-2.47.53l-1.28-.9a1.63,1.63,0,0,1-.44-2.48A9,9,0,0,0,35,688.89c-.23-2.59-1.63-4.32-3.42-4.15-2.15.19-2.77,2.59-3.38,5.16-1.19,5-2.07,10.84-8.47,11.41-5.35.48-8.89-4-9.44-10.06C9.91,686.82,11.11,682.52,13.69,679.77Z" transform="translate(-10.23 -49.71)" style="fill:#10a05b"/><path d="M23.76,705.67c6.1-2.54,12.65.26,15.32,6.68s0,13-6.06,15.54-12.63-.22-15.3-6.64S17.67,708.21,23.76,705.67Zm7,16.86A6.23,6.23,0,1,0,26,711a6.23,6.23,0,1,0,4.79,11.5Z" transform="translate(-10.23 -49.71)" style="fill:#10a05b"/><path d="M56.06,741.7l-24.47,6.73c-4.62,1.29-7.18.08-9.08-2.29a7.55,7.55,0,0,1-1.56-3c-.11-.64-.16-1.4.79-1.77l1.64-.7c.81-.31,1.41-.06,1.8,1a4.11,4.11,0,0,0,.72,1.39c.64.79,1.46,1.32,3.32.83l3.51-.91,9.41-18.55c.48-.95,1.41-.91,2.07-.09l1.8,2.23a2.11,2.11,0,0,1,0,2.66l-7,12.39,13.6-4.24a2.1,2.1,0,0,1,2.57.53l1.44,1.78C57.25,740.51,57.09,741.43,56.06,741.7Z" transform="translate(-10.23 -49.71)" style="fill:#10a05b"/><path d="M55.28,764.73,67.82,743a1.59,1.59,0,0,1,2.38-.61l14.19,8.17a1.56,1.56,0,0,1,.69,2.33l-.77,1.33a1.58,1.58,0,0,1-2.38.61l-10.56-6.08L67.74,755l7.67,4.41a1.6,1.6,0,0,1,.67,2.37l-.66,1.14a1.55,1.55,0,0,1-2.36.57l-7.67-4.41-5,8.62a1.56,1.56,0,0,1-2.33.69l-2.21-1.27A1.6,1.6,0,0,1,55.28,764.73Z" transform="translate(-10.23 -49.71)" style="fill:#10a05b"/><path d="M97.07,762.69l-1.19,1.94a1.26,1.26,0,0,1-2,.45,6.1,6.1,0,0,0-1.75-.91c-2.78-.85-5,.77-5.91,3.8l-3.09,10a1.53,1.53,0,0,1-2.06,1.16l-2.44-.75a1.57,1.57,0,0,1-1.09-2.14l5.54-18a1.54,1.54,0,0,1,2.09-1.1l1.6.49a1.53,1.53,0,0,1,1.11,2.09L87.5,761a6.9,6.9,0,0,1,6.63-1.51,9.14,9.14,0,0,1,2.53,1.2A1.25,1.25,0,0,1,97.07,762.69Z" transform="translate(-10.23 -49.71)" style="fill:#10a05b"/><path d="M108.17,780.2a9,9,0,0,0,5.69-1.65c.83-.56,1.45-.66,2.11.13l1,1.12a1.27,1.27,0,0,1-.12,2c-2.38,2.14-6.35,3-9.47,2.78-6.58-.39-11.67-5.24-11.25-12.26a11.4,11.4,0,1,1,22.78.87c-.08,1.23-.59,1.77-1.91,1.7l-15.2-.91C101.92,777.75,104.79,780,108.17,780.2Zm-6.12-9.8,11.25.67a5.94,5.94,0,0,0-1.39-3.43,5.33,5.33,0,0,0-3.94-1.87A5.46,5.46,0,0,0,102.05,770.4Z" transform="translate(-10.23 -49.71)" style="fill:#10a05b"/><path d="M137.15,777.32a9,9,0,0,0,5-3.22c.62-.79,1.19-1.06,2.05-.5l1.27.79a1.27,1.27,0,0,1,.48,2c-1.65,2.75-5.22,4.69-8.26,5.42-6.42,1.53-12.69-1.63-14.33-8.47a11.41,11.41,0,1,1,22.06-5.78,1.55,1.55,0,0,1-1.34,2.18l-14.81,3.54C130.46,776.79,133.86,778.11,137.15,777.32Zm-8.69-7.6,10.95-2.62a6,6,0,0,0-2.32-2.89,5.32,5.32,0,0,0-4.31-.64A5.45,5.45,0,0,0,128.46,769.72Z" transform="translate(-10.23 -49.71)" style="fill:#10a05b"/><path d="M547.55,860.56a90.83,90.83,0,0,1,154.61,30.63l4.18-.75a95,95,0,0,0-162.82-31.65Z" transform="translate(-10.23 -49.71)" style="fill:#10a05b"/><path d="M367.41,1069.23a94.73,94.73,0,0,0-94.71,93.31l4-.41a90.73,90.73,0,1,1,116.18,88.93l.43,4.06a94.75,94.75,0,0,0-25.9-185.89Z" transform="translate(-10.23 -49.71)" style="fill:#10a05b"/><circle cx="69.11" cy="599.92" r="19.37" style="fill:#00945e"/><path d="M151.82,648.37H76.59c0,6.91-2,21.16,8.42,25.37s11.41-.78,13.87,9.55c2.35,9.91,6.86,9.76,15.32,9.73s13,.18,15.33-9.73c2.5-10.35,3.42-5.35,13.86-9.55S151.82,655.3,151.82,648.37Z" transform="translate(-10.23 -49.71)" style="fill:#fdbbcb"/><rect x="97.78" y="650.09" width="3.16" height="9.17" transform="translate(-415.36 176.07) rotate(-41)" style="fill:#fffef9"/><rect x="110.51" y="650.79" width="3.16" height="9.17" transform="translate(-412.7 184.59) rotate(-41)" style="fill:#fffef9"/><rect x="101.72" y="661.81" width="9.17" height="3.16" transform="translate(-474.33 258.69) rotate(-49)" style="fill:#fffef9"/><rect x="92.87" y="658.01" width="3.16" height="9.17" transform="translate(-411.62 163.33) rotate(-39.69)" style="fill:#fffef9"/><rect x="142.72" y="650.05" width="3.16" height="9.17" transform="translate(-475.78 326.63) rotate(-53.04)" style="fill:#fffef9"/><rect x="83.77" y="653.1" width="9.17" height="3.16" transform="translate(-473.93 242.15) rotate(-49)" style="fill:#fffef9"/><rect x="140.37" y="658" width="3.16" height="9.17" transform="translate(-437.17 244.74) rotate(-45)" style="fill:#fffef9"/><rect x="117.73" y="652.3" width="9.17" height="3.16" transform="translate(-436.77 228.3) rotate(-45)" style="fill:#fffef9"/><rect x="131.23" y="651.02" width="3.16" height="9.17" transform="translate(-312.93 98.17) rotate(-29.17)" style="fill:#fffef9"/><rect x="113.95" y="661.81" width="9.17" height="3.16" transform="translate(-395.25 165.84) rotate(-38.22)" style="fill:#fffef9"/><rect x="129.62" y="658.79" width="3.16" height="9.17" transform="translate(-440.88 237.37) rotate(-45)" style="fill:#fffef9"/><rect x="81.81" y="658.02" width="3.16" height="9.17" transform="translate(-454.34 203.33) rotate(-45)" style="fill:#fffef9"/><rect x="101.21" y="628.12" width="5.53" height="52.05" style="fill:#fdbbcb"/><ellipse cx="103.97" cy="680.5" rx="24.28" ry="6.71" style="fill:#fdbbcb"/><polygon points="367.63 639.26 375.28 637.66 349.65 573.08 341.52 573.46 367.63 639.26" style="fill:#e10600"/><circle cx="388.96" cy="596.3" r="19.6" style="fill:#00945e"/><rect x="343.85" y="640.11" width="23.98" height="23.98" rx="1.92" transform="translate(-395.91 557.7) rotate(-57.93)" style="fill:#fffef9"/><rect x="361.58" y="640.53" width="23.98" height="23.98" rx="1.92" transform="translate(-257.36 178.47) rotate(-25.85)" style="fill:#fffef9"/><rect x="376.09" y="639.06" width="23.98" height="23.98" rx="1.92" transform="translate(-345.4 374.67) rotate(-41.8)" style="fill:#fffef9"/><path d="M326.82,714.21c-2.79,0-6-.63-8-3-1.48-1.68-2.88-4.74-1.13-9.77a51.49,51.49,0,0,0,3.16-16.51v-.06a51.22,51.22,0,0,0-3.2-16.52c-1.75-5-.35-8.08,1.13-9.76,4.25-4.83,13-2.46,14-2.17a87.84,87.84,0,0,0,10.57,2.11l-1,8.19a92.93,92.93,0,0,1-11.82-2.36c-2-.57-4.84-.68-5.86-.25a5,5,0,0,0,.32,1.36,61.19,61.19,0,0,1,3.64,19.36v.06A61.29,61.29,0,0,1,325,704.25a4.82,4.82,0,0,0-.32,1.36c1,.43,3.88.32,5.86-.25A91.11,91.11,0,0,1,342.35,703l1,8.23-.48-4.11.48,4.11a82,82,0,0,0-10.66,2.11A23.36,23.36,0,0,1,326.82,714.21Z" transform="translate(-10.23 -49.71)" style="fill:#ff6b00"/><path d="M403.8,650.53H341.58s-14.59,31.19,4.47,67.91c0,0,5.83,4.18,26.64,4.18s26.66-4.18,26.66-4.18C418.35,681.72,403.8,650.53,403.8,650.53Z" transform="translate(-10.23 -49.71)" style="fill:#ff6b00"/><rect x="326.72" y="596.3" width="71.46" height="6.76" rx="3.08" style="fill:#ff6b00"/><polyline points="361.85 1085 367.66 1066.65 386.25 1059.96" style="fill:none;stroke:#e10600;stroke-miterlimit:10;stroke-width:4.207377910614014px"/><path d="M350.94,1140.24a16.29,16.29,0,0,1-10.42.79,15.74,15.74,0,0,1-11.38-11.56A15.95,15.95,0,1,1,359.9,1121c0,.13.07.25.1.37a16.19,16.19,0,0,1,.52,4.21" transform="translate(-10.23 -49.71)" style="fill:#00945e"/><path d="M367.46,1193.63c30.64,0,34.14-8.8,34.14-15.44s-6.51-12.32-6.51-12.32-10.66-7.23-10.66-20,10.66-19.77,10.66-19.77H339.84s10.68,7,10.68,19.77-10.66,20-10.66,20-6.51,5.69-6.51,12.32S336.82,1193.63,367.46,1193.63Z" transform="translate(-10.23 -49.71)" style="fill:#ff6b00"/><path d="M389.52,1217.36H343.36s23.85-11.86,23.85-23.73C367.21,1205.6,389.52,1217.36,389.52,1217.36Z" transform="translate(-10.23 -49.71)" style="fill:#e10600"/><polygon points="618.24 840.65 573.06 913.26 580.7 915.28 628.11 831.16 618.24 840.65" style="fill:#672f25"/><polygon points="627.66 821.83 633.1 822.55 635.91 813.19 631.04 811.93 627.66 821.83" style="fill:#672f25"/><polygon points="562.98 843.61 655.25 885.52 628.33 825.78 562.98 843.61" style="fill:#00a6e0"/><circle cx="630.8" cy="607.89" r="20.88" style="fill:#ff6b00"/><path d="M650.28,685.21l-7.1-30.39H585.05L578,685.21s-9.53,24.18,15.64,34.18c0,0,4,2.6,14.8,2.66h11.5c10.76-.07,14.76-2.66,14.76-2.66C659.81,709.39,650.28,685.21,650.28,685.21Z" transform="translate(-10.23 -49.71)" style="fill:#ffd600"/><rect x="611.57" y="656.82" width="3.8" height="11.03" transform="translate(-294.28 515.23) rotate(-41)" style="fill:#ff6b00"/><rect x="599.05" y="660.32" width="6.66" height="6.66" transform="translate(-300.23 697.34) rotate(-53.11)" style="fill:#fffef9"/><rect x="621.67" y="659.44" width="5.75" height="5.75" transform="translate(-25.55 -34.92) rotate(-1.34)" style="fill:#fffef9"/><rect x="582.49" y="674.16" width="5.75" height="5.75" transform="translate(-25.9 -35.83) rotate(-1.34)" style="fill:#fffef9"/><rect x="589.84" y="658.16" width="5.75" height="5.75" transform="translate(-290.33 448.63) rotate(-37.56)" style="fill:#672f25"/><rect x="595.93" y="684.49" width="11.03" height="3.8" transform="translate(-135 83.98) rotate(-11.5)" style="fill:#fffef9"/><rect x="590.28" y="666.02" width="3.8" height="11.03" transform="translate(-311.63 565.72) rotate(-45)" style="fill:#ff6b00"/><rect x="610.22" y="671.37" width="6.66" height="6.66" transform="translate(-304.6 710.7) rotate(-53.11)" style="fill:#fffef9"/><rect x="582.79" y="684.45" width="11.03" height="3.8" transform="translate(-323.24 567.32) rotate(-45)" style="fill:#ff6b00"/><rect x="599.94" y="672.29" width="6.66" height="6.66" transform="translate(-119.42 1185.19) rotate(-86.37)" style="fill:#672f25"/><path d="M49.47,99.52c21.59-7,43.61.29,52.76,28.52s-4.8,45.86-26.39,52.85-43.47,1-52.62-27.25S27.88,106.52,49.47,99.52Zm25,72.14a14.38,14.38,0,0,0,2.09-.82c11.8-5.26,15.18-17.89,5.69-38.67-9-19.63-20.05-26.27-31.2-22.66a12.9,12.9,0,0,0-2,.77c-11.91,5.3-15.29,18.33-5.81,39.11C52.2,169,63.15,175.31,74.42,171.66Z" transform="translate(-10.23 -49.71)" style="fill:#f16a21"/><path d="M150.59,94.17c13-3,22.34,2.49,25.33,15.36l6.24,26.85c1.38,6,6.41,3.88,7.45,8.38.73,3.16-.83,4.67-3.66,5.71a76.25,76.25,0,0,1-8.61,2.64,73.51,73.51,0,0,1-9.25,1.51c-3.76.36-5.92-.16-6.66-3.32-1-4.49,5.35-5.08,4-11l-5-21.62c-2.06-8.87-6.59-12.94-12.91-11.47-9,2.09-10.42,19.06-9.16,26.71l2.8,12c1.38,6,6.4,3.89,7.45,8.38.73,3.16-.84,4.68-3.67,5.72a76.11,76.11,0,0,1-8.6,2.64,77.33,77.33,0,0,1-9.25,1.51c-3.76.36-5.93-.16-6.61-3.08-1-4.25,5.38-5,4-10.67l-7.36-31.7c-1.13-4.86-7.49-4.15-8.62-9-.62-2.67,1.41-4.93,6.39-6.09l5.47-1.27c3.64-.85,8.32,0,10.73,3.78.38,1.07,1.26,4.32,1.82,5.6.2.33.38.55.62.49s.34-.21.5-.63C136.31,103.24,142,96.17,150.59,94.17Z" transform="translate(-10.23 -49.71)" style="fill:#f16a21"/><path d="M217.3,131c1,5.9,7.13,4,7.88,8.41.5,3-1.33,4.14-5.05,5.28a50.23,50.23,0,0,1-8.63,2.09,60.66,60.66,0,0,1-9.45,1c-3.75.26-5.88-.39-6.38-3.34-.75-4.43,5.67-4.63,4.67-10.53L189.65,70.79c-.85-5-7.23-4.59-8.06-9.51-.48-2.83,1.56-5,6-5.7l6.27-1.06c6.27-1.06,10.73,1.35,11.83,7.86Z" transform="translate(-10.23 -49.71)" style="fill:#f16a21"/><path d="M273.32,92.39c2-9-4.82-9.89-3.49-13.8.68-1.83,5.19-3.06,10-3.58s9.75-.29,10.23,1.91c1.05,3.9-4.41,6.75-6.77,15.15l-16.06,56.14c-3.19,11.13-7.85,16.77-15.91,17.64-10,1.07-18-5.59-15.29-12.79.79-2,1.84-2.7,3.08-2.83,2.85-.31,6.5,2.18,10.35,1.77s6.84-2.86,10.3-12.64c-3.57-.62-6.67-3.8-9.31-8.53l-20-36.61c-2.94-5.2-7.88-5.68-8.23-8.9-.25-2.36,1.45-4,6.53-4.59l7.07-.75c4.71-.51,8.45,2.73,11.56,8.41l16.79,30.3c.31.47.59.82,1,.78s.45-.43.65-1Z" transform="translate(-10.23 -49.71)" style="fill:#f16a21"/><path d="M331.27,60.22l.11-1.49c.38-5.1,4.49-8.17,12.57-7.57l58.69,4.39c8.08.6,11.56,4.24,11.18,9.34l-.11,1.49c-.36,4.72-3.4,7-6.88,6.74-6-.45-6.49-5.24-12-5.65l-12.06-.9a1.25,1.25,0,0,0-1.47,1.27l-4.16,55.7c-.35,4.6,5.63,4.92,5.29,9.53-.25,3.23-2.57,4.18-6.82,4.24a60.07,60.07,0,0,1-8.38,0,78.44,78.44,0,0,1-8.91-1.29c-4.2-.69-6.35-2-6.11-5.21.34-4.6,6.43-4,6.77-8.62l4.16-55.71A1.24,1.24,0,0,0,361.92,65l-12.19-.91c-5.34-.4-6.69,4.25-12.66,3.8C333.59,67.64,330.91,64.94,331.27,60.22Z" transform="translate(-10.23 -49.71)" style="fill:#f16a21"/><path d="M425.67,53.19c.51-2.83,3.27-4.1,8.31-3.19l5.52,1c4.66.84,9.63,4.91,8.46,11.41l-5.73,31.78c-.18,1-.15,1.5.22,1.56s.68-.26,1.28-.78c5.51-6,12.93-9.83,21.15-8.35C478,89,484.41,97.73,482.06,110.74l-4.88,27.12c-1.09,6,4.34,6.1,3.52,10.64-.57,3.2-2.61,4-5.62,3.81a78.8,78.8,0,0,1-8.95-1,75.93,75.93,0,0,1-9.09-2.28c-3.59-1.15-5.38-2.49-4.81-5.68.82-4.54,6.93-2.55,8-8.56L464.18,113c1.61-8.95-.94-14.48-7.32-15.63-9.08-1.64-17.11,13.38-19,20.9l-2.19,12.15c-1.09,6,4.35,6.11,3.53,10.65-.58,3.19-2.62,4-5.63,3.8a76.65,76.65,0,0,1-8.94-1,75.62,75.62,0,0,1-9.1-2.28c-3.59-1.15-5.38-2.49-4.85-5.43.78-4.3,6.9-2.43,7.94-8.2L430,64.87C430.93,59.84,424.79,58.09,425.67,53.19Z" transform="translate(-10.23 -49.71)" style="fill:#f16a21"/><path d="M526,153.12c6.69,1.5,13-.91,19.38-5.48a4.69,4.69,0,0,1,3.55-1c1.58.35,2.22,2,.27,5-7.56,11.46-18.15,14.2-30.58,11.53-15.33-3.45-25.46-14.67-24.78-31.9.73-19.14,16.51-34.76,37.6-30.78,10.46,2.35,19.74,7.12,22.45,18.34,2,8.12-2.13,13.45-10.88,15.44l-27.71,6.17c-1,.29-1.52,1.06-1.08,1.93C516.06,148.46,520,151.78,526,153.12Zm3.83-26.1c5.48-1.07,8.61-3,7.28-8-1-4.45-4.26-8.88-9.37-10a10.25,10.25,0,0,0-3.28-.23c-9.12.25-13.31,9.79-13.13,20.31a1.43,1.43,0,0,0,1.1,1.39,1.25,1.25,0,0,0,.63,0Z" transform="translate(-10.23 -49.71)" style="fill:#f16a21"/><path d="M105.82,285.3c-21.91,6.38-44.59-1-52.61-28.58-8.3-28.49,6.18-47,28.09-53.37,11.13-3.25,21.8-4.53,30.2-.23,12.32,5.77,7.37,18.64-1,21.08-3.35,1-7.19.27-10.77-3.1-5.6-6.29-12.41-8.72-19.36-6.7a15.47,15.47,0,0,0-3.16,1.18c-9.6,4.49-12.11,17.29-5.24,33.74,5.43,13.74,17.45,25.56,33.13,21,8.26-2.41,14.54-9.82,13.07-20.69,0-.91-.47-1.16-1.31-.92-4.87,1.55-8.41,3.23-13.92,4.83-6.58,1.92-11-13.16-4.39-15.08,6.22-1.82,9-1.32,15.43-3.2s9.3-3.75,15.65-5.59c6.58-1.92,10.94,13,4.35,15l-3,.87a1.08,1.08,0,0,0-.85,1.55C136.75,265.77,127.16,279.21,105.82,285.3Z" transform="translate(-10.23 -49.71)" style="fill:#f16a21"/><path d="M170.13,203.64c17.11-3.47,33,3.12,37.38,25s-7.57,34.23-24.67,37.7-33-3.12-37.41-25.12S152.9,207.13,170.13,203.64Zm.32,8.46-1.23.25c-7.67,2.31-10.26,10.22-5.21,26.37,4.73,15.2,11.18,20.64,18.39,19.18l1.22-.25c7.82-2.22,10.29-10.1,5.34-26.4C184.22,216.05,177.78,210.61,170.45,212.1Z" transform="translate(-10.23 -49.71)" style="fill:#f16a21"/><path d="M244.35,191.61c17.33-2.08,32.59,5.75,35.26,27.91S269.33,253,252,255.12s-32.6-5.75-35.28-28S226.89,193.72,244.35,191.61Zm-.36,8.46-1.24.15c-7.84,1.7-11.06,9.37-7.31,25.87,3.5,15.53,9.49,21.47,16.8,20.59l1.23-.15c8-1.59,11.07-9.25,7.44-25.89C257.4,205.11,251.41,199.18,244,200.07Z" transform="translate(-10.23 -49.71)" style="fill:#f16a21"/><path d="M289.14,218.42C288.82,196,303.28,186.17,319,186c6.11-.09,10.74,1.47,14,4.79a2.06,2.06,0,0,0,1,.36c.63,0,.87-.51.85-1.51l-.26-19.08c-.07-5.11-6.44-5.64-6.51-10.63,0-2.87,2.55-4.65,7.67-4.72l5.48-.08c4.74-.06,10.39,3,10.49,9.58l1,68.83c.08,5.73,6.31,5.39,6.37,10.13.06,4.24-3.92,4.92-7.16,5A14,14,0,0,1,340,242.78a1.59,1.59,0,0,0-1.38-.86,2,2,0,0,0-1.49.9c-3.3,4.53-8.38,7-15.61,7.07C304.17,250.13,289.45,240.74,289.14,218.42Zm18.71.49c.63,9.34,3.19,23.4,15.16,23.23,6.73-.47,11.63-6.77,12.37-16L335.17,211c-2.17-12.56-7-17-14.2-16.88l-1.25,0C312,194.91,306.74,202,307.85,218.91Z" transform="translate(-10.23 -49.71)" style="fill:#f16a21"/><path d="M442.23,174.11c10.95,1.76,24.24,6.3,27,16.35,1.72,6.59-3.66,11.79-8.71,11a8.32,8.32,0,0,1-3.19-1.39c-7.39-6.62-9.07-14.22-18.43-15.73-8.86-1.42-15.18,1.73-16.39,9.24-2.89,18,45.56,16.68,41.76,45-2.94,21.38-23.53,22.23-36.58,20.13-14.9-2.4-27.89-8-31.12-17.77-2.15-7,3.22-11.35,8.64-10.48a8.79,8.79,0,0,1,3.32,1.29c7.62,5.27,10.73,15,22.42,16.87,7.76,1.25,13.71-1.2,14.78-7.85C448,225.18,400.5,223.84,405,195.65,408.44,174.48,426.22,171.53,442.23,174.11Z" transform="translate(-10.23 -49.71)" style="fill:#f16a21"/><path d="M479.68,204.12c2.44.51,3.51.87,5.19,1.35a1,1,0,0,0,1.45-.84l2.27-10.74c.93-4.39,10.35-5.58,15.52-5.89a3.22,3.22,0,0,1,1.12.11c1.71.36,1.89,1.92,1.5,3.75l-3.55,16.84c-.16.73.25,1.2,1,1.35a101.24,101.24,0,0,1,11.5,1.67c5.49,1.16,3.4,11-2.09,9.88a102,102,0,0,1-11.14-3.37,1,1,0,0,0-1.45.84l-6.67,31.59c-1.45,6.84-.3,9.24,1.9,9.71,3,.64,8.44-2.55,11.61-1.88a3.38,3.38,0,0,1,1.39.67c3.33,3.51-4.34,14.51-19.1,11.39-7.32-1.55-16.47-5.9-13.15-21.64l6.93-32.81a1,1,0,0,0-1-1.36c-1.12-.11-2.61-.29-5.32-.74C472.44,213,474.31,203,479.68,204.12Z" transform="translate(-10.23 -49.71)" style="fill:#f16a21"/><path d="M526.34,218.61c.62-2.67,3.45-3.81,8.43-2.65l5.46,1.28c4.62,1.07,9.37,5.38,7.9,11.69l-6.19,26.6c-2,8.74,0,14.34,6.06,15.75,8.51,2,17-12.68,19.25-20l2.66-11.42c1.16-5-4.87-7.15-3.74-12,.6-2.55,3.09-3.89,7.58-2.84l6.31,1.47c4.62,1.07,9.5,5.41,8,11.73l-8.37,35.94c-1.16,5,4.77,7,3.64,11.86-.65,2.79-3.47,3.93-8.45,2.77l-5.47-1.27c-3.89-.91-7.84-4.26-8-9.28.15-1.76.53-4.48.46-5.27a13.72,13.72,0,0,0-2.13,1.43c-5.36,5.41-12.71,8.94-20.48,7.13C526.71,278.61,521,269.6,524,256.85l6.1-26.23C531.23,225.64,525.21,223.47,526.34,218.61Z" transform="translate(-10.23 -49.71)" style="fill:#f16a21"/><path d="M603.87,232.36l5.48,1.23a1.17,1.17,0,0,0,1.49-.94l2-8.88c4.06-18,23.91-16.46,29.87-15.12,8.51,1.92,20,5.17,20.78,15.56,7.57-7.5,20.21-6.31,24.71-5.29,8.63,1.94,16.62,4.51,19.83,11.24,3.13,7.1-1.26,13.52-9,11.77-8-1.81-5.09-13.68-11.85-15.46-6.93-1.56-10.06,3.23-11.46,9.43l-2.55,11.31a1.09,1.09,0,0,0,1,1.37c4.8.83,9.33,1.72,12.37,2.41,5.47,1.23,3.25,11.08-2.22,9.85-3-.69-7.49-1.94-12.18-3.26a1.08,1.08,0,0,0-1.46.82l-8.12,36c-1.32,5.84,4.95,6.36,4,10.74-.66,2.92-2.68,3.36-6.56,3a51.07,51.07,0,0,1-8.77-1.34,60.15,60.15,0,0,1-9.11-2.7c-3.56-1.18-5.41-2.62-4.75-5.54,1-4.38,7-2.13,8.31-8l8.34-37a1.18,1.18,0,0,0-.94-1.5c-3.38-.88-6.66-1.62-10.07-2.39-5.35-1.21-10.85-2.32-16.16-3.14a1.36,1.36,0,0,0-1.52,1.07L617,284.14c-1.32,5.84,5,6.36,4,10.74-.66,2.92-2.68,3.36-6.56,3a51.07,51.07,0,0,1-8.77-1.34,64.81,64.81,0,0,1-9.23-2.72c-3.57-1.19-5.29-2.61-4.63-5.52,1-4.38,7-2.13,8.31-8l8-35.52a1.17,1.17,0,0,0-.94-1.49c-1.7-.38-3.8-.73-5.5-1.11C596.42,241,598.4,231.12,603.87,232.36Zm26.31-6.72-2.68,11.92a1.17,1.17,0,0,0,.94,1.49c5.17,1.42,10.47,2.87,15.7,4,3.53.8,7,1.45,10.39,2.09a1.27,1.27,0,0,0,1.52-1.06l2.28-10.1a19.77,19.77,0,0,1,.72-2.64,10.23,10.23,0,0,1-5.68.25c-7.9-1.79-5-13.65-11.73-15.43C634.71,214.65,631.58,219.44,630.18,225.64Z" transform="translate(-10.23 -49.71)" style="fill:#f16a21"/></svg>