<svg id="e19a9626-323f-41c5-8887-800d54b6a9cc" data-name="Layer 1" xmlns="http://www.w3.org/2000/svg" xmlns:xlink="http://www.w3.org/1999/xlink" viewBox="0 0 1920 2813"><defs><clipPath id="efa78b8c-f02a-41d1-b4e5-9dfee1c82dd6"><path d="M1.74,30.63c213.62,0,397.4-8.59,563.9-26.28,148.32-15.76,269.51-37.22,386.7-58,238.23-42.19,484.75-90.17,969.4-90.17l-.18,43.57.17,0V2811.62H1.74Z" style="fill:none"/></clipPath></defs><g style="clip-path:url(#efa78b8c-f02a-41d1-b4e5-9dfee1c82dd6)"><path d="M2027.19,998.05c.56-13.1,6.38-61.9,10.52-72.48-82.31-25-169.79-14.29-267.83,7.51-21.36,4.74-53.81,12.63-77.39,21.57,4,5.16,7.59,52,10.89,64.08,10.12,36.93,19.88,73.26,34.35,108.06,3.46,8.32,7.24,16.37,11.28,24.2,14.2-7.33,28.43-14,42.32-19.52-3.94,13.15-18.06,50.67-19.85,56.74,32.69,46.85,76.45,84.23,126.07,116.07,49.44,31.74,107.26,57.49,169.91,74.44,7.27-5.08,57.45-33.76,72.1-40.56-4.87,15.42-9.39,37.11-20.93,52.19,69.43,12.85,143.29,14.78,217.3,2.2,13.35-29,10.58-70.41,8.21-97.28-1.3-14.71-2.78-29.56-4.75-44.3-11.89,6.15-24.1,11.22-34.64,13,1.92-10.74,21.28-49.88,26.72-57.83-6.61-28.75-16.42-55.92-31.88-79.37-49.65-75.31-119.84-133.69-201.77-176C2084.88,960.5,2040,996.13,2027.19,998.05Z" style="fill:#fdbbcb"/><path d="M-211.71,2509.37c-11-7.2-49.87-37.22-56.84-46.2-63.68,57.84-99.32,138.44-130.88,233.8-6.87,20.77-16.74,52.67-21.15,77.5,6.46-.76,48.55,20.16,60.59,23.51,36.9,10.25,73.09,20.49,110.39,25.91,8.92,1.29,17.77,2.18,26.56,2.72,1-16,2.53-31.6,4.94-46.33,9.27,10.12,34.24,41.48,38.53,46.12,57-4,111.52-22.44,164.3-48.71,52.6-26.18,104.35-62.62,151-107.71-.62-8.85.48-66.64,2.16-82.7,10.74,12.09,27,27.09,34.07,44.73,46.63-53,86.16-115.44,113.3-185.43-18.06-26.35-55-45.19-79.3-56.93-13.29-6.43-26.81-12.77-40.47-18.64-.82,13.36-2.72,26.44-6.59,36.41-8.24-7.15-31.92-43.85-35.95-52.59-28.07-9.07-56.43-14.57-84.49-13.33-90.12,4-176.23,34.35-254.57,83C-214.37,2440.59-206.81,2497.4-211.71,2509.37Z" style="fill:#fdbbcb"/><path d="M167.13,1219.83c-201.57,39.89-414.69,69.52-611.71,132.37,1,60.91,86.83,322,403.62,242.52C98.82,1559.66,212.17,1355.77,167.13,1219.83Z" style="fill:#ff6b00"/><path d="M30.34,1486.13c81.43-63,92.65-169.77,100.75-259.29-179.51,34.35-366.76,62.74-542.63,115.21C-357,1555.58-119.6,1602.11,30.34,1486.13Z" style="fill:#ffd600"/><path d="M2232.56,2384.81C2070.21,2258.86,1908,2117.47,1731.33,2010c-45.3,40.74-186,276.78,81.79,463.71C1931.29,2556.22,2159.53,2508,2232.56,2384.81Z" style="fill:#00a35b"/><path d="M1941.85,2456.3c101,20.13,188.91-41.47,261.78-94.1-143.7-112.93-288-235.61-443-333.91C1635.29,2209.55,1756,2419.24,1941.85,2456.3Z" style="fill:#bde9c9"/><path d="M278,412.51C133.42,266.49-9,105.18-170.18-24.36c-50.21,34.5-220.47,250.19,20.72,470.42C-43,543.23,189.53,525.13,278,412.51Z" style="fill:#00a35b"/><path d="M-19.56,445.53c97.48,33.11,192.7-16.51,271.8-59.2C124.47,255.64-2.61,115.22-143.47-2.42-291.38,161-199,384.57-19.56,445.53Z" style="fill:#bde9c9"/><path d="M2086-23.86c-166.57,132.79-348.65,261.65-500.08,413.41,30,55.59,233.39,255,487.18,30.91C2185.08,321.56,2192.26,79.82,2086-23.86Z" style="fill:#ff6b00"/><path d="M2087,286.5c45-96.8,4.38-200.45-30.83-286.74C1907.26,117,1748.4,232.33,1611.5,364.46,1763.47,535.06,2004.22,464.74,2087,286.5Z" style="fill:#ffd600"/><rect x="1757.63" y="1322.32" width="101.35" height="34.95" transform="translate(-6.95 9.43) rotate(-0.3)" style="fill:#fffef9"/><rect x="1871.51" y="1309.21" width="101.35" height="34.95" transform="translate(2389.45 -961.67) rotate(66.93)" style="fill:#fffef9"/><rect x="1797.47" y="1421.1" width="101.35" height="34.95" transform="translate(4173.56 1717.13) rotate(148.93)" style="fill:#fffef9"/><rect x="1676.78" y="1245.15" width="101.35" height="34.95" transform="translate(3858.7 1452.75) rotate(148.93)" style="fill:#fffef9"/><rect x="1873.17" y="1484.87" width="101.35" height="34.95" transform="translate(4249.24 2244.48) rotate(159.71)" style="fill:#fffef9"/><rect x="-75.21" y="2272.19" width="101.35" height="34.95" transform="translate(2134.11 3053.51) rotate(108.87)" style="fill:#fffef9"/><rect x="-100.22" y="2384.07" width="101.35" height="34.95" transform="translate(64.43 4800.89) rotate(176.1)" style="fill:#fffef9"/><rect x="24.23" y="2221.18" width="101.35" height="34.95" transform="translate(-2100.23 2773.38) rotate(-101.89)" style="fill:#fffef9"/><rect x="90.44" y="-52.69" width="101.35" height="34.95" transform="translate(153.44 -180.14) rotate(108.87)" style="fill:#fffef9"/><rect x="65.43" y="59.18" width="101.35" height="34.95" transform="translate(237.16 145.24) rotate(176.1)" style="fill:#fffef9"/><rect x="-15.94" y="-47.49" width="101.35" height="34.95" transform="translate(71.27 -2.21) rotate(-101.89)" style="fill:#fffef9"/><rect x="-34.97" y="113.44" width="101.35" height="34.95" transform="translate(143.23 97.37) rotate(82.1)" style="fill:#fffef9"/><rect x="24.42" y="180.84" width="101.35" height="34.95" transform="translate(-94.45 70.94) rotate(-32.34)" style="fill:#fffef9"/></g></svg>