<svg preserveAspectRatio='none' viewBox="0 0 1440 768" fill="none" xmlns="http://www.w3.org/2000/svg">
<path d="M0 143.322C0 143.322 43.5 122 280.5 122C517.5 122 851 197.93 1046 191.689C1241 185.448 1440 143.322 1440 143.322V709.153C1440 709.153 1292.5 768 1046 768C799.5 768 489 695.632 280.5 695.632C72 695.632 0 709.153 0 709.153V143.322Z" fill="#E4F3E9"/>
<path d="M0 81.3224C0 81.3224 43.5 60 280.5 60C517.5 60 851 135.93 1046 129.689C1241 123.448 1440 81.3224 1440 81.3224V647.153C1440 647.153 1292.5 706 1046 706C799.5 706 489 633.632 280.5 633.632C72 633.632 0 647.153 0 647.153V81.3224Z" fill="#9DD1BA"/>
<path d="M0 21.3389C0 21.3389 43.5 0 280.5 0C517.5 0 846.5 69.7427 1046 69.7427C1245.5 69.7427 1440 21.3389 1440 21.3389V587.608C1440 587.608 1292.5 639 1046 639C799.5 639 489 574.076 280.5 574.076C72 574.076 0 587.608 0 587.608V21.3389Z" fill="#237D54"/>
</svg>
