<svg width="709" height="205" viewBox="0 0 709 205" fill="none" xmlns="http://www.w3.org/2000/svg">
<path d="M7.61816 61.5005L28.7952 85.3247" stroke="#68AB8D" stroke-width="2"/>
<path d="M35.4131 45.6178L30.5342 88.0269" stroke="#68AB8D" stroke-width="2"/>
<path d="M34.7881 46.4896L6.29474 60.7789" stroke="#68AB8D" stroke-width="2"/>
<circle cx="6.95603" cy="60.8388" r="6.45603" fill="#68AB8D" stroke="#E4F3E9"/>
<circle cx="36.0742" cy="44.956" r="6.45603" fill="#68AB8D" stroke="#E4F3E9"/>
<circle cx="29.457" cy="85.9865" r="6.45603" fill="#68AB8D" stroke="#E4F3E9"/>
<path d="M687.542 86.5926C690.941 86.5926 692.195 90.5247 692.397 92.4907H696.646C697.05 91.3111 696.492 86.9124 698.467 86.5926C702.108 86.0028 707.985 83.2093 707.485 80.1046C706.985 77 702.638 79.361 703.322 77.7454C704.485 75 707.485 73.5 705.485 71C703.485 68.5 699.199 72.4491 697.985 69.5C696.858 66.7618 697.234 63 692.985 63C688.737 63 690.295 67.9925 688.149 70.0778C686.935 71.2574 683.066 67.4611 680.985 71C678.904 74.5389 682.686 75.9759 682.686 77.7454C682.686 79.5148 679.604 77.2093 679.045 80.1046C678.485 83 683.293 86.5926 687.542 86.5926Z" fill="#68AB8D"/>
<path d="M688.565 116.638C688.527 116.614 688.49 116.589 688.454 116.565C686.629 115.445 684.351 113.63 682.884 110.546C681.986 108.659 681.392 106.295 681.392 103.324C681.392 101.434 681.331 99.6193 682.229 97.3056C683.041 95.213 684.117 93.3468 686.1 91.889C687.976 90.5101 690.1 89.0001 693.985 89.0001C697.87 89.0001 700.902 89.7159 702.945 91.1451C705.085 92.6415 706.396 94.788 707.123 97.3056C707.655 99.1493 707.874 101.192 707.874 103.324C707.874 106.102 707.429 108.272 706.697 110.025C705.367 113.209 703.09 115.012 700.812 116.565C698.907 117.864 698.671 119.887 697.87 122.583C697.187 124.883 696.985 128 694.485 128C691.985 128 691.77 125.359 691.082 122.583C690.473 120.127 689.888 117.566 688.565 116.638Z" fill="#E4F3E9"/>
<path d="M681.392 103.324C681.392 106.295 681.986 108.659 682.884 110.546C684.351 113.63 686.629 115.445 688.454 116.565M681.392 103.324C684.485 107 696.193 108.5 703.485 105.5M681.392 103.324C681.392 101.434 681.331 99.6193 682.229 97.3056C683.041 95.213 684.117 93.3468 686.1 91.889M688.454 116.565C689.631 117.367 691.985 118 695.485 118M688.454 116.565C689.856 117.425 690.456 120.06 691.082 122.583C691.77 125.359 691.985 128 694.485 128C696.985 128 697.187 124.883 697.87 122.583M688.454 111.708C691.985 113 697.87 112.708 700.485 111.708M688.985 100C693.533 101.749 699.549 100.806 703.485 99.3301C705.175 98.6965 706.481 97.9647 707.123 97.3056M707.123 97.3056C707.655 99.1493 707.874 101.192 707.874 103.324C707.874 106.102 707.429 108.272 706.697 110.025C705.367 113.209 703.09 115.012 700.812 116.565C698.907 117.864 698.671 119.887 697.87 122.583M707.123 97.3056C706.396 94.788 705.085 92.6415 702.945 91.1451C700.902 89.7159 697.87 89.0001 693.985 89.0001C690.1 89.0001 687.976 90.5101 686.1 91.889M686.1 91.889C686.1 93.3861 692.777 95.3056 697.485 94.0001M694.485 123.5C694.985 123.5 696.985 123.5 697.87 122.583" stroke="#68AB8D" stroke-width="2" stroke-linecap="round"/>
<path d="M176.913 179.38H182.625C183.465 179.38 184.165 179.147 184.725 178.68C185.285 178.195 185.565 177.504 185.565 176.608C185.565 175.6 185.313 174.891 184.809 174.48C184.305 174.069 183.577 173.864 182.625 173.864H176.913V179.38ZM173.413 171.008H183.129C184.921 171.008 186.358 171.419 187.441 172.24C188.524 173.061 189.065 174.303 189.065 175.964C189.065 176.972 188.813 177.84 188.309 178.568C187.824 179.277 187.124 179.828 186.209 180.22V180.276C187.441 180.537 188.374 181.125 189.009 182.04C189.644 182.936 189.961 184.065 189.961 185.428C189.961 186.212 189.821 186.949 189.541 187.64C189.261 188.312 188.822 188.9 188.225 189.404C187.628 189.889 186.862 190.281 185.929 190.58C184.996 190.86 183.885 191 182.597 191H173.413V171.008ZM176.913 188.144H183.101C184.165 188.144 184.986 187.873 185.565 187.332C186.162 186.772 186.461 185.988 186.461 184.98C186.461 183.991 186.162 183.235 185.565 182.712C184.986 182.171 184.165 181.9 183.101 181.9H176.913V188.144Z" fill="#68AB8D"/>
<path d="M189.295 191.744C189.511 191.744 189.721 191.726 189.925 191.69C190.129 191.654 190.312 191.594 190.474 191.51C190.642 191.426 190.783 191.318 190.897 191.186C191.017 191.054 191.095 190.892 191.131 190.7H191.968V197H190.843V192.554H189.295V191.744ZM198.652 197H194.35C194.356 196.478 194.482 196.022 194.728 195.632C194.974 195.242 195.31 194.903 195.736 194.615C195.94 194.465 196.153 194.321 196.375 194.183C196.597 194.039 196.801 193.886 196.987 193.724C197.173 193.562 197.326 193.388 197.446 193.202C197.566 193.01 197.629 192.791 197.635 192.545C197.635 192.431 197.62 192.311 197.59 192.185C197.566 192.053 197.515 191.933 197.437 191.825C197.359 191.711 197.251 191.618 197.113 191.546C196.975 191.468 196.795 191.429 196.573 191.429C196.369 191.429 196.198 191.471 196.06 191.555C195.928 191.633 195.82 191.744 195.736 191.888C195.658 192.026 195.598 192.191 195.556 192.383C195.52 192.575 195.499 192.782 195.493 193.004H194.467C194.467 192.656 194.512 192.335 194.602 192.041C194.698 191.741 194.839 191.483 195.025 191.267C195.211 191.051 195.436 190.883 195.7 190.763C195.97 190.637 196.282 190.574 196.636 190.574C197.02 190.574 197.341 190.637 197.599 190.763C197.857 190.889 198.064 191.048 198.22 191.24C198.382 191.432 198.496 191.642 198.562 191.87C198.628 192.092 198.661 192.305 198.661 192.509C198.661 192.761 198.622 192.989 198.544 193.193C198.466 193.397 198.361 193.586 198.229 193.76C198.097 193.928 197.947 194.084 197.779 194.228C197.611 194.372 197.437 194.507 197.257 194.633C197.077 194.759 196.897 194.879 196.717 194.993C196.537 195.107 196.369 195.221 196.213 195.335C196.063 195.449 195.931 195.569 195.817 195.695C195.703 195.815 195.625 195.944 195.583 196.082H198.652V197Z" fill="#68AB8D"/>
<rect x="160" y="161" width="46" height="43" rx="4" stroke="#68AB8D" stroke-width="2" stroke-dasharray="3 3"/>
<path d="M524.59 144.51L524.304 144H523.719L515.281 144H514.696L514.41 144.51L510.191 152.01L509.915 152.5L510.191 152.99L514.41 160.49L514.696 161H515.281L523.719 161H524.304L524.59 160.49L528.809 152.99L529.085 152.5L528.809 152.01L524.59 144.51Z" stroke="#68AB8D" stroke-width="2"/>
<path d="M524.59 161.385L524.304 160.875H523.719L515.281 160.875H514.696L514.41 161.385L510.191 168.885L509.915 169.375L510.191 169.865L514.41 177.365L514.696 177.875H515.281L523.719 177.875H524.304L524.59 177.365L528.809 169.865L529.085 169.375L528.809 168.885L524.59 161.385Z" stroke="#68AB8D" stroke-width="2"/>
<path d="M538.653 169.822L538.366 169.313H537.781L529.344 169.312H528.759L528.472 169.822L524.253 177.322L523.978 177.812L524.253 178.303L528.472 185.803L528.759 186.312H529.344L537.781 186.312H538.366L538.653 185.803L542.872 178.303L543.147 177.812L542.872 177.322L538.653 169.822Z" stroke="#68AB8D" stroke-width="2"/>
<path d="M510.528 169.822L510.241 169.313H509.656L501.219 169.312H500.634L500.347 169.822L496.128 177.322L495.853 177.812L496.128 178.303L500.347 185.803L500.634 186.312H501.219L509.656 186.312H510.241L510.528 185.803L514.747 178.303L515.022 177.812L514.747 177.322L510.528 169.822Z" stroke="#68AB8D" stroke-width="2"/>
<path d="M510.528 152.947L510.241 152.438H509.656L501.219 152.438H500.634L500.347 152.947L496.128 160.447L495.853 160.938L496.128 161.428L500.347 168.928L500.634 169.437H501.219L509.656 169.438H510.241L510.528 168.928L514.747 161.428L515.022 160.938L514.747 160.447L510.528 152.947Z" stroke="#68AB8D" stroke-width="2"/>
<path d="M524.59 178.26L524.304 177.75H523.719L515.281 177.75H514.696L514.41 178.26L510.191 185.76L509.915 186.25L510.191 186.74L514.41 194.24L514.696 194.75H515.281L523.719 194.75H524.304L524.59 194.24L528.809 186.74L529.085 186.25L528.809 185.76L524.59 178.26Z" stroke="#68AB8D" stroke-width="2"/>
<path d="M538.653 152.947L538.366 152.438H537.781L529.344 152.438H528.759L528.472 152.947L524.253 160.447L523.978 160.938L524.253 161.428L528.472 168.928L528.759 169.437H529.344L537.781 169.438H538.366L538.653 168.928L542.872 161.428L543.147 160.938L542.872 160.447L538.653 152.947Z" stroke="#68AB8D" stroke-width="2"/>
<path d="M376 13.5C376 16.5376 369.732 19 362 19C354.268 19 348 16.5376 348 13.5C348 10.4624 354.268 8 362 8C369.732 8 376 10.4624 376 13.5Z" fill="#68AB8D"/>
<path fill-rule="evenodd" clip-rule="evenodd" d="M379.489 4.5088C382.819 7.13031 383.727 10.2332 383.727 11.8483V14.9228C383.882 14.9601 384.053 15.0051 384.237 15.0592C385.045 15.2956 386.13 15.7099 387.236 16.425C389.484 17.8785 391.748 20.5398 391.983 25.2307C392.221 29.9774 389.924 32.7775 387.573 34.3421C386.415 35.1122 385.252 35.5818 384.383 35.8594C384.089 35.9534 383.826 36.0262 383.605 36.0815C383.541 36.4341 383.447 36.8967 383.317 37.4096C383.038 38.5083 382.567 39.9601 381.802 41.0289C379.759 43.8811 376.481 45.6977 372.805 46.7558C369.12 47.8165 364.94 48.1439 360.949 47.9449C356.966 47.7463 353.299 47.0832 350.309 45.9473C347.335 44.8173 344.924 43.1773 343.622 40.9515C342.782 39.5169 342.185 37.6363 341.741 35.5347C341.295 33.4214 340.992 31.021 340.773 28.5092C340.459 24.9122 340.313 21.0229 340.176 17.3653C340.123 15.9285 340.07 14.5274 340.009 13.1938C339.809 8.80467 342.825 5.54163 346.818 3.41389C350.832 1.27521 356.078 0.129492 360.976 0.0159406C370.465 -0.204093 376.152 1.8823 379.489 4.5088ZM382.578 34.258L382.588 34.2565C382.599 34.2546 382.618 34.2514 382.644 34.2466C382.696 34.237 382.777 34.2211 382.883 34.1976C383.094 34.1504 383.403 34.073 383.774 33.9542C384.521 33.7156 385.504 33.3166 386.465 32.677C388.35 31.4224 390.182 29.2395 389.986 25.3309C389.786 21.3557 387.922 19.2506 386.15 18.1043C385.246 17.5194 384.348 17.1755 383.676 16.9786C383.341 16.8806 383.065 16.8201 382.879 16.7848C382.785 16.7672 382.714 16.7558 382.67 16.7492C382.647 16.7459 382.631 16.7438 382.622 16.7427L382.617 16.742L382.616 16.7418L382.615 16.7417L381.727 16.6434V11.8483C381.727 10.8636 381.114 8.3335 378.252 6.08034C375.396 3.83216 370.219 1.80215 361.022 2.0154C356.361 2.12348 351.437 3.2192 347.759 5.17901C344.06 7.14974 341.859 9.84221 342.007 13.1028C342.07 14.4712 342.123 15.8939 342.177 17.3433C342.313 20.9827 342.456 24.7911 342.765 28.3354C342.981 30.8066 343.275 33.1184 343.698 35.1215C344.123 37.1363 344.666 38.7763 345.348 39.9416C346.327 41.6156 348.262 43.0303 351.019 44.0777C353.76 45.1192 357.209 45.756 361.049 45.9474C364.88 46.1384 368.83 45.8189 372.252 44.8338C375.683 43.8461 378.49 42.218 380.176 39.8642C380.714 39.1126 381.113 37.9645 381.378 36.9185C381.506 36.4111 381.597 35.9563 381.655 35.629C381.683 35.4657 381.704 35.3352 381.717 35.2469C381.724 35.2028 381.729 35.1693 381.732 35.1476L381.735 35.1241L381.736 35.1193L381.832 34.3706L382.576 34.2584L382.578 34.258ZM350.09 5.35432C353.552 3.82936 357.835 3.0488 361.433 3.0488C365.914 3.0488 370.413 4.0519 373.879 5.75176C377.282 7.42094 379.985 9.92237 380.247 13.0649C380.557 16.7663 377.845 19.2182 374.28 20.6813C370.681 22.1583 365.846 22.8144 360.999 22.8144C356.118 22.8144 351.719 21.9324 348.549 20.2617C345.374 18.5883 343.262 16.0081 343.487 12.6482C343.715 9.23647 346.7 6.84724 350.09 5.35432ZM350.896 7.18469C347.644 8.61659 345.631 10.5604 345.483 12.7817C345.331 15.0547 346.696 17.0243 349.482 18.4923C352.272 19.963 356.319 20.8144 360.999 20.8144C365.712 20.8144 370.257 20.1705 373.521 18.831C376.818 17.4776 378.452 15.5965 378.254 13.2316C378.083 11.177 376.222 9.12868 372.998 7.54742C369.836 5.99684 365.644 5.0488 361.433 5.0488C358.078 5.0488 354.074 5.78483 350.896 7.18469ZM381.727 19.5144H382.727C385.013 19.5144 388.073 21.673 388.073 25.7141C388.073 27.4191 387.582 28.8776 386.608 29.9181C385.628 30.9652 384.26 31.4805 382.727 31.4805H381.727V19.5144ZM383.727 21.7479V29.3643C384.318 29.2164 384.79 28.9334 385.148 28.5514C385.695 27.9669 386.073 27.0423 386.073 25.7141C386.073 23.5026 384.843 22.2352 383.727 21.7479Z" fill="#68AB8D"/>
</svg>
