<svg width="709" height="205" viewBox="0 0 709 205" fill="none" xmlns="http://www.w3.org/2000/svg">
<path d="M130.628 103.8L132.422 109H135.126L128.73 91.658H126.078L119.708 109H122.334L124.102 103.8H130.628ZM129.926 101.72H124.83L127.378 94.336L129.926 101.72ZM140.047 96.442H137.655V109H140.047V96.442ZM140.047 91.658H137.655V94.44H140.047V91.658ZM146.433 91.658H144.041V109H146.433V91.658ZM152.636 100.602C152.688 99.692 152.74 99.406 152.922 99.068C153.26 98.392 154.222 98.002 155.444 98.002C157.134 98.002 158.2 98.756 158.2 99.978C158.2 100.758 157.888 100.992 156.38 101.278L153.598 101.824C151.05 102.344 149.802 103.592 149.802 105.62C149.802 107.83 151.466 109.338 153.91 109.338C155.6 109.338 156.978 108.766 158.252 107.492C158.46 108.688 158.98 109.182 160.124 109.182C160.618 109.182 161.112 109.13 161.684 109V107.154C161.398 107.258 161.268 107.284 161.06 107.284C160.514 107.284 160.384 107.076 160.384 106.088V100.186C160.384 97.586 158.616 96.104 155.496 96.104C153.728 96.104 152.22 96.624 151.414 97.534C150.79 98.236 150.504 99.12 150.4 100.602H152.636ZM158.252 104.164C158.252 105.958 156.588 107.44 154.56 107.44C153.156 107.44 152.22 106.66 152.22 105.516C152.22 104.528 152.87 103.93 154.326 103.592L156.77 103.02C157.394 102.864 157.81 102.734 158.252 102.552V104.164Z" fill="#055631"/>
<path d="M175.237 96.442H172.845V109H175.237V96.442ZM175.237 91.658H172.845V94.44H175.237V91.658ZM188.746 100.29C188.642 99.12 188.408 98.444 187.862 97.768C186.978 96.702 185.496 96.104 183.702 96.104C180.868 96.104 178.866 97.638 178.866 99.796C178.866 100.628 179.23 101.46 179.802 101.954C180.322 102.422 181.128 102.786 182.454 103.124L184.95 103.748C186.406 104.138 186.952 104.58 186.952 105.412C186.952 106.582 185.834 107.336 184.118 107.336C182.116 107.336 180.868 106.348 180.738 104.684H178.372C178.632 107.674 180.66 109.338 184.066 109.338C187.264 109.338 189.292 107.778 189.292 105.308C189.292 103.384 188.2 102.292 185.574 101.616L182.662 100.862C181.648 100.602 181.206 100.186 181.206 99.562C181.206 98.678 182.168 98.08 183.598 98.08C185.262 98.08 186.12 98.73 186.458 100.29H188.746ZM202.92 100.602C202.972 99.692 203.024 99.406 203.206 99.068C203.544 98.392 204.506 98.002 205.728 98.002C207.418 98.002 208.484 98.756 208.484 99.978C208.484 100.758 208.172 100.992 206.664 101.278L203.882 101.824C201.334 102.344 200.086 103.592 200.086 105.62C200.086 107.83 201.75 109.338 204.194 109.338C205.884 109.338 207.262 108.766 208.536 107.492C208.744 108.688 209.264 109.182 210.408 109.182C210.902 109.182 211.396 109.13 211.968 109V107.154C211.682 107.258 211.552 107.284 211.344 107.284C210.798 107.284 210.668 107.076 210.668 106.088V100.186C210.668 97.586 208.9 96.104 205.78 96.104C204.012 96.104 202.504 96.624 201.698 97.534C201.074 98.236 200.788 99.12 200.684 100.602H202.92ZM208.536 104.164C208.536 105.958 206.872 107.44 204.844 107.44C203.44 107.44 202.504 106.66 202.504 105.516C202.504 104.528 203.154 103.93 204.61 103.592L207.054 103.02C207.678 102.864 208.094 102.734 208.536 102.552V104.164ZM223.128 96.442V109H225.52V101.382C225.52 99.432 226.768 98.236 228.822 98.236C230.46 98.236 231.24 99.068 231.24 100.784V109H233.632V100.602C233.632 99.146 233.398 98.262 232.8 97.482C232.098 96.598 230.876 96.104 229.394 96.104C227.678 96.104 226.664 96.546 225.416 97.872V96.442H223.128ZM248.168 109V96.442H245.776V104.06C245.776 106.01 244.528 107.206 242.474 107.206C240.836 107.206 240.056 106.374 240.056 104.658V96.442H237.664V104.84C237.664 106.296 237.898 107.18 238.496 107.96C239.198 108.844 240.42 109.338 241.902 109.338C243.618 109.338 244.632 108.896 245.88 107.57V109H248.168ZM257.192 96.442H254.93V92.464H252.538V96.442H250.848V98.34H252.538V106.218C252.538 108.298 253.396 109.26 255.19 109.26C255.762 109.26 256.152 109.208 257.192 108.974V107.024C256.542 107.284 256.204 107.362 255.866 107.362C255.268 107.362 254.93 106.946 254.93 106.218V98.34H257.192V96.442ZM260.032 96.442V109H262.424V102.396C262.424 100.16 263.906 98.444 265.83 98.444C266.168 98.444 266.428 98.47 266.922 98.574V96.416C266.506 96.208 266.064 96.104 265.596 96.104C264.842 96.104 263.932 96.494 263.36 97.092C263.022 97.404 262.814 97.69 262.32 98.418V96.442H260.032ZM271.983 96.442H269.591V109H271.983V96.442ZM271.983 91.658H269.591V94.44H271.983V91.658ZM280.968 96.442H278.706V92.464H276.314V96.442H274.624V98.34H276.314V106.218C276.314 108.298 277.172 109.26 278.966 109.26C279.538 109.26 279.928 109.208 280.968 108.974V107.024C280.318 107.284 279.98 107.362 279.642 107.362C279.044 107.362 278.706 106.946 278.706 106.218V98.34H280.968V96.442ZM286.201 96.442H283.809V109H286.201V96.442ZM286.201 91.658H283.809V94.44H286.201V91.658ZM295.602 96.104C292.014 96.104 289.57 98.782 289.57 102.708C289.57 106.66 292.014 109.338 295.602 109.338C299.19 109.338 301.66 106.66 301.66 102.812C301.66 98.756 299.268 96.104 295.602 96.104ZM295.602 98.106C297.942 98.106 299.242 99.77 299.242 102.786C299.242 105.646 297.89 107.336 295.628 107.336C293.314 107.336 291.988 105.646 291.988 102.708C291.988 99.796 293.314 98.106 295.602 98.106ZM305.009 96.442V109H307.401V101.382C307.401 99.432 308.649 98.236 310.703 98.236C312.341 98.236 313.121 99.068 313.121 100.784V109H315.513V100.602C315.513 99.146 315.279 98.262 314.681 97.482C313.979 96.598 312.757 96.104 311.275 96.104C309.559 96.104 308.545 96.546 307.297 97.872V96.442H305.009ZM327.86 109H330.252V107.596C331.448 108.844 332.566 109.338 334.178 109.338C337.532 109.338 339.664 106.764 339.664 102.656C339.664 98.704 337.506 96.104 334.256 96.104C332.67 96.104 331.448 96.65 330.252 97.872V91.658H327.86V109ZM333.71 98.106C335.972 98.106 337.246 99.77 337.246 102.708C337.246 105.672 335.972 107.336 333.71 107.336C331.422 107.336 330.174 105.672 330.174 102.656C330.174 99.77 331.474 98.106 333.71 98.106ZM343.055 96.442V109H345.447V102.396C345.447 100.16 346.929 98.444 348.853 98.444C349.191 98.444 349.451 98.47 349.945 98.574V96.416C349.529 96.208 349.087 96.104 348.619 96.104C347.865 96.104 346.955 96.494 346.383 97.092C346.045 97.404 345.837 97.69 345.343 98.418V96.442H343.055ZM354.672 100.602C354.724 99.692 354.776 99.406 354.958 99.068C355.296 98.392 356.258 98.002 357.48 98.002C359.17 98.002 360.236 98.756 360.236 99.978C360.236 100.758 359.924 100.992 358.416 101.278L355.634 101.824C353.086 102.344 351.838 103.592 351.838 105.62C351.838 107.83 353.502 109.338 355.946 109.338C357.636 109.338 359.014 108.766 360.288 107.492C360.496 108.688 361.016 109.182 362.16 109.182C362.654 109.182 363.148 109.13 363.72 109V107.154C363.434 107.258 363.304 107.284 363.096 107.284C362.55 107.284 362.42 107.076 362.42 106.088V100.186C362.42 97.586 360.652 96.104 357.532 96.104C355.764 96.104 354.256 96.624 353.45 97.534C352.826 98.236 352.54 99.12 352.436 100.602H354.672ZM360.288 104.164C360.288 105.958 358.624 107.44 356.596 107.44C355.192 107.44 354.256 106.66 354.256 105.516C354.256 104.528 354.906 103.93 356.362 103.592L358.806 103.02C359.43 102.864 359.846 102.734 360.288 102.552V104.164ZM366.566 96.442V109H368.958V101.382C368.958 99.432 370.206 98.236 372.26 98.236C373.898 98.236 374.678 99.068 374.678 100.784V109H377.07V100.602C377.07 99.146 376.836 98.262 376.238 97.482C375.536 96.598 374.314 96.104 372.832 96.104C371.116 96.104 370.102 96.546 368.854 97.872V96.442H366.566ZM392.282 91.658H389.89V97.794C388.72 96.624 387.524 96.104 385.912 96.104C382.584 96.104 380.452 98.652 380.452 102.656C380.452 106.738 382.558 109.338 385.912 109.338C387.498 109.338 388.694 108.844 389.89 107.648V109H392.282V91.658ZM386.432 98.106C388.746 98.106 390.02 99.77 390.02 102.786C390.02 105.672 388.72 107.336 386.432 107.336C384.17 107.336 382.87 105.672 382.87 102.708C382.87 99.77 384.17 98.106 386.432 98.106ZM409.552 96.442H407.342V95.142C407.342 93.764 407.602 93.426 408.642 93.426C408.928 93.426 409.136 93.452 409.552 93.504V91.476C408.98 91.372 408.694 91.346 408.278 91.346C405.886 91.346 404.95 92.204 404.95 94.388V96.442H403.182V98.34H404.95V109H407.342V98.34H409.552V96.442ZM417.218 96.104C413.63 96.104 411.186 98.782 411.186 102.708C411.186 106.66 413.63 109.338 417.218 109.338C420.806 109.338 423.276 106.66 423.276 102.812C423.276 98.756 420.884 96.104 417.218 96.104ZM417.218 98.106C419.558 98.106 420.858 99.77 420.858 102.786C420.858 105.646 419.506 107.336 417.244 107.336C414.93 107.336 413.604 105.646 413.604 102.708C413.604 99.796 414.93 98.106 417.218 98.106ZM426.625 96.442V109H429.017V102.396C429.017 100.16 430.499 98.444 432.423 98.444C432.761 98.444 433.021 98.47 433.515 98.574V96.416C433.099 96.208 432.657 96.104 432.189 96.104C431.435 96.104 430.525 96.494 429.953 97.092C429.615 97.404 429.407 97.69 428.913 98.418V96.442H426.625ZM446.709 100.602C446.761 99.692 446.813 99.406 446.995 99.068C447.333 98.392 448.295 98.002 449.517 98.002C451.207 98.002 452.273 98.756 452.273 99.978C452.273 100.758 451.961 100.992 450.453 101.278L447.671 101.824C445.123 102.344 443.875 103.592 443.875 105.62C443.875 107.83 445.539 109.338 447.983 109.338C449.673 109.338 451.051 108.766 452.325 107.492C452.533 108.688 453.053 109.182 454.197 109.182C454.691 109.182 455.185 109.13 455.757 109V107.154C455.471 107.258 455.341 107.284 455.133 107.284C454.587 107.284 454.457 107.076 454.457 106.088V100.186C454.457 97.586 452.689 96.104 449.569 96.104C447.801 96.104 446.293 96.624 445.487 97.534C444.863 98.236 444.577 99.12 444.473 100.602H446.709ZM452.325 104.164C452.325 105.958 450.661 107.44 448.633 107.44C447.229 107.44 446.293 106.66 446.293 105.516C446.293 104.528 446.943 103.93 448.399 103.592L450.843 103.02C451.467 102.864 451.883 102.734 452.325 102.552V104.164ZM469.653 100.706C469.315 97.794 467.313 96.104 464.245 96.104C460.449 96.104 457.979 98.704 457.979 102.708C457.979 106.712 460.423 109.338 464.167 109.338C467.417 109.338 469.471 107.492 469.809 104.294H467.547C467.209 106.322 466.091 107.336 464.219 107.336C461.905 107.336 460.397 105.516 460.397 102.682C460.397 99.926 461.931 98.106 464.219 98.106C465.935 98.106 467.027 98.99 467.391 100.706H469.653ZM477.877 96.442H475.615V92.464H473.223V96.442H471.533V98.34H473.223V106.218C473.223 108.298 474.081 109.26 475.875 109.26C476.447 109.26 476.837 109.208 477.877 108.974V107.024C477.227 107.284 476.889 107.362 476.551 107.362C475.953 107.362 475.615 106.946 475.615 106.218V98.34H477.877V96.442ZM483.109 96.442H480.717V109H483.109V96.442ZM483.109 91.658H480.717V94.44H483.109V91.658ZM492.508 109L496.85 96.442H494.302L492.17 103.228C492.066 103.618 491.65 105.022 491.598 105.23L491.364 106.166C491.312 106.296 491.26 106.504 491.234 106.686C490.922 105.516 490.506 103.982 490.246 103.176L488.114 96.442H485.566L489.882 109H492.508ZM509.994 103.306C509.968 101.798 509.812 100.784 509.5 99.848C508.668 97.43 506.848 96.104 504.352 96.104C500.842 96.104 498.45 98.782 498.45 102.708C498.45 106.634 500.894 109.338 504.43 109.338C507.212 109.338 509.214 107.778 509.812 105.152H507.524C506.952 106.634 505.964 107.336 504.482 107.336C502.324 107.336 501.024 105.88 500.842 103.306H509.994ZM500.868 101.564C500.998 99.458 502.402 98.002 504.352 98.002C506.25 98.002 507.394 99.276 507.498 101.564H500.868ZM526.35 109L527.91 103.15L528.716 99.9C528.95 100.888 529.132 101.668 529.522 103.15L531.108 109H533.526L537.348 96.442H534.852L533.11 102.942C532.876 103.8 532.694 104.606 532.304 106.426C532.122 105.386 531.81 103.904 531.576 102.916L529.834 96.442H527.572L525.882 102.994L525.622 104.008C525.596 104.034 525.492 104.476 525.414 104.892C525.31 105.412 525.206 105.906 525.076 106.426C524.868 105.36 524.842 105.178 524.79 104.918C524.426 103.358 524.374 103.228 524.322 102.968L522.476 96.442H520.006L523.802 109H526.35ZM545.042 96.104C541.454 96.104 539.01 98.782 539.01 102.708C539.01 106.66 541.454 109.338 545.042 109.338C548.63 109.338 551.1 106.66 551.1 102.812C551.1 98.756 548.708 96.104 545.042 96.104ZM545.042 98.106C547.382 98.106 548.682 99.77 548.682 102.786C548.682 105.646 547.33 107.336 545.068 107.336C542.754 107.336 541.428 105.646 541.428 102.708C541.428 99.796 542.754 98.106 545.042 98.106ZM554.449 96.442V109H556.841V101.226C556.841 99.406 557.881 98.236 559.493 98.236C560.845 98.236 561.573 99.016 561.573 100.446V109H563.965V101.356C563.965 99.432 564.979 98.236 566.617 98.236C568.021 98.236 568.697 99.016 568.697 100.654V109H571.089V100.472C571.089 99.016 570.855 98.106 570.283 97.404C569.659 96.572 568.515 96.104 567.189 96.104C565.421 96.104 564.381 96.702 563.393 98.21C562.821 96.754 561.807 96.104 560.143 96.104C558.583 96.104 557.699 96.598 556.737 98.028V96.442H554.449ZM586.049 103.306C586.023 101.798 585.867 100.784 585.555 99.848C584.723 97.43 582.903 96.104 580.407 96.104C576.897 96.104 574.505 98.782 574.505 102.708C574.505 106.634 576.949 109.338 580.485 109.338C583.267 109.338 585.269 107.778 585.867 105.152H583.579C583.007 106.634 582.019 107.336 580.537 107.336C578.379 107.336 577.079 105.88 576.897 103.306H586.049ZM576.923 101.564C577.053 99.458 578.457 98.002 580.407 98.002C582.305 98.002 583.449 99.276 583.553 101.564H576.923ZM589.411 96.442V109H591.803V101.382C591.803 99.432 593.051 98.236 595.105 98.236C596.743 98.236 597.523 99.068 597.523 100.784V109H599.915V100.602C599.915 99.146 599.681 98.262 599.083 97.482C598.381 96.598 597.159 96.104 595.677 96.104C593.961 96.104 592.947 96.546 591.699 97.872V96.442H589.411ZM606.777 106.4H604.099V109H606.777V106.4Z" fill="#373737"/>
<path d="M7.61816 61.5005L28.7952 85.3247" stroke="#68AB8D" stroke-width="2"/>
<path d="M35.4131 45.6178L30.5342 88.0269" stroke="#68AB8D" stroke-width="2"/>
<path d="M34.7881 46.4896L6.29474 60.7789" stroke="#68AB8D" stroke-width="2"/>
<circle cx="6.95603" cy="60.8388" r="6.45603" fill="#68AB8D" stroke="#E4F3E9"/>
<circle cx="36.0742" cy="44.956" r="6.45603" fill="#68AB8D" stroke="#E4F3E9"/>
<circle cx="29.457" cy="85.9865" r="6.45603" fill="#68AB8D" stroke="#E4F3E9"/>
<path d="M687.542 86.5926C690.941 86.5926 692.195 90.5247 692.397 92.4907H696.646C697.05 91.3111 696.492 86.9124 698.467 86.5926C702.108 86.0028 707.985 83.2093 707.485 80.1046C706.985 77 702.638 79.361 703.322 77.7454C704.485 75 707.485 73.5 705.485 71C703.485 68.5 699.199 72.4491 697.985 69.5C696.858 66.7618 697.234 63 692.985 63C688.737 63 690.295 67.9925 688.149 70.0778C686.935 71.2574 683.066 67.4611 680.985 71C678.904 74.5389 682.686 75.9759 682.686 77.7454C682.686 79.5148 679.604 77.2093 679.045 80.1046C678.485 83 683.293 86.5926 687.542 86.5926Z" fill="#68AB8D"/>
<path d="M688.565 116.638C688.527 116.614 688.49 116.589 688.454 116.565C686.629 115.445 684.351 113.63 682.884 110.546C681.986 108.659 681.392 106.295 681.392 103.324C681.392 101.434 681.331 99.6193 682.229 97.3056C683.041 95.213 684.117 93.3468 686.1 91.889C687.976 90.5101 690.1 89.0001 693.985 89.0001C697.87 89.0001 700.902 89.7159 702.945 91.1451C705.085 92.6415 706.396 94.788 707.123 97.3056C707.655 99.1493 707.874 101.192 707.874 103.324C707.874 106.102 707.429 108.272 706.697 110.025C705.367 113.209 703.09 115.012 700.812 116.565C698.907 117.864 698.671 119.887 697.87 122.583C697.187 124.883 696.985 128 694.485 128C691.985 128 691.77 125.359 691.082 122.583C690.473 120.127 689.888 117.566 688.565 116.638Z" fill="#E4F3E9"/>
<path d="M681.392 103.324C681.392 106.295 681.986 108.659 682.884 110.546C684.351 113.63 686.629 115.445 688.454 116.565M681.392 103.324C684.485 107 696.193 108.5 703.485 105.5M681.392 103.324C681.392 101.434 681.331 99.6193 682.229 97.3056C683.041 95.213 684.117 93.3468 686.1 91.889M688.454 116.565C689.631 117.367 691.985 118 695.485 118M688.454 116.565C689.856 117.425 690.456 120.06 691.082 122.583C691.77 125.359 691.985 128 694.485 128C696.985 128 697.187 124.883 697.87 122.583M688.454 111.708C691.985 113 697.87 112.708 700.485 111.708M688.985 100C693.533 101.749 699.549 100.806 703.485 99.3301C705.175 98.6965 706.481 97.9647 707.123 97.3056M707.123 97.3056C707.655 99.1493 707.874 101.192 707.874 103.324C707.874 106.102 707.429 108.272 706.697 110.025C705.367 113.209 703.09 115.012 700.812 116.565C698.907 117.864 698.671 119.887 697.87 122.583M707.123 97.3056C706.396 94.788 705.085 92.6415 702.945 91.1451C700.902 89.7159 697.87 89.0001 693.985 89.0001C690.1 89.0001 687.976 90.5101 686.1 91.889M686.1 91.889C686.1 93.3861 692.777 95.3056 697.485 94.0001M694.485 123.5C694.985 123.5 696.985 123.5 697.87 122.583" stroke="#68AB8D" stroke-width="2" stroke-linecap="round"/>
<path d="M176.913 179.38H182.625C183.465 179.38 184.165 179.147 184.725 178.68C185.285 178.195 185.565 177.504 185.565 176.608C185.565 175.6 185.313 174.891 184.809 174.48C184.305 174.069 183.577 173.864 182.625 173.864H176.913V179.38ZM173.413 171.008H183.129C184.921 171.008 186.358 171.419 187.441 172.24C188.524 173.061 189.065 174.303 189.065 175.964C189.065 176.972 188.813 177.84 188.309 178.568C187.824 179.277 187.124 179.828 186.209 180.22V180.276C187.441 180.537 188.374 181.125 189.009 182.04C189.644 182.936 189.961 184.065 189.961 185.428C189.961 186.212 189.821 186.949 189.541 187.64C189.261 188.312 188.822 188.9 188.225 189.404C187.628 189.889 186.862 190.281 185.929 190.58C184.996 190.86 183.885 191 182.597 191H173.413V171.008ZM176.913 188.144H183.101C184.165 188.144 184.986 187.873 185.565 187.332C186.162 186.772 186.461 185.988 186.461 184.98C186.461 183.991 186.162 183.235 185.565 182.712C184.986 182.171 184.165 181.9 183.101 181.9H176.913V188.144Z" fill="#68AB8D"/>
<path d="M189.295 191.744C189.511 191.744 189.721 191.726 189.925 191.69C190.129 191.654 190.312 191.594 190.474 191.51C190.642 191.426 190.783 191.318 190.897 191.186C191.017 191.054 191.095 190.892 191.131 190.7H191.968V197H190.843V192.554H189.295V191.744ZM198.652 197H194.35C194.356 196.478 194.482 196.022 194.728 195.632C194.974 195.242 195.31 194.903 195.736 194.615C195.94 194.465 196.153 194.321 196.375 194.183C196.597 194.039 196.801 193.886 196.987 193.724C197.173 193.562 197.326 193.388 197.446 193.202C197.566 193.01 197.629 192.791 197.635 192.545C197.635 192.431 197.62 192.311 197.59 192.185C197.566 192.053 197.515 191.933 197.437 191.825C197.359 191.711 197.251 191.618 197.113 191.546C196.975 191.468 196.795 191.429 196.573 191.429C196.369 191.429 196.198 191.471 196.06 191.555C195.928 191.633 195.82 191.744 195.736 191.888C195.658 192.026 195.598 192.191 195.556 192.383C195.52 192.575 195.499 192.782 195.493 193.004H194.467C194.467 192.656 194.512 192.335 194.602 192.041C194.698 191.741 194.839 191.483 195.025 191.267C195.211 191.051 195.436 190.883 195.7 190.763C195.97 190.637 196.282 190.574 196.636 190.574C197.02 190.574 197.341 190.637 197.599 190.763C197.857 190.889 198.064 191.048 198.22 191.24C198.382 191.432 198.496 191.642 198.562 191.87C198.628 192.092 198.661 192.305 198.661 192.509C198.661 192.761 198.622 192.989 198.544 193.193C198.466 193.397 198.361 193.586 198.229 193.76C198.097 193.928 197.947 194.084 197.779 194.228C197.611 194.372 197.437 194.507 197.257 194.633C197.077 194.759 196.897 194.879 196.717 194.993C196.537 195.107 196.369 195.221 196.213 195.335C196.063 195.449 195.931 195.569 195.817 195.695C195.703 195.815 195.625 195.944 195.583 196.082H198.652V197Z" fill="#68AB8D"/>
<rect x="160" y="161" width="46" height="43" rx="4" stroke="#68AB8D" stroke-width="2" stroke-dasharray="3 3"/>
<path d="M524.59 144.51L524.304 144H523.719L515.281 144H514.696L514.41 144.51L510.191 152.01L509.915 152.5L510.191 152.99L514.41 160.49L514.696 161H515.281L523.719 161H524.304L524.59 160.49L528.809 152.99L529.085 152.5L528.809 152.01L524.59 144.51Z" stroke="#68AB8D" stroke-width="2"/>
<path d="M524.59 161.385L524.304 160.875H523.719L515.281 160.875H514.696L514.41 161.385L510.191 168.885L509.915 169.375L510.191 169.865L514.41 177.365L514.696 177.875H515.281L523.719 177.875H524.304L524.59 177.365L528.809 169.865L529.085 169.375L528.809 168.885L524.59 161.385Z" stroke="#68AB8D" stroke-width="2"/>
<path d="M538.653 169.822L538.366 169.313H537.781L529.344 169.312H528.759L528.472 169.822L524.253 177.322L523.978 177.812L524.253 178.303L528.472 185.803L528.759 186.312H529.344L537.781 186.312H538.366L538.653 185.803L542.872 178.303L543.147 177.812L542.872 177.322L538.653 169.822Z" stroke="#68AB8D" stroke-width="2"/>
<path d="M510.528 169.822L510.241 169.313H509.656L501.219 169.312H500.634L500.347 169.822L496.128 177.322L495.853 177.812L496.128 178.303L500.347 185.803L500.634 186.312H501.219L509.656 186.312H510.241L510.528 185.803L514.747 178.303L515.022 177.812L514.747 177.322L510.528 169.822Z" stroke="#68AB8D" stroke-width="2"/>
<path d="M510.528 152.947L510.241 152.438H509.656L501.219 152.438H500.634L500.347 152.947L496.128 160.447L495.853 160.938L496.128 161.428L500.347 168.928L500.634 169.437H501.219L509.656 169.438H510.241L510.528 168.928L514.747 161.428L515.022 160.938L514.747 160.447L510.528 152.947Z" stroke="#68AB8D" stroke-width="2"/>
<path d="M524.59 178.26L524.304 177.75H523.719L515.281 177.75H514.696L514.41 178.26L510.191 185.76L509.915 186.25L510.191 186.74L514.41 194.24L514.696 194.75H515.281L523.719 194.75H524.304L524.59 194.24L528.809 186.74L529.085 186.25L528.809 185.76L524.59 178.26Z" stroke="#68AB8D" stroke-width="2"/>
<path d="M538.653 152.947L538.366 152.438H537.781L529.344 152.438H528.759L528.472 152.947L524.253 160.447L523.978 160.938L524.253 161.428L528.472 168.928L528.759 169.437H529.344L537.781 169.438H538.366L538.653 168.928L542.872 161.428L543.147 160.938L542.872 160.447L538.653 152.947Z" stroke="#68AB8D" stroke-width="2"/>
<path d="M376 13.5C376 16.5376 369.732 19 362 19C354.268 19 348 16.5376 348 13.5C348 10.4624 354.268 8 362 8C369.732 8 376 10.4624 376 13.5Z" fill="#68AB8D"/>
<path fill-rule="evenodd" clip-rule="evenodd" d="M379.489 4.5088C382.819 7.13031 383.727 10.2332 383.727 11.8483V14.9228C383.882 14.9601 384.053 15.0051 384.237 15.0592C385.045 15.2956 386.13 15.7099 387.236 16.425C389.484 17.8785 391.748 20.5398 391.983 25.2307C392.221 29.9774 389.924 32.7775 387.573 34.3421C386.415 35.1122 385.252 35.5818 384.383 35.8594C384.089 35.9534 383.826 36.0262 383.605 36.0815C383.541 36.4341 383.447 36.8967 383.317 37.4096C383.038 38.5083 382.567 39.9601 381.802 41.0289C379.759 43.8811 376.481 45.6977 372.805 46.7558C369.12 47.8165 364.94 48.1439 360.949 47.9449C356.966 47.7463 353.299 47.0832 350.309 45.9473C347.335 44.8173 344.924 43.1773 343.622 40.9515C342.782 39.5169 342.185 37.6363 341.741 35.5347C341.295 33.4214 340.992 31.021 340.773 28.5092C340.459 24.9122 340.313 21.0229 340.176 17.3653C340.123 15.9285 340.07 14.5274 340.009 13.1938C339.809 8.80467 342.825 5.54163 346.818 3.41389C350.832 1.27521 356.078 0.129492 360.976 0.0159406C370.465 -0.204093 376.152 1.8823 379.489 4.5088ZM382.578 34.258L382.588 34.2565C382.599 34.2546 382.618 34.2514 382.644 34.2466C382.696 34.237 382.777 34.2211 382.883 34.1976C383.094 34.1504 383.403 34.073 383.774 33.9542C384.521 33.7156 385.504 33.3166 386.465 32.677C388.35 31.4224 390.182 29.2395 389.986 25.3309C389.786 21.3557 387.922 19.2506 386.15 18.1043C385.246 17.5194 384.348 17.1755 383.676 16.9786C383.341 16.8806 383.065 16.8201 382.879 16.7848C382.785 16.7672 382.714 16.7558 382.67 16.7492C382.647 16.7459 382.631 16.7438 382.622 16.7427L382.617 16.742L382.616 16.7418L382.615 16.7417L381.727 16.6434V11.8483C381.727 10.8636 381.114 8.3335 378.252 6.08034C375.396 3.83216 370.219 1.80215 361.022 2.0154C356.361 2.12348 351.437 3.2192 347.759 5.17901C344.06 7.14974 341.859 9.84221 342.007 13.1028C342.07 14.4712 342.123 15.8939 342.177 17.3433C342.313 20.9827 342.456 24.7911 342.765 28.3354C342.981 30.8066 343.275 33.1184 343.698 35.1215C344.123 37.1363 344.666 38.7763 345.348 39.9416C346.327 41.6156 348.262 43.0303 351.019 44.0777C353.76 45.1192 357.209 45.756 361.049 45.9474C364.88 46.1384 368.83 45.8189 372.252 44.8338C375.683 43.8461 378.49 42.218 380.176 39.8642C380.714 39.1126 381.113 37.9645 381.378 36.9185C381.506 36.4111 381.597 35.9563 381.655 35.629C381.683 35.4657 381.704 35.3352 381.717 35.2469C381.724 35.2028 381.729 35.1693 381.732 35.1476L381.735 35.1241L381.736 35.1193L381.832 34.3706L382.576 34.2584L382.578 34.258ZM350.09 5.35432C353.552 3.82936 357.835 3.0488 361.433 3.0488C365.914 3.0488 370.413 4.0519 373.879 5.75176C377.282 7.42094 379.985 9.92237 380.247 13.0649C380.557 16.7663 377.845 19.2182 374.28 20.6813C370.681 22.1583 365.846 22.8144 360.999 22.8144C356.118 22.8144 351.719 21.9324 348.549 20.2617C345.374 18.5883 343.262 16.0081 343.487 12.6482C343.715 9.23647 346.7 6.84724 350.09 5.35432ZM350.896 7.18469C347.644 8.61659 345.631 10.5604 345.483 12.7817C345.331 15.0547 346.696 17.0243 349.482 18.4923C352.272 19.963 356.319 20.8144 360.999 20.8144C365.712 20.8144 370.257 20.1705 373.521 18.831C376.818 17.4776 378.452 15.5965 378.254 13.2316C378.083 11.177 376.222 9.12868 372.998 7.54742C369.836 5.99684 365.644 5.0488 361.433 5.0488C358.078 5.0488 354.074 5.78483 350.896 7.18469ZM381.727 19.5144H382.727C385.013 19.5144 388.073 21.673 388.073 25.7141C388.073 27.4191 387.582 28.8776 386.608 29.9181C385.628 30.9652 384.26 31.4805 382.727 31.4805H381.727V19.5144ZM383.727 21.7479V29.3643C384.318 29.2164 384.79 28.9334 385.148 28.5514C385.695 27.9669 386.073 27.0423 386.073 25.7141C386.073 23.5026 384.843 22.2352 383.727 21.7479Z" fill="#68AB8D"/>
</svg>
