<svg xmlns="http://www.w3.org/2000/svg" viewBox="0 0 164.41 30.12"><g id="b514df0d-3db5-4304-ab5d-3e0262c20e3a" data-name="Layer 2"><g id="e71210c7-c4c9-4323-86b5-2131d957aa1b" data-name="ART"><path d="M10.23,8.83a10.53,10.53,0,0,0,.32,21,9.62,9.62,0,0,0,8.9-6.1.65.65,0,0,0,0-.11h0a13.19,13.19,0,0,1-4.53,1.68,7.49,7.49,0,0,1-4.62-.53C9,24.18,7.44,22.71,7.14,19.38c-.22-2.38.37-4.79,1.46-6a2.62,2.62,0,0,1,2-.92c1.41,0,2.39,1.34,2.39,3.25,0,.29,0,.54,0,.76a2,2,0,0,0,0,.61,5.84,5.84,0,0,0,2.44.5,3.31,3.31,0,0,0,2.41-1,3.64,3.64,0,0,0,1-2.55C18.79,10.45,14.36,8.83,10.23,8.83Z" style="fill:#e2f5f7"/><path d="M21.81,17.36c0,2.48-.26,10.12-.31,11.67H29V18.61c0-2.43.14-5,1.83-5,1.31,0,1.31,1.63,1.31,2.24,0,.29,0,.51,0,.69,0,.34,0,.4,0,.5l0,0a2.66,2.66,0,0,0,1.62.57,4.41,4.41,0,0,0,4.58-4.74,3.78,3.78,0,0,0-4-4.05c-1.78,0-3.65,1.65-4.65,4.11l-.54,1.18-.34-1.26a4.82,4.82,0,0,0-4.95-4c-1.41,0-3.88,1-4.43,2.52l.15.08C20.74,12.07,21.81,13.23,21.81,17.36Z" style="fill:#e2f5f7"/><path d="M60.16,21.39c0-2.49.22-10.17.27-11.71h-7.5V14l-.86-1.56a6.33,6.33,0,0,0-5.6-3.59c-5,0-7.65,5.26-7.65,10.46,0,6.85,3.84,10.55,7.44,10.55,3.23,0,5.12-2.7,6-4.31l.62-1.19.24,1.32a4.89,4.89,0,0,0,5,4.22c2.16,0,4.07-1.52,4.39-2.53l-.14-.08C61.22,26.67,60.16,25.51,60.16,21.39ZM49.69,25.24c-2.12,0-3.48-2.32-3.48-5.91s1.36-5.94,3.48-5.94,3.49,2.33,3.49,5.94S51.81,25.24,49.69,25.24Z" style="fill:#e2f5f7"/><path d="M73.38,0C70,0,68,1.27,67,2.34c-1.49,1.58-2.18,3.88-2,6.85l0,.49H62.51v2.86h2.42V29h7.18V12.54h5.53V9.68H72.07L72,9.39c-.57-1.34-1.78-4.63-.73-6.22A2,2,0,0,1,73,2.3c1.24,0,2,1,2,2.56a5.77,5.77,0,0,1-.25,1.71l-.08.29a6,6,0,0,0,2.49.52,3.35,3.35,0,0,0,2.4-1,3,3,0,0,0,.85-2.16C80.42,1.75,77.52,0,73.38,0Z" style="fill:#e2f5f7"/><path d="M88.92,9.21c0-2.63,0-4.92,0-5.83l-7.19,3V9.68H79.48v2.86H81.7V24.25a5.58,5.58,0,0,0,2.52,5,7.1,7.1,0,0,0,3.36.86c2.79,0,5.62-1.47,6.59-3.41v0a.47.47,0,0,0,.09-.33.46.46,0,0,0-.21,0l-.72,0c-1.52.09-3.82.24-4.33-3v0A12.86,12.86,0,0,1,88.92,22v-9.5h5V9.68h-5Z" style="fill:#e2f5f7"/><path d="M95.09,11.4c1.15.64,2.21,1.8,2.21,5.92,0,2.49-.22,10.16-.27,11.71h7.5V18.45c0-3.06,1.51-5,2.9-5a1.55,1.55,0,0,1,1.34.79,3.79,3.79,0,0,1,.47,2c0,.29,0,.59,0,.89,0,.65,0,1.33,0,2,0,2.3,0,8.51,0,9.84h7.5c0-1.3-.31-7.52-.31-9.86v-.72c0-3.06,1.51-5,2.91-5a1.55,1.55,0,0,1,1.33.79,3.79,3.79,0,0,1,.47,2v7.82a5.67,5.67,0,0,0,1.62,4.16,5.45,5.45,0,0,0,3.85,1.51,5.24,5.24,0,0,0,4.43-2.48l-.21-.11c-1.28-.65-2.47-1.82-2.47-5.94V15c0-3.59-2.14-6.19-5.1-6.19-1,0-4.2.33-6.15,4.53l-.58,1.24-.29-1.34c-.58-2.69-2.51-4.43-4.91-4.43-1.91,0-4.5,1.15-6.08,4.38l-.6,1.23-.27-1.35a4.91,4.91,0,0,0-5.07-4.26c-2.16,0-4.07,1.52-4.39,2.53Z" style="fill:#e2f5f7"/><path d="M135.81,6.78c2.34,0,4.25-1.48,4.25-3.29S138.11.2,135.81.2s-4.22,1.48-4.22,3.29S133.48,6.78,135.81,6.78Z" style="fill:#e2f5f7"/><path d="M135.2,8.79c-1.41,0-3.88,1-4.43,2.52l.16.08c1.16.64,2.23,1.8,2.23,5.93,0,2.48-.26,10.16-.31,11.71h7.5V14.46C140.35,11,138.33,8.79,135.2,8.79Z" style="fill:#e2f5f7"/><path d="M158.08,19.05c2.92-.65,6.33-2.5,6.33-5.56,0-2.61-2.06-4.5-4.9-4.5a4.63,4.63,0,0,0-3.19,1.25,1.72,1.72,0,0,0-.54,1l.25.32c.71.9,2,2.56,1.6,3.88a2,2,0,0,1-1.54,1.27l-.32.1-4.7-7.13H143l6.6,9.43-.67.15c-4.55,1-6.61,3.06-6.45,6.38.11,2.6,2.05,4.28,4.94,4.28a4.58,4.58,0,0,0,3.17-1.26,1.71,1.71,0,0,0,.56-1.05l-.3-.42c-.73-1-1.95-2.66-1.47-4a2.19,2.19,0,0,1,1.67-1.32l.32-.08L156.06,29h8.26l-6.91-9.83Z" style="fill:#e2f5f7"/></g></g></svg>