<svg id="e33bbcf7-8798-4773-8e06-5af08b1a6e14" data-name="Layer 1" xmlns="http://www.w3.org/2000/svg" viewBox="0 0 300 120"><path d="M35.68,47.72c.6-1.69-1.51-1.17-1.78-2.62-.31-1.65,2.18-2.12,3.8-2.42s4-.75,4.31,1c.29,1.53-1.31,1.67-2,3.46l-4.88,14,1,5.27c.28,1.49,2.25,1.09,2.53,2.57.19,1.05-.46,1.55-1.81,1.93a19.15,19.15,0,0,1-2.66.7,24.15,24.15,0,0,1-2.94.35c-1.39.13-2.18-.1-2.38-1.14-.28-1.49,1.7-1.82,1.42-3.31l-.73-3.91L19.28,51.38c-1.34-1.58-3.12-1.29-3.41-2.82-.19-1,.71-1.8,1.84-2l2.13-.4c3.06-.58,4.88,2,5.6,3L31.78,57a.58.58,0,0,0,.42.21c.12,0,.22-.17.31-.35Z" style="fill:#ff6b00"/><path d="M44.47,38.11A3.45,3.45,0,0,1,49,40.58a7.19,7.19,0,0,1-2.64,8,3.39,3.39,0,0,1-1,.52c-.76.2-1-.24-.76-.82s1.64-2.7,1.23-4c-.41-1.45-2.08-.56-3.06-2.72A2.61,2.61,0,0,1,44.47,38.11Z" style="fill:#ff6b00"/><path d="M53.73,61.57c-1.4-5,5.74-8.47,9.83-10.27a.49.49,0,0,0,.29-.63l-.25-.87c-.72-2.56-2-3.92-3.88-3.37-2.09.59-2.32,3-3.17,4.47a3.19,3.19,0,0,1-1.92,1.48,2.27,2.27,0,0,1-3-1.46c-.72-2.57,3.14-5.62,7.4-6.82s8.7-.54,10.1,4.43l2.23,7.89c.73,2.6,2.08,1.33,2.9,2s-.23,3.09-2.72,3.79a3.56,3.56,0,0,1-4-1.21c-.12-.14-.23-.2-.3-.17a.43.43,0,0,0-.23.27,8,8,0,0,1-5.19,4.06C58.85,66,54.91,65.75,53.73,61.57Zm9.48,0a3.63,3.63,0,0,0,2.66-3.68l-1.1-3.91c-.09-.31-.26-.31-.53-.23-2.11,1-5.56,2.93-4.88,5.63A3,3,0,0,0,63.21,61.53Z" style="fill:#ff6b00"/><path d="M82.34,54.14c.53,1.9,2.46,1.06,2.86,2.48.26,1-.29,1.4-1.47,1.9a16.72,16.72,0,0,1-2.75,1,20.64,20.64,0,0,1-3,.64c-1.22.21-1.94.07-2.2-.88-.4-1.42,1.69-1.7,1.16-3.6L71.24,35.42c-.45-1.62-2.52-1.25-3-2.83-.25-.91.34-1.67,1.76-2.07l2-.56c2-.56,3.55.07,4.13,2.17Z" style="fill:#ff6b00"/><path d="M92.76,51.42c.48,1.91,2.44,1.11,2.8,2.54.24.95-.32,1.39-1.51,1.87a16.66,16.66,0,0,1-2.77.91,19.77,19.77,0,0,1-3.07.57c-1.22.19-1.94,0-2.18-.92-.36-1.43,1.73-1.67,1.25-3.58L82.1,32.45c-.42-1.63-2.49-1.32-2.9-2.9-.23-.92.38-1.66,1.81-2L83,27c2-.52,3.55.15,4.08,2.26Z" style="fill:#ff6b00"/><path d="M110.65,47.73c-.33,1.59,1.64,1.2,1.87,2.7s-2,2-3.6,2.21l-.44.07c-1.58.24-3.89.6-4.17-1.18-.23-1.54,1.61-1.7,1.93-3.37l4.22-20.37c.47-2.07,1-3.48,3-3.78l2.19-.33c1.17-.18,2.13.13,3.26,2.07l11,18.33c1,1.59,3,1.48,3.23,3,.18,1.14-.88,1.84-1.89,2l-2.55.39c-2.88.44-4.37-2.27-5.43-4l-.9-1.57a.69.69,0,0,0-.67-.31l-10,1.54a.64.64,0,0,0-.54.5Zm9-7.64c.28,0,.34-.22.22-.45l-5.32-9c-.11-.15-.2-.22-.29-.21s-.15.06-.2.28l-2,10.14c-.05.25.07.44.35.4Z" style="fill:#ff6b00"/><path d="M145.29,27.32c2.62-.2,4.26.82,4.42,2.9a2.77,2.77,0,0,1-2.85,3.1c-1.88.1-3.05-.71-4-.64a1.44,1.44,0,0,0-.68.22c-.74.55-1.32,2.07-1.42,4.05l.52,6.78c.15,1.92,2.21,1.52,2.32,3,.08,1-.55,1.35-1.81,1.61a20.51,20.51,0,0,1-2.88.43,24.81,24.81,0,0,1-3.12,0c-1.24-.07-1.92-.34-2-1.32-.11-1.43,2-1.35,1.84-3.27l-.81-10.62c-.13-1.67-2.23-1.76-2.36-3.39-.06-.9.71-1.53,2.38-1.66l1.84-.14a3.18,3.18,0,0,1,2.86,1.34c.19.4.41,1.65.56,2,.06.12.1.2.18.19s.08-.08.11-.17C141,29.49,142.47,27.53,145.29,27.32Z" style="fill:#ff6b00"/><path d="M163,43.82c2.25-.06,4-1.35,5.71-3.32a1.56,1.56,0,0,1,1.05-.61c.53,0,.88.47.5,1.59-1.47,4.26-4.62,6-8.79,6.16-5.16.15-9.3-2.59-10.49-8.13-1.33-6.15,2.42-12.41,9.45-12.86,3.53-.11,6.87.65,8.65,4,1.3,2.42.42,4.46-2.21,5.8l-8.31,4.23c-.28.17-.4.46-.19.7A4.83,4.83,0,0,0,163,43.82ZM162,35.2c1.66-.78,2.49-1.67,1.67-3.12a4.27,4.27,0,0,0-3.8-2.43,3.52,3.52,0,0,0-1.06.2c-2.88.82-3.44,4.2-2.52,7.53a.48.48,0,0,0,.46.36.55.55,0,0,0,.21-.05Z" style="fill:#ff6b00"/><path d="M96.89,75l18.83-4.36c2.6-.6,4,.2,4.42,1.83l.11.48a2.11,2.11,0,0,1-1.5,2.79c-1.91.44-2.54-1-4.3-.6l-3.87.9a.41.41,0,0,0-.34.54l4.15,17.87c.34,1.48,2.24,1,2.59,2.47.24,1-.4,1.56-1.73,2a21.72,21.72,0,0,1-2.62.82,25.48,25.48,0,0,1-2.92.46c-1.39.2-2.19,0-2.43-1-.34-1.48,1.62-1.89,1.28-3.37L104.42,78a.41.41,0,0,0-.54-.34l-3.91.91c-1.72.39-1.69,2-3.6,2.43a2.11,2.11,0,0,1-2.57-1.85l-.11-.48C93.31,77,94.29,75.64,96.89,75Z" style="fill:#ff6a00"/><path d="M128.66,75.37c5.67-.9,10.77,1.49,11.92,8.73s-3,11.12-8.62,12S121.19,94.64,120,87.36,123,76.28,128.66,75.37Zm0,2.78-.4.07c-2.55.65-3.52,3.21-2.08,8.58,1.34,5.06,3.38,6.93,5.76,6.55l.41-.06c2.6-.62,3.52-3.18,2.12-8.59C133.12,79.64,131.08,77.77,128.65,78.15Z" style="fill:#ff6a00"/><path d="M151.71,72.57c5.72-.49,10.64,2.25,11.27,9.55s-3.74,10.9-9.46,11.39-10.64-2.25-11.27-9.59S146,73.07,151.71,72.57Zm-.21,2.77-.41,0c-2.59.47-3.73,3-2.68,8.41,1,5.14,2.88,7.16,5.28,6.95l.41,0c2.64-.44,3.74-2.92,2.73-8.42C155.85,77.15,154,75.13,151.5,75.34Z" style="fill:#ff6a00"/><path d="M176.72,64.37h2.09c2.21,0,3.48,1.12,3.5,3.3l.06,9.21c0,.25.12.41.29.41a.81.81,0,0,0,.28-.09c3.72-1.94,6.44-4.54,7.57-7.38.89-2.29-.75-2.16-.76-3.88,0-1.56,2-1.65,3.35-1.66,1.76,0,4.18.22,4.15,2.55-.18,3.73-3.23,7.68-7.38,10.86a.6.6,0,0,0-.08.9l6.15,7.79c1.94,2.4,3.83,2.23,3.83,3.62,0,.78-1.66,1.93-4.12,2s-3.37-1.17-5.35-3.86l-4.54-6.15c-.42-.53-.62-.82-1-.82l-.37.09a18,18,0,0,1-2,.91l0,4.92c0,1.55,1.73,1.54,1.74,3.1,0,1.1-.73,1.56-1.87,1.65a19.55,19.55,0,0,1-5.65,0c-1.4-.11-2.14-.47-2.14-1.54,0-1.51,2-1.49,2-3L176.38,70c0-2-2.1-2.32-2.11-4C174.26,65.08,175,64.38,176.72,64.37Z" style="fill:#ff6a00"/><path d="M208.36,87.44c-.06,1.93,2,1.75,2,3.18,0,1-.69,1.29-2,1.41a21,21,0,0,1-2.91.12,27.07,27.07,0,0,1-3.11-.31c-1.22-.2-1.86-.55-1.83-1.53,0-1.43,2.12-1.12,2.18-3l.34-10.64c0-1.68-2-2-2-3.63,0-.9.83-1.45,2.3-1.4l2.09.07c2.09.06,3.37,1.13,3.3,3.26ZM205.93,62c2.29.07,3.77,1.47,3.7,3.52s-1.62,3.35-3.91,3.27-3.81-1.47-3.75-3.51S203.64,61.93,205.93,62Z" style="fill:#ff6a00"/><path d="M227.16,72.48c4.37.33,6.76,3,6.43,7.31l-.69,9c-.15,2,1.63,1.85,1.52,3.36-.09,1.06-.73,1.38-1.71,1.43a26.39,26.39,0,0,1-3,0,24.07,24.07,0,0,1-3.05-.44c-1.21-.25-1.84-.63-1.76-1.69.11-1.51,2.18-1.07,2.33-3.07l.55-7.27c.22-3-.8-4.7-2.92-4.87-3-.22-5.14,5-5.5,7.48l-.3,4c-.15,2,1.62,1.85,1.51,3.36-.08,1.06-.72,1.38-1.71,1.43a24.23,24.23,0,0,1-3,0,26.35,26.35,0,0,1-3.05-.43c-1.21-.26-1.84-.64-1.76-1.62.1-1.43,2.17-1,2.32-2.94l.8-10.67c.13-1.63-1.94-2-1.81-3.67.06-.89.93-1.4,2.6-1.28l1.84.14a3.27,3.27,0,0,1,3,2.24c0,.37,0,1.48,0,1.93,0,.13.07.22.15.22s.12,0,.21-.15A7.62,7.62,0,0,1,227.16,72.48Z" style="fill:#ff6a00"/><path d="M247.61,74.83a6,6,0,0,1,4.29,2.31.69.69,0,0,0,.31.17c.2,0,.3-.12.35-.45l.94-6.19c.25-1.66-1.79-2.18-1.54-3.8.14-.93,1.08-1.37,2.74-1.12l1.78.27a3.23,3.23,0,0,1,2.88,3.67L256,92c-.28,1.87,1.76,2.09,1.53,3.63-.21,1.38-1.54,1.38-2.59,1.23a4.6,4.6,0,0,1-3.55-2.53A.52.52,0,0,0,251,94a.65.65,0,0,0-.53.21A6,6,0,0,1,245,95.69c-5.63-.85-9.9-4.69-8.8-11.94S242.51,74.06,247.61,74.83Zm-5.38,10.08c-.29,3.06-.22,7.76,3.67,8.34,2.21.21,4.13-1.57,4.87-4.52l.74-4.9c0-4.19-1.35-5.88-3.7-6.23l-.4-.06C244.87,77.36,242.78,79.36,242.23,84.91Z" style="fill:#ff6a00"/><path d="M263.19,92.89a3,3,0,1,1-3.79,2.25A2.94,2.94,0,0,1,263.19,92.89Zm2.68-4.71c-.45,1.12-1,1.85-2.1,1.61s-1.36-1.13-1.31-2.33l1-12.15c.15-2.86,2-4.64,4.39-4.14s3.31,3,2.3,5.56Z" style="fill:#ff6a00"/></svg>