<svg id="b2647a01-e58f-47dc-965e-2ce65deefb7d" data-name="Layer 1" xmlns="http://www.w3.org/2000/svg" viewBox="0 0 330 120"><path d="M17.48,63.62c-.22-1.32,1.57-1.62,1.35-2.9L16.14,45c-.29-1.71-2.1-1.52-2.36-3-.14-.84.45-1.58,2.2-1.88l9.66-1.65c4.52-.78,8.75.64,9.55,5.35a4.86,4.86,0,0,1-2.29,5.46c3.15.21,5.66,1.5,6.24,4.9.87,5.1-3,7.64-8.37,8.56l-11.12,1.9C18.37,64.85,17.65,64.56,17.48,63.62Zm5.31-13.94,2.56-.44c2.55-.43,4.75-1.6,4.25-4.52s-2.71-3.36-5-3l-1.72.29c-1.31.23-1.63.81-1.38,2.23l.86,5.07A.38.38,0,0,0,22.79,49.68Zm2.39,10.67A27.73,27.73,0,0,0,28.61,60c2.88-.49,5.23-1.68,4.68-4.89s-4.18-3.37-6.95-2.9l-3,.52a.37.37,0,0,0-.33.47L24,59C24.12,59.81,24.59,60.37,25.18,60.35Z" style="fill:#ff5e00"/><path d="M38.9,43.86c-.21-.79.37-1.48,1.83-1.88l1.61-.43a2.91,2.91,0,0,1,3.71,2l2.11,7.82c.7,2.57,2,3.75,3.8,3.27,2.5-.68,2.67-5.71,2.23-7.93l-.91-3.36c-.4-1.46-2.28-1.18-2.66-2.61-.21-.75.26-1.45,1.58-1.81l1.86-.5a2.94,2.94,0,0,1,3.74,1.94l2.86,10.57c.39,1.47,2.23,1.16,2.61,2.59.23.82-.35,1.52-1.82,1.91l-1.6.44a3,3,0,0,1-3.39-1.31c-.2-.48-.49-1.25-.62-1.44a4.29,4.29,0,0,0-.35.67,6.55,6.55,0,0,1-4.35,4.74c-3.72,1-6.48-.55-7.49-4.3l-2.09-7.72C41.17,45,39.29,45.29,38.9,43.86Z" style="fill:#ff5e00"/><path d="M60.3,36.55c.71-.2,1-.26,1.55-.36a.3.3,0,0,0,.26-.42l-.88-3.14c-.36-1.28,2-2.89,3.27-3.69a1.05,1.05,0,0,1,.31-.12c.5-.14.76.24.91.78l1.39,4.91a.31.31,0,0,0,.44.22,33.36,33.36,0,0,1,3.25-1.14c1.61-.46,2.42,2.43.82,2.88a29.28,29.28,0,0,1-3.39.65.3.3,0,0,0-.27.42l2.6,9.23c.56,2,1.2,2.46,1.84,2.28.89-.25,1.86-1.83,2.79-2.09a.89.89,0,0,1,.46,0c1.36.46.86,4.4-3.45,5.62-2.14.6-5.14.72-6.44-3.88l-2.7-9.58a.31.31,0,0,0-.45-.22c-.31.13-.73.29-1.5.54C59.63,39.89,58.73,37,60.3,36.55Z" style="fill:#ff5e00"/><path d="M84.65,23.06l1.83-.29c2.59-.41,4,2,4.91,3.65l6.43,12.86c.06.17.15.23.26.22s.17-.1.18-.29l1.49-12.48a1.5,1.5,0,0,0-.16-.8l-.26-.49c-.75-1.45-2.68-1.34-2.89-2.69-.16-1,.79-1.66,1.66-1.79l1.87-.3c2.56-.4,4,2,4.88,3.66l6.4,13c.06.14.15.2.22.19s.13-.09.15-.25l1.54-14.58c.12-1.4-1.37-1.1-1.57-2.41s1.7-1.81,3.13-2l.4-.06c1.42-.22,3.47-.54,3.72,1.07.22,1.38-1.52,1.54-1.7,3L115,40.41c-.19,1.91-.9,3.14-2.65,3.41l-1.5.24c-1.06.16-2-.06-2.95-1.86l-4.46-8.63c-.15-.28-.28-.37-.35-.36s-.17.14-.23.45l-1.17,8.83c-.19,1.9-.9,3.14-2.65,3.41l-1.57.25c-1.06.16-2-.06-3-1.87L85.87,27.54c-.78-1.44-2.68-1.34-2.89-2.69C82.82,23.83,83.77,23.19,84.65,23.06Z" style="fill:#ff5e00"/><path d="M121.52,38c-.26-4.65,6.72-6.35,10.67-7.14a.44.44,0,0,0,.38-.5l0-.81c-.14-2.41-1-3.84-2.78-3.74s-2.62,2.16-3.66,3.33a2.89,2.89,0,0,1-2,.93,2,2,0,0,1-2.33-1.87c-.14-2.4,3.87-4.33,7.86-4.57s7.78,1.22,8.05,5.88l.42,7.39c.14,2.43,1.58,1.57,2.18,2.32s-.81,2.68-3.14,2.81a3.19,3.19,0,0,1-3.29-1.85q-.14-.21-.24-.21a.44.44,0,0,0-.25.2A7.21,7.21,0,0,1,128,42.72C125.18,42.89,121.75,41.9,121.52,38Zm8.38,1.82A3.29,3.29,0,0,0,133,37.06l-.21-3.66c0-.29-.17-.32-.43-.3-2,.45-5.47,1.5-5.4,4A2.72,2.72,0,0,0,129.9,39.8Z" style="fill:#ff5e00"/><path d="M149.15,37.48c0,1.73,1.91,1.48,1.93,2.78,0,.89-.57,1.19-1.72,1.36a19.26,19.26,0,0,1-2.62.22,22,22,0,0,1-2.81-.14c-1.12-.13-1.71-.42-1.73-1.31,0-1.29,1.87-1.1,1.85-2.84l-.15-9.62c0-1.51-1.91-1.71-1.94-3.19,0-.81.69-1.34,2-1.36l1.89,0c1.88,0,3.08.88,3.11,2.8Zm-3.27-22.86c2.07,0,3.46,1.16,3.49,3s-1.32,3.1-3.4,3.13-3.49-1.17-3.52-3S143.81,14.65,145.88,14.62Z" style="fill:#ff5e00"/><path d="M152.78,23.25a15.59,15.59,0,0,1,1.59.1.32.32,0,0,0,.38-.33l0-3.26c0-1.33,2.7-2.22,4.18-2.61a.93.93,0,0,1,.33,0c.52,0,.66.46.66,1l-.06,5.11c0,.22.14.33.36.33a34.49,34.49,0,0,1,3.45-.18c1.66,0,1.63,3,0,3a29.66,29.66,0,0,1-3.44-.34.3.3,0,0,0-.37.33L159.73,36c0,2.07.45,2.7,1.12,2.71.92,0,2.31-1.23,3.27-1.22a.88.88,0,0,1,.44.12c1.18.83-.42,4.47-4.9,4.42-2.22,0-5.13-.77-5.08-5.54l.12-10a.3.3,0,0,0-.36-.34c-.34,0-.78.06-1.59.09C151.19,26.27,151.15,23.23,152.78,23.25Z" style="fill:#ff5e00"/><path d="M168.66,38.88a2.9,2.9,0,0,1,3.06-2.27c1.36.06,2.77.89,1.83,3l-2.26,5.12a2.2,2.2,0,0,1-2.16,1.17,1.32,1.32,0,0,1-1.38-1.43Z" style="fill:#ff5e00"/><path d="M77.8,69.41l17-3.88c2.35-.54,3.65.19,4,1.67l.1.43a1.91,1.91,0,0,1-1.37,2.51c-1.73.4-2.29-.91-3.88-.55l-3.5.79a.38.38,0,0,0-.31.49L93.54,87c.3,1.34,2,.91,2.33,2.24.21.94-.36,1.41-1.56,1.8a17.92,17.92,0,0,1-2.38.73,20.85,20.85,0,0,1-2.64.41c-1.25.17-2,0-2.18-.94-.31-1.33,1.47-1.7,1.16-3L84.59,72.07a.37.37,0,0,0-.49-.3l-3.53.8c-1.56.36-1.53,1.79-3.26,2.19A1.91,1.91,0,0,1,75,73.09l-.1-.44C74.55,71.17,75.45,70,77.8,69.41Z" style="fill:#ff5e00"/><path d="M100.72,62.77c-.11-.85.56-1.46,2.06-1.65l1.65-.21a2.92,2.92,0,0,1,3.42,2.47l1.21,9.51c0,.29.1.43.21.42s.17-.13.29-.34a6.91,6.91,0,0,1,5.24-4.25c3.92-.5,6.52,1.4,7,5.3l1,8.1c.23,1.8,1.78,1.34,2,2.7.13,1-.38,1.36-1.25,1.58a20.24,20.24,0,0,1-5.39.69c-1.12,0-1.75-.22-1.87-1.18-.17-1.36,1.73-1.34,1.5-3.14L117,76.24c-.34-2.68-1.56-4-3.46-3.77-2.72.35-3.65,5.32-3.5,7.61l.46,3.63c.23,1.8,1.78,1.34,2,2.7.12,1-.39,1.36-1.25,1.58a22.86,22.86,0,0,1-2.62.52,22.28,22.28,0,0,1-2.78.17c-1.12,0-1.74-.22-1.85-1.11-.17-1.28,1.73-1.3,1.51-3L103,65.68C102.8,64.18,100.91,64.23,100.72,62.77Z" style="fill:#ff5e00"/><path d="M137,82.51c2-.12,3.63-1.32,5.08-3.14a1.44,1.44,0,0,1,.94-.58c.48,0,.8.41.48,1.42-1.22,3.89-4,5.53-7.79,5.78-4.65.26-8.46-2.12-9.66-7.09-1.35-5.52,1.89-11.26,8.23-11.84,3.18-.18,6.21.43,7.9,3.41,1.23,2.15.48,4-1.85,5.29l-7.41,4c-.25.16-.35.43-.15.64A4.36,4.36,0,0,0,137,82.51Zm-1-7.77c1.48-.75,2.21-1.57,1.43-2.86a3.88,3.88,0,0,0-3.49-2.1,3.52,3.52,0,0,0-.95.2c-2.58.82-3,3.88-2.1,6.87a.44.44,0,0,0,.43.31.55.55,0,0,0,.18,0Z" style="fill:#ff5e00"/><path d="M157,66.45c2.37,0,3.79,1,3.8,2.89A2.49,2.49,0,0,1,158,72c-1.7,0-2.71-.83-3.6-.82a1.26,1.26,0,0,0-.63.16c-.69.45-1.31,1.78-1.52,3.56l.05,6.14c0,1.74,1.9,1.5,1.92,2.8,0,.89-.59,1.19-1.73,1.35a18,18,0,0,1-2.63.2,22.81,22.81,0,0,1-2.81-.16c-1.11-.13-1.71-.43-1.71-1.31,0-1.3,1.87-1.09,1.86-2.83l-.09-9.62c0-1.52-1.9-1.72-1.91-3.21,0-.81.73-1.33,2.25-1.35h1.66a2.88,2.88,0,0,1,2.49,1.38c.15.37.27,1.52.39,1.89,0,.11.07.18.15.18s.07-.07.11-.15C153,68.15,154.43,66.47,157,66.45Z" style="fill:#ff5e00"/><path d="M172.87,82.34c2,.07,3.73-1,5.35-2.67a1.38,1.38,0,0,1,1-.48c.48,0,.77.47.36,1.45-1.57,3.76-4.5,5.15-8.27,5.06-4.66-.16-8.24-2.87-9-7.93-.85-5.62,2.89-11,9.25-11,3.18.1,6.15,1,7.56,4.1,1,2.25.13,4-2.31,5.1l-7.74,3.33c-.26.14-.38.4-.21.63A4.35,4.35,0,0,0,172.87,82.34Zm-.33-7.82c1.54-.61,2.34-1.36,1.68-2.72a3.84,3.84,0,0,0-3.29-2.4,3,3,0,0,0-1,.11c-2.65.58-3.34,3.59-2.7,6.65a.43.43,0,0,0,.39.35.52.52,0,0,0,.19,0Z" style="fill:#ff5e00"/><path d="M185.89,58.8a3.12,3.12,0,0,1,3.19,3.43,6.51,6.51,0,0,1-4.57,6.12,3.3,3.3,0,0,1-1,.14c-.7,0-.81-.51-.41-.92s2.17-1.84,2.19-3c.06-1.37-1.63-1.08-1.84-3.22A2.36,2.36,0,0,1,185.89,58.8Z" style="fill:#ff5e00"/><path d="M197.93,68.63c2.46.28,5.71,1.2,6.56,3.9.54,1.78-.6,3-1.88,2.81a2.34,2.34,0,0,1-1.41-.76c-1.62-1.75-2.19-3.34-3.88-3.53-1.84-.21-3,.6-3.15,2.14-.46,4.08,10.33,3.85,9.82,9.64-.35,4.43-4.85,5-8.71,4.6s-6.87-1.83-7.7-4.38c-.55-1.7.44-2.55,1.66-2.42a2.72,2.72,0,0,1,1.71.94c1.49,1.63,2.14,3.11,4.35,3.36,1.87.22,3.18-.49,3.35-2,.33-3.28-10.27-3.29-9.57-9.5C189.57,69.13,194,68.19,197.93,68.63Z" style="fill:#ff5e00"/><path d="M216.42,85.87l6-14.53c.65-1.63-1.27-2.51-.89-4,.22-.83,1.06-1.26,2.52-.88l4.8,1.24c1.22.32,1.77,2,1.74,4.35l.61,15.06c0,.35.06.52.17.54s.25-.08.4-.39l7.81-12.88c1.07-2,2.42-3.27,3.63-3L248,72.7c1.47.38,2,1.16,1.78,2-.38,1.46-2.48,1.3-2.66,3l-1.83,15.62c-.17,1.37,1.42,1.74,1.07,3.06-.24.94-1,1.09-2.21.88a17.8,17.8,0,0,1-2.55-.47,18.7,18.7,0,0,1-2.39-.81c-1-.33-1.53-.89-1.28-1.86.35-1.36,2-.92,2.21-2.33l1.5-12.41c0-.34,0-.53-.09-.56s-.18.11-.36.36l-7.37,11.93c-1.27,2.12-2.18,2.8-3.64,2.54l-.71-.19c-1.41-.48-1.94-1.53-2-4l-.65-14c0-.31-.07-.47-.14-.49s-.19.14-.34.45L221.66,87c-.54,1.31,1.15,1.75.8,3.11-.26,1-1,1.19-2,1A18.81,18.81,0,0,1,218,90.7a19.35,19.35,0,0,1-2.47-.83C214.3,89.45,213.74,89,214,88,214.33,86.7,215.89,87.15,216.42,85.87Z" style="fill:#ff5e00"/><path d="M261.43,83c5,1.36,8.33,5.21,6.6,11.6s-6.56,8.08-11.56,6.73-8.33-5.2-6.59-11.63S256.39,81.63,261.43,83Zm-1,2.29-.36-.1c-2.34-.4-4.08,1.35-4.89,6.31-.76,4.66.23,7,2.34,7.53l.35.1c2.38.45,4.08-1.32,4.93-6.3C263.52,88.16,262.53,85.86,260.39,85.28Z" style="fill:#ff5e00"/><path d="M283.51,88c2.33.46,3.51,1.74,3.15,3.59a2.5,2.5,0,0,1-3.22,2c-1.66-.36-2.49-1.35-3.36-1.52a1.17,1.17,0,0,0-.64,0c-.78.3-1.65,1.49-2.21,3.19l-1.17,6c-.33,1.71,1.56,1.85,1.32,3.12-.17.87-.81,1-2,1a18,18,0,0,1-2.62-.32,25.46,25.46,0,0,1-2.72-.71c-1.06-.36-1.59-.77-1.42-1.64.25-1.27,2.06-.69,2.39-2.4l1.84-9.44c.29-1.49-1.52-2.06-1.24-3.52.15-.8,1-1.16,2.47-.88l1.63.32a2.9,2.9,0,0,1,2.17,1.86c.07.39,0,1.53,0,1.92,0,.12,0,.19.11.21s.09-.06.14-.13C279.28,88.91,281,87.55,283.51,88Z" style="fill:#ff5e00"/><path d="M297.28,105.64c2,.23,3.8-.68,5.54-2.23a1.41,1.41,0,0,1,1-.41c.47.06.72.53.24,1.48-1.87,3.62-4.9,4.77-8.66,4.38-4.63-.53-8-3.52-8.32-8.63-.4-5.66,3.76-10.77,10.11-10.27,3.16.36,6.05,1.47,7.21,4.69.85,2.33-.2,4-2.72,4.9l-8,2.71c-.28.11-.42.36-.26.6A4.36,4.36,0,0,0,297.28,105.64Zm.3-7.82c1.58-.49,2.44-1.18,1.89-2.58a3.86,3.86,0,0,0-3.08-2.66,3.29,3.29,0,0,0-1,0c-2.68.36-3.61,3.31-3.22,6.41a.41.41,0,0,0,.36.37.32.32,0,0,0,.19,0Z" style="fill:#ff5e00"/><path d="M310.67,104.72a2.71,2.71,0,1,1-3.08,2.53A2.66,2.66,0,0,1,310.67,104.72Zm1.75-4.56c-.25,1.06-.62,1.78-1.66,1.71s-1.36-.82-1.48-1.9l-.79-11c-.25-2.57,1.2-4.41,3.38-4.28s3.35,2.2,2.79,4.65Z" style="fill:#ff5e00"/></svg>