<svg preserveAspectRatio='none' viewBox="0 0 375 491" fill="none" xmlns="http://www.w3.org/2000/svg">
<path d="M0 6.52633L-0.219225 6.07695L-0.5 6.21393V6.52633V474.004V474.607L0.0918614 474.496L0.0922194 474.496L0.0943015 474.495L0.103662 474.494L0.143336 474.487C0.179162 474.48 0.233826 474.471 0.307841 474.458C0.455872 474.433 0.681302 474.396 0.988236 474.348C1.60211 474.253 2.54196 474.117 3.84061 473.953C6.43796 473.626 10.4703 473.188 16.2002 472.751C27.6601 471.876 45.909 471 73.0469 471C99.0252 471 131.105 475.301 164.574 479.788C166.028 479.983 167.485 480.178 168.944 480.374C203.964 485.062 240.26 489.756 272.396 489.756C304.532 489.756 330.218 485.939 347.876 482.119C356.705 480.209 363.526 478.299 368.143 476.865C370.452 476.148 372.21 475.55 373.391 475.131C373.982 474.921 374.429 474.757 374.729 474.644C374.879 474.587 374.992 474.544 375.068 474.515L375.154 474.481L375.176 474.472L375.182 474.47L375.184 474.469C375.184 474.469 375.185 474.469 375 474.004L375.185 474.469L375.5 474.344V474.004V6.52633V5.91001L374.897 6.03707L375 6.52633C374.897 6.03707 374.897 6.0371 374.896 6.03718L374.895 6.03754L374.888 6.03899L374.86 6.04485L374.748 6.06817C374.649 6.08878 374.501 6.11944 374.305 6.15953C373.914 6.2397 373.334 6.35758 372.576 6.50824C371.062 6.80955 368.842 7.24194 366.018 7.76594C360.371 8.81396 352.311 10.2283 342.666 11.6932C323.373 14.6233 297.743 17.7543 272.38 18.5621C247.04 19.3693 212.679 14.8615 176.888 10.1418L176.295 10.0635C140.712 5.37112 103.775 0.5 73.0469 0.5C42.1745 0.5 23.8896 1.88205 13.314 3.2674C8.02572 3.96013 4.66065 4.65425 2.61052 5.17842C1.58522 5.44057 0.887491 5.66054 0.44163 5.81711C0.21864 5.89542 0.0583982 5.95796 -0.0485201 6.00211C-0.101989 6.02418 -0.142161 6.04167 -0.170208 6.05425C-0.184234 6.06054 -0.195233 6.0656 -0.203352 6.0694L-0.213391 6.07414L-0.216827 6.07579L-0.218155 6.07643C-0.218712 6.0767 -0.219225 6.07695 0 6.52633Z" fill="#237D54" stroke="#055631"/>
</svg>
