<svg preserveAspectRatio='none' viewBox="0 0 375 431" fill="none" xmlns="http://www.w3.org/2000/svg">
<path d="M0 6.52633L-0.219225 6.07695L-0.5 6.21393V6.52633V414.748V415.35L0.0918614 415.24L0.0922194 415.24L0.0943015 415.239L0.103662 415.237L0.143336 415.23C0.179162 415.224 0.233826 415.214 0.307841 415.202C0.455872 415.176 0.681302 415.139 0.988236 415.092C1.60211 414.997 2.54196 414.86 3.84061 414.697C6.43796 414.369 10.4703 413.932 16.2002 413.494C27.6601 412.62 45.909 411.744 73.0469 411.744C99.0252 411.744 131.105 416.045 164.574 420.532C166.028 420.727 167.485 420.922 168.944 421.117C203.964 425.806 240.26 430.5 272.396 430.5C304.532 430.5 330.218 426.682 347.876 422.863C356.705 420.953 363.526 419.043 368.143 417.609C370.452 416.892 372.21 416.294 373.391 415.875C373.982 415.665 374.429 415.5 374.729 415.387C374.879 415.331 374.992 415.288 375.068 415.258L375.154 415.225L375.176 415.216L375.182 415.214L375.184 415.213C375.184 415.213 375.185 415.213 375 414.748L375.185 415.213L375.5 415.088V414.748V6.52633V5.91001L374.897 6.03707L375 6.52633C374.897 6.03707 374.897 6.0371 374.896 6.03718L374.895 6.03754L374.888 6.03899L374.86 6.04485L374.748 6.06817C374.649 6.08878 374.501 6.11944 374.305 6.15953C373.914 6.2397 373.334 6.35758 372.576 6.50824C371.062 6.80955 368.842 7.24195 366.018 7.76594C360.371 8.81396 352.311 10.2283 342.666 11.6932C323.373 14.6233 297.743 17.7543 272.38 18.5621C247.04 19.3693 212.679 14.8615 176.888 10.1418L176.295 10.0635C140.712 5.37112 103.775 0.5 73.0469 0.5C42.1745 0.5 23.8896 1.88205 13.314 3.2674C8.02572 3.96013 4.66065 4.65425 2.61052 5.17842C1.58522 5.44057 0.887491 5.66054 0.44163 5.81711C0.21864 5.89542 0.0583982 5.95796 -0.0485201 6.00211C-0.101989 6.02418 -0.142161 6.04167 -0.170208 6.05425C-0.184234 6.06054 -0.195233 6.0656 -0.203352 6.0694L-0.213391 6.07414L-0.216827 6.07579L-0.218155 6.07643C-0.218712 6.0767 -0.219225 6.07695 0 6.52633Z" fill="#237D54" stroke="#055631"/>
</svg>
