<svg xmlns="http://www.w3.org/2000/svg" viewBox="0 0 28.83 28.88"><g id="f049b8f5-52d6-4fb3-8ced-a5da49b03857" data-name="Layer 2"><g id="a5e4de62-c2f8-4707-88ad-70b599264ff3" data-name="ART"><path d="M21.91,7.49a7.5,7.5,0,0,0-15,0H0V28.88H28.83V7.49Zm-7.5-5.26a5.27,5.27,0,0,1,5.27,5.26H9.15A5.27,5.27,0,0,1,14.41,2.23Zm5.64,18.55a5.58,5.58,0,0,1-5.16,3.53,6.1,6.1,0,0,1-.19-12.2c2.4,0,5,.94,5,3a2.07,2.07,0,0,1-.61,1.47,1.91,1.91,0,0,1-1.39.59,3.49,3.49,0,0,1-1.42-.29,1.33,1.33,0,0,1,0-.35c0-.13,0-.27,0-.44,0-1.11-.58-1.88-1.39-1.88a1.51,1.51,0,0,0-1.13.53,4.8,4.8,0,0,0-.85,3.47,3.62,3.62,0,0,0,1.83,3.17,4.42,4.42,0,0,0,2.68.31,7.85,7.85,0,0,0,2.63-1h0A.2.2,0,0,1,20.05,20.78Z" style="fill:#e2f5f7"/></g></g></svg>