<svg width="1440" height="1299" viewBox="0 0 1440 1299" fill="none" xmlns="http://www.w3.org/2000/svg">
<path d="M1109.65 1185.56C1204.82 1284.36 1372.07 1299.75 1440 1298.97V721.977C1248.66 721.977 1195.85 681.294 1140.54 624.349C1043.11 524.035 959.17 432.602 777.301 432.602C595.432 432.602 572.512 306.913 422.533 257.807C303.709 218.902 210.27 244.946 139.017 182.979C67.7647 121.012 15.2803 33.5168 0 0V624.349C11.9585 642.471 41.2212 670.929 95.1695 710.869C188.346 779.851 263.086 803.235 422.533 815.512C581.979 827.788 581.481 971.599 777.301 1012.52C973.121 1053.44 1014.48 1086.76 1109.65 1185.56Z" fill="#FFEAD3"/>
</svg>
