<svg width="546" height="318" viewBox="0 0 546 318" fill="none" xmlns="http://www.w3.org/2000/svg">
<path d="M426.273 212.531C382.536 252.913 293.82 287.044 177.688 266.329C138.473 259.333 109.841 244.023 90.6933 223.993C71.5612 203.979 61.6537 179.004 60.2744 152.185C58.8949 125.364 66.2311 101.803 82.8989 83.6959C99.6113 65.5403 126.143 52.3956 164.016 47.3466C225.128 39.1996 287.637 55.2648 324.442 64.724C333.533 67.0605 341.056 68.9939 346.602 70.0599C360.202 72.6737 390.854 77.4921 417.079 74.5069C430.137 73.0205 442.795 69.5308 451.621 62.2336C457.584 57.3032 461.558 50.8356 462.896 42.7231C478.418 66.7932 480.556 92.0115 478.624 119.776C476.464 150.818 458.15 183.1 426.273 212.531Z" fill="#309696" stroke="#044F4F" stroke-width="9"/>
<path d="M427.291 213.633C383.162 254.377 293.951 288.591 177.425 267.805C137.961 260.766 109.018 245.333 89.609 225.029C70.2105 204.737 60.1727 179.413 58.7763 152.262C57.3798 125.11 64.8096 101.132 81.7953 82.68C98.8107 64.1953 125.707 50.9404 163.818 45.8597C225.271 37.6672 288.225 53.8562 324.977 63.3073C333.993 65.6257 341.432 67.5387 346.885 68.5868C360.46 71.1958 390.924 75.9745 416.91 73.0166C429.866 71.5417 442.174 68.0977 450.665 61.0775C457.265 55.621 461.345 48.1819 461.844 38.4728C479.712 63.9588 482.155 90.6369 480.121 119.88C477.925 151.435 459.333 184.049 427.291 213.633Z" stroke="#309595" stroke-width="6"/>
</svg>
