<svg xmlns="http://www.w3.org/2000/svg" viewBox="0 0 102.95 15.56"><g id="af6fd5bd-78d7-4d7f-9cf8-5997ffb65423" data-name="Layer 2"><g id="fc7ff6d4-b1ae-42cf-b1af-6521f03b4f08" data-name="ART"><polygon points="8.18 0 10.71 5.12 16.36 5.94 12.27 9.93 13.23 15.55 8.18 12.9 3.12 15.55 4.09 9.93 0 5.94 5.65 5.12 8.18 0"/><polygon points="29.83 0 32.35 5.12 38 5.94 33.91 9.93 34.88 15.55 29.83 12.9 24.77 15.55 25.74 9.93 21.65 5.94 27.3 5.12 29.83 0"/><polygon points="51.47 0 54 5.12 59.65 5.94 55.56 9.93 56.53 15.55 51.47 12.9 46.42 15.55 47.38 9.93 43.3 5.94 48.95 5.12 51.47 0"/><polygon points="73.12 0 75.65 5.12 81.3 5.94 77.21 9.93 78.18 15.55 73.12 12.9 68.07 15.55 69.03 9.93 64.94 5.94 70.59 5.12 73.12 0"/><polygon points="94.77 0 97.3 5.12 102.95 5.94 98.86 9.93 99.82 15.55 94.77 12.9 89.72 15.55 90.68 9.93 86.59 5.94 92.24 5.12 94.77 0"/></g></g></svg>