<svg id="Layer_1" data-name="Layer 1" xmlns="http://www.w3.org/2000/svg" viewBox="0 0 362.62 519.86"><polygon points="95 245.8 43.3 245.8 38.8 182 99.4 182 95 245.8" style="fill:#ffd600"/><path d="M95,245.8H43.3l-3.1-44.2a33.48,33.48,0,0,0,15.4-1.2c6.2-1.8,13.7-7.8,21.6-7.8,14.3,0,20.9,9,20.9,9Z" style="fill:#ff6b00"/><polygon points="267.8 243.4 217.7 243.4 213.4 181.4 272.2 181.4 267.8 243.4" style="fill:#ff6b00"/><path d="M267.8,243.4H217.7l-3-43a34.58,34.58,0,0,0,15-1.2c5.9-1.7,13.2-7.5,20.9-7.5,13.8,0,20.3,8.7,20.3,8.7Z" style="fill:#ffd600"/><polygon points="337.9 243.4 287.7 243.4 283.4 181.4 342.2 181.4 337.9 243.4" style="fill:#ff6b00"/><path d="M337.9,243.4H287.7l-3-43a34.58,34.58,0,0,0,15-1.2c5.9-1.7,13.2-7.5,20.9-7.5,13.9,0,20.3,8.7,20.3,8.7Z" style="fill:#ffd600"/><polygon points="67.3 431.79 20.5 416.09 37.4 372.49 84.2 388.29 67.3 431.79" style="fill:#ff6b00"/><rect x="37.3" y="361.99" width="54.5" height="10.6" style="fill:#ff6b00"/><rect x="90.3" y="378.29" width="21.7" height="5.3" style="fill:#ffd600"/><polygon points="126.2 382.39 113.2 398.59 108.7 395.39 121.7 379.29 126.2 382.39" style="fill:#ff6b00"/><polygon points="105.2 411.09 89.7 396.99 93.7 393.19 109.2 407.39 105.2 411.09" style="fill:#ff6b00"/><polygon points="107 424.29 128.6 426.69 127.9 431.89 106.3 429.59 107 424.29" style="fill:#ff6b00"/><polygon points="90.9 418.59 112 413.69 113.3 418.79 92.3 423.69 90.9 418.59" style="fill:#ffd600"/><ellipse cx="126.1" cy="407.09" rx="4.3" ry="4" style="fill:#ffd600"/><ellipse cx="89" cy="411.09" rx="4.3" ry="4" style="fill:#ff6b00"/><ellipse cx="257.6" cy="366.69" rx="13.9" ry="13" style="fill:#ff6b00"/><polygon points="283.8 374.79 279.6 373.39 285 357.39 302.3 351.59 303.7 355.79 288.5 360.89 283.8 374.79" style="fill:#ff6b00"/><path d="M277.6,422.09c26.8,0,29.9-7.2,29.9-12.6s-5.7-10-5.7-10-9.3-5.9-9.3-16.3,9.3-16.1,9.3-16.1H253.5s9.3,5.7,9.3,16.1-9.3,16.3-9.3,16.3-5.7,4.6-5.7,10S250.8,422.09,277.6,422.09Z" style="fill:#ffd600"/><path d="M297,441.39H256.5s20.9-9.6,20.9-19.3C277.4,431.89,297,441.39,297,441.39Z" style="fill:#ff6b00"/><path d="M253.5,399.49s-5.7,4.6-5.7,10,3,12.6,29.8,12.6,29.9-7.2,29.9-12.6-5.7-10-5.7-10-9-5.7-9.3-15.8H262.8C262.5,393.79,253.5,399.49,253.5,399.49Z" style="fill:#ff6b00"/><g style="isolation:isolate"><path d="M36.54,291.85c0,.65,1.05.78,1.05,1.33,0,.39-.35.54-.91.6a10.15,10.15,0,0,1-1.28.09,12.94,12.94,0,0,1-1.37-.09c-.56,0-.91-.21-.91-.6,0-.55,1.06-.68,1.06-1.33v-6.52c0-.57-1.25,0-1.25-.89s1.64-1.69,2.73-1.69c.75,0,.88.57.88,1.19Z" style="fill:#ff6b00"/></g><g style="isolation:isolate"><path d="M48.54,282.75c1.44,0,3.25.31,3.81,1.54a1.1,1.1,0,0,1-.89,1.6,1,1,0,0,1-.44-.12c-1.09-.7-1.46-1.64-2.7-1.64s-1.91.54-1.91,1.53c0,2.37,6.2,1.2,6.3,4.92.07,2.81-2.57,3.35-4.29,3.35-2,0-3.75-.46-4.37-1.64a1,1,0,0,1,.89-1.53,1.09,1.09,0,0,1,.46.1c1.09.52,1.69,1.7,3.23,1.7,1,0,1.74-.43,1.74-1.31,0-2.05-6.17-1.24-6.17-5C44.2,283.5,46.42,282.75,48.54,282.75Z" style="fill:#ff6b00"/></g><g style="isolation:isolate"><path d="M54,282.21c0-.37.32-.6,1-.6h.73a1.28,1.28,0,0,1,1.35,1.27v4.21c0,.13,0,.19.07.19s.08,0,.14-.13a3,3,0,0,1,2.52-1.56,2.49,2.49,0,0,1,2.76,2.7v3.59c0,.8.7.68.7,1.29,0,.42-.24.56-.63.61a9.81,9.81,0,0,1-1.17.09,9.59,9.59,0,0,1-1.22-.09c-.49-.06-.75-.19-.75-.61,0-.61.83-.49.83-1.29V289c0-1.19-.45-1.84-1.3-1.84-1.2,0-1.88,2.12-1.95,3.12v1.61c0,.8.7.68.7,1.29,0,.42-.24.56-.63.61a9.81,9.81,0,0,1-1.17.09,9.45,9.45,0,0,1-1.22-.09c-.49-.06-.75-.19-.75-.58,0-.57.83-.47.83-1.24v-8.35C54.82,282.94,54,282.86,54,282.21Z" style="fill:#ff6b00"/></g><g style="isolation:isolate"><path d="M69,285.59a4.17,4.17,0,1,1-4.13,4.16A3.81,3.81,0,0,1,69,285.59Zm-.18,1.09h-.16c-1,.1-1.58,1-1.35,3.24s.89,2.92,1.85,2.92h.17c1-.08,1.57-1,1.36-3.23S69.78,286.68,68.8,286.68Z" style="fill:#ff6b00"/></g><g style="isolation:isolate"><path d="M75.42,285.74c.33,0,.47,0,.7,0a.13.13,0,0,0,.16-.14V284.2c0-.59,1.17-1,1.82-1.17a.39.39,0,0,1,.15,0c.23,0,.29.19.29.44v2.24a.14.14,0,0,0,.16.15,13,13,0,0,1,1.51-.1c.74,0,.74,1.32,0,1.32-.58,0-1-.09-1.51-.13-.1,0-.16,0-.16.14v4.21c0,.91.21,1.19.5,1.19s1-.55,1.43-.55a.48.48,0,0,1,.2,0c.52.36-.16,2-2.13,2-1,0-2.26-.31-2.26-2.41v-4.37a.13.13,0,0,0-.16-.14l-.7.05C74.74,287.07,74.71,285.74,75.42,285.74Z" style="fill:#ff6b00"/></g><g style="isolation:isolate"><path d="M92.94,282.78c3,0,5.4,1.79,5.4,5.66s-2.44,5.49-5.4,5.49-5.43-1.63-5.43-5.49S90,282.78,92.94,282.78Zm.2,10a1.46,1.46,0,0,0,.29,0c1.67-.18,2.6-1.61,2.26-4.57-.33-2.79-1.43-4.06-3-4.06a1.27,1.27,0,0,0-.27,0c-1.69.18-2.64,1.66-2.3,4.61S91.59,292.73,93.14,292.73Z" style="fill:#ff6b00"/></g><g style="isolation:isolate"><path d="M101,285.74c.31,0,.49,0,.74,0a.13.13,0,0,0,.16-.14v-1.24c0-2.4,2.57-2.78,3.36-2.78,1.16,0,2.25.1,2.83.86s.24,1.76-.81,1.76-1-1.59-1.94-1.63-1.18.7-1.18,1.53v1.61c0,.11.06.13.16.13a13.65,13.65,0,0,1,1.64-.13c.73,0,.73,1.32,0,1.32a11.39,11.39,0,0,1-1.64-.18c-.1,0-.16,0-.16.13V292c0,.78.81.66.81,1.25,0,.39-.24.5-.75.57a7.24,7.24,0,0,1-1.15.08,9,9,0,0,1-1.25-.08c-.49,0-.75-.18-.75-.57,0-.59.83-.47.83-1.25v-4.8a.14.14,0,0,0-.16-.14l-.74.05C100.32,287.07,100.28,285.74,101,285.74Z" style="fill:#ff6b00"/></g><g style="isolation:isolate"><path d="M44.33,302.56c0-.37.33-.65,1.09-.65h1.77c.77,0,1.09.28,1.09.65,0,.67-.78.72-.78,1.48v6.27c0,.51.23.77.64.77H50c.71,0,.88-.77,1.67-.8h0c.44,0,.8.28.8,1v.39c0,.7-.55,1.17-1.61,1.17H45.18c-.55,0-.85-.18-.85-.6,0-.59.82-.59.82-1.16v-7C45.15,303.28,44.33,303.23,44.33,302.56Z" style="fill:#ff6b00"/><path d="M56.26,311c0,.77.83.67.83,1.24,0,.39-.26.52-.76.58a8.4,8.4,0,0,1-1.16.09,10.18,10.18,0,0,1-1.23-.09c-.49-.06-.75-.19-.75-.58,0-.57.83-.47.83-1.24v-4.22c0-.67-.83-.77-.83-1.42,0-.35.31-.58.89-.58h.83c.83,0,1.35.41,1.35,1.25ZM55,300.9a1.36,1.36,0,1,1-1.53,1.35A1.37,1.37,0,0,1,55,300.9Z" style="fill:#ff6b00"/><path d="M62,304.59a2.54,2.54,0,0,1,2,.73c0,.07.09.1.14.1h0c.1,0,.2-.17.26-.26a1,1,0,0,1,.8-.41h.66c.62,0,.93.23.93.58,0,.65-.6.75-.6,1.4v7.57c0,.77.81.67.81,1.24,0,.39-.26.52-.75.59a10,10,0,0,1-1.15.08c-.39,0-.81,0-1.23-.08s-.75-.2-.75-.59c0-.57.81-.47.81-1.24v-1.85c0-.1,0-.14-.08-.14a.19.19,0,0,0-.1,0,1.87,1.87,0,0,1-1.56.6,3.82,3.82,0,0,1-4.14-4.16C58.1,305.84,60,304.59,62,304.59Zm-1.49,4.28c.11,2.14.87,3.05,1.85,3.05A1.64,1.64,0,0,0,64,310.43v-3.09c-.24-1.12-.7-1.67-1.87-1.67C61.1,305.75,60.41,306.66,60.54,308.87Z" style="fill:#ff6b00"/><path d="M67.83,305.32c0-.35.33-.58,1-.58h.73A1.28,1.28,0,0,1,70.9,306v3.56c0,1.17.43,1.82,1.24,1.82,1.14,0,1.79-2.11,1.85-3.1v-1.53c0-.67-.83-.77-.83-1.42,0-.34.28-.58.88-.58h.84A1.3,1.3,0,0,1,76.25,306v4.81c0,.67.81.75.81,1.4,0,.37-.32.6-1,.6h-.73a1.3,1.3,0,0,1-1.28-.94c0-.23-.07-.59-.1-.69a1.49,1.49,0,0,0-.23.25,2.88,2.88,0,0,1-2.39,1.51,2.44,2.44,0,0,1-2.68-2.68v-3.51C68.66,306.07,67.83,306,67.83,305.32Z" style="fill:#ff6b00"/><path d="M82.13,304.59A4.17,4.17,0,1,1,78,308.75,3.8,3.8,0,0,1,82.13,304.59ZM82,305.68h-.16c-1,.1-1.58,1-1.35,3.24s.89,2.92,1.85,2.92h.17c1.05-.08,1.57-1,1.36-3.23S82.93,305.68,82,305.68Z" style="fill:#ff6b00"/></g><g style="isolation:isolate"><path d="M93,304.59c1,0,1.66.46,1.66,1.29A1.1,1.1,0,0,1,93.4,307c-.75,0-1.19-.37-1.58-.37a.58.58,0,0,0-.28.07,2.25,2.25,0,0,0-.68,1.56V311c0,.77.83.67.83,1.24,0,.39-.26.52-.76.58a8.4,8.4,0,0,1-1.16.09,10.64,10.64,0,0,1-1.23-.09c-.49-.06-.75-.19-.75-.58,0-.57.83-.47.83-1.24v-4.22c0-.67-.83-.77-.83-1.42,0-.35.32-.58,1-.58h.73a1.25,1.25,0,0,1,1.09.62c.07.16.11.66.16.83s0,.08.07.08,0,0,0-.07A2.17,2.17,0,0,1,93,304.59Z" style="fill:#ff6b00"/></g><g style="isolation:isolate"><path d="M243.74,292.08c.72,0,.95-.65,1.68-.65.45,0,.78.29.78.89v.41c0,.57-.41,1.07-1.33,1.07h-6.49c-.52,0-1-.63-.29-1.46,1.69-1.76,4.24-4.49,4.74-6.39.22-1,0-1.85-1-1.85-.67,0-1.25.44-1.67,1.41a1.52,1.52,0,0,1-1.3,1c-.69,0-1.22-.69-.75-1.69a4.06,4.06,0,0,1,3.87-2.07c3,0,4.09,1.71,3.49,3.69-.36,1.61-2,3.56-3.69,5.4-.1.11-.06.21.1.21Z" style="fill:#ff6b00"/></g><g style="isolation:isolate"><path d="M256.34,282.75c1.44,0,3.25.31,3.81,1.54a1.1,1.1,0,0,1-.89,1.6,1,1,0,0,1-.44-.12c-1.09-.7-1.46-1.64-2.7-1.64s-1.91.54-1.91,1.53c0,2.37,6.2,1.2,6.3,4.92.07,2.81-2.57,3.35-4.29,3.35-2,0-3.75-.46-4.37-1.64a1,1,0,0,1,.89-1.53,1.09,1.09,0,0,1,.46.1c1.09.52,1.69,1.7,3.23,1.7,1,0,1.74-.43,1.74-1.31,0-2.05-6.17-1.24-6.17-5C252,283.5,254.22,282.75,256.34,282.75Z" style="fill:#ff6b00"/></g><g style="isolation:isolate"><path d="M261.79,282.21c0-.37.32-.6,1-.6h.73a1.28,1.28,0,0,1,1.35,1.27v4.21c0,.13,0,.19.07.19s.08,0,.14-.13a3,3,0,0,1,2.52-1.56,2.49,2.49,0,0,1,2.76,2.7v3.59c0,.8.7.68.7,1.29,0,.42-.24.56-.63.61a9.81,9.81,0,0,1-1.17.09,9.59,9.59,0,0,1-1.22-.09c-.49-.06-.75-.19-.75-.61,0-.61.83-.49.83-1.29V289c0-1.19-.45-1.84-1.3-1.84-1.2,0-1.88,2.12-1.95,3.12v1.61c0,.8.7.68.7,1.29,0,.42-.24.56-.63.61a9.81,9.81,0,0,1-1.17.09,9.45,9.45,0,0,1-1.22-.09c-.49-.06-.75-.19-.75-.58,0-.57.83-.47.83-1.24v-8.35C262.62,282.94,261.79,282.86,261.79,282.21Z" style="fill:#ff6b00"/></g><g style="isolation:isolate"><path d="M276.78,285.59a4.17,4.17,0,1,1-4.13,4.16A3.8,3.8,0,0,1,276.78,285.59Zm-.18,1.09h-.16c-1,.1-1.58,1-1.35,3.24s.89,2.92,1.85,2.92h.17c1.05-.08,1.57-1,1.36-3.23S277.58,286.68,276.6,286.68Z" style="fill:#ff6b00"/></g><g style="isolation:isolate"><path d="M282.22,285.74c.33,0,.47,0,.7,0a.13.13,0,0,0,.16-.14V284.2c0-.59,1.17-1,1.82-1.17a.39.39,0,0,1,.15,0c.23,0,.29.19.29.44v2.24a.14.14,0,0,0,.16.15,13,13,0,0,1,1.51-.1c.74,0,.74,1.32,0,1.32-.58,0-1-.09-1.51-.13a.13.13,0,0,0-.16.14v4.21c0,.91.21,1.19.5,1.19s1-.55,1.43-.55a.48.48,0,0,1,.2,0c.52.36-.16,2-2.13,2-1,0-2.26-.31-2.26-2.41v-4.37a.13.13,0,0,0-.16-.14l-.7.05C281.54,287.07,281.51,285.74,282.22,285.74Z" style="fill:#ff6b00"/><path d="M292.44,285.59c1.09,0,2.55.25,3.06,1.38.32.75-.12,1.32-.69,1.32a1,1,0,0,1-.65-.26c-.79-.68-1.12-1.35-1.86-1.35s-1.27.41-1.27,1.09c0,1.8,4.69,1.17,4.76,3.72.06,1.95-1.87,2.44-3.58,2.44s-3.08-.46-3.57-1.53c-.33-.71.06-1.14.6-1.14a1.19,1.19,0,0,1,.8.33c.73.63,1.09,1.25,2.06,1.25s1.37-.37,1.37-1c0-1.45-4.65-.93-4.65-3.68C288.82,286.23,290.72,285.59,292.44,285.59Z" style="fill:#ff6b00"/></g><g style="isolation:isolate"><path d="M307.24,282.78c3,0,5.4,1.79,5.4,5.66s-2.44,5.49-5.4,5.49-5.43-1.63-5.43-5.49S304.29,282.78,307.24,282.78Zm.2,10a1.42,1.42,0,0,0,.29,0c1.67-.18,2.6-1.61,2.26-4.57-.33-2.79-1.43-4.06-3-4.06a1.27,1.27,0,0,0-.27,0c-1.69.18-2.64,1.66-2.3,4.61S305.89,292.73,307.44,292.73Z" style="fill:#ff6b00"/></g><g style="isolation:isolate"><path d="M314.31,285.74c.31,0,.49,0,.74,0a.13.13,0,0,0,.16-.14v-1.24c0-2.4,2.57-2.78,3.36-2.78,1.16,0,2.25.1,2.83.86s.24,1.76-.81,1.76-1-1.59-1.94-1.63-1.18.7-1.18,1.53v1.61c0,.11.06.13.16.13a13.65,13.65,0,0,1,1.64-.13c.73,0,.73,1.32,0,1.32a11.39,11.39,0,0,1-1.64-.18c-.1,0-.16,0-.16.13V292c0,.78.81.66.81,1.25,0,.39-.24.5-.75.57a7.24,7.24,0,0,1-1.15.08,9,9,0,0,1-1.25-.08c-.49,0-.75-.18-.75-.57,0-.59.83-.47.83-1.25v-4.8a.14.14,0,0,0-.16-.14l-.74.05C313.62,287.07,313.58,285.74,314.31,285.74Z" style="fill:#ff6b00"/></g><g style="isolation:isolate"><path d="M256.09,301.93h.81c1.16,0,1.63,1.14,1.89,1.92l1.92,6c0,.08.05.11.09.11s.09,0,.1-.11l1.5-5.32a.7.7,0,0,0,0-.35l-.08-.23c-.23-.68-1.07-.76-1.07-1.37,0-.45.45-.66.84-.66h.83c1.14,0,1.63,1.14,1.87,1.92l1.9,6.06c0,.06.05.09.08.09s.07,0,.08-.09l1.66-6.23c.15-.6-.52-.57-.52-1.15s.86-.67,1.5-.67h.17c.64,0,1.55,0,1.55.72s-.77.57-.94,1.2l-2.17,7.74c-.21.81-.6,1.3-1.38,1.3H266c-.47,0-.88-.17-1.16-1l-1.35-4.05c0-.13-.09-.18-.13-.18s-.08.05-.13.18l-1.1,3.76c-.21.81-.6,1.3-1.38,1.3h-.7c-.47,0-.88-.17-1.15-1L256.32,304c-.24-.68-1.07-.76-1.07-1.37C255.25,302.14,255.7,301.93,256.09,301.93Z" style="fill:#ff6b00"/></g><g style="isolation:isolate"><path d="M271.45,310.69c0-2.05,3.1-2.62,4.86-2.86a.21.21,0,0,0,.18-.21v-.36c0-1.06-.33-1.71-1.12-1.71s-1.21.88-1.69,1.37a1.31,1.31,0,0,1-.9.35.89.89,0,0,1-1-.87c0-1.06,1.8-1.81,3.56-1.81s3.38.73,3.38,2.78v3.25c0,1.07.65.73.89,1.07s-.42,1.16-1.45,1.16a1.4,1.4,0,0,1-1.39-.89c0-.07-.07-.1-.1-.1a.19.19,0,0,0-.12.08,3.17,3.17,0,0,1-2.42,1C272.93,312.93,271.45,312.41,271.45,310.69Zm3.62,1a1.45,1.45,0,0,0,1.42-1.12V309c0-.13-.07-.14-.18-.14-.91.14-2.44.52-2.47,1.62A1.19,1.19,0,0,0,275.07,311.69Z" style="fill:#ff6b00"/></g><g style="isolation:isolate"><path d="M281.12,304.74c.33,0,.47,0,.7,0a.13.13,0,0,0,.16-.14V303.2c0-.59,1.17-1,1.82-1.17a.39.39,0,0,1,.15,0c.23,0,.29.19.29.44v2.24a.14.14,0,0,0,.16.15,13,13,0,0,1,1.51-.1c.74,0,.74,1.32,0,1.32-.58,0-1-.09-1.51-.13a.13.13,0,0,0-.16.14v4.21c0,.91.21,1.19.5,1.19s1-.55,1.43-.55a.48.48,0,0,1,.2,0c.52.36-.16,2-2.13,2-1,0-2.26-.31-2.26-2.41v-4.37a.13.13,0,0,0-.16-.14l-.7.05C280.44,306.07,280.41,304.74,281.12,304.74Z" style="fill:#ff6b00"/></g><g style="isolation:isolate"><path d="M292.15,311.43a3.08,3.08,0,0,0,2.3-1.25.64.64,0,0,1,.43-.22c.21,0,.34.19.18.63a3.49,3.49,0,0,1-3.56,2.34,3.88,3.88,0,0,1-4.07-3.35,4.09,4.09,0,0,1,3.9-5c1.4,0,2.72.34,3.38,1.69.49,1,.12,1.77-.94,2.28l-3.35,1.57c-.11.07-.16.18-.08.28A1.91,1.91,0,0,0,292.15,311.43Zm-.26-3.42c.66-.3,1-.64.69-1.22a1.67,1.67,0,0,0-1.47-1,1.71,1.71,0,0,0-.43.06c-1.15.3-1.41,1.63-1.09,3q.06.15.18.15a.13.13,0,0,0,.08,0Z" style="fill:#ff6b00"/></g><g style="isolation:isolate"><path d="M300.76,304.59c1,0,1.66.46,1.66,1.29A1.1,1.1,0,0,1,301.2,307c-.75,0-1.19-.37-1.58-.37a.58.58,0,0,0-.28.07,2.29,2.29,0,0,0-.68,1.56V311c0,.77.83.67.83,1.24,0,.39-.26.52-.76.58a8.4,8.4,0,0,1-1.16.09,10.64,10.64,0,0,1-1.23-.09c-.49-.06-.75-.19-.75-.58,0-.57.83-.47.83-1.24v-4.22c0-.67-.83-.77-.83-1.42,0-.35.33-.58,1-.58h.73a1.25,1.25,0,0,1,1.09.62,7.6,7.6,0,0,1,.16.83s0,.08.07.08,0,0,.05-.07A2.17,2.17,0,0,1,300.76,304.59Z" style="fill:#ff6b00"/></g><g style="isolation:isolate"><path d="M33.54,472.84c0,.65,1.05.78,1.05,1.33,0,.39-.35.54-.91.6a10.22,10.22,0,0,1-1.28.08,12.88,12.88,0,0,1-1.37-.08c-.56,0-.91-.21-.91-.6,0-.55,1.06-.68,1.06-1.33v-6.52c0-.57-1.25,0-1.25-.89s1.64-1.69,2.73-1.69c.75,0,.88.56.88,1.18Z" style="fill:#ff6b00"/><path d="M45.48,463.77c1.87,0,3.4.47,4.32,2s0,2.48-1,2.48a1.6,1.6,0,0,1-1.48-1.05c-.52-1.35-1.3-2.08-2.35-2.08l-.39,0c-1.37.21-2,1.72-1.74,4,.18,2,1.36,3.8,3.53,3.8a3.72,3.72,0,0,0,2.82-1.59.67.67,0,0,1,.49-.29c.24,0,.41.26.31.7a4.23,4.23,0,0,1-4.44,3.12,5.11,5.11,0,0,1-5.33-5.5C40.18,465.56,42.62,463.77,45.48,463.77Z" style="fill:#ff6b00"/></g><g style="isolation:isolate"><path d="M57.76,466.58c1,0,1.66.45,1.66,1.28A1.1,1.1,0,0,1,58.2,469c-.75,0-1.19-.37-1.58-.37a.57.57,0,0,0-.28.06,2.32,2.32,0,0,0-.68,1.56V473c0,.76.83.67.83,1.23,0,.4-.26.53-.76.59a8.45,8.45,0,0,1-1.16.08,10.57,10.57,0,0,1-1.23-.08c-.49-.06-.75-.19-.75-.59,0-.56.83-.47.83-1.23v-4.23c0-.66-.83-.76-.83-1.41,0-.36.33-.58,1-.58h.73a1.26,1.26,0,0,1,1.09.61c.07.17.12.67.16.83s0,.08.07.08,0,0,0-.06A2.17,2.17,0,0,1,57.76,466.58Z" style="fill:#ff6b00"/></g><g style="isolation:isolate"><path d="M58.65,472.67c0-2,3.1-2.61,4.86-2.86a.19.19,0,0,0,.18-.21v-.35c0-1.06-.33-1.71-1.12-1.71s-1.21.88-1.69,1.36a1.28,1.28,0,0,1-.9.36.9.9,0,0,1-1-.88c0-1.05,1.8-1.8,3.56-1.8s3.38.73,3.38,2.78v3.25c0,1.07.65.73.89,1.07s-.42,1.15-1.45,1.15a1.4,1.4,0,0,1-1.39-.89c0-.06-.07-.1-.1-.1a.19.19,0,0,0-.11.08,3.18,3.18,0,0,1-2.43,1C60.13,474.92,58.65,474.4,58.65,472.67Zm3.62,1a1.45,1.45,0,0,0,1.42-1.12V471c0-.13-.07-.15-.18-.15-.91.15-2.44.53-2.47,1.63A1.19,1.19,0,0,0,62.27,473.68Z" style="fill:#ff6b00"/></g><g style="isolation:isolate"><path d="M67.81,466.73c.31,0,.49,0,.74,0a.14.14,0,0,0,.16-.15v-1.23c0-2.41,2.57-2.78,3.36-2.78,1.16,0,2.25.1,2.83.86a1,1,0,0,1-.81,1.75c-1.06,0-1-1.59-1.94-1.62s-1.18.7-1.18,1.53v1.61c0,.11.06.13.16.13a13.65,13.65,0,0,1,1.64-.13c.73,0,.73,1.31,0,1.31a10.12,10.12,0,0,1-1.64-.18c-.1,0-.16,0-.16.13v4.94c0,.78.81.67.81,1.25,0,.4-.24.51-.75.57a6.23,6.23,0,0,1-1.15.08,7.71,7.71,0,0,1-1.25-.08c-.49,0-.75-.17-.75-.57,0-.58.83-.47.83-1.25v-4.79a.14.14,0,0,0-.16-.15c-.18,0-.41,0-.74.05C67.12,468.06,67.08,466.73,67.81,466.73Z" style="fill:#ff6b00"/></g><g style="isolation:isolate"><path d="M73.82,466.73a6.67,6.67,0,0,1,.7,0,.14.14,0,0,0,.16-.15v-1.43c0-.58,1.17-1,1.82-1.17h.15c.23,0,.29.19.29.43v2.25c0,.09.06.14.16.14a13.19,13.19,0,0,1,1.51-.09c.74,0,.74,1.31,0,1.31a12.9,12.9,0,0,1-1.51-.13.14.14,0,0,0-.16.15v4.21c0,.91.21,1.18.5,1.18s1-.55,1.43-.55a.49.49,0,0,1,.2.05c.52.36-.16,2-2.13,2-1,0-2.26-.31-2.26-2.41v-4.37a.14.14,0,0,0-.16-.15,6.26,6.26,0,0,1-.7.05C73.14,468.06,73.1,466.73,73.82,466.73Z" style="fill:#ff6b00"/><path d="M90.79,466.58a2.41,2.41,0,0,1,2.6,2.7v3.59c0,.78.71.68.71,1.28,0,.41-.26.56-.65.6a9.72,9.72,0,0,1-1.17.08,9.62,9.62,0,0,1-1.22-.08c-.49,0-.75-.19-.75-.6,0-.6.83-.5.83-1.28V470c0-1.19-.4-1.84-1.17-1.84-1,0-1.57,1.66-1.7,2.76v2c0,.78.7.68.7,1.28,0,.41-.25.56-.65.6a9.46,9.46,0,0,1-1.17.08,9.58,9.58,0,0,1-1.21-.08c-.48,0-.76-.14-.76-.57,0-.6.83-.53.83-1.31V470c0-1.19-.39-1.84-1.16-1.84-1,0-1.57,1.66-1.72,2.76v2c0,.8.7.69.7,1.29,0,.4-.24.57-.63.6a7.46,7.46,0,0,1-1.14.08,10.23,10.23,0,0,1-1.25-.08c-.49-.05-.75-.18-.75-.57,0-.59.83-.47.83-1.24v-4.22c0-.65-.83-.75-.83-1.4,0-.36.32-.58,1-.58h.73a1.28,1.28,0,0,1,1.2.79c0,.08,0,.57,0,.67s0,.1.09.1a.28.28,0,0,0,.09-.08,2.92,2.92,0,0,1,2.44-1.63,2.29,2.29,0,0,1,2.44,1.72c0,.07,0,.1.08.1s.06,0,.1-.08A3,3,0,0,1,90.79,466.58Z" style="fill:#ff6b00"/><path d="M98.06,473c0,.76.83.67.83,1.23,0,.4-.26.53-.76.59a8.42,8.42,0,0,1-1.15.08,10.32,10.32,0,0,1-1.24-.08c-.49-.06-.75-.19-.75-.59,0-.56.83-.47.83-1.23v-4.23c0-.66-.83-.76-.83-1.41,0-.36.31-.58.9-.58h.83A1.17,1.17,0,0,1,98.06,468Zm-1.28-10.06a1.36,1.36,0,1,1,0,2.7,1.36,1.36,0,1,1,0-2.7Z" style="fill:#ff6b00"/><path d="M100.49,468.5c-.44-.64-1.09-.86-1.09-1.27s.31-.5,1-.5h1.15c.62,0,.93.55,1.41,1.25l1.11,1.59a.15.15,0,0,0,.1.06.12.12,0,0,0,.09,0l.41-.48c1-1.1.06-1.7.41-2.14a1.68,1.68,0,0,1,1.12-.29c.52,0,1,.13,1.12.39.11.44-.42,1.43-1.17,2.16l-1.25,1.27a.18.18,0,0,0,0,.22l1.59,2.29c.46.64,1.09.87,1.09,1.27s-.31.51-.94.51h-1.15c-.62,0-1-.54-1.43-1.27l-1.13-1.61a.12.12,0,0,0-.11-.07.09.09,0,0,0-.08,0l-.41.5c-1,1.09-.08,1.69-.4,2.13a1.69,1.69,0,0,1-1.12.29c-.52,0-1-.13-1.13-.39-.11-.44.43-1.43,1.17-2.16l1.26-1.28a.18.18,0,0,0,0-.23Z" style="fill:#ff6b00"/></g><g style="isolation:isolate"><path d="M45.92,482.9h3.64c2.65,0,4.78,1.1,4.78,3.77s-2.13,3.64-4.78,3.64H48.17a.16.16,0,0,0-.18.18V492c0,.61.68.6.68,1.2,0,.42-.29.58-.75.62H45.68c-.57,0-.85-.18-.85-.59,0-.58.8-.57.8-1.15v-7c0-.77-.8-.83-.8-1.48C44.83,483.16,45.14,482.9,45.92,482.9Zm2.49,6h1a2.07,2.07,0,0,0,2.31-2.3,2.13,2.13,0,0,0-2.31-2.38h-.66c-.6,0-.73.59-.73,1.12v3.16A.37.37,0,0,0,48.41,488.94Z" style="fill:#ff6b00"/></g><g style="isolation:isolate"><path d="M54.55,491.67c0-2,3.1-2.61,4.86-2.86a.19.19,0,0,0,.18-.21v-.35c0-1.06-.33-1.71-1.12-1.71s-1.21.88-1.69,1.36a1.28,1.28,0,0,1-.9.36.9.9,0,0,1-1-.88c0-1.05,1.8-1.8,3.56-1.8s3.38.73,3.38,2.78v3.25c0,1.07.65.73.89,1.07s-.42,1.15-1.45,1.15a1.4,1.4,0,0,1-1.39-.89c0-.06-.07-.1-.1-.1a.19.19,0,0,0-.11.08,3.18,3.18,0,0,1-2.43,1C56,493.92,54.55,493.4,54.55,491.67Zm3.62,1a1.45,1.45,0,0,0,1.42-1.12V490c0-.13-.07-.15-.18-.15-.91.15-2.44.53-2.47,1.63A1.19,1.19,0,0,0,58.17,492.68Z" style="fill:#ff6b00"/></g><g style="isolation:isolate"><path d="M65.18,489.72a2.5,2.5,0,0,0,2.27,2.59h.23a3.06,3.06,0,0,0,2.26-1.12.61.61,0,0,1,.44-.21c.23,0,.39.2.23.65a3.65,3.65,0,0,1-3.5,2.28,3.77,3.77,0,0,1-4-3.35c-.51-3.06,1.28-5,4.11-5,1.75,0,3,.44,3.44,1.79a1.1,1.1,0,0,1-1.09,1.51,1.5,1.5,0,0,1-.79-.23c-1-.67-.93-2-1.76-2l-.11,0C65.85,486.77,65,487.9,65.18,489.72Z" style="fill:#ff6b00"/></g><g style="isolation:isolate"><path d="M72.32,492V483.6c0-.67-.83-.75-.83-1.4,0-.37.32-.6,1-.6h.73a1.28,1.28,0,0,1,1.35,1.27v6.25c0,.1,0,.17.13.17a.21.21,0,0,0,.1,0,7.44,7.44,0,0,0,1.82-1.46c.45-.6.23-.76.36-1.43s1-.78,1.48-.78c1.13,0,1.34,1,.6,1.93a10.55,10.55,0,0,1-2,1.74.22.22,0,0,0,0,.33l1.64,2.13c.78,1,1.54.86,1.54,1.38,0,.32-.45.78-1.36.78s-1.43-.33-2.11-1.42l-1.14-1.72c-.11-.19-.23-.37-.47-.37a2.12,2.12,0,0,1-.31.14.34.34,0,0,0-.23.33v1c0,.8.7.68.7,1.28,0,.43-.24.57-.63.62a9.72,9.72,0,0,1-1.17.08,9.49,9.49,0,0,1-1.22-.08c-.49-.06-.75-.19-.75-.59C71.49,492.62,72.32,492.71,72.32,492Z" style="fill:#ff6b00"/></g><g style="isolation:isolate"><path d="M85.65,492.42a3.11,3.11,0,0,0,2.3-1.25.62.62,0,0,1,.43-.23c.21,0,.34.2.18.64A3.49,3.49,0,0,1,85,493.92a3.88,3.88,0,0,1-4.07-3.35,4.09,4.09,0,0,1,3.9-5c1.4,0,2.72.34,3.38,1.69.49,1,.12,1.77-.94,2.27l-3.35,1.58c-.11.07-.16.18-.08.28A1.93,1.93,0,0,0,85.65,492.42ZM85.39,489c.66-.29,1-.63.69-1.22a1.68,1.68,0,0,0-1.47-1,1.35,1.35,0,0,0-.43.06c-1.15.29-1.41,1.63-1.09,3a.19.19,0,0,0,.18.14h.08Z" style="fill:#ff6b00"/></g><g style="isolation:isolate"><path d="M89.42,485.73a6.67,6.67,0,0,1,.7,0,.14.14,0,0,0,.16-.15v-1.43c0-.58,1.17-1,1.82-1.17h.15c.23,0,.29.19.29.43v2.25c0,.09.06.14.16.14a13.19,13.19,0,0,1,1.51-.09c.74,0,.74,1.31,0,1.31a12.9,12.9,0,0,1-1.51-.13.14.14,0,0,0-.16.15v4.21c0,.91.21,1.18.5,1.18s1-.55,1.43-.55a.49.49,0,0,1,.2.05c.52.36-.16,2-2.13,2-1,0-2.26-.31-2.26-2.41v-4.37a.14.14,0,0,0-.16-.15,6.26,6.26,0,0,1-.7.05C88.74,487.06,88.71,485.73,89.42,485.73Z" style="fill:#ff6b00"/></g><g style="isolation:isolate"><path d="M240.64,463.74c1.44,0,3.25.3,3.81,1.54a1.09,1.09,0,0,1-.89,1.59,1.19,1.19,0,0,1-.44-.11c-1.09-.7-1.46-1.64-2.7-1.64s-1.91.53-1.91,1.52c0,2.38,6.2,1.21,6.3,4.93.07,2.81-2.57,3.35-4.29,3.35-2,0-3.75-.46-4.37-1.65a1,1,0,0,1,.89-1.52,1.25,1.25,0,0,1,.46.09c1.09.53,1.69,1.71,3.23,1.71,1,0,1.74-.44,1.74-1.32,0-2-6.17-1.23-6.17-5C236.3,464.48,238.52,463.74,240.64,463.74Z" style="fill:#ff6b00"/><path d="M250.65,473.42a3.11,3.11,0,0,0,2.3-1.25.62.62,0,0,1,.43-.23c.21,0,.34.2.17.64a3.47,3.47,0,0,1-3.55,2.34,3.88,3.88,0,0,1-4.07-3.35,4.09,4.09,0,0,1,3.9-5c1.4,0,2.72.34,3.38,1.69.49,1,.12,1.77-.94,2.27l-3.35,1.58c-.11.07-.16.18-.08.28A1.93,1.93,0,0,0,250.65,473.42Zm-.26-3.43c.66-.29,1-.63.69-1.22a1.69,1.69,0,0,0-1.47-1,1.35,1.35,0,0,0-.43.06c-1.15.29-1.41,1.63-1.09,3a.19.19,0,0,0,.18.14h.08Z" style="fill:#ff6b00"/></g><g style="isolation:isolate"><path d="M259.66,466.58c1,0,1.66.45,1.66,1.28A1.1,1.1,0,0,1,260.1,469c-.75,0-1.19-.37-1.58-.37a.57.57,0,0,0-.28.06,2.32,2.32,0,0,0-.68,1.56V473c0,.76.83.67.83,1.23,0,.4-.26.53-.76.59a8.45,8.45,0,0,1-1.16.08,10.57,10.57,0,0,1-1.23-.08c-.49-.06-.75-.19-.75-.59,0-.56.83-.47.83-1.23v-4.23c0-.66-.83-.76-.83-1.41,0-.36.32-.58,1-.58h.73a1.26,1.26,0,0,1,1.09.61c.07.17.12.67.16.83s0,.08.07.08,0,0,.05-.06A2.17,2.17,0,0,1,259.66,466.58Z" style="fill:#ff6b00"/></g><g style="isolation:isolate"><path d="M268.25,468.85c.4-1.13-.49-1.34-.26-1.83.11-.23.76-.33,1.38-.33s1.22.12,1.27.39c.06.52-.69.82-1.11,1.87l-1.84,4.57c-.3.79-.42,1.27-1,1.27h-.55c-.62,0-1-.49-1.36-1.27l-2.08-5c-.31-.72-1-.85-1-1.27s.25-.5.91-.5h.93c.62,0,1.06.47,1.38,1.25l1.77,4.22c0,.07.07.1.1.1s.08,0,.1-.1Z" style="fill:#ff6b00"/></g><g style="isolation:isolate"><path d="M276.25,473.42a3.11,3.11,0,0,0,2.3-1.25.62.62,0,0,1,.43-.23c.21,0,.34.2.18.64a3.49,3.49,0,0,1-3.56,2.34,3.88,3.88,0,0,1-4.07-3.35,4.09,4.09,0,0,1,3.9-5c1.4,0,2.72.34,3.38,1.69.49,1,.12,1.77-.94,2.27l-3.35,1.58c-.11.07-.16.18-.08.28A1.93,1.93,0,0,0,276.25,473.42ZM276,470c.66-.29,1-.63.7-1.22a1.7,1.7,0,0,0-1.48-1,1.35,1.35,0,0,0-.43.06c-1.15.29-1.41,1.63-1.09,3a.19.19,0,0,0,.18.14H274Z" style="fill:#ff6b00"/></g><g style="isolation:isolate"><path d="M290.84,463.77c3,0,5.4,1.79,5.4,5.65s-2.44,5.5-5.4,5.5-5.42-1.63-5.42-5.5S287.89,463.77,290.84,463.77Zm.2,9.94h.29c1.67-.18,2.6-1.61,2.26-4.57-.33-2.79-1.43-4.06-3-4.06h-.27c-1.69.18-2.64,1.66-2.3,4.62C288.39,472.5,289.49,473.71,291,473.71Z" style="fill:#ff6b00"/></g><g style="isolation:isolate"><path d="M303.75,468.85c.4-1.13-.49-1.34-.26-1.83.11-.23.76-.33,1.38-.33s1.22.12,1.27.39c.06.52-.69.82-1.11,1.87l-1.84,4.57c-.3.79-.42,1.27-1,1.27h-.55c-.62,0-1-.49-1.36-1.27l-2.08-5c-.31-.72-1-.85-1-1.27s.25-.5.91-.5h.93c.62,0,1.06.47,1.38,1.25l1.77,4.22c0,.07.07.1.1.1s.08,0,.1-.1Z" style="fill:#ff6b00"/></g><g style="isolation:isolate"><path d="M310.75,473.42a3.11,3.11,0,0,0,2.3-1.25.62.62,0,0,1,.43-.23c.21,0,.34.2.18.64a3.49,3.49,0,0,1-3.56,2.34,3.88,3.88,0,0,1-4.07-3.35,4.09,4.09,0,0,1,3.9-5c1.4,0,2.72.34,3.38,1.69.49,1,.12,1.77-.94,2.27L309,472.12c-.11.07-.16.18-.08.28A1.93,1.93,0,0,0,310.75,473.42Zm-.26-3.43c.66-.29,1-.63.7-1.22a1.7,1.7,0,0,0-1.48-1,1.35,1.35,0,0,0-.43.06c-1.15.29-1.41,1.63-1.09,3a.19.19,0,0,0,.18.14h.09Z" style="fill:#ff6b00"/></g><g style="isolation:isolate"><path d="M320.26,466.58c1,0,1.66.45,1.66,1.28A1.1,1.1,0,0,1,320.7,469c-.75,0-1.19-.37-1.58-.37a.57.57,0,0,0-.28.06,2.32,2.32,0,0,0-.68,1.56V473c0,.76.83.67.83,1.23,0,.4-.26.53-.76.59a8.45,8.45,0,0,1-1.16.08,10.57,10.57,0,0,1-1.23-.08c-.49-.06-.75-.19-.75-.59,0-.56.83-.47.83-1.23v-4.23c0-.66-.83-.76-.83-1.41,0-.36.33-.58,1-.58h.73a1.26,1.26,0,0,1,1.09.61c.07.17.12.67.16.83s0,.08.07.08,0,0,.05-.06A2.17,2.17,0,0,1,320.26,466.58Z" style="fill:#ff6b00"/></g><g style="isolation:isolate"><path d="M238.69,492c0,.6.79.59.79,1.19,0,.42-.29.57-.84.62a9.46,9.46,0,0,1-1.09.08c-.38,0-.76,0-1.17-.08s-.85-.2-.85-.62c0-.6.8-.59.8-1.19v-7c0-.77-.8-.82-.8-1.48,0-.38.31-.65,1.09-.65h1.76c.78,0,1.09.27,1.09.65,0,.66-.78.71-.78,1.48Z" style="fill:#ff6b00"/></g><g style="isolation:isolate"><path d="M243.08,489.72a2.5,2.5,0,0,0,2.27,2.59h.23a3.06,3.06,0,0,0,2.26-1.12.61.61,0,0,1,.44-.21c.23,0,.39.2.23.65a3.65,3.65,0,0,1-3.5,2.28,3.76,3.76,0,0,1-4-3.35c-.51-3.06,1.28-5,4.11-5,1.75,0,3,.44,3.44,1.79a1.1,1.1,0,0,1-1.09,1.51,1.5,1.5,0,0,1-.79-.23c-1-.67-.93-2-1.76-2l-.11,0C243.75,486.77,242.9,487.9,243.08,489.72Z" style="fill:#ff6b00"/></g><g style="isolation:isolate"><path d="M254.25,492.42a3.11,3.11,0,0,0,2.3-1.25.62.62,0,0,1,.43-.23c.21,0,.34.2.18.64a3.49,3.49,0,0,1-3.56,2.34,3.88,3.88,0,0,1-4.07-3.35,4.09,4.09,0,0,1,3.9-5c1.4,0,2.72.34,3.38,1.69.49,1,.12,1.77-.94,2.27l-3.35,1.58c-.11.07-.16.18-.08.28A1.93,1.93,0,0,0,254.25,492.42ZM254,489c.66-.29,1-.63.7-1.22a1.7,1.7,0,0,0-1.48-1,1.35,1.35,0,0,0-.43.06c-1.15.29-1.41,1.63-1.09,3a.19.19,0,0,0,.18.14H252Z" style="fill:#ff6b00"/></g><g style="isolation:isolate"><path d="M267.4,493.92c-2.66,0-4.94-1-4.94-3.32a3.12,3.12,0,0,1,2.08-2.81c.12-.05.12-.13,0-.21a2.83,2.83,0,0,1-1.09-2.23c0-1.62,1.53-2.58,3.59-2.58a3.83,3.83,0,0,1,3.66,1.79,1,1,0,0,1-.91,1.51,1.24,1.24,0,0,1-1-.56c-.32-.47-.88-1.43-1.75-1.43s-1.47.44-1.47,1.35a2.06,2.06,0,0,0,.93,1.66c.94.76,2.32,1.82,3.62,2.83a.19.19,0,0,0,.1.05s.1-.05.12-.12a9.29,9.29,0,0,0,.34-1.47,1,1,0,0,1,1-.93c.49,0,1,.4.83,1.38a6.29,6.29,0,0,1-.68,2.18.22.22,0,0,0,.06.29c.67.52,1.19.94,1.48,1.19.47.39-.18,1.31-.76,1.31a.45.45,0,0,1-.31-.11L271,492.62a.2.2,0,0,0-.14-.05.19.19,0,0,0-.15.06A4.56,4.56,0,0,1,267.4,493.92Zm-2.29-3.4a2.19,2.19,0,0,0,2.42,2.08,2.43,2.43,0,0,0,1.94-.89.2.2,0,0,0,0-.28L266.28,489a.2.2,0,0,0-.16-.07.15.15,0,0,0-.13.07A2.14,2.14,0,0,0,265.11,490.52Z" style="fill:#ff6b00"/></g><g style="isolation:isolate"><path d="M279.22,482.9h6.16c1.06,0,1.61.44,1.61,1.1v.3c0,.55-.26.95-.84.95-.78,0-.95-.73-1.68-.73h-2.6c-.37,0-.47.26-.47.69v2.3a.16.16,0,0,0,.18.18h2.16c.46,0,.49-.76,1.07-.76s.57.31.64.68a8.12,8.12,0,0,1,0,1.56c-.05.37-.2.68-.64.68s-.61-.76-1.07-.76h-2.16a.16.16,0,0,0-.18.18v2.14c0,.39.13.75.57.75h2.71c.73,0,.9-.7,1.68-.73h0c.44,0,.81.28.81,1v.29c0,.67-.55,1.11-1.61,1.11H279c-.56,0-.87-.18-.87-.61s.82-.58.82-1.15v-7c0-.77-.82-.82-.82-1.48C278.13,483.17,278.46,482.9,279.22,482.9Z" style="fill:#ff6b00"/></g><g style="isolation:isolate"><path d="M293.79,485.58a2.49,2.49,0,0,1,2.76,2.7v3.59c0,.8.7.68.7,1.28,0,.43-.24.57-.63.62a9.72,9.72,0,0,1-1.17.08,9.62,9.62,0,0,1-1.22-.08c-.49-.06-.75-.19-.75-.62,0-.6.83-.48.83-1.28V489c0-1.19-.45-1.84-1.3-1.84-1.2,0-1.88,2.11-1.95,3.12v1.61c0,.8.7.68.7,1.28,0,.43-.24.57-.63.62a9.72,9.72,0,0,1-1.17.08,9.49,9.49,0,0,1-1.22-.08c-.49-.06-.75-.19-.75-.59,0-.56.83-.47.83-1.23v-4.24c0-.65-.83-.75-.83-1.4,0-.36.32-.58,1-.58h.73a1.28,1.28,0,0,1,1.25.79c0,.15,0,.59.07.77s0,.08.06.08.05,0,.09-.07A3,3,0,0,1,293.79,485.58Z" style="fill:#ff6b00"/><path d="M299.84,485.73h.71a1.29,1.29,0,0,1,1.37,1.25v6.48c0,1.93-.43,3.48-2.6,3.48-1.3,0-2.08-.47-2.34-1.14s0-1.35.78-1.35c.92,0,.84,1.53,1.41,1.53.41,0,.49-.81.49-3.09v-5.17c0-.66-.83-.76-.83-1.41C298.83,486,299.17,485.73,299.84,485.73Zm.76-3.84a1.36,1.36,0,1,1-1.51,1.35A1.36,1.36,0,0,1,300.6,481.89Z" style="fill:#ff6b00"/></g><g style="isolation:isolate"><path d="M308.08,485.58a4.17,4.17,0,1,1-4.13,4.16A3.81,3.81,0,0,1,308.08,485.58Zm-.18,1.09h-.16c-1,.1-1.58,1-1.35,3.23s.89,2.93,1.85,2.93h.17c1-.08,1.57-1,1.36-3.24C309.56,487.53,308.88,486.67,307.9,486.67Z" style="fill:#ff6b00"/></g><g style="isolation:isolate"><path d="M318.63,487.85c.39-1.13-.49-1.34-.26-1.83.11-.23.72-.33,1.35-.33s1.27.1,1.3.39c.08.52-.67.82-1.09,1.87L317.07,495c-.57,1.4-1.25,2.07-2.31,2.07-1.31,0-2.26-1-1.8-1.87.13-.24.27-.32.44-.32.37,0,.81.37,1.31.37s.93-.28,1.52-1.5a1.92,1.92,0,0,1-1.09-1.23l-2.08-5c-.31-.72-.95-.85-.95-1.27s.25-.5.91-.5H314c.62,0,1.06.47,1.38,1.25l1.76,4.16c0,.06.06.11.11.11s.07-.05.1-.11Z" style="fill:#ff6b00"/><path d="M324.14,489.5c-.08.47-.23.79-.68.79s-.62-.32-.7-.79l-.64-4.8c-.18-1.12.41-2,1.37-2s1.53.87,1.35,2Zm-.65,2a1.19,1.19,0,1,1-1.29,1.19A1.17,1.17,0,0,1,323.49,491.54Z" style="fill:#ff6b00"/></g><rect x="227.5" y="343.09" width="23.4" height="1.9" style="fill:#fff"/><rect x="238.2" y="333.19" width="1.9" height="21.8" style="fill:#fff"/><rect x="238.46" y="335.57" width="1.9" height="17.8" transform="translate(-175.79 284.65) rotate(-47)" style="fill:#fff"/><rect x="230.01" y="342.63" width="17.8" height="1.9" transform="translate(-170.14 255.23) rotate(-43)" style="fill:#fff"/><rect x="312.3" y="405.19" width="23.8" height="1.9" style="fill:#fff"/><rect x="323.2" y="395.09" width="1.9" height="22.1" style="fill:#fff"/><rect x="323.38" y="397.6" width="1.9" height="18.1" transform="translate(-194.27 366.53) rotate(-47)" style="fill:#fff"/><rect x="314.81" y="404.68" width="18.1" height="1.9" transform="translate(-189.63 329.83) rotate(-43)" style="fill:#fff"/><path d="M134.5,216.3s25.2,10.8,43.7,3.2l-9.9-4.7,10,4.7-4.7,10.3" style="fill:none;stroke:#ff6b00;stroke-miterlimit:10"/><path d="M157,393.39s24.8,10.2,50.4,1.7l-9.9-4.7,10.1,4.7-4.7,10.3" style="fill:none;stroke:#ff6b00;stroke-miterlimit:10"/><path id="SVGID_1_" d="M-19.1,130.8S67.4,87.7,171.8,83.2s226.7,62.6,411.6,55.2S783.1,111,783.1,111" style="fill:none"/><path d="M16.68,58.89l5.5-1.78c2.42-.79,3.41-.16,3.78,1,.67,2.08-1.45,2.93-.68,5.3l2.6,8a.75.75,0,0,0,1,.51l13.18-4.26a.75.75,0,0,0,.51-1l-2.6-8c-.76-2.38-3-1.81-3.71-3.88-.37-1.16.06-2.25,2.48-3L44.25,50c2.42-.79,3.66-.24,4,.92.67,2.07-1.75,3-1,5.4l7,21.61c.6,1.87,3.06,1,3.67,2.88.42,1.32-.34,2.06-2,2.77a25.75,25.75,0,0,1-7,2.26c-1.44.35-2.73.16-3.17-1.21-.63-1.91,1.7-2.67,1.08-4.59l-2.34-7.22a.75.75,0,0,0-1-.51L30.37,76.55a.74.74,0,0,0-.51,1l2.33,7.22c.62,1.92,2.69,1.25,3.32,3.17.44,1.36-.29,2.21-1.62,2.75a28.52,28.52,0,0,1-3.35,1.37,29.28,29.28,0,0,1-3.67.9c-1.72.39-2.82.25-3.25-1.06C23,90,25.56,89.26,25,87.39L18,65.78c-.77-2.37-3.34-1.71-4-3.78C13.57,60.84,14.3,59.66,16.68,58.89Z" style="fill:#f16a21"/><path d="M68.65,52.85c7.23-1.7,14.06.89,16.23,10.14s-2.77,14.66-10,16.36-14.06-.89-16.24-10.19S61.37,54.56,68.65,52.85Zm.25,3.59-.52.12c-3.23,1.09-4.23,4.49-1.87,11.29,2.21,6.41,5,8.64,8.07,7.92l.52-.12c3.3-1.05,4.25-4.44,1.92-11.3C74.81,57.94,72,55.71,68.9,56.44Z" style="fill:#f16a21"/><path d="M84.18,51.07c-.15-1,.55-1.74,2.71-2l2.89-.41c2-.29,4,.93,5.09,3.4l6.85,13.83c.14.25.21.34.31.33s.2-.14.22-.35l2.24-11a2.41,2.41,0,0,0-.21-1.47l-.39-.85c-1.13-2.26-3.44-2.3-3.63-3.67-.15-1.05.55-1.74,2.71-2.05l2.94-.42c2-.28,4,.89,5.1,3.41l6.45,13.34c.09.2.21.35.27.34s.18-.19.21-.41L120,51.33c.73-3.91-2.72-4.06-2.16-5.75.21-.78,2.27-1.4,4.32-1.69s4-.19,4.22.69c.51,1.64-2.11,2.82-2.71,6.55l-2.47,15.42c-.41,2.79-1.15,4.34-3.41,4.66l-1.21.18c-1.94.27-3.78-1-4.94-3.48l-4.11-7.73c-.09-.25-.21-.34-.26-.34s-.14.13-.21.41l-1.78,8.56c-.58,2.71-1.31,4.37-3.36,4.66l-1.21.17c-2,.29-3.79-1-4.95-3.47l-8-15.44C86.68,52.48,84.37,52.44,84.18,51.07Z" style="fill:#f16a21"/><path d="M144,37.34l0-.64c.11-2.17,1.83-3.52,5.27-3.34l25,1.27c3.45.18,5,1.69,4.86,3.86l0,.64c-.1,2-1.37,3-2.86,2.94-2.54-.13-2.81-2.17-5.14-2.28L166,39.52a.54.54,0,0,0-.62.56l-1.21,23.74c-.1,2,2.45,2,2.35,4-.07,1.38-1.05,1.81-2.86,1.88a26.08,26.08,0,0,1-3.56.08,31.32,31.32,0,0,1-3.81-.46c-1.79-.25-2.72-.77-2.65-2.15.1-2,2.7-1.78,2.8-3.74l1.21-23.75a.54.54,0,0,0-.56-.61l-5.19-.27c-2.28-.11-2.81,1.88-5.35,1.75C145.07,40.48,143.91,39.35,144,37.34Z" style="fill:#f16a21"/><path d="M191.42,45.9c7.35,1.11,12.72,6.06,11.3,15.45s-8,12.58-15.38,11.47-12.71-6.06-11.28-15.51S184,44.78,191.42,45.9Zm-1.11,3.43-.52-.08c-3.41-.2-5.6,2.58-5.94,9.78-.33,6.77,1.46,9.88,4.55,10.35l.53.08c3.45.25,5.59-2.53,6-9.77C195.24,52.92,193.46,49.8,190.31,49.33Z" style="fill:#f16a21"/><path d="M228.25,43.87l19.63,4.44c3.36.76,4.8,2.56,4.32,4.68l-.21.94c-.4,1.76-1.52,2.86-3.38,2.44-2.46-.67-2.48-3-4.81-3.54L235.52,51c-1.19-.27-1.69.49-2,1.83l-1.67,7.36a.53.53,0,0,0,.44.69l6.89,1.56c1.45.33,2.1-2.08,4-1.66,1.39.32,1.59,1.4,1.52,2.63a27,27,0,0,1-1.12,5c-.43,1.16-1.11,2-2.51,1.72-1.87-.42-1.42-2.88-2.87-3.21L231.3,65.3a.52.52,0,0,0-.7.44l-1.55,6.83c-.28,1.24-.12,2.48,1.27,2.79l8.65,2c2.33.53,3.35-1.58,5.86-1.12l.1,0c1.4.32,2.39,1.47,1.9,3.64l-.21.93c-.48,2.13-2.56,3.12-5.92,2.36l-21-4.75c-1.76-.4-2.62-1.2-2.31-2.54.42-1.87,3-1.28,3.42-3.09l5.05-22.32c.55-2.43-2-3.17-1.52-5.29C224.58,44,225.82,43.32,228.25,43.87Z" style="fill:#f16a21"/><path d="M272.53,63.11c5.53,1.29,8.06,5.15,6.78,10.63l-2.66,11.42c-.59,2.53,1.71,2.69,1.27,4.6-.32,1.34-1.2,1.63-2.48,1.49a30.46,30.46,0,0,1-3.78-.61,32.78,32.78,0,0,1-3.82-1.16c-1.5-.57-2.23-1.18-1.91-2.52.44-1.91,3-.93,3.59-3.47l2.14-9.2c.88-3.77-.08-6.17-2.77-6.8-3.82-.89-7.56,5.32-8.52,8.47l-1.19,5.12c-.59,2.53,1.71,2.69,1.27,4.6-.32,1.35-1.2,1.63-2.48,1.49a30.77,30.77,0,0,1-3.78-.61,30.29,30.29,0,0,1-3.81-1.16c-1.51-.57-2.24-1.17-1.95-2.42.43-1.8,3-.88,3.56-3.31l3.15-13.49c.48-2.06-2.08-3-1.6-5.06C253.8,60,255,59.5,257.13,60l2.32.54A4.22,4.22,0,0,1,262.84,64c-.06.48-.33,1.89-.36,2.48,0,.17,0,.28.15.31s.16,0,.3-.15C265.37,63.89,268.86,62.25,272.53,63.11Z" style="fill:#f16a21"/><path d="M291.25,67.86l2.29.51A4.21,4.21,0,0,1,297,73.32L292.45,94c-1.36,6.17-3.79,10.79-10.74,9.26-4.15-.91-6.3-3-6.66-5.27s1.1-4.27,3.43-3.75c3,.65,1.62,5.46,3.44,5.86,1.29.29,2.12-2.25,3.72-9.5l3.64-16.49c.47-2.12-2.11-3-1.65-5.09C287.88,67.88,289.13,67.4,291.25,67.86Zm5.14-11.69c2.95.65,4.49,2.78,3.92,5.37s-2.86,3.88-5.82,3.23-4.44-2.77-3.87-5.36S293.49,55.53,296.39,56.17Z" style="fill:#f16a21"/><path d="M316,72.59c7.29,1.44,12.44,6.62,10.6,15.94s-8.58,12.21-15.87,10.77-12.44-6.61-10.59-16S308.7,71.14,316,72.59ZM314.78,76l-.52-.1c-3.4-.34-5.71,2.34-6.37,9.51-.63,6.75,1,9.94,4.09,10.55l.52.1c3.44.41,5.7-2.28,6.42-9.5C319.55,79.77,317.9,76.58,314.78,76Z" style="fill:#f16a21"/><path d="M349.5,86c1.84-3.47-.88-4.6.1-6.06.48-.68,2.47-.68,4.52-.36s4,1,4,1.92c0,1.72-2.56,2.28-4.46,5.48l-12.83,21.29c-2.55,4.22-5.1,6-8.5,5.48-4.25-.67-6.79-4.3-4.87-7A1.62,1.62,0,0,1,329,106c1.21.19,2.43,1.62,4.06,1.88s3.13-.42,5.64-4c-1.4-.65-2.32-2.3-2.88-4.54L331.7,82c-.63-2.47-2.61-3.21-2.39-4.57.15-1,1-1.51,3.19-1.17l3,.48c2,.31,3.17,2.06,3.82,4.74l3.53,14.32c.08.22.16.4.31.42s.24-.12.37-.31Z" style="fill:#f16a21"/><path d="M69.21,91.64c6-1.38,11.15-1,15.23,3.18s1.78,7.92-1.48,8.67a5.23,5.23,0,0,1-5.48-2.27c-2.65-3.91-5.67-5.66-9-4.88a10.64,10.64,0,0,0-1.21.39c-4.19,1.68-5.09,7-2.56,14.11,2,6.28,7.14,11.09,14,9.5,3.36-.78,5.88-3.32,7.82-7.15a2.25,2.25,0,0,1,1.34-1.29c.77-.18,1.48.53,1.5,2-.23,7.25-5.19,11.72-11.82,13.2-8.79,2-18.26-1.65-21-13.55C53.67,101.23,60.11,93.75,69.21,91.64Z" style="fill:#f16a21"/><path d="M107.32,94c3.36-.51,5.58.66,6,3.33.31,2.42-1.08,3.92-3.38,4.27s-4-.62-5.28-.43a1.85,1.85,0,0,0-.86.34c-.9.78-1.5,2.81-1.44,5.37l1.32,8.71c.38,2.47,3,1.75,3.28,3.59.19,1.26-.58,1.8-2.18,2.26a28.51,28.51,0,0,1-3.68.83,36.25,36.25,0,0,1-4,.34c-1.61,0-2.51-.27-2.7-1.53-.28-1.83,2.44-1.92,2.07-4.39L94.36,103c-.32-2.15-3-2.06-3.36-4.16-.18-1.16.76-2,2.91-2.38l2.36-.35a4.11,4.11,0,0,1,3.82,1.46c.29.49.69,2.09.93,2.59.08.15.14.25.25.23s.09-.12.13-.23C102,97.18,103.7,94.51,107.32,94Z" style="fill:#f16a21"/><path d="M117.49,112.53C117,105.86,127,103.24,132.6,102a.64.64,0,0,0,.53-.73l-.09-1.16c-.26-3.44-1.48-5.48-4.08-5.28-2.8.22-3.69,3.16-5.16,4.87a4.16,4.16,0,0,1-2.82,1.38,2.94,2.94,0,0,1-3.4-2.61c-.26-3.44,5.43-6.32,11.14-6.76s11.19,1.54,11.7,8.2l.82,10.59c.26,3.49,2.3,2.22,3.17,3.27s-1.08,3.86-4.42,4.11a4.59,4.59,0,0,1-4.77-2.56c-.12-.2-.24-.3-.34-.29a.55.55,0,0,0-.35.29,10.41,10.41,0,0,1-7.64,3.84C122.87,119.46,117.92,118.14,117.49,112.53Zm12,2.38a4.74,4.74,0,0,0,4.33-4l-.4-5.24c0-.42-.25-.46-.62-.43-2.93.71-7.81,2.3-7.64,5.91A3.89,3.89,0,0,0,129.54,114.91Z" style="fill:#f16a21"/><path d="M148.65,91c1,0,1.59.12,2.38.21a.44.44,0,0,0,.55-.46l.17-4c.34-7.84,8.77-8.71,11.36-8.6,3.77.16,7.31.63,9.11,3.2,1.9,2.74.55,5.76-2.89,5.62s-3.12-5.34-6.09-5.57-4,2.11-4.08,4.82l-.22,5.25c0,.37.19.43.51.44a45.06,45.06,0,0,1,5.37-.19c2.39.1,2.21,4.39-.18,4.29a36.17,36.17,0,0,1-5.33-.81c-.32,0-.53,0-.55.4l-.68,16.12c-.11,2.55,2.56,2.29,2.48,4.2-.05,1.27-.86,1.61-2.52,1.75a21.49,21.49,0,0,1-3.77.1,26.7,26.7,0,0,1-4.07-.43c-1.59-.23-2.42-.69-2.37-2,.09-1.91,2.77-1.42,2.88-4l.66-15.64c0-.32-.19-.49-.51-.5-.58,0-1.33,0-2.39.06C146.19,95.28,146.27,90.93,148.65,91Z" style="fill:#f16a21"/><path d="M172,92.22c1.05.13,1.52.24,2.25.38a.43.43,0,0,0,.58-.41l.56-4.64c.23-1.89,4.18-2.75,6.36-3.08a1.55,1.55,0,0,1,.48,0c.74.09.87.74.78,1.53l-.88,7.27c0,.32.15.5.47.54a43.5,43.5,0,0,1,4.94.28c2.37.28,1.86,4.55-.52,4.26a41.25,41.25,0,0,1-4.84-1,.45.45,0,0,0-.59.41L180,111.41c-.36,3,.22,3.93,1.17,4,1.31.16,3.48-1.4,4.85-1.23a1.48,1.48,0,0,1,.61.23c1.55,1.37-1.29,6.32-7.67,5.55-3.16-.38-7.2-1.89-6.38-8.68l1.71-14.18a.44.44,0,0,0-.47-.53c-.48,0-1.12,0-2.29-.12C169.27,96.28,169.69,91.94,172,92.22Z" style="fill:#f16a21"/><path d="M228.12,101.12c5.25,1.07,7.69,4.81,6.57,10.32l-2.34,11.5c-.51,2.5,1.84,2.65,1.45,4.57-.26,1.3-1.19,1.6-2.47,1.51a28.41,28.41,0,0,1-7.65-1.56c-1.53-.47-2.26-1.11-2-2.41.39-1.92,3-1.07,3.49-3.57l1.88-9.26c.77-3.8-.1-6.14-2.55-6.64-3.12-.63-6.12,4.28-7.26,7.73l-1.28,6.3c-.5,2.5,1.8,2.64,1.4,4.56-.26,1.3-1.14,1.61-2.47,1.5a29,29,0,0,1-3.8-.5,30.59,30.59,0,0,1-3.79-1c-1.53-.47-2.35-1-2.08-2.32.39-1.92,3-1.17,3.51-3.67l1.88-9.26c.78-3.8-.05-6.13-2.49-6.63-3.12-.63-6.13,4.28-7.32,7.72l-1.26,6.25c-.52,2.54,1.79,2.63,1.4,4.56-.27,1.3-1.15,1.66-2.42,1.51a21.15,21.15,0,0,1-3.7-.48,33.72,33.72,0,0,1-3.95-1.07c-1.53-.48-2.28-1.06-2-2.31.38-1.87,3-1,3.45-3.41l2.75-13.53c.43-2.08-2.16-2.93-1.74-5,.23-1.15,1.42-1.66,3.55-1.23l2.35.48a4.19,4.19,0,0,1,3.33,3.33c0,.27-.27,1.84-.28,2.16s.09.35.2.37a.62.62,0,0,0,.36-.2c2.31-2.56,5.48-4.3,8.86-3.61,4.11.83,6.46,3.37,6.68,7.1.06.22.09.34.2.36s.23-.06.36-.2C221.34,102.23,224.58,100.4,228.12,101.12Z" style="fill:#f16a21"/><path d="M247.07,126.86c-.56,2.43,2.14,2.74,1.72,4.55-.28,1.24-1.21,1.46-2.86,1.29a28.15,28.15,0,0,1-3.73-.59,35.81,35.81,0,0,1-3.87-1.17c-1.5-.57-2.23-1.18-1.94-2.42.42-1.81,3-.89,3.55-3.31l3.12-13.45c.5-2.12-2.07-3-1.59-5.11.27-1.13,1.42-1.63,3.28-1.2l2.64.62c2.63.61,4,2.29,3.36,5Zm3.36-32.95c2.9.68,4.41,2.83,3.81,5.41s-2.91,3.85-5.81,3.18-4.46-2.84-3.86-5.43S247.54,93.24,250.43,93.91Z" style="fill:#f16a21"/><path d="M258.06,114.52c-.92-2.35-2.82-3.55-2.52-4.84.22-.93,1.36-1.38,3.43-.89l3.67.85c2,.46,2.53,2.45,3.56,5l2.33,5.89c.08.13.16.25.27.28a.47.47,0,0,0,.34-.09l1.64-1.19c4.13-2.74,1.48-5.38,2.89-6.52.55-.47,2.23-.46,3.78-.1s3.21,1.19,3.28,2.07c0,1.48-2.41,4.24-5.33,6l-4.92,3.1a.64.64,0,0,0-.22.71l3.36,8.47c1,2.35,2.83,3.55,2.53,4.84-.22.93-1.36,1.37-3.38.9l-3.67-.85c-2-.46-2.7-2.43-3.6-5.1l-2.37-6a.41.41,0,0,0-.32-.29.36.36,0,0,0-.28.05l-1.67,1.3c-4.11,2.69-1.51,5.31-2.87,6.46-.55.48-2.23.46-3.78.1s-3.21-1.18-3.28-2.07c0-1.48,2.41-4.24,5.33-6l4.93-3.15a.56.56,0,0,0,.27-.7Z" style="fill:#f16a21"/></svg>