<?xml version="1.0" encoding="utf-8"?>
<!-- Generator: Adobe Illustrator 25.2.0, SVG Export Plug-In . SVG Version: 6.00 Build 0)  -->
<svg version="1.1" id="Layer_1" xmlns="http://www.w3.org/2000/svg" xmlns:xlink="http://www.w3.org/1999/xlink" x="0px" y="0px"
	 viewBox="0 0 60.4 60.4" style="enable-background:new 0 0 60.4 60.4;" xml:space="preserve">
<style type="text/css">
	.st0{fill:none;stroke:#FF6B00;stroke-width:4;stroke-miterlimit:10;}
	.st1{fill-rule:evenodd;clip-rule:evenodd;fill:#FF6B00;}
</style>
<g id="e7595379-4216-42a8-825b-e30dfa4ff092">
	<g id="b029c314-7499-4cd0-a718-0f5945ab35d1">
		<circle class="st0" cx="30.2" cy="30.2" r="28.2"/>
	</g>
</g>
<path class="st1" d="M36.7,23.3c2.3,1.7,5.2,2.6,8.2,2.6v-4.6c-1.7-0.4-3.2-1.1-4.6-2.2c-1.8-1.5-3.1-3.5-3.5-5.8h-4.3v22.3
	c0,2.7-1.9,5.8-4.7,6.2c-1.6,0.2-3.6,0-4.7-0.7c-1.3-0.8-2.6-2.3-2.4-5c0.2-2.7,2.3-5.6,5-5.6c0.5,0,2.4,0.1,2.8,0.2v-4.7
	c-8.9-0.5-12,4.9-12,10.9c0,3,0.7,5,2.6,6.9c1.6,1.6,4.3,2.5,6.6,2.5c7.5,0,10.9-3.5,10.9-10.9L36.7,23.3z"/>
</svg>
