<svg id="a3d6ddcf-3cfe-4be0-8055-4ca9270874a2" data-name="Layer 1" xmlns="http://www.w3.org/2000/svg" viewBox="0 0 410 195"><polygon points="206.29 382.49 187.07 382.06 275.59 68.27 296.1 64.12 206.29 382.49" style="fill:#e10600"/><path d="M109.74,245.5c3.92-2.26,7.8-5.84,12.86-6.13-.69,5.09-1.81,10.28-2.89,15.35-.7,3.32-1.82,8.57-3.81,12.55C147.11,280,181.62,278.93,220.65,274c8.5-1.09,21.44-3,31-5.64-1.37-2.16-1.1-20.57-2-25.39-2.62-14.77-5.13-29.29-9.53-43.39q-1.57-5-3.53-9.84c-5.8,2.35-11.59,4.46-17.2,6.1,2-5,4.63-9.73,7.14-14.55,1.07-2.06,1.72-4.57,2.63-6.87-11.07-19.45-26.8-35.61-45-49.81a239.84,239.84,0,0,0-63.61-35.13,92.83,92.83,0,0,1-12.23,5.18c-6.26,1.92-11.39,5.93-17.35,8,2.45-5.84,5-14.14,10-19.6A243.73,243.73,0,0,0,16.32,74.4c-6.25,10.84-6.66,27.09-6.7,37.65,0,5.79,0,11.64.27,17.46,4.86-2,9.8-3.52,14-3.84-1.14,4.13-3.94,8.38-6.44,12-2,3-3.66,6.67-6.06,9.57,1.54,11.46,4.4,22.41,9.59,32.11,16.66,31.16,41.95,56.45,72.39,75.9C98.75,252,104.23,248.66,109.74,245.5Z" style="fill:#00945e"/><path d="M300.77,156l-63.86,34.08a6.91,6.91,0,0,0-2.83,9.33l34.09,63.85a6.89,6.89,0,0,0,9.32,2.84L341.35,232a6.89,6.89,0,0,0,2.83-9.33l-34.09-63.85A6.87,6.87,0,0,0,300.77,156Z" style="fill:#fffef9"/><path d="M259.54,181.87l-66.09-29.53a6.89,6.89,0,0,0-9.1,3.48l-29.52,66.09a6.88,6.88,0,0,0,3.48,9.1l66.08,29.53a6.91,6.91,0,0,0,9.11-3.48L263,191A6.87,6.87,0,0,0,259.54,181.87Z" style="fill:#fffef9"/><path d="M108.23,189.22,44.07,155.7a6.88,6.88,0,0,0-9.29,2.92L1.25,222.77a6.9,6.9,0,0,0,2.92,9.3l64.15,33.52a6.89,6.89,0,0,0,9.3-2.92l33.52-64.15A6.89,6.89,0,0,0,108.23,189.22Z" style="fill:#fffef9"/><path d="M143.15,179.37,79,145.84a6.89,6.89,0,0,0-9.29,2.92L36.17,212.92a6.89,6.89,0,0,0,2.92,9.29l64.16,33.52a6.87,6.87,0,0,0,9.29-2.91l33.52-64.16A6.87,6.87,0,0,0,143.15,179.37Z" style="fill:#fffef9"/><path d="M118,151.47,53.92,185.1a6.89,6.89,0,0,0-2.9,9.3l33.63,64.1a6.88,6.88,0,0,0,9.3,2.9l64.1-33.62a6.9,6.9,0,0,0,2.9-9.31l-33.62-64.1A6.91,6.91,0,0,0,118,151.47Z" style="fill:#fffef9"/><path d="M154.32,140.2,91.1,175.45a6.9,6.9,0,0,0-2.67,9.38l35.25,63.22a6.9,6.9,0,0,0,9.38,2.66l63.22-35.25a6.89,6.89,0,0,0,2.66-9.37l-35.25-63.22A6.89,6.89,0,0,0,154.32,140.2Z" style="fill:#fffef9"/></svg>