<svg id="b5ac561a-9d4a-4cb6-b6e7-a8ae4bebf962" data-name="Layer 1" xmlns="http://www.w3.org/2000/svg" viewBox="0 0 410 195"><polygon points="281.8 83.11 170.67 261.75 189.46 266.7 306.07 59.76 281.8 83.11" style="fill:#672f25"/><polygon points="305 36.81 318.36 38.57 325.26 15.56 313.32 12.46 305 36.81" style="fill:#672f25"/><polygon points="145.84 90.38 372.84 193.5 306.64 46.53 145.84 90.38" style="fill:#00945e"/><path d="M101.37,245.75c3.92-2.26,7.8-5.84,12.86-6.13-.69,5.09-1.81,10.28-2.89,15.35-.7,3.32-1.82,8.57-3.81,12.55,31.21,12.71,65.72,11.66,104.74,6.68,8.51-1.09,21.45-3,31-5.64-1.37-2.16-1.1-20.57-2-25.39-2.62-14.77-5.13-29.29-9.53-43.39q-1.57-5-3.53-9.84A182.52,182.52,0,0,1,211,196c2-5,4.64-9.73,7.15-14.55,1.07-2.06,1.72-4.57,2.63-6.87-11.07-19.45-26.8-35.61-45-49.81a239.84,239.84,0,0,0-63.61-35.13A93.4,93.4,0,0,1,100,94.86c-6.26,1.92-11.4,5.93-17.36,8,2.46-5.84,5-14.14,10-19.6A243.73,243.73,0,0,0,8,74.65c-6.26,10.84-6.66,27.09-6.7,37.65,0,5.79,0,11.64.27,17.46,4.86-2,9.8-3.52,14-3.83-1.13,4.12-3.94,8.37-6.43,12-2,3-3.66,6.67-6.06,9.57,1.54,11.46,4.4,22.41,9.59,32.11,16.66,31.16,42,56.45,72.39,75.9C90.38,252.2,95.86,248.91,101.37,245.75Z" style="fill:#ffcad9"/><path d="M292.4,156.23l-63.86,34.08a6.91,6.91,0,0,0-2.83,9.33l34.09,63.85a6.89,6.89,0,0,0,9.32,2.84L333,232.24a6.9,6.9,0,0,0,2.83-9.33l-34.09-63.85A6.87,6.87,0,0,0,292.4,156.23Z" style="fill:#fffef9"/><path d="M251.17,182.12l-66.09-29.53a6.89,6.89,0,0,0-9.1,3.48l-29.53,66.09a6.89,6.89,0,0,0,3.48,9.1L216,260.79a6.89,6.89,0,0,0,9.1-3.48l29.53-66.09A6.88,6.88,0,0,0,251.17,182.12Z" style="fill:#fffef9"/><path d="M99.86,189.47,35.7,156a6.89,6.89,0,0,0-9.3,2.92L-7.12,223a6.9,6.9,0,0,0,2.92,9.3L60,265.84a6.89,6.89,0,0,0,9.3-2.92l33.52-64.15A6.9,6.9,0,0,0,99.86,189.47Z" style="fill:#fffef9"/><path d="M134.78,179.62,70.62,146.09a6.9,6.9,0,0,0-9.3,2.92L27.8,213.17a6.89,6.89,0,0,0,2.92,9.29L94.87,256a6.88,6.88,0,0,0,9.3-2.91l33.52-64.16A6.87,6.87,0,0,0,134.78,179.62Z" style="fill:#fffef9"/><path d="M109.65,151.72l-64.1,33.63a6.89,6.89,0,0,0-2.9,9.3l33.63,64.1a6.88,6.88,0,0,0,9.3,2.9L149.68,228a6.9,6.9,0,0,0,2.9-9.31L119,154.62A6.89,6.89,0,0,0,109.65,151.72Z" style="fill:#fffef9"/><path d="M146,140.45,82.73,175.7a6.9,6.9,0,0,0-2.67,9.38l35.25,63.22a6.9,6.9,0,0,0,9.38,2.66l63.22-35.25a6.89,6.89,0,0,0,2.66-9.37l-35.25-63.22A6.89,6.89,0,0,0,146,140.45Z" style="fill:#fffef9"/></svg>