<svg id="b91cdb36-13a4-461d-949d-0a0c71c27ea5" data-name="Layer 1" xmlns="http://www.w3.org/2000/svg" viewBox="0 0 410 195"><path d="M206.94,159.4a224.82,224.82,0,0,1,24.62,28.85c54.34,76.55-40.93,171.82-117.48,117.48A225.49,225.49,0,0,1,85.23,281.1,270,270,0,0,1,6.09,80.25C103.85,135.3,151.68,104.14,206.94,159.4Z" style="fill:#00945e;fill-rule:evenodd"/><path d="M334.92,107.94C254.76,129.78,169.64,147.82,92,178.8c2.16,24.53,44.22,127.38,169.72,86.29C317.07,247,357,161.48,334.92,107.94Z" style="fill:#ff6b00"/><path d="M321.37,111.53c-81.62,21.74-138.29,33.32-216.06,62.1,27.49,85.81,125.32,98.19,182.8,46.86C319.58,192.38,320.66,148.17,321.37,111.53Z" style="fill:#ffd600"/><path d="M304.25,153.42,240.4,187.51a6.9,6.9,0,0,0-2.84,9.33l34.09,63.85a6.88,6.88,0,0,0,9.32,2.83l63.86-34.08a6.89,6.89,0,0,0,2.83-9.33l-34.09-63.85A6.89,6.89,0,0,0,304.25,153.42Z" style="fill:#fffef9"/><path d="M263,179.31l-66.08-29.52a6.89,6.89,0,0,0-9.11,3.48l-29.52,66.09a6.88,6.88,0,0,0,3.48,9.1L227.88,258a6.88,6.88,0,0,0,9.1-3.48l29.52-66.08A6.89,6.89,0,0,0,263,179.31Z" style="fill:#fffef9"/><path d="M111.71,186.67,47.55,153.15a6.88,6.88,0,0,0-9.29,2.91L4.74,220.22a6.89,6.89,0,0,0,2.91,9.3L71.81,263a6.89,6.89,0,0,0,9.29-2.92L114.63,196A6.9,6.9,0,0,0,111.71,186.67Z" style="fill:#fffef9"/><path d="M146.63,176.81,82.48,143.29a6.9,6.9,0,0,0-9.3,2.92L39.66,210.36a6.88,6.88,0,0,0,2.91,9.3l64.16,33.52a6.88,6.88,0,0,0,9.29-2.91l33.53-64.16A6.9,6.9,0,0,0,146.63,176.81Z" style="fill:#fffef9"/><path d="M121.5,148.92,57.4,182.55a6.88,6.88,0,0,0-2.9,9.3L88.13,256a6.89,6.89,0,0,0,9.3,2.9l64.1-33.63a6.88,6.88,0,0,0,2.9-9.3l-33.62-64.1A6.9,6.9,0,0,0,121.5,148.92Z" style="fill:#fffef9"/><path d="M157.8,137.65,94.58,172.9a6.87,6.87,0,0,0-2.66,9.37l35.24,63.23a6.9,6.9,0,0,0,9.38,2.66l63.22-35.25a6.88,6.88,0,0,0,2.66-9.37l-35.25-63.23A6.89,6.89,0,0,0,157.8,137.65Z" style="fill:#fffef9"/></svg>