<svg id="a7ecf5f8-5127-47c6-9482-9cb7cb1fea86" data-name="Layer 1" xmlns="http://www.w3.org/2000/svg" viewBox="0 0 410 195"><path d="M16.23,155.2,2,143.46s62.31-88.55,201.52-78.1l-5.18,17.8S76.32,144.12,16.23,155.2Z" style="fill:#e10600"/><path d="M161.44,263,16.23,155.2s68.89-67.43,182.14-72C183.64,150.43,161.44,263,161.44,263Z" style="fill:#ffd600"/><polygon points="277.35 95.89 190.11 287.34 209.38 289.84 298.41 69.62 277.35 95.89" style="fill:#672f25"/><polygon points="294.4 47 307.87 47.02 311.76 23.32 299.52 21.78 294.4 47" style="fill:#672f25"/><polygon points="143.45 120.59 381.83 193.66 297.27 56.43 143.45 120.59" style="fill:#00945e"/><path d="M254.17,186l-66.09-29.53a6.89,6.89,0,0,0-9.1,3.48L149.45,226a6.89,6.89,0,0,0,3.48,9.1L219,264.64a6.89,6.89,0,0,0,9.1-3.48l29.53-66.09A6.89,6.89,0,0,0,254.17,186Z" style="fill:#fffef9"/><path d="M102.85,193.33,38.7,159.8a6.9,6.9,0,0,0-9.3,2.92L-4.12,226.87a6.88,6.88,0,0,0,2.91,9.3L63,269.69a6.89,6.89,0,0,0,9.3-2.91l33.52-64.16A6.89,6.89,0,0,0,102.85,193.33Z" style="fill:#fffef9"/><path d="M137.77,183.47,73.62,150a6.89,6.89,0,0,0-9.3,2.91L30.8,217a6.9,6.9,0,0,0,2.91,9.3l64.16,33.52a6.89,6.89,0,0,0,9.3-2.92l33.52-64.15A6.9,6.9,0,0,0,137.77,183.47Z" style="fill:#fffef9"/><path d="M112.65,155.58,48.55,189.2a6.9,6.9,0,0,0-2.91,9.3l33.63,64.11a6.89,6.89,0,0,0,9.3,2.9l64.1-33.63a6.89,6.89,0,0,0,2.9-9.3L122,158.48A6.89,6.89,0,0,0,112.65,155.58Z" style="fill:#fffef9"/><path d="M148.94,144.31,85.72,179.56a6.88,6.88,0,0,0-2.66,9.37l35.25,63.22a6.89,6.89,0,0,0,9.37,2.67l63.22-35.25a6.89,6.89,0,0,0,2.66-9.38L158.32,147A6.89,6.89,0,0,0,148.94,144.31Z" style="fill:#fffef9"/></svg>