<svg id="a58c6c47-1259-4076-ac67-6a0ea8145fe2" data-name="Layer 1" xmlns="http://www.w3.org/2000/svg" viewBox="0 0 410 195"><path d="M201.75,157.26a226.18,226.18,0,0,1,24.62,28.85c54.34,76.55-40.93,171.82-117.48,117.49A226.43,226.43,0,0,1,80,279,270.09,270.09,0,0,1,.89,78.12C98.66,133.16,146.49,102,201.75,157.26Z" style="fill:#00945e;fill-rule:evenodd"/><path d="M309.11,65c-65.17,45.41-136,89-196,141.81,9.81,21.41,87.46,99.37,191.08,24.68C349.36,198.89,346.16,106.12,309.11,65Z" style="fill:#ff6b00"/><path d="M298.81,72.35C241.57,113,180.94,149,128.06,192.7c28.55,77.68,154.33,42.29,182.21-18.55C325.53,140.84,310.89,105.28,298.81,72.35Z" style="fill:#e10600"/><path d="M310.4,154l-63.86,34.09a6.9,6.9,0,0,0-2.83,9.33l34.09,63.85a6.89,6.89,0,0,0,9.32,2.84L351,230.06a6.9,6.9,0,0,0,2.84-9.33l-34.09-63.85A6.89,6.89,0,0,0,310.4,154Z" style="fill:#fffef9"/><path d="M269.17,179.93l-66.09-29.52a6.89,6.89,0,0,0-9.1,3.48L164.45,220a6.89,6.89,0,0,0,3.48,9.1L234,258.61a6.89,6.89,0,0,0,9.1-3.48L272.65,189A6.91,6.91,0,0,0,269.17,179.93Z" style="fill:#fffef9"/><path d="M117.85,187.29,53.7,153.77a6.89,6.89,0,0,0-9.3,2.92L10.88,220.84a6.89,6.89,0,0,0,2.92,9.3L78,263.66a6.89,6.89,0,0,0,9.3-2.92l33.52-64.15A6.89,6.89,0,0,0,117.85,187.29Z" style="fill:#fffef9"/><path d="M152.78,177.43,88.62,143.91a6.9,6.9,0,0,0-9.3,2.92L45.8,211a6.89,6.89,0,0,0,2.92,9.3l64.15,33.52a6.89,6.89,0,0,0,9.3-2.91l33.52-64.16A6.9,6.9,0,0,0,152.78,177.43Z" style="fill:#fffef9"/><path d="M127.65,149.54l-64.1,33.63a6.89,6.89,0,0,0-2.9,9.3l33.62,64.1a6.9,6.9,0,0,0,9.31,2.9l64.1-33.62a6.91,6.91,0,0,0,2.9-9.31L137,152.44A6.89,6.89,0,0,0,127.65,149.54Z" style="fill:#fffef9"/><path d="M163.94,138.27l-63.22,35.25a6.9,6.9,0,0,0-2.66,9.38l35.25,63.22a6.89,6.89,0,0,0,9.37,2.66l63.23-35.25a6.89,6.89,0,0,0,2.66-9.37l-35.25-63.22A6.9,6.9,0,0,0,163.94,138.27Z" style="fill:#fffef9"/></svg>