<svg xmlns="http://www.w3.org/2000/svg" viewBox="0 0 60.42 60.42"><g id="e7595379-4216-42a8-825b-e30dfa4ff092" data-name="Layer 2"><g id="b029c314-7499-4cd0-a718-0f5945ab35d1" data-name="FOOTER"><circle cx="30.21" cy="30.21" r="28.21" style="fill:none;stroke:#ff6b00;stroke-miterlimit:10;stroke-width:4px"/><path d="M23,23.41a16.9,16.9,0,0,1,1.78.09.35.35,0,0,0,.41-.38V19.48c0-1.49,3-2.52,4.64-3a1.14,1.14,0,0,1,.37,0c.58,0,.74.5.74,1.12v5.71c0,.25.17.37.42.37a34.85,34.85,0,0,1,3.84-.25c1.87,0,1.87,3.35,0,3.35a32,32,0,0,1-3.84-.33.35.35,0,0,0-.42.38V37.52c0,2.32.54,3,1.29,3,1,0,2.56-1.4,3.64-1.4a1.11,1.11,0,0,1,.49.12c1.33.91-.41,5-5.42,5-2.48,0-5.75-.79-5.75-6.13V27a.34.34,0,0,0-.41-.37c-.38,0-.87.08-1.78.12C21.29,26.81,21.21,23.41,23,23.41Z" style="fill:#ff6b00"/></g></g></svg>