<?xml version="1.0" encoding="utf-8"?>
<!-- Generator: Adobe Illustrator 25.3.1, SVG Export Plug-In . SVG Version: 6.00 Build 0)  -->
<svg version="1.1" id="Layer_1" xmlns="http://www.w3.org/2000/svg" xmlns:xlink="http://www.w3.org/1999/xlink" x="0px" y="0px"
	 viewBox="0 0 1313 1046.8" style="enable-background:new 0 0 1313 1046.8;" xml:space="preserve">
<defs>
  <style>
@font-face {
  font-family: "Goldplay";
  font-weight: 500;
  src: url("Goldplay_Medium.otf") format("opentype");
}

@font-face {
  font-family: "Goldplay";
  font-weight: 800;
  src: url("Goldplay_SemiBold.otf") format("opentype");
}

@font-face {
  font-family: "Goldplay-SemiBold";
  font-weight: 600;
  src: url("Goldplay_SemiBold.otf") format("opentype");
}

@font-face {
  font-family: "Hornbill";
  font-weight: 700;
  src: url("hornbill.otf") format("opentype");
}

@font-face {
  font-family: "HornbillPersonalUse-Bold";
  font-weight: 700;
  src: url("hornbill.otf") format("opentype");
}

@font-face {
  font-family: HornbillPersonalUse-Bold;
  font-weight: 700;
  src: url("hornbill.otf") format("opentype");
}

@font-face {
  font-family: "Appetite";
  src: url("Appetite.otf") format("opentype");
}
  </style>
</defs>
<style type="text/css">
	.st0{fill:#FF6A00;}
	.st1{font-family:'Hornbill';}
	.st2{font-size:110px;}
	.st3{font-size:110.022px;}
	.st4{font-size:110.4939px;}
	.st5{font-size:110.1868px;}
	.st6{font-size:110.2472px;}
	.st7{font-size:109.4541px;}
	.st8{font-size:110.4665px;}
	.st9{font-size:109.8073px;}
	.st10{font-size:109.9835px;}
	.st11{font-size:110.4446px;}
</style>
<text transform="matrix(0.9995 3.315518e-02 -3.315518e-02 0.9995 4.2 168.3)" class="st0 st1 st2">C</text>
<text transform="matrix(0.9998 -1.919744e-02 1.919744e-02 0.9998 81 170.6)" class="st0 st1 st3">o</text>
<text transform="matrix(0.996 -8.889429e-02 8.889429e-02 0.996 145.4 169)" class="st0 st1 st2">c</text>
<text transform="matrix(0.9857 -0.1685 0.1685 0.9857 206.4 163.6)" class="st0 st1 st4">k</text>
<text transform="matrix(0.9681 -0.2504 0.2504 0.9681 270.7 151.8)" class="st0 st1 st5">t</text>
<text transform="matrix(0.9613 -0.2756 0.2756 0.9613 311.6001 141.4)" class="st0 st1 st2">a</text>
<text transform="matrix(0.9686 -0.2487 0.2487 0.9686 371.2 124.3)" class="st0 st1 st2">i</text>
<text transform="matrix(0.9778 -0.2095 0.2095 0.9778 400.4698 116.6987)" class="st0 st1 st6">l</text>
<text transform="matrix(0.988 -0.1547 0.1547 0.988 428.4 110.2)" class="st0 st1 st2">s</text>
<text transform="matrix(0.9949 -0.1011 0.1011 0.9949 479.5 102.4)" class="st0 st1 st7">,</text>
<text transform="matrix(0.9998 -1.999600e-02 1.999600e-02 0.9998 537.1404 96.7908)" class="st0 st1 st3">N</text>
<text transform="matrix(0.9991 4.187566e-02 -4.187566e-02 0.9991 616.6 95.6)" class="st0 st1 st2">o</text>
<text transform="matrix(0.9925 0.1219 -0.1219 0.9925 674.4 97.1)" class="st0 st1 st2">w</text>
<text transform="matrix(0.9646 0.2639 -0.2639 0.9646 788.2999 113.7001)" class="st0 st1 st2">G</text>
<text transform="matrix(0.9659 0.2588 -0.2588 0.9659 865.4 135.6)" class="st0 st1 st8">u</text>
<text transform="matrix(0.9817 0.1903 -0.1903 0.9817 933.5596 153.0101)" class="st0 st1 st9">i</text>
<text transform="matrix(0.9901 0.14 -0.14 0.9901 966.1702 159.2701)" class="st0 st1 st10">l</text>
<text transform="matrix(0.996 8.889429e-02 -8.889429e-02 0.996 997.6 163.9)" class="st0 st1 st11">t</text>
<text transform="matrix(1 8.726535e-03 -8.726535e-03 1 1071.9 169.8)" class="st0 st1 st2">F</text>
<text transform="matrix(0.9993 -3.838781e-02 3.838781e-02 0.9993 1137.9 170.3)" class="st0 st1 st2">r</text>
<text transform="matrix(0.9951 -9.931975e-02 9.931975e-02 0.9951 1188.4 168.5)" class="st0 st1 st2">e</text>
<text transform="matrix(0.9833 -0.1822 0.1822 0.9833 1249.7 162.4)" class="st0 st1 st2">e</text>
<image style="overflow:visible;" width="2000" height="2000" xlink:href="variety.png"  transform="matrix(0.5442 0 0 0.5442 88.9025 54.4235)">
</image>
</svg>
