<svg xmlns="http://www.w3.org/2000/svg" xmlns:xlink="http://www.w3.org/1999/xlink" viewBox="0 0 1078.78 167.9"><defs><clipPath id="b0b3cb85-d80a-4ef6-8181-62087d6f5087" transform="translate(-9.72 -9.28)"><rect x="66.47" y="74.17" width="62.56" height="43.66" style="fill:none"/></clipPath></defs><g id="f8e730f0-5b8f-4e88-92c6-212c241cccb6" data-name="Layer 2"><g id="a887f0d4-13ea-4cb8-82cb-7b18c38d8574" data-name="ART"><path d="M25.91,62.78a77.62,77.62,0,1,1,132,76.39" transform="translate(-9.72 -9.28)" style="fill:none;stroke:#00a7e1;stroke-miterlimit:10;stroke-width:2.90440011024475px"/><path d="M9.72,97.28l.07-2.87c0-.91.54-1.09,1.46-1.47l3.12-1.21.25-10.87-3-1.4c-.91-.39-1.42-.58-1.4-1.54l.06-2.68c0-.92.55-1.38,1.46-.92l21.17,10.6a1.83,1.83,0,0,1,1.21,1.75V87a1.89,1.89,0,0,1-1.29,1.74L11.13,98.3C10.2,98.69,9.7,98.23,9.72,97.28Zm8.25-7,9.34-3.64-9.16-4.18Z" transform="translate(-9.72 -9.28)" style="fill:#00a7e1"/><path d="M12.8,104.22l22.45-4.8c.83-.17,1.29.22,1.7,1.07l.82,1.89c.42.92-.13,1.53-1.06,1.73L13.82,109a1.28,1.28,0,0,1-1.69-1l-.44-2.09A1.29,1.29,0,0,1,12.8,104.22Z" transform="translate(-9.72 -9.28)" style="fill:#00a7e1"/><path d="M15.57,115.18l21.64-7.7c.79-.28,1.3,0,1.82.84l1,1.77c.55.86.08,1.53-.82,1.85l-22,7.84a1.28,1.28,0,0,1-1.81-.8l-.71-2A1.29,1.29,0,0,1,15.57,115.18Z" transform="translate(-9.72 -9.28)" style="fill:#00a7e1"/><path d="M54.87,139l-16,13.67a1.5,1.5,0,0,1-2.25-.26l-.19-.22a2.82,2.82,0,0,1-.4-2.51l3.07-18.15-10.49,8.93a1.29,1.29,0,0,1-2-.11l-1.36-1.59a1.33,1.33,0,0,1,.19-2l16-13.64a1.47,1.47,0,0,1,2.25.25l.19.23a2.87,2.87,0,0,1,.4,2.5l-3.05,18.13,10.49-8.93a1.28,1.28,0,0,1,2,.14L55,137A1.29,1.29,0,0,1,54.87,139Z" transform="translate(-9.72 -9.28)" style="fill:#00a7e1"/><path d="M65.12,158.55l-5,8.29a1.27,1.27,0,0,1-1.91.52l-1-.61a1.3,1.3,0,0,1-.45-1.95l.32-.54a8.66,8.66,0,0,1-6.49-1c-3.67-2.23-4.91-5.78-3.08-8.8,2-3.2,5.94-3.69,10-1.25A12.71,12.71,0,0,1,61,156.56l.51-.84c1.11-1.82.48-3.76-1.69-5.07a8.28,8.28,0,0,0-4.76-1.22c-.86,0-1.31-.46-1.3-1.4l0-.67c0-1.1.62-1.52,1.39-1.52A12.09,12.09,0,0,1,62,147.65C66,150.05,67.94,153.91,65.12,158.55Zm-6.4,2,.71-1.16a10.21,10.21,0,0,0-3.06-3.1c-2-1.21-3.9-1-4.82.5s-.21,3.1,1.64,4.23C55.24,162.22,57.79,162.05,58.72,160.51Z" transform="translate(-9.72 -9.28)" style="fill:#00a7e1"/><path d="M77.78,173.84a7.25,7.25,0,0,1-4.28-.14c-3.32-1.07-5.52-3.94-4.13-8.28l2.68-8.32-1.72-.55a1.31,1.31,0,0,1-.93-1.77l.28-.87a1.28,1.28,0,0,1,1.78-.86l1.71.55,1.42-4.4c.26-.81.84-1,1.77-.94l2,.22c1,.1,1.26.87,1,1.78l-1.55,4.83,3.88,1.25a1.27,1.27,0,0,1,1,1.73l-.28.87a1.3,1.3,0,0,1-1.79.89l-3.88-1.24-2.55,7.9c-.63,2,.08,3,1.45,3.43a3.32,3.32,0,0,0,1.77,0c1-.23,1.24.24,1.36.94l.16,1.67C79,173.38,78.34,173.67,77.78,173.84Z" transform="translate(-9.72 -9.28)" style="fill:#00a7e1"/><path d="M102.11,159.93l-1,15.69A1.3,1.3,0,0,1,99.62,177l-1.32-.08A1.32,1.32,0,0,1,97,175.36l.07-1a6.4,6.4,0,0,1-5.8,2.53c-4.47-.29-7.25-3.52-7-8L85,158.82a1.25,1.25,0,0,1,1.45-1.3l2.13.13a1.28,1.28,0,0,1,1.3,1.49l-.61,9.49c-.15,2.31,1.14,4,3.38,4.12s3.87-1.33,4-3.75l.61-9.39a1.24,1.24,0,0,1,1.44-1.3l2.13.14A1.27,1.27,0,0,1,102.11,159.93Z" transform="translate(-9.72 -9.28)" style="fill:#00a7e1"/><path d="M118.34,157.18l-.14,1.89a1.05,1.05,0,0,1-1.29,1.1,4.81,4.81,0,0,0-1.65,0c-2.38.43-3.39,2.48-2.91,5.09l1.57,8.6a1.28,1.28,0,0,1-1.09,1.65l-2.09.38a1.3,1.3,0,0,1-1.63-1.15l-2.82-15.48a1.27,1.27,0,0,1,1.12-1.62l1.37-.25a1.28,1.28,0,0,1,1.63,1.12l.2,1.12A5.78,5.78,0,0,1,115,156a7.16,7.16,0,0,1,2.33-.09A1,1,0,0,1,118.34,157.18Z" transform="translate(-9.72 -9.28)" style="fill:#00a7e1"/><path d="M137,155.64l4,8.86a1.25,1.25,0,0,1-.66,1.86l-1.07.48a1.31,1.31,0,0,1-1.86-.74l-.25-.57a8.71,8.71,0,0,1-4.51,4.78c-3.92,1.75-7.55.75-9-2.47-1.53-3.42.34-7,4.64-8.91a12.45,12.45,0,0,1,4.76-1l-.4-.91c-.87-2-2.82-2.53-5.13-1.49a8.28,8.28,0,0,0-3.71,3.22,1.2,1.2,0,0,1-1.89.28l-.54-.41a1.33,1.33,0,0,1-.45-2,12.12,12.12,0,0,1,5.38-4.61C130.55,150.09,134.83,150.67,137,155.64ZM135,162l-.56-1.24a10.25,10.25,0,0,0-4.29.75c-2.11.94-3,2.64-2.33,4.25s2.44,1.93,4.41,1C134.44,165.85,135.75,163.66,135,162Z" transform="translate(-9.72 -9.28)" style="fill:#00a7e1"/><path d="M147.08,160.33,133.65,141.7c-.49-.68-.32-1.26.3-2l1.4-1.51c.68-.76,1.45-.51,2,.27l13.68,19a1.28,1.28,0,0,1-.26,2l-1.73,1.24A1.3,1.3,0,0,1,147.08,160.33Z" transform="translate(-9.72 -9.28)" style="fill:#00a7e1"/><polyline points="91.57 55.06 96.4 39.78 111.88 34.2" style="fill:none;stroke:#ff6b00;stroke-miterlimit:10;stroke-width:3.78664005873129px"/><path d="M83.67,69a13.5,13.5,0,0,1-8.69.65A13.11,13.11,0,0,1,65.51,60a13.28,13.28,0,1,1,26.18-3.21" transform="translate(-9.72 -9.28)" style="fill:#ff6b00"/><path d="M97.44,113.44c25.52,0,28.43-7.34,28.43-12.86s-5.42-10.27-5.42-10.27-8.88-6-8.88-16.66,8.88-16.47,8.88-16.47h-46S83.3,63,83.3,73.65s-8.88,16.66-8.88,16.66S69,95.05,69,100.58,71.91,113.44,97.44,113.44Z" transform="translate(-9.72 -9.28)" style="fill:#e10600"/><g style="clip-path:url(#b0b3cb85-d80a-4ef6-8181-62087d6f5087)"><path d="M97.44,113.44c25.52,0,28.43-7.34,28.43-12.86s-5.42-10.27-5.42-10.27-8.88-6-8.88-16.66,8.88-16.47,8.88-16.47h-46S83.3,63,83.3,73.65s-8.88,16.66-8.88,16.66S69,95.05,69,100.58,71.91,113.44,97.44,113.44Z" transform="translate(-9.72 -9.28)" style="fill:#ff6b00"/></g><path d="M115.84,133.2H77.36s19.87-9.88,19.87-19.76C97.23,123.41,115.84,133.2,115.84,133.2Z" transform="translate(-9.72 -9.28)" style="fill:#ff6b00"/><path d="M261.28,51.8a77.62,77.62,0,1,1,133.24,79.34" transform="translate(-9.72 -9.28)" style="fill:none;stroke:#00a7e1;stroke-miterlimit:10;stroke-width:2.90440011024475px"/><path d="M245.06,64.24l20.58,4.25a1.29,1.29,0,0,1,1.11,1.69l-.43,2.09a1.27,1.27,0,0,1-1.68,1.08l-18-3.71-1.82,8.85a1.31,1.31,0,0,1-1.67,1.16l-1.26-.26a1.32,1.32,0,0,1-1.1-1.73l2.54-12.31A1.29,1.29,0,0,1,245.06,64.24Z" transform="translate(-9.72 -9.28)" style="fill:#00a7e1"/><path d="M249.18,83.88c5.5-.38,9.94,3.59,10.34,9.38s-3.44,10.29-8.94,10.67-9.94-3.54-10.34-9.33S243.69,84.27,249.18,83.88Zm1.06,15.22a5.21,5.21,0,1,0-5.75-4.8A5.16,5.16,0,0,0,250.24,99.1Z" transform="translate(-9.72 -9.28)" style="fill:#00a7e1"/><path d="M269,129.28l-17.13.68c-1.07,0-1.61-.3-1.93-1l-.09-.21a1.71,1.71,0,0,1,.56-2.12l8.36-7.85-11.45.74a1.72,1.72,0,0,1-1.94-1l-.09-.2a1.75,1.75,0,0,1,.56-2.13l12.21-12c.64-.64,1.35-.39,1.69.39l.82,1.88a1.67,1.67,0,0,1-.58,2.18L251.13,116,263.05,115a1.58,1.58,0,0,1,1.88,1l.08.17a1.63,1.63,0,0,1-.54,2.08l-8.7,7.91L267,124.8a1.72,1.72,0,0,1,2,1.06l.83,1.92C270.2,128.55,269.9,129.25,269,129.28Z" transform="translate(-9.72 -9.28)" style="fill:#00a7e1"/><path d="M272.19,140.77c4.47-5.51,12.17-6.07,17.76-1.54a12.47,12.47,0,0,1,4.72,8.71,1.21,1.21,0,0,1-1.3,1.49l-1.75,0a1.41,1.41,0,0,1-1.5-1.36,8.15,8.15,0,0,0-3-5.38,7.9,7.9,0,0,0-10,12.27,8.08,8.08,0,0,0,5.88,1.79c.94-.05,1.47.29,1.64,1.19l.34,1.69a1.22,1.22,0,0,1-1.2,1.58,12.38,12.38,0,0,1-9.54-2.82C268.76,153.93,267.73,146.28,272.19,140.77Z" transform="translate(-9.72 -9.28)" style="fill:#00a7e1"/><path d="M308.45,163.27l-3.51,9a1.26,1.26,0,0,1-1.78.84l-1.1-.42a1.3,1.3,0,0,1-.78-1.84l.22-.59a8.67,8.67,0,0,1-6.57.18c-4-1.56-5.85-4.83-4.57-8.12,1.35-3.49,5.2-4.68,9.59-3A12.4,12.4,0,0,1,304,162l.36-.93c.77-2-.19-3.77-2.56-4.69a8.32,8.32,0,0,0-4.9-.36,1.19,1.19,0,0,1-1.52-1.15l-.1-.66c-.17-1.09.34-1.6,1.11-1.74a12.07,12.07,0,0,1,7.06.57C307.81,154.75,310.41,158.2,308.45,163.27Zm-5.95,3.06.49-1.27a10.31,10.31,0,0,0-3.56-2.52c-2.15-.84-4-.3-4.65,1.34s.34,3.09,2.36,3.88C299.36,168.62,301.85,168,302.5,166.33Z" transform="translate(-9.72 -9.28)" style="fill:#00a7e1"/><path d="M312.22,173.71,316,151.05c.14-.84.67-1.12,1.61-1.19l2.06-.07c1-.06,1.38.67,1.22,1.61L317,174.5a1.27,1.27,0,0,1-1.57,1.19l-2.1-.34A1.31,1.31,0,0,1,312.22,173.71Z" transform="translate(-9.72 -9.28)" style="fill:#00a7e1"/><path d="M323.08,167.93c-.29-5.51,3.74-9.88,9.54-10.19s10.23,3.62,10.53,9.12-3.71,9.87-9.5,10.18S323.37,173.43,323.08,167.93Zm15.22-.81a5.2,5.2,0,1,0-4.88,5.66A5.15,5.15,0,0,0,338.3,167.12Z" transform="translate(-9.72 -9.28)" style="fill:#00a7e1"/><path d="M357.28,154.16l.1,1.9c0,.95-.5,1.23-1.15,1.24a5.14,5.14,0,0,0-1.63.21c-2.31.73-3.06,2.89-2.26,5.41l2.63,8.34a1.28,1.28,0,0,1-.86,1.78l-2,.64a1.31,1.31,0,0,1-1.77-1l-4.73-15a1.27,1.27,0,0,1,.91-1.75l1.33-.42a1.27,1.27,0,0,1,1.75.91l.35,1.08a5.78,5.78,0,0,1,3.84-4.18,7.62,7.62,0,0,1,2.3-.38C356.65,153,357.22,153.14,357.28,154.16Z" transform="translate(-9.72 -9.28)" style="fill:#00a7e1"/><path d="M354.88,146.42a3.16,3.16,0,1,1,4.25,1.38A3.16,3.16,0,0,1,354.88,146.42Zm11.24,20.5-7.14-14a1.28,1.28,0,0,1,.6-1.88l1.9-1a1.25,1.25,0,0,1,1.85.62l7.14,14a1.27,1.27,0,0,1-.56,1.89l-1.9,1A1.3,1.3,0,0,1,366.12,166.92Z" transform="translate(-9.72 -9.28)" style="fill:#00a7e1"/><path d="M383.15,153.9a7.53,7.53,0,0,0,2.58-4.23c.19-.81.52-1.22,1.37-1.11l1.24.13a1.07,1.07,0,0,1,1.07,1.32c-.25,2.66-2.24,5.4-4.27,7.05-4.28,3.47-10.14,3.35-13.85-1.22a9.53,9.53,0,1,1,14.54-12.3,1.29,1.29,0,0,1-.22,2.12l-9.88,8A5.32,5.32,0,0,0,383.15,153.9Zm-9.29-2.6,7.31-5.92a5,5,0,0,0-2.79-1.34,4.5,4.5,0,0,0-3.48,1.07A4.56,4.56,0,0,0,373.86,151.3Z" transform="translate(-9.72 -9.28)" style="fill:#00a7e1"/><circle cx="291.02" cy="48.41" r="16.13" style="fill:#00945e"/><path d="M361.11,56.66H298.44c0,5.76-1.68,17.63,7,21.14s9.5-.65,11.55,8c2,8.25,5.71,8.12,12.77,8.1s10.8.15,12.76-8.1c2-8.61,2.85-4.45,11.55-8S361.11,62.42,361.11,56.66Z" transform="translate(-9.72 -9.28)" style="fill:#ffd600"/><rect x="313.6" y="60.56" width="7.64" height="2.63" transform="translate(146.14 -227.55) rotate(49)" style="fill:#fffef9"/><rect x="324.2" y="61.15" width="7.64" height="2.63" transform="translate(150.23 -235.35) rotate(49)" style="fill:#fffef9"/><rect x="319.36" y="67.83" width="7.64" height="2.63" transform="translate(577.68 -138.67) rotate(131)" style="fill:#fffef9"/><rect x="309.49" y="67.18" width="7.64" height="2.63" transform="translate(450.98 344.04) rotate(-129.69)" style="fill:#fffef9"/><rect x="351.01" y="60.56" width="7.64" height="2.63" transform="translate(98.81 -210.21) rotate(36.96)" style="fill:#fffef9"/><rect x="304.41" y="60.56" width="7.64" height="2.63" transform="translate(547.45 -139.42) rotate(131)" style="fill:#fffef9"/><rect x="349.07" y="67.18" width="7.64" height="2.63" transform="translate(544.26 357.18) rotate(-135)" style="fill:#fffef9"/><rect x="332.7" y="59.92" width="7.64" height="2.63" transform="translate(45.54 246.61) rotate(-45)" style="fill:#fffef9"/><rect x="341.47" y="61.35" width="7.64" height="2.63" transform="translate(449.13 385.43) rotate(-119.17)" style="fill:#fffef9"/><rect x="329.56" y="67.83" width="7.64" height="2.63" transform="translate(628.35 -92.06) rotate(141.78)" style="fill:#fffef9"/><rect x="340.11" y="67.83" width="7.64" height="2.63" transform="translate(528.52 351.94) rotate(-135)" style="fill:#fffef9"/><rect x="300.28" y="67.18" width="7.64" height="2.63" transform="translate(460.97 322.67) rotate(-135)" style="fill:#fffef9"/><rect x="317.75" y="71.9" width="4.61" height="43.36" style="fill:#ffd600"/><ellipse cx="320.06" cy="115.53" rx="20.22" ry="5.59" style="fill:#ffd600"/><path d="M486.49,64.32A77.62,77.62,0,1,1,615.38,143" transform="translate(-9.72 -9.28)" style="fill:none;stroke:#00a7e1;stroke-miterlimit:10;stroke-width:2.90440011024475px"/><path d="M493.83,100.7l-21.08.6a1.49,1.49,0,0,1-1.59-1.61V99.4a2.79,2.79,0,0,1,1.26-2.2L486.17,85l-13.77.39A1.3,1.3,0,0,1,470.89,84l-.06-2.1a1.32,1.32,0,0,1,1.43-1.47l21-.61a1.48,1.48,0,0,1,1.59,1.61v.3a2.84,2.84,0,0,1-1.26,2.2L479.91,96.17l13.78-.39a1.27,1.27,0,0,1,1.47,1.35l.06,2.09A1.3,1.3,0,0,1,493.83,100.7Z" transform="translate(-9.72 -9.28)" style="fill:#00a7e1"/><path d="M481.8,107.08c5.15-2,10.55.55,12.62,6s-.32,10.85-5.47,12.81-10.54-.51-12.6-5.94S476.65,109,481.8,107.08Zm5.42,14.25a5.2,5.2,0,1,0-6.89-2.92A5.14,5.14,0,0,0,487.22,121.33Z" transform="translate(-9.72 -9.28)" style="fill:#00a7e1"/><path d="M504.13,143.21l-7.5,5.91a1.26,1.26,0,0,1-2-.18l-1.32-1.67a1.3,1.3,0,0,1,.26-2l7.21-5.69a3.7,3.7,0,0,0,.78-5.53,3.81,3.81,0,0,0-5.65-.64l-7.21,5.69a1.29,1.29,0,0,1-2-.18l-1.32-1.68a1.31,1.31,0,0,1,.26-2l12.35-9.74a1.28,1.28,0,0,1,2,.24l.86,1.09a1.27,1.27,0,0,1-.23,2l-1,.77a6.79,6.79,0,0,1,5.95,2.8C508.44,136,507.82,140.3,504.13,143.21Z" transform="translate(-9.72 -9.28)" style="fill:#00a7e1"/><path d="M507.82,147l.63-.85a1.25,1.25,0,0,1,1.93-.27l8.76,6.44a1.22,1.22,0,0,1,.29,1.9l-.64.86a1.25,1.25,0,0,1-1.92.32L508.11,149A1.28,1.28,0,0,1,507.82,147Z" transform="translate(-9.72 -9.28)" style="fill:#00a7e1"/><path d="M523.76,156.91a12.28,12.28,0,0,1,16-7.6,12.57,12.57,0,0,1,6.59,5.11,1.25,1.25,0,0,1-.63,2l-1.42.64a1.6,1.6,0,0,1-2.07-.68,8.15,8.15,0,0,0-3.8-2.82,8,8,0,0,0-5.13,15.22,9.46,9.46,0,0,0,5.16.26l1.44-4.17-4.21-1.45a1.27,1.27,0,0,1-.9-1.79l.31-.9a1.29,1.29,0,0,1,1.81-.85l7.09,2.44a1.31,1.31,0,0,1,.89,1.82l-2.61,7.57a2.31,2.31,0,0,1-2,1.49,15.14,15.14,0,0,1-8.66-.45A12.28,12.28,0,0,1,523.76,156.91Z" transform="translate(-9.72 -9.28)" style="fill:#00a7e1"/><path d="M576.11,176l-1.83.09c-.92,0-1.35-.45-1.5-1.36l-2.21-12.92-4.79,13.51c-.36.9-.89,1.41-1.69,1.44l-.3,0A1.85,1.85,0,0,1,562,175.5l-6.11-13-.92,13.07c-.06.92-.48,1.45-1.4,1.5l-2.09.1a1.16,1.16,0,0,1-1.35-1.37l2-21.51a1.3,1.3,0,0,1,1.37-1.31l.3,0a1.73,1.73,0,0,1,1.67,1.17l8.13,15.94,6.29-16.63a1.77,1.77,0,0,1,1.59-1.33h.3a1.34,1.34,0,0,1,1.49,1.17l4,21.22C577.52,175.41,577,176,576.11,176Z" transform="translate(-9.72 -9.28)" style="fill:#00a7e1"/><path d="M580.91,162.83c-3.08-6.39-.33-13.6,6.29-16.8s14-.88,17.07,5.51.36,13.58-6.29,16.79S584,169.21,580.91,162.83Zm18.82-9.1a7.91,7.91,0,1,0-3.7,10.56A7.71,7.71,0,0,0,599.73,153.73Z" transform="translate(-9.72 -9.28)" style="fill:#00a7e1"/><polygon points="561.62 52.33 524 112.81 530.36 114.49 569.84 44.42 561.62 52.33" style="fill:#672f25"/><polygon points="569.48 36.65 574 37.25 576.34 29.45 572.3 28.41 569.48 36.65" style="fill:#672f25"/><polygon points="515.59 54.79 592.45 89.71 570.03 39.94 515.59 54.79" style="fill:#00945e"/><path d="M710.8,51.08a77.62,77.62,0,1,1,132.85,80.05" transform="translate(-9.72 -9.28)" style="fill:none;stroke:#00a7e1;stroke-miterlimit:10;stroke-width:2.90440011024475px"/><path d="M704.07,65.79a12.27,12.27,0,0,1,10.4,14.32,12.65,12.65,0,0,1-3.82,7.42,1.25,1.25,0,0,1-2-.27L707.73,86a1.59,1.59,0,0,1,.28-2.15,8.16,8.16,0,0,0,2.08-4.26,8,8,0,0,0-15.9-2.24,9.24,9.24,0,0,0,.69,5.11l4.36.65.65-4.4a1.27,1.27,0,0,1,1.59-1.21l.95.14a1.29,1.29,0,0,1,1.17,1.62l-1.1,7.42a1.31,1.31,0,0,1-1.63,1.2L693,86.69c-1-.14-1.42-.73-1.83-1.68A15.24,15.24,0,0,1,690,76.4,12.27,12.27,0,0,1,704.07,65.79Z" transform="translate(-9.72 -9.28)" style="fill:#00a7e1"/><path d="M691.21,94l22.87-2.12c.84-.08,1.25.37,1.56,1.26l.58,2c.32,1-.3,1.5-1.25,1.59L691.66,98.9a1.28,1.28,0,0,1-1.55-1.23l-.2-2.12A1.3,1.3,0,0,1,691.21,94Z" transform="translate(-9.72 -9.28)" style="fill:#00a7e1"/><path d="M712.65,118l-15,4.74a1.31,1.31,0,0,1-1.79-.9l-.4-1.26a1.31,1.31,0,0,1,.95-1.76l.94-.3A6.39,6.39,0,0,1,692.9,114c-1.35-4.27.66-8,5-9.39l9.6-3a1.24,1.24,0,0,1,1.74.87l.64,2a1.27,1.27,0,0,1-.91,1.75l-9.07,2.87c-2.21.7-3.29,2.51-2.62,4.65a3.66,3.66,0,0,0,5,2.4l9-2.84a1.26,1.26,0,0,1,1.74.88l.64,2A1.27,1.27,0,0,1,712.65,118Z" transform="translate(-9.72 -9.28)" style="fill:#00a7e1"/><path d="M706.92,140.11a7.17,7.17,0,0,1-3.16-2.88c-1.84-3-1.66-6.58,2.22-9l7.43-4.6-.95-1.53a1.31,1.31,0,0,1,.43-2l.78-.48a1.27,1.27,0,0,1,1.91.5l.95,1.53,3.94-2.44c.72-.44,1.31-.25,1.95.44l1.39,1.47c.71.73.4,1.48-.41,2l-4.31,2.67,2.14,3.47a1.28,1.28,0,0,1-.4,1.94l-.78.48a1.3,1.3,0,0,1-1.94-.48L716,127.77l-7.06,4.37c-1.74,1.09-1.88,2.34-1.12,3.55a3.34,3.34,0,0,0,1.35,1.15c.89.45.79,1,.43,1.59l-1,1.38C708.15,140.56,707.46,140.34,706.92,140.11Z" transform="translate(-9.72 -9.28)" style="fill:#00a7e1"/><path d="M719.1,149.82a7.48,7.48,0,0,0,4.49,2.08c.83.09,1.28.38,1.26,1.23v1.25c0,1-.58,1.18-1.18,1.21-2.68,0-5.63-1.61-7.49-3.43-3.94-3.86-4.49-9.7-.38-13.9a9.52,9.52,0,1,1,13.88,13,1.28,1.28,0,0,1-2.13,0l-9.08-8.89A5.32,5.32,0,0,0,719.1,149.82Zm1.51-9.53,6.72,6.58a4.94,4.94,0,0,0,1-2.92,4.42,4.42,0,0,0-1.46-3.33A4.56,4.56,0,0,0,720.61,140.29Z" transform="translate(-9.72 -9.28)" style="fill:#00a7e1"/><path d="M750.31,161.17l-4.4,8.47a1.28,1.28,0,0,1-1.87.65l-1.89-1a1.31,1.31,0,0,1-.58-1.92l4.23-8.15a3.69,3.69,0,0,0-1.56-5.36,3.81,3.81,0,0,0-5.42,1.74l-4.23,8.15a1.29,1.29,0,0,1-1.87.65l-1.89-1a1.32,1.32,0,0,1-.58-1.92l7.25-14a1.27,1.27,0,0,1,1.88-.6l1.24.64a1.27,1.27,0,0,1,.59,1.88l-.57,1.11a6.82,6.82,0,0,1,6.57.1C751.25,152.8,752.47,157,750.31,161.17Z" transform="translate(-9.72 -9.28)" style="fill:#00a7e1"/><path d="M764.44,174.47,766,153.55a1.32,1.32,0,0,1,1.57-1.32l13.63,1a1.29,1.29,0,0,1,1.36,1.5l-.09,1.28a1.32,1.32,0,0,1-1.57,1.32l-10.15-.73-.43,6,7.36.53A1.32,1.32,0,0,1,779,164.7l-.08,1.1a1.3,1.3,0,0,1-1.57,1.29l-7.36-.54-.6,8.28a1.3,1.3,0,0,1-1.5,1.37l-2.12-.16A1.32,1.32,0,0,1,764.44,174.47Z" transform="translate(-9.72 -9.28)" style="fill:#00a7e1"/><path d="M795,158l-.22,1.88c-.13.95-.69,1.14-1.34,1a5.05,5.05,0,0,0-1.64-.07c-2.4.33-3.5,2.34-3.14,5l1.2,8.66a1.28,1.28,0,0,1-1.15,1.6l-2.11.3a1.3,1.3,0,0,1-1.58-1.23l-2.15-15.58a1.27,1.27,0,0,1,1.19-1.57l1.39-.19a1.27,1.27,0,0,1,1.57,1.19l.15,1.13a5.81,5.81,0,0,1,4.49-3.48,7.94,7.94,0,0,1,2.34,0A1.05,1.05,0,0,1,795,158Z" transform="translate(-9.72 -9.28)" style="fill:#00a7e1"/><path d="M810.3,167.11a7.48,7.48,0,0,0,3.73-3.26c.42-.72.86-1,1.64-.65l1.14.5a1.06,1.06,0,0,1,.63,1.57c-1,2.47-3.75,4.49-6.18,5.46-5.12,2-10.68.17-12.85-5.3A9.52,9.52,0,1,1,816,158a1.29,1.29,0,0,1-.85,2l-11.81,4.69A5.3,5.3,0,0,0,810.3,167.11Zm-8.09-5.24,8.74-3.48a4.94,4.94,0,0,0-2.26-2.1,4.47,4.47,0,0,0-3.64,0A4.56,4.56,0,0,0,802.21,161.87Z" transform="translate(-9.72 -9.28)" style="fill:#00a7e1"/><path d="M831.56,154.48a7.48,7.48,0,0,0,2.63-4.19c.2-.82.53-1.22,1.38-1.1l1.24.14c1,.12,1.09.73,1.05,1.33-.28,2.66-2.3,5.38-4.34,7-4.32,3.43-10.18,3.25-13.84-1.36a9.75,9.75,0,0,1,8.41-15.71,9.29,9.29,0,0,1,6.26,3.57,1.29,1.29,0,0,1-.25,2.12l-10,7.89A5.32,5.32,0,0,0,831.56,154.48Zm-9.26-2.69,7.37-5.84a5,5,0,0,0-2.77-1.37,4.49,4.49,0,0,0-3.5,1A4.57,4.57,0,0,0,822.3,151.79Z" transform="translate(-9.72 -9.28)" style="fill:#00a7e1"/><polygon points="774.32 88.03 780.7 86.7 759.35 32.9 752.58 33.22 774.32 88.03" style="fill:#e10600"/><circle cx="792.11" cy="52.25" r="16.32" style="fill:#00945e"/><rect x="755.7" y="56.6" width="19.97" height="19.97" rx="1.6" transform="translate(293.01 670.8) rotate(-57.93)" style="fill:#fffef9"/><rect x="770.49" y="56.96" width="19.97" height="19.97" rx="1.6" transform="translate(39.19 337.73) rotate(-25.85)" style="fill:#fffef9"/><rect x="782.6" y="55.77" width="19.97" height="19.97" rx="1.6" transform="translate(148.16 535.71) rotate(-41.8)" style="fill:#fffef9"/><path d="M805.66,65.29H753.83s-12.15,25.95,3.72,56.58c0,0,4.86,3.48,22.2,3.48s22.19-3.48,22.19-3.48C817.81,91.24,805.66,65.29,805.66,65.29Z" transform="translate(-9.72 -9.28)" style="fill:#db6015"/><path d="M741.54,118.34c-2.33,0-5-.53-6.7-2.5-1.23-1.4-2.4-4-.94-8.13A42.68,42.68,0,0,0,736.53,94v0a42.68,42.68,0,0,0-2.63-13.76c-1.46-4.18-.29-6.73.94-8.13,3.54-4,10.8-2.05,11.62-1.81A71.91,71.91,0,0,0,755.34,72l-.8,6.85a76.75,76.75,0,0,1-9.85-2,9.87,9.87,0,0,0-4.88-.21,4.26,4.26,0,0,0,.27,1.13,50.88,50.88,0,0,1,3,16.13v0a50.88,50.88,0,0,1-3,16.13,4.26,4.26,0,0,0-.27,1.13,9.87,9.87,0,0,0,4.88-.21,76.75,76.75,0,0,1,9.85-2l.8,6.85-.4-3.42.4,3.42a71.91,71.91,0,0,0-8.88,1.76A19.09,19.09,0,0,1,741.54,118.34Z" transform="translate(-9.72 -9.28)" style="fill:#db6015"/><rect x="740.26" y="52.25" width="59.53" height="5.63" rx="2.57" style="fill:#db6015"/><path d="M931.83,88.35A77.61,77.61,0,1,1,1044,157.84" transform="translate(-9.72 -9.28)" style="fill:none;stroke:#00a7e1;stroke-miterlimit:10;stroke-width:2.90440011024475px"/><path d="M954.59,128l-23.48.55c-1.05,0-1.61-.19-2-1l-.13-.26c-.36-.73-.19-1.3.47-2.12l14.73-18.31c.6-.79,1.35-.42,1.76.4l1,2.11a1.92,1.92,0,0,1-.41,2.33l-10.81,12.41,16.49-.87a1.94,1.94,0,0,1,2.11,1.13l1,1.94C955.75,127.14,955.58,128,954.59,128Z" transform="translate(-9.72 -9.28)" style="fill:#00a7e1"/><path d="M946.46,146.6a7.53,7.53,0,0,0,4.37,2.32c.83.14,1.26.44,1.19,1.3l0,1.24c0,1-.65,1.14-1.24,1.15-2.68-.09-5.54-1.91-7.3-3.83-3.73-4.06-4-9.92.36-13.89A9.52,9.52,0,1,1,957,148.63a1.28,1.28,0,0,1-2.12-.09l-8.6-9.36A5.33,5.33,0,0,0,946.46,146.6Zm2-9.43,6.35,6.93a5,5,0,0,0,1.17-2.87,4.45,4.45,0,0,0-1.29-3.41A4.55,4.55,0,0,0,948.48,137.17Z" transform="translate(-9.72 -9.28)" style="fill:#00a7e1"/><path d="M980.22,154.29l-7.66,13.06c-3.12,5.32-8.35,5.53-13,2.8a10.76,10.76,0,0,1-5.51-7.24,1.22,1.22,0,0,1,1-1.66l1-.34a1.22,1.22,0,0,1,1.63,1,7.76,7.76,0,0,0,3.75,5.09c2.44,1.43,5.25,1.42,6.83-1.27l1.12-1.91a8.85,8.85,0,0,1-5.75-1.15,8.65,8.65,0,1,1,8.78-14.91,8.69,8.69,0,0,1,4,5l.29-.51a1.27,1.27,0,0,1,1.91-.49l1.11.65A1.24,1.24,0,0,1,980.22,154.29ZM973,158.17a4.9,4.9,0,1,0-6.68,1.75A4.72,4.72,0,0,0,973,158.17Z" transform="translate(-9.72 -9.28)" style="fill:#00a7e1"/><path d="M998.24,165.31,996,174.74a1.26,1.26,0,0,1-1.66,1.07l-1.14-.27a1.3,1.3,0,0,1-1-1.72l.14-.61a8.67,8.67,0,0,1-6.48,1c-4.18-1-6.45-4-5.63-7.43.88-3.64,4.53-5.33,9.11-4.24a12.84,12.84,0,0,1,4.41,2.08l.23-1c.5-2.07-.69-3.72-3.16-4.31a8.42,8.42,0,0,0-4.9.29,1.19,1.19,0,0,1-1.67-.93l-.19-.64a1.32,1.32,0,0,1,.87-1.87,12.08,12.08,0,0,1,7.08-.38C996.47,157,999.51,160,998.24,165.31Zm-5.49,3.82.32-1.32a10.27,10.27,0,0,0-3.86-2c-2.25-.54-4,.25-4.44,2s.75,3,2.86,3.52C990,171.82,992.33,170.88,992.75,169.13Z" transform="translate(-9.72 -9.28)" style="fill:#00a7e1"/><path d="M1021.59,165.12l.51,9.54a1.27,1.27,0,0,1-1.28,1.5l-2.13.12a1.31,1.31,0,0,1-1.47-1.36l-.49-9.17a3.69,3.69,0,0,0-4.06-3.83,3.81,3.81,0,0,0-3.79,4.25l.49,9.17a1.27,1.27,0,0,1-1.28,1.5L1006,177a1.3,1.3,0,0,1-1.47-1.35l-.83-15.7a1.27,1.27,0,0,1,1.32-1.47l1.39-.07a1.27,1.27,0,0,1,1.47,1.31l.06,1.25a6.83,6.83,0,0,1,5.72-3.25C1018.17,157.43,1021.34,160.43,1021.59,165.12Z" transform="translate(-9.72 -9.28)" style="fill:#00a7e1"/><circle cx="1020.2" cy="57.18" r="17.39" style="fill:#ff6b00"/><path d="M1037.63,89.46l-5.91-25.31H983.28l-5.91,25.31s-8,20.14,13,28.45c0,0,3.34,2.16,12.33,2.22h9.58c9-.05,12.3-2.21,12.3-2.21C1045.57,109.6,1037.63,89.46,1037.63,89.46Z" transform="translate(-9.72 -9.28)" style="fill:#fdbbcb"/><rect x="1002.4" y="68.79" width="9.19" height="3.17" transform="translate(389.7 -745.04) rotate(49)" style="fill:#ff6b00"/><rect x="994.91" y="68.76" width="5.55" height="5.55" transform="translate(233 -593.89) rotate(36.89)" style="fill:#fffef9"/><rect x="1013.79" y="68.05" width="4.79" height="4.79" transform="translate(-11.09 14.43) rotate(-1.34)" style="fill:#fffef9"/><rect x="981.14" y="80.32" width="4.79" height="4.79" transform="translate(-11.38 13.67) rotate(-1.34)" style="fill:#fffef9"/><rect x="987.28" y="66.91" width="4.79" height="4.79" transform="translate(1806.74 -488.32) rotate(142.44)" style="fill:#672f25"/><rect x="992.34" y="88.82" width="9.19" height="3.17" transform="translate(1982.17 -29.02) rotate(168.5)" style="fill:#fffef9"/><rect x="984.63" y="76.49" width="9.19" height="3.17" transform="translate(1623.78 823.48) rotate(-135)" style="fill:#ff6b00"/><rect x="1004.22" y="77.96" width="5.55" height="5.55" transform="matrix(0.8, 0.6, -0.6, 0.8, 240.39, -597.64)" style="fill:#fffef9"/><rect x="981.4" y="88.82" width="9.19" height="3.17" transform="translate(1737.4 -552.16) rotate(135)" style="fill:#ff6b00"/><rect x="995.69" y="78.7" width="5.55" height="5.55" transform="translate(-2.56 -72.33) rotate(3.63)" style="fill:#672f25"/></g></g></svg>