<svg id="Layer_1" data-name="Layer 1" xmlns="http://www.w3.org/2000/svg" viewBox="0 0 363 128"><path d="M57.68,16.9,60,16.59c3.31-.43,5.08,2.66,6.12,4.8l7.75,16.52c.07.23.18.31.32.29s.22-.12.23-.36L76.74,22a2,2,0,0,0-.18-1l-.32-.62c-.91-1.87-3.36-1.79-3.59-3.51-.17-1.31,1.06-2.08,2.18-2.23l2.37-.31c3.26-.42,5.09,2.65,6.08,4.8L91,35.82c.07.18.17.26.26.25s.18-.12.2-.31l2.43-18.47c.19-1.77-1.7-1.43-1.92-3.11s2.22-2.23,4-2.47l.52-.07c1.81-.23,4.42-.57,4.69,1.48.23,1.77-2,1.91-2.25,3.8l-3.31,23c-.3,2.41-1.24,4-3.47,4.24l-1.91.25c-1.36.18-2.58-.14-3.69-2.46L81.2,30.84c-.19-.35-.35-.47-.44-.46s-.21.17-.31.56L78.69,42.12c-.3,2.41-1.24,4-3.48,4.24l-2,.26c-1.35.18-2.58-.14-3.69-2.45L59.09,22.63c-1-1.86-3.36-1.78-3.59-3.51C55.33,17.82,56.56,17,57.68,16.9Z" style="fill:#f26b21"/><path d="M105.77,9.17c0-1.08,1-1.73,2.88-1.72h2.11a3.71,3.71,0,0,1,3.89,3.68l-.06,12.17c0,.38,0,.57.18.57s.24-.14.43-.37c1.65-2.58,4.15-4.5,7.3-4.48,5,0,8,2.86,7.95,7.84l0,10.39c0,2.3,2,2,2,3.72,0,1.22-.72,1.64-1.85,1.78a28.51,28.51,0,0,1-3.38.21,26.51,26.51,0,0,1-3.52-.25c-1.41-.19-2.16-.57-2.16-1.79,0-1.74,2.41-1.4,2.42-3.71l0-8.36c0-3.43-1.29-5.32-3.74-5.33-3.47,0-5.48,6.08-5.68,9l0,4.65c0,2.3,2,2,2,3.72,0,1.22-.71,1.64-1.84,1.78a31.06,31.06,0,0,1-3.39.22,30.53,30.53,0,0,1-3.52-.25c-1.41-.2-2.16-.58-2.15-1.71,0-1.64,2.4-1.35,2.41-3.56l.12-24.15C108.16,11.3,105.76,11.05,105.77,9.17Z" style="fill:#f26b21"/><path d="M135.94,37.14c.72-5.88,9.83-6.42,15-6.5a.57.57,0,0,0,.59-.54l.12-1c.37-3-.33-5-2.61-5.29-2.48-.3-3.77,2.09-5.34,3.32a3.7,3.7,0,0,1-2.69.71A2.59,2.59,0,0,1,138.48,25c.37-3,5.82-4.54,10.85-3.92s9.45,3.29,8.73,9.17l-1.15,9.33c-.38,3.07,1.61,2.32,2.19,3.39s-1.62,3.16-4.56,2.8a4.08,4.08,0,0,1-3.7-3.06c-.07-.2-.15-.3-.25-.31a.48.48,0,0,0-.35.19,9.18,9.18,0,0,1-7.3,2C139.39,44.1,135.33,42.08,135.94,37.14ZM146,41.31a4.18,4.18,0,0,0,4.45-2.72L151,34c.05-.37-.13-.44-.46-.48-2.67.1-7.18.63-7.67,3.79A3.45,3.45,0,0,0,146,41.31Z" style="fill:#f26b21"/><path d="M165.29,23.71c.92.17,1.33.29,2,.45a.39.39,0,0,0,.54-.33l.74-4.07c.31-1.66,3.85-2.21,5.79-2.38a1.53,1.53,0,0,1,.43,0c.64.12.73.71.6,1.41l-1.17,6.38a.41.41,0,0,0,.39.5,36.09,36.09,0,0,1,4.35.51c2.08.38,1.39,4.12-.69,3.74A35.16,35.16,0,0,1,174,28.79a.4.4,0,0,0-.54.34l-2.2,12c-.47,2.59,0,3.49.81,3.64,1.16.21,3.16-1.05,4.36-.83a1.41,1.41,0,0,1,.53.24c1.29,1.29-1.49,5.51-7.08,4.49-2.78-.51-6.27-2.06-5.17-8L167,28.18a.39.39,0,0,0-.39-.5c-.42,0-1-.09-2-.23C162.65,27.14,163.25,23.33,165.29,23.71Z" style="fill:#f26b21"/><path d="M213.34,24.94c8.33,1.93,14,8.55,11.52,19.45s-10.44,13.89-18.77,12-14.24-8.11-11.72-19S205,23,213.34,24.94Zm-5.92,28.15a4.66,4.66,0,0,0,.83.15c4.84.58,8.38-2.84,9.34-11.4.9-8.09-1.39-12.38-5.69-13.37a5.36,5.36,0,0,0-.79-.14c-4.88-.59-8.5,3-9.46,11.52C200.75,47.94,203.07,52.09,207.42,53.09Z" style="fill:#f26b21"/><path d="M229.3,39.22c.23-1,1.3-1.44,3.18-1l2.06.48a3.69,3.69,0,0,1,3,4.4l-2.32,10c-.76,3.3,0,5.4,2.3,5.93,3.2.74,6.41-4.79,7.24-7.54l1-4.3c.44-1.88-1.83-2.69-1.41-4.53.22-1,1.16-1.46,2.85-1.07l2.39.55a3.73,3.73,0,0,1,3,4.41l-3.14,13.56c-.43,1.88,1.8,2.63,1.38,4.47-.24,1-1.31,1.48-3.18,1l-2.06-.47a3.78,3.78,0,0,1-3-3.49c.06-.67.2-1.7.17-2a4.84,4.84,0,0,0-.8.54c-2,2-4.78,3.38-7.71,2.7-4.77-1.1-6.92-4.5-5.81-9.3l2.29-9.89C231.15,41.87,228.88,41.05,229.3,39.22Z" style="fill:#f26b21"/><path d="M272.12,46.68c2.94.63,4.41,2.3,3.91,4.64-.5,2.1-2.11,2.91-4.14,2.48s-3.12-1.78-4.23-2a1.63,1.63,0,0,0-.82,0c-1,.37-2.13,1.85-2.87,4l-1.64,7.63c-.46,2.16,1.94,2.39,1.6,4-.24,1.1-1.05,1.31-2.52,1.19a26.07,26.07,0,0,1-3.31-.47,33.37,33.37,0,0,1-3.44-1c-1.34-.48-2-1-1.76-2.11.34-1.6,2.63-.83,3.09-3l2.56-12c.4-1.88-1.88-2.66-1.49-4.5.22-1,1.27-1.45,3.16-1l2.07.44a3.66,3.66,0,0,1,2.7,2.41c.09.5-.08,1.95,0,2.44,0,.15,0,.25.13.27s.12-.07.18-.16C266.71,47.69,269,46,272.12,46.68Z" style="fill:#f26b21"/><path d="M28,64c5.18-1.54,9.8-1.49,13.63,2s2,6.91-.84,7.75a4.65,4.65,0,0,1-5-1.71c-2.55-3.31-5.32-4.7-8.25-3.83a10.36,10.36,0,0,0-1,.41C22.9,70.27,22.39,75,25,81.17c2.15,5.44,6.91,9.42,12.91,7.64,2.93-.87,5-3.25,6.53-6.74a2,2,0,0,1,1.11-1.22c.67-.2,1.34.39,1.43,1.69.19,6.41-4,10.63-9.73,12.3C29.6,97.12,21,94.36,18,84,14.77,73.28,20.06,66.31,28,64Z" style="fill:#f26b21"/><path d="M47.62,69c-.22-1,.57-1.85,2.45-2.25l2.07-.44A3.69,3.69,0,0,1,56.71,69L58.86,79.1c.71,3.31,2.3,4.9,4.6,4.41,3.21-.69,3.77-7.06,3.36-9.9l-.93-4.32c-.4-1.89-2.8-1.66-3.19-3.5-.21-1,.42-1.82,2.12-2.19l2.39-.51a3.74,3.74,0,0,1,4.62,2.72l2.91,13.6c.4,1.89,2.75,1.62,3.14,3.46.23,1.06-.55,1.9-2.44,2.3l-2.07.44a3.77,3.77,0,0,1-4.2-1.88c-.23-.63-.53-1.62-.69-1.88a6,6,0,0,0-.49.83c-1,2.7-2.9,5.09-5.84,5.72-4.78,1-8.18-1.14-9.21-6l-2.12-9.93C50.42,70.63,48,70.85,47.62,69Z" style="fill:#f26b21"/><path d="M88.07,59.26c3.12-.43,7.41-.32,9.31,2.74,1.22,2,.19,3.82-1.44,4a2.92,2.92,0,0,1-2-.48c-2.55-1.64-3.75-3.42-5.89-3.12-2.33.32-3.47,1.66-3.2,3.62.72,5.17,13.92,1.48,15.12,8.77,1,5.56-4.38,7.72-9.27,8.4-4.7.66-9-.07-10.85-3-1.21-1.92-.27-3.29,1.27-3.5a3.39,3.39,0,0,1,2.41.62c2.35,1.52,3.62,3.15,6.41,2.76,2.38-.33,3.76-1.62,3.5-3.48-.62-4.14-13.68-.8-14.77-8.67C77.94,62.52,83.14,59.94,88.07,59.26Z" style="fill:#f26b21"/><path d="M101.49,58c.93-.07,1.36-.05,2-.05a.4.4,0,0,0,.44-.46l-.31-4.13c-.12-1.68,3.16-3.11,5-3.76a1.25,1.25,0,0,1,.42-.08c.66,0,.88.5.94,1.2l.48,6.47a.41.41,0,0,0,.5.39,37,37,0,0,1,4.34-.6c2.1-.16,2.39,3.64.28,3.79a36.93,36.93,0,0,1-4.39,0,.39.39,0,0,0-.44.46l.9,12.14c.2,2.62.87,3.37,1.71,3.31,1.17-.09,2.79-1.81,4-1.9a1.28,1.28,0,0,1,.57.1c1.58.92,0,5.71-5.72,6.13-2.81.21-6.58-.41-7-6.46l-.94-12.6a.39.39,0,0,0-.5-.39c-.41.08-1,.16-2,.29C99.8,62,99.42,58.17,101.49,58Z" style="fill:#f26b21"/><path d="M132.49,56.33c6.57.16,11.84,3.91,11.63,12.32s-5.65,11.94-12.23,11.78-11.84-3.91-11.63-12.37S125.86,56.17,132.49,56.33Zm-.6,3.14-.47,0c-3,.21-4.63,2.9-4.13,9.26.46,6,2.38,8.52,5.15,8.59h.47c3.06-.16,4.63-2.85,4.18-9.25C136.62,62.07,134.71,59.54,131.89,59.47Z" style="fill:#f26b21"/><path d="M180,61.68c4.68.75,7,4,6.18,8.9l-1.65,10.25c-.36,2.23,1.73,2.28,1.45,4-.18,1.16-1,1.46-2.13,1.42a27.58,27.58,0,0,1-3.38-.3,31.51,31.51,0,0,1-3.44-.79c-1.37-.37-2-.9-1.86-2.06.28-1.72,2.6-1.06,3-3.29l1.33-8.26c.54-3.39-.32-5.43-2.5-5.78-2.79-.45-5.26,4-6.14,7.11l-.9,5.61c-.36,2.23,1.68,2.27,1.4,4-.19,1.16-1,1.46-2.13,1.42a28.29,28.29,0,0,1-3.38-.31,31.13,31.13,0,0,1-3.4-.78c-1.37-.37-2.11-.77-1.92-2,.28-1.72,2.62-1.15,3-3.38l1.32-8.26c.55-3.38-.27-5.42-2.45-5.77-2.78-.45-5.26,4-6.18,7.1l-.9,5.57c-.37,2.27,1.68,2.27,1.41,4-.19,1.16-1,1.51-2.09,1.43a20.75,20.75,0,0,1-3.29-.29,31.23,31.23,0,0,1-3.53-.81c-1.37-.36-2.05-.85-1.87-2,.26-1.67,2.58-1,2.93-3.14l1.94-12.07c.3-1.85-2-2.51-1.73-4.37.17-1,1.2-1.52,3.1-1.21l2.09.33a3.72,3.72,0,0,1,3.07,2.83c0,.24-.17,1.64-.17,1.92s.1.3.19.32a.53.53,0,0,0,.32-.19c1.94-2.35,4.69-4,7.7-3.52,3.67.59,5.84,2.75,6.17,6,.06.2.1.3.19.31s.2-.06.31-.18C174,62.91,176.82,61.17,180,61.68Z" style="fill:#f26b21"/><path d="M202.53,86.71c2.53.57,4.9-.35,7.31-2.08a1.75,1.75,0,0,1,1.33-.37c.6.13.84.76.11,1.9-2.84,4.33-6.83,5.36-11.52,4.37-5.78-1.29-9.61-5.51-9.37-12,.26-7.22,6.2-13.12,14.15-11.63,4,.88,7.45,2.67,8.48,6.9.77,3-.79,5.07-4.09,5.83L198.49,82c-.37.11-.57.4-.41.73A5.54,5.54,0,0,0,202.53,86.71ZM204,76.87c2.06-.41,3.24-1.16,2.74-3a4.92,4.92,0,0,0-3.55-3.78,4.07,4.07,0,0,0-1.23-.08c-3.44.1-5,3.7-4.93,7.67a.53.53,0,0,0,.41.52.58.58,0,0,0,.24,0Z" style="fill:#f26b21"/><path d="M232.48,73.35c2.92.69,4.36,2.38,3.81,4.71a3.18,3.18,0,0,1-4.18,2.4c-2.09-.54-3.09-1.84-4.19-2.1a1.75,1.75,0,0,0-.82,0c-1,.35-2.17,1.81-3,3.94l-1.78,7.6c-.5,2.15,1.89,2.43,1.52,4-.26,1.1-1.08,1.29-2.54,1.14a26.21,26.21,0,0,1-3.3-.53,31.68,31.68,0,0,1-3.43-1.05c-1.33-.51-2-1-1.71-2.14.37-1.6,2.64-.78,3.15-2.93l2.79-11.9c.44-1.88-1.83-2.7-1.4-4.53.24-1,1.3-1.43,3.18-1l2.06.48a3.65,3.65,0,0,1,2.65,2.46c.08.5-.12,2-.09,2.44,0,.15,0,.25.13.27s.12-.07.18-.15C227.05,74.25,229.32,72.61,232.48,73.35Z" style="fill:#f26b21"/><path d="M249.18,77.24c3.07.7,7,2.33,7.72,5.87.43,2.31-1.17,3.63-2.78,3.27a3,3,0,0,1-1.66-1.16c-1.8-2.44-2.29-4.53-4.4-5-2.29-.52-3.83.33-4.27,2.25-1.17,5.08,12.48,6.34,11,13.57-1.08,5.54-6.84,5.66-11.65,4.56-4.63-1.06-8.41-3.28-9.09-6.62-.46-2.23.92-3.16,2.43-2.82a3.4,3.4,0,0,1,2,1.43c1.65,2.26,2.26,4.23,5,4.87,2.34.53,4.09-.17,4.51-2,.89-4.08-12.5-5.61-10.72-13.36C238.56,76.68,244.33,76.12,249.18,77.24Z" style="fill:#f26b21"/><path d="M286.44,76.78c4.11.8,9.06,2.67,10,6.49a3.18,3.18,0,0,1-3.42,4,3.14,3.14,0,0,1-1.18-.57c-2.71-2.58-3.25-5.47-6.75-6.15-3.33-.64-5.74.47-6.29,3.28-1.31,6.74,17,6.84,15.18,17.46-1.36,8-9.14,8.09-14,7.14-5.58-1.09-10.4-3.36-11.5-7.07a2.9,2.9,0,0,1,3.38-3.85,3.28,3.28,0,0,1,1.24.53c2.8,2.08,3.85,5.78,8.24,6.63,2.91.57,5.18-.29,5.66-2.78,1-5.83-16.85-6.91-14.8-17.48C273.71,76.5,280.44,75.61,286.44,76.78Z" style="fill:#f26b21"/><path d="M297,105.1c.89-5.86,10-6.13,15.14-6.06a.57.57,0,0,0,.6-.52l.16-1c.46-3-.18-5-2.46-5.37-2.46-.38-3.82,2-5.43,3.16a3.67,3.67,0,0,1-2.71.63,2.59,2.59,0,0,1-2.4-2.93c.46-3,5.94-4.37,11-3.6s9.34,3.57,8.45,9.42l-1.42,9.29c-.47,3.07,1.54,2.38,2.08,3.46s-1.71,3.11-4.64,2.67a4.08,4.08,0,0,1-3.6-3.17c-.07-.2-.15-.31-.24-.32a.46.46,0,0,0-.36.18,9.2,9.2,0,0,1-7.36,1.77C300.27,112.15,296.27,110,297,105.1Zm9.92,4.46a4.17,4.17,0,0,0,4.53-2.59l.7-4.6c.06-.37-.12-.44-.44-.49-2.67,0-7.2.42-7.78,3.56A3.45,3.45,0,0,0,307,109.56Z" style="fill:#f26b21"/><path d="M340.75,99.83c1.48-3.15-1-4-.17-5.37.4-.61,2.16-.71,4-.51s3.61.68,3.61,1.53c.07,1.52-2.17,2.13-3.71,5L334,119.89c-2.07,3.84-4.24,5.55-7.28,5.21-3.78-.41-6.19-3.51-4.6-5.93a1.41,1.41,0,0,1,1.36-.8c1.08.12,2.22,1.33,3.67,1.49s2.75-.51,4.81-3.83c-1.26-.52-2.15-1.94-2.74-3.89l-4.4-15.09c-.67-2.15-2.45-2.73-2.32-3.94.1-.89.86-1.37,2.78-1.16l2.66.29c1.78.19,2.89,1.68,3.58,4l3.74,12.51c.07.2.15.35.29.36s.2-.12.32-.29Z" style="fill:#f26b21"/></svg>