<svg xmlns="http://www.w3.org/2000/svg" xmlns:xlink="http://www.w3.org/1999/xlink" viewBox="0 0 647.74 432.6">
<defs>
  <style>
    @font-face {
  font-family: "Goldplay";
  font-weight: 500;
  src: url("Goldplay_Medium.otf") format("opentype");
}

@font-face {
  font-family: "Goldplay";
  font-weight: 800;
  src: url("Goldplay_Semibold.otf") format("opentype");
}

@font-face {
  font-family: "Goldplay-SemiBold";
  font-weight: 800;
  src: url("Goldplay_Semibold.otf") format("opentype");
}

@font-face {
  font-family: "Hornbill";
  src: url("hornbill.otf") format("opentype");
}

@font-face {
  font-family: "HornbillPersonalUse-Bold";
  src: url("hornbill.otf") format("opentype");
}

@font-face {
  font-family: "Appetite";
  src: url("Appetite.otf") format("opentype");
}
  </style>
</defs>
<defs><clipPath id="aac358a7-e762-4064-bdbb-27e6d693d782"><rect x="66.47" y="74.17" width="62.56" height="43.66" style="fill:none"/></clipPath></defs><g id="f1dbff89-0f72-477f-ad5a-cb149c7417bd" data-name="Layer 2"><g id="bda192e2-88c4-431b-9472-d2c769da220a" data-name="ART"><path d="M25.92,62.78a77.62,77.62,0,1,1,132,76.39" style="fill:none;stroke:#10a05b;stroke-miterlimit:10;stroke-width:3.78664005873129px"/><text transform="translate(10.27 73.55) rotate(91.33)" style="font-size:36.739681243896484px;fill:#10a05b;font-family:Goldplay-SemiBold, Goldplay;font-weight:600">A</text><text transform="translate(10.87 102.08) rotate(77.93)" style="font-size:36.739681243896484px;fill:#10a05b;font-family:Goldplay-SemiBold, Goldplay;font-weight:600">l</text><text transform="translate(13.38 113.3) rotate(70.42)" style="font-size:36.739681243896484px;fill:#10a05b;font-family:Goldplay-SemiBold, Goldplay;font-weight:600">l</text><text transform="translate(17.51 124.4) rotate(63.23)" style="font-size:36.739681243896484px;fill:#10a05b;font-family:Goldplay-SemiBold, Goldplay;font-weight:600"> </text><text transform="matrix(0.65, 0.76, -0.76, 0.65, 22.4, 135.48)" style="font-size:36.739681243896484px;fill:#10a05b;font-family:Goldplay-SemiBold, Goldplay;font-weight:600">N</text><text transform="translate(43.64 158.52) rotate(31.3)" style="font-size:36.739681243896484px;fill:#10a05b;font-family:Goldplay-SemiBold, Goldplay;font-weight:600">a</text><text transform="translate(64.14 170.19) rotate(17.83)" style="font-size:36.739681243896484px;fill:#10a05b;font-family:Goldplay-SemiBold, Goldplay;font-weight:600">t</text><text transform="translate(81.61 175.8) rotate(3.7)" style="font-size:36.739681243896484px;fill:#10a05b;font-family:Goldplay-SemiBold, Goldplay;font-weight:600">u</text><text transform="matrix(0.98, -0.18, 0.18, 0.98, 106.98, 176.58)" style="font-size:36.739681243896484px;fill:#10a05b;font-family:Goldplay-SemiBold, Goldplay;font-weight:600">r</text><text transform="translate(124.8 173.28) rotate(-24.02)" style="font-size:36.739681243896484px;fill:#10a05b;font-family:Goldplay-SemiBold, Goldplay;font-weight:600">a</text><text transform="translate(145.89 162.95) rotate(-35.78)" style="font-size:36.739681243896484px;fill:#10a05b;font-family:Goldplay-SemiBold, Goldplay;font-weight:600">l</text><polyline points="101.29 64.35 106.12 49.06 121.61 43.49" style="fill:none;stroke:#ff6b00;stroke-miterlimit:10;stroke-width:3.78664005873129px"/><path d="M83.67,69a13.5,13.5,0,0,1-8.69.65A13.11,13.11,0,0,1,65.51,60a13.28,13.28,0,1,1,26.18-3.21" style="fill:#ff6b00"/><path d="M97.44,113.44c25.52,0,28.43-7.34,28.43-12.86s-5.42-10.27-5.42-10.27-8.88-6-8.88-16.66,8.88-16.47,8.88-16.47h-46S83.31,63,83.31,73.65s-8.89,16.66-8.89,16.66S69,95.05,69,100.58,71.91,113.44,97.44,113.44Z" style="fill:#e10600"/><g style="clip-path:url(#aac358a7-e762-4064-bdbb-27e6d693d782)"><path d="M97.44,113.44c25.52,0,28.43-7.34,28.43-12.86s-5.42-10.27-5.42-10.27-8.88-6-8.88-16.66,8.88-16.47,8.88-16.47h-46S83.31,63,83.31,73.65s-8.89,16.66-8.89,16.66S69,95.05,69,100.58,71.91,113.44,97.44,113.44Z" style="fill:#ff6b00"/></g><path d="M115.84,133.2H77.36s19.87-9.88,19.87-19.76C97.23,123.41,115.84,133.2,115.84,133.2Z" style="fill:#ff6b00"/><path d="M261.28,51.8a77.62,77.62,0,1,1,133.24,79.34" style="fill:none;stroke:#10a05b;stroke-miterlimit:10;stroke-width:3.78664005873129px"/><text transform="matrix(-0.2, 0.98, -0.98, -0.2, 244.24, 61.14)" style="font-size:36.739681243896484px;fill:#009859;font-family:Goldplay-SemiBold, Goldplay;font-weight:600">L</text><text transform="matrix(0.07, 1, -1, 0.07, 239.93, 83.28)" style="font-size:36.739681243896484px;fill:#009859;font-family:Goldplay-SemiBold, Goldplay;font-weight:600">o</text><text transform="translate(242.07 110.38) rotate(66.5)" style="font-size:36.739681243896484px;fill:#009859;font-family:Goldplay-SemiBold, Goldplay;font-weight:600">w</text><text transform="translate(256.67 139.48) rotate(51.97)" style="font-size:36.739681243896484px;fill:#009859;font-family:Goldplay-SemiBold, Goldplay;font-weight:600"> </text><text transform="translate(263.59 149.17) rotate(39.06)" style="font-size:36.739681243896484px;fill:#009859;font-family:Goldplay-SemiBold, Goldplay;font-weight:600">C</text><text transform="matrix(0.93, 0.36, -0.36, 0.93, 287.3, 167.02)" style="font-size:36.739681243896484px;fill:#009859;font-family:Goldplay-SemiBold, Goldplay;font-weight:600">a</text><text transform="matrix(0.99, 0.16, -0.16, 0.99, 309.52, 174.71)" style="font-size:36.739681243896484px;fill:#009859;font-family:Goldplay-SemiBold, Goldplay;font-weight:600">l</text><text transform="translate(322.32 177.16) rotate(-3.04)" style="font-size:36.739681243896484px;fill:#009859;font-family:Goldplay-SemiBold, Goldplay;font-weight:600">o</text><text transform="matrix(0.95, -0.3, 0.3, 0.95, 348.43, 174.83)" style="font-size:36.739681243896484px;fill:#009859;font-family:Goldplay-SemiBold, Goldplay;font-weight:600">r</text><text transform="translate(364.58 169.32) rotate(-27.03)" style="font-size:36.739681243896484px;fill:#009859;font-family:Goldplay-SemiBold, Goldplay;font-weight:600">i</text><text transform="translate(376.08 163.79) rotate(-39.02)" style="font-size:36.739681243896484px;fill:#009859;font-family:Goldplay-SemiBold, Goldplay;font-weight:600">e</text><circle cx="300.74" cy="57.69" r="16.13" style="fill:#00945e"/><path d="M361.11,56.66H298.44c0,5.76-1.68,17.63,7,21.14s9.51-.65,11.55,8c2,8.25,5.71,8.12,12.77,8.1s10.8.15,12.76-8.1c2-8.61,2.85-4.45,11.55-8S361.11,62.42,361.11,56.66Z" style="fill:#ffd600"/><rect x="313.6" y="60.56" width="7.64" height="2.63" transform="matrix(0.66, 0.75, -0.75, 0.66, 155.86, -218.27)" style="fill:#fffef9"/><rect x="324.2" y="61.15" width="7.64" height="2.63" transform="translate(159.95 -226.06) rotate(49)" style="fill:#fffef9"/><rect x="319.37" y="67.83" width="7.64" height="2.63" transform="translate(587.4 -129.39) rotate(131)" style="fill:#fffef9"/><rect x="309.49" y="67.18" width="7.64" height="2.63" transform="translate(460.7 353.33) rotate(-129.69)" style="fill:#fffef9"/><rect x="351.01" y="60.56" width="7.64" height="2.63" transform="translate(108.53 -200.93) rotate(36.96)" style="fill:#fffef9"/><rect x="304.42" y="60.56" width="7.64" height="2.63" transform="translate(557.17 -130.13) rotate(131)" style="fill:#fffef9"/><rect x="349.07" y="67.18" width="7.64" height="2.63" transform="translate(553.99 366.46) rotate(-135)" style="fill:#fffef9"/><rect x="332.71" y="59.92" width="7.64" height="2.63" transform="translate(55.26 255.89) rotate(-45)" style="fill:#fffef9"/><rect x="341.47" y="61.35" width="7.64" height="2.63" transform="translate(458.85 394.72) rotate(-119.17)" style="fill:#fffef9"/><rect x="329.56" y="67.83" width="7.64" height="2.63" transform="translate(638.08 -82.78) rotate(141.78)" style="fill:#fffef9"/><rect x="340.12" y="67.83" width="7.64" height="2.63" transform="translate(538.24 361.23) rotate(-135)" style="fill:#fffef9"/><rect x="300.28" y="67.18" width="7.64" height="2.63" transform="translate(470.69 331.96) rotate(-135)" style="fill:#fffef9"/><rect x="327.47" y="81.18" width="4.61" height="43.36" style="fill:#ffd600"/><ellipse cx="329.78" cy="124.81" rx="20.22" ry="5.59" style="fill:#ffd600"/><path d="M486.49,64.32A77.62,77.62,0,1,1,615.38,143" style="fill:none;stroke:#10a05b;stroke-miterlimit:10;stroke-width:3.78664005873129px"/><text transform="translate(535.35 174.42) rotate(-155.8)" style="font-size:36.739681243896484px;fill:#009859;font-family:Goldplay-SemiBold, Goldplay;font-weight:600">N</text><text transform="matrix(-0.78, -0.63, 0.63, -0.78, 512.62, 164.15)" style="font-size:36.739681243896484px;fill:#009859;font-family:Goldplay-SemiBold, Goldplay;font-weight:600">o</text><text transform="translate(496.17 151.04) rotate(-127.61)" style="font-size:36.739681243896484px;fill:#009859;font-family:Goldplay-SemiBold, Goldplay;font-weight:600">n</text><text transform="translate(483.55 134.54) rotate(-115.64)" style="font-size:36.739681243896484px;fill:#009859;font-family:Goldplay-SemiBold, Goldplay;font-weight:600">-</text><text transform="translate(475.73 119.55) rotate(-102.19)" style="font-size:36.739681243896484px;fill:#009859;font-family:Goldplay-SemiBold, Goldplay;font-weight:600">G</text><text transform="translate(470.11 96.52) rotate(-85.42)" style="font-size:36.739681243896484px;fill:#009859;font-family:Goldplay-SemiBold, Goldplay;font-weight:600">M</text><text transform="translate(472.19 68.05) rotate(-67.64)" style="font-size:36.739681243896484px;fill:#009859;font-family:Goldplay-SemiBold, Goldplay;font-weight:600">O</text><polygon points="571.35 61.61 533.72 122.1 540.08 123.78 579.56 53.71 571.35 61.61" style="fill:#672f25"/><polygon points="579.2 45.94 583.73 46.53 586.06 38.74 582.02 37.69 579.2 45.94" style="fill:#672f25"/><polygon points="525.31 64.07 602.17 98.99 579.76 49.23 525.31 64.07" style="fill:#00945e"/><path d="M145.72,297.05A77.62,77.62,0,1,1,278.58,377.1" style="fill:none;stroke:#10a05b;stroke-miterlimit:10;stroke-width:3.78664005873129px"/><text transform="translate(127.39 308.63) rotate(98.44)" style="font-size:36.739681243896484px;fill:#009859;font-family:Goldplay-SemiBold, Goldplay;font-weight:600">G</text><text transform="translate(124.48 337.64) rotate(84.71)" style="font-size:36.739681243896484px;fill:#009859;font-family:Goldplay-SemiBold, Goldplay;font-weight:600">l</text><text transform="translate(125.36 350.57) rotate(72.45)" style="font-size:36.739681243896484px;fill:#009859;font-family:Goldplay-SemiBold, Goldplay;font-weight:600">u</text><text transform="matrix(0.53, 0.85, -0.85, 0.53, 133.83, 374.45)" style="font-size:36.739681243896484px;fill:#009859;font-family:Goldplay-SemiBold, Goldplay;font-weight:600">t</text><text transform="matrix(0.71, 0.7, -0.7, 0.71, 143.39, 389.89)" style="font-size:36.739681243896484px;fill:#009859;font-family:Goldplay-SemiBold, Goldplay;font-weight:600">e</text><text transform="translate(162.37 407.65) rotate(27.43)" style="font-size:36.739681243896484px;fill:#009859;font-family:Goldplay-SemiBold, Goldplay;font-weight:600">n</text><text transform="translate(185.52 418.44) rotate(15.32)" style="font-size:36.739681243896484px;fill:#009859;font-family:Goldplay-SemiBold, Goldplay;font-weight:600"> </text><text transform="translate(196.4 421.7) rotate(4.15)" style="font-size:36.739681243896484px;fill:#009859;font-family:Goldplay-SemiBold, Goldplay;font-weight:600">F</text><text transform="translate(217.77 422.84) rotate(-7.85)" style="font-size:36.739681243896484px;fill:#009859;font-family:Goldplay-SemiBold, Goldplay;font-weight:600">r</text><text transform="translate(235.53 420.42) rotate(-21.67)" style="font-size:36.739681243896484px;fill:#009859;font-family:Goldplay-SemiBold, Goldplay;font-weight:600">e</text><text transform="matrix(0.78, -0.62, 0.62, 0.78, 259.31, 410.27)" style="font-size:36.739681243896484px;fill:#009859;font-family:Goldplay-SemiBold, Goldplay;font-weight:600">e</text><polygon points="218.97 343.28 225.34 341.96 204 288.15 197.22 288.48 218.97 343.28" style="fill:#e10600"/><circle cx="236.75" cy="307.5" r="16.32" style="fill:#00945e"/><rect x="190.62" y="302.57" width="19.97" height="19.97" rx="1.6" transform="translate(-170.77 316.61) rotate(-57.93)" style="fill:#fffef9"/><rect x="205.42" y="302.93" width="19.97" height="19.97" rx="1.6" transform="translate(-114.89 125.24) rotate(-25.85)" style="fill:#fffef9"/><rect x="217.52" y="301.74" width="19.97" height="19.97" rx="1.6" transform="translate(-149.87 230.97) rotate(-41.8)" style="fill:#fffef9"/><path d="M240.59,311.26H188.75s-12.14,25.95,3.73,56.58c0,0,4.86,3.48,22.19,3.48s22.19-3.48,22.19-3.48C252.74,337.21,240.59,311.26,240.59,311.26Z" style="fill:#db6015"/><path d="M176.46,364.31c-2.32,0-5-.53-6.69-2.5-1.24-1.4-2.4-3.95-.94-8.13a42.68,42.68,0,0,0,2.63-13.76v-.05a42.68,42.68,0,0,0-2.63-13.76c-1.46-4.18-.3-6.73.94-8.13,3.54-4,10.8-2.05,11.61-1.81a72.28,72.28,0,0,0,8.88,1.76l-.79,6.85a76.42,76.42,0,0,1-9.85-2,9.87,9.87,0,0,0-4.88-.21,4.26,4.26,0,0,0,.27,1.13,51.16,51.16,0,0,1,3,16.13v.05a51.16,51.16,0,0,1-3,16.13,4.26,4.26,0,0,0-.27,1.13,9.87,9.87,0,0,0,4.88-.21,76.42,76.42,0,0,1,9.85-2l.79,6.85-.4-3.42.4,3.42a72.28,72.28,0,0,0-8.88,1.76A18.93,18.93,0,0,1,176.46,364.31Z" style="fill:#db6015"/><rect x="184.9" y="307.5" width="59.53" height="5.63" rx="2.57" style="fill:#db6015"/><path d="M366.76,334.32a77.61,77.61,0,1,1,112.18,69.49" style="fill:none;stroke:#10a05b;stroke-miterlimit:10;stroke-width:3.78664005873129px"/><text transform="translate(358.65 362.14) rotate(63.77)" style="font-size:36.739681243896484px;fill:#009859;font-family:Goldplay-SemiBold, Goldplay;font-weight:600">V</text><text transform="translate(371.08 386.12) rotate(47.46)" style="font-size:36.739681243896484px;fill:#009859;font-family:Goldplay-SemiBold, Goldplay;font-weight:600">e</text><text transform="matrix(0.86, 0.51, -0.51, 0.86, 389.07, 404.86)" style="font-size:36.739681243896484px;fill:#009859;font-family:Goldplay-SemiBold, Goldplay;font-weight:600">g</text><text transform="translate(412.71 417.81) rotate(13.5)" style="font-size:36.739681243896484px;fill:#009859;font-family:Goldplay-SemiBold, Goldplay;font-weight:600">a</text><text transform="matrix(1, -0.05, 0.05, 1, 437.07, 423.13)" style="font-size:36.739681243896484px;fill:#009859;font-family:Goldplay-SemiBold, Goldplay;font-weight:600">n</text><circle cx="464.85" cy="312.43" r="17.39" style="fill:#ff6b00"/><path d="M472.55,335.43l-5.91-25.31H418.21l-5.92,25.31s-7.94,20.14,13,28.45c0,0,3.34,2.16,12.33,2.22h9.58c9,0,12.3-2.21,12.3-2.21C480.5,355.57,472.55,335.43,472.55,335.43Z" style="fill:#fdbbcb"/><rect x="437.33" y="314.76" width="9.19" height="3.17" transform="translate(390.72 -224.72) rotate(49)" style="fill:#ff6b00"/><rect x="429.84" y="314.73" width="5.55" height="5.55" transform="translate(277.23 -196.13) rotate(36.89)" style="fill:#fffef9"/><rect x="448.72" y="314.02" width="4.79" height="4.79" transform="translate(-7.26 10.6) rotate(-1.34)" style="fill:#fffef9"/><rect x="416.07" y="326.29" width="4.79" height="4.79" transform="translate(-7.55 9.85) rotate(-1.34)" style="fill:#fffef9"/><rect x="422.2" y="312.88" width="4.79" height="4.79" transform="translate(953.38 306.38) rotate(142.44)" style="fill:#672f25"/><rect x="427.27" y="334.79" width="9.19" height="3.17" transform="translate(922.11 579.91) rotate(168.5)" style="fill:#fffef9"/><rect x="419.55" y="322.46" width="9.19" height="3.17" transform="translate(494.93 853.1) rotate(-135)" style="fill:#ff6b00"/><rect x="439.15" y="323.93" width="5.55" height="5.55" transform="translate(284.62 -199.88) rotate(36.89)" style="fill:#fffef9"/><rect x="416.32" y="334.79" width="9.19" height="3.17" transform="translate(956.41 276.59) rotate(135)" style="fill:#ff6b00"/><rect x="430.61" y="324.67" width="5.55" height="5.55" transform="translate(21.6 -26.78) rotate(3.63)" style="fill:#672f25"/></g></g></svg>